<svg xmlns="http://www.w3.org/2000/svg" width="273.411" height="144" viewBox="0 0 273.411 144">
    <defs>
        <clipPath id="d5wv4um33a">
            <path data-name="Rectangle 21416" style="fill:none" d="M0 0h48.141v76.829H0z"/>
        </clipPath>
        <clipPath id="65gfglh2ob">
            <path data-name="Rectangle 21414" style="fill:none" d="M0 0h43.766v5.373H0z"/>
        </clipPath>
        <clipPath id="9hssns1c2c">
            <path data-name="Rectangle 22152" style="fill:#c7cad9" d="M0 0h22.721v21.007H0z"/>
        </clipPath>
        <clipPath id="eli4r7x0ld">
            <path data-name="Path 15893" d="M4.645 7.716c1.635 1.421 1.9 4.348 1.9 4.348S6.123 8.84 7.579 7.245s4.787-1.562 4.787-1.562-3.272.372-4.907-1.049S5.825 0 5.825 0s.1 2.944-1.361 4.539S0 6.381 0 6.381 3.01 6.3 4.644 7.716" style="fill:#c7cad9"/>
        </clipPath>
        <clipPath id="c0iei2ypee">
            <path data-name="Path 15894" d="M207.172 64.109a6.044 6.044 0 0 1 1.529 3.506s-.337-2.6.838-3.886 3.86-1.26 3.86-1.26-2.639.3-3.958-.846-1.317-3.738-1.317-3.738a6 6 0 0 1-1.1 3.66 6.362 6.362 0 0 1-3.6 1.486 6.4 6.4 0 0 1 3.746 1.077" transform="translate(-203.426 -57.886)" style="fill:#c7cad9"/>
        </clipPath>
        <clipPath id="mby5hm643f">
            <path data-name="Path 15895" d="M103.1 208.1a5.154 5.154 0 0 1 1.3 2.99s-.287-2.217.714-3.315 3.292-1.074 3.292-1.074-2.251.256-3.375-.721-1.124-3.188-1.124-3.188a5.121 5.121 0 0 1-.936 3.122 5.425 5.425 0 0 1-3.071 1.267 5.455 5.455 0 0 1 3.195.918" transform="translate(-99.91 -202.796)" style="fill:#c7cad9"/>
        </clipPath>
    </defs>
    <g data-name="Group 26057">
        <g data-name="Group 26055">
            <path data-name="Path 15891" d="M-218.978-87.81v-13.29l47.06-74.339h10.476v19.569h-6.647l-33.66 53.282v.851h64.5v13.927zm51.633 21.27v-25.311l.106-6.062v-77.53h15.58v108.9zm85.019 1.808q-12.6-.053-21.536-6.647t-13.666-19.2q-4.733-12.6-4.733-30.363 0-17.707 4.759-30.257t13.719-19.143q8.96-6.594 21.456-6.594t21.43 6.62q8.933 6.62 13.693 19.143t4.759 30.23q0 17.814-4.733 30.39t-13.666 19.2q-8.932 6.621-21.481 6.621zM-27.3-87.81v-13.29l47.06-74.339h10.479v19.569h-6.647l-33.66 53.282v.851h64.5v13.927zm51.636 21.27v-25.311l.106-6.062v-77.53h15.58v108.9z" transform="translate(218.978 208.732)" style="fill:#fff"/>
            <g data-name="Group 24561">
                <g data-name="Group 22813" style="clip-path:url(#d5wv4um33a)" transform="translate(112.554 49.485)">
                    <g data-name="Group 22812">
                        <g data-name="Group 22811" style="clip-path:url(#d5wv4um33a)">
                            <g data-name="Group 22810" style="opacity:.2">
                                <g data-name="Group 22809">
                                    <g data-name="Group 22808" style="clip-path:url(#65gfglh2ob)" transform="translate(4.375 71.456)">
                                        <path data-name="Path 11846" d="M13.373 221.124c0 1.483 9.8 2.686 21.884 2.686s21.883-1.2 21.883-2.686-9.8-2.686-21.883-2.686-21.884 1.2-21.884 2.686" transform="translate(-13.373 -218.438)" style="fill-rule:evenodd"/>
                                    </g>
                                </g>
                            </g>
                            <path data-name="Path 11847" d="M9.136 5.8c-.28.114-.518-.074-.776-.1a1.389 1.389 0 0 1-.209-.059c-.913-.248-1.494-.1-1.808.46A1.893 1.893 0 0 0 6.8 8.287a3.615 3.615 0 0 0 .617.379c1.045.561 2.111 1.086 3.119 1.715a10.26 10.26 0 0 1 3.1 2.924c.162.237.264.437.061.712a6.216 6.216 0 0 0-.952 3.161c-.056.506-.113 1.012-.177 1.517s-.069.491-.568.45a5.658 5.658 0 0 0-1.952.068c-.879.237-1.149.721-.843 1.573a7.059 7.059 0 0 0 1.782 2.96 1.1 1.1 0 0 1 .134.2 3.84 3.84 0 0 1-.883.289 1.8 1.8 0 0 0-.991 2.8 5.528 5.528 0 0 0 1.787 1.682 1.378 1.378 0 0 1 .549.381 2.325 2.325 0 0 1-.763.747 7.96 7.96 0 0 0-.645.47 1.328 1.328 0 0 0-.35 1.708 3.69 3.69 0 0 0 2.6 2.233.332.332 0 0 1 .236.16c-.083.2-.248.176-.417.157a2.017 2.017 0 0 1-.906-.243 31.713 31.713 0 0 1-4.905-3.23c-.626-.6-1.286-.381-1.557.452a8.221 8.221 0 0 0-.257 1.948c-.159 2.1-.407 4.2-.537 6.3a37.1 37.1 0 0 1-.6 4.009c-.386 2.244-.86 4.474-1.1 6.743a3.2 3.2 0 0 1-.261.977 8.138 8.138 0 0 0-.415 2.354c-.238 1.852-.6 3.685-.813 5.538-.22 1.955-.637 3.879-.864 5.825a1.733 1.733 0 0 0 .052.86.794.794 0 0 0 1.382.344c.664-.638 1.288-1.319 1.914-2a17.111 17.111 0 0 1 1.565-1.519c.447-.373.607-.341.9.166.2.357.378.732.564 1.1a1.9 1.9 0 0 0 .414.591.951.951 0 0 0 1.456-.151 4.526 4.526 0 0 0 .441-.914 2.591 2.591 0 0 1 .708-1.1 5.494 5.494 0 0 1 .882 1.162c.08.122.161.243.247.36.559.766.817.815 1.626.313.1-.063.2-.131.287-.188.215.055.191.231.212.353a13.359 13.359 0 0 0 1.86 4.777c.218.354.167.555-.148.759-1.6 1.039-1.113 3.846.65 4.566a13.5 13.5 0 0 0 4.236.915 1.078 1.078 0 0 0 .5-.055 2.857 2.857 0 0 1 2.111.116 8.831 8.831 0 0 0 3.073.476 1.751 1.751 0 0 0 1.555-.764.429.429 0 0 1 .6-.21 4.179 4.179 0 0 0 1.87.117 1.536 1.536 0 0 0 1.316-1.012 1.253 1.253 0 0 0-.395-1.447c-.224-.219-.455-.43-.7-.658.741-.293.985-.242 1.438.286a5.851 5.851 0 0 0 3.561 1.791 13.9 13.9 0 0 0 2.684.147 1.486 1.486 0 0 0 .842-.19 2.1 2.1 0 0 1 1.39-.257c.412.012.826.024 1.237 0a1.741 1.741 0 0 0 1.071-.406 1.172 1.172 0 0 1 1.078-.258 2.529 2.529 0 0 0 1.827-.286c.737-.445.841-.891.391-1.628a9.648 9.648 0 0 0-2.226-2.477 16.107 16.107 0 0 0-3.811-2.24c-.557-.237-.559-.256-.237-.772a12.426 12.426 0 0 0 1.592-8.327 7.619 7.619 0 0 1-.211-2.236c1.068.25 1.777 1.166 2.876 1.471-.077-1.185-.423-2.287-.536-3.442 1.814.648 3.223 2.089 5.224 2.473a3.817 3.817 0 0 0-.491-.98c-1.3-2.186-2.623-4.363-3.915-6.555a90.381 90.381 0 0 0-3.756-5.8c-2.068-2.962-4.116-5.94-6.174-8.909-.207-.3-.418-.6-.651-.875a.955.955 0 0 0-1.238-.281c-.546.26-1.107.5-1.623.81a13.362 13.362 0 0 1-3.149 1.273c-.294.087-.425-.04-.472-.276a7.1 7.1 0 0 1-.057-2.1.285.285 0 0 1 .283-.275c.12-.014.24-.039.36-.047 2.834-.173 5.612-.814 8.452-.955a10.088 10.088 0 0 0 4-1.218 2.906 2.906 0 0 0 1.72-2.509 1.454 1.454 0 0 1 1.154-1.46 7.745 7.745 0 0 0 1.782-.811 2.87 2.87 0 0 0 1.518-2.259 7.911 7.911 0 0 0-.341-3.516 2.046 2.046 0 0 0-2.728-1.343 3.379 3.379 0 0 0-1.085.574 2.676 2.676 0 0 1-1.76.577q-3.747-.054-7.494-.126c-.665-.013-.745-.09-.825-.748a14 14 0 0 0-.7-2.665 3.163 3.163 0 0 0-1.329-1.678 2.829 2.829 0 0 1-1.291-1.769 1.824 1.824 0 0 0-.76-1.2c-.41-.24-.395-.559-.373-.924a13.16 13.16 0 0 1 1.608-5.685c.388-.7.763-1.407 1.083-2.138a1.27 1.27 0 0 0-.7-1.8 1.123 1.123 0 0 0-1.631.423 13.716 13.716 0 0 0-.777 1.313c-.148.274-.3.25-.512.093A7.529 7.529 0 0 1 24.7 1.2a2.326 2.326 0 0 0-1.887-.771 1.122 1.122 0 0 0-1.046.651 1.033 1.033 0 0 0 .165 1.154 58.822 58.822 0 0 0 1.565 1.916 2.44 2.44 0 0 1 .613 1.592A10.288 10.288 0 0 1 24 7.771c-.138.813-.222 1.634-.346 2.449-.085.561-.158.619-.728.734-.5.1-1 .18-1.494.308a3.726 3.726 0 0 1-2.078-.039 4.059 4.059 0 0 0-2.227-.051 1.34 1.34 0 0 1-1.438-.435 18.781 18.781 0 0 1-3.127-4.445c-.53-1.089-1.082-2.167-1.6-3.259a2.382 2.382 0 0 0-1.409-1.185.614.614 0 0 0-.855.324 1.956 1.956 0 0 0-.167 1.55c.148.537.322 1.066.49 1.6a1.2 1.2 0 0 1 .115.482" transform="translate(0 -.001)" style="fill:#020101;fill-rule:evenodd"/>
                            <path data-name="Path 11848" d="M49.373 50.182c-.2-.192-.542-.238-.6-.659a9.543 9.543 0 0 1 1.42.035c.47.016.488.017.5-.468a3.463 3.463 0 0 1 .424-1.672 1.7 1.7 0 0 1 2.854-.3c.538.674 1.258 1.234 1.357 2.182.02.184.162.228.319.214a7.084 7.084 0 0 0 2.416-.364c.086-.039.194-.1.272-.079a6.45 6.45 0 0 0 2.582-.187 26.984 26.984 0 0 0 4.787-.858A12.592 12.592 0 0 0 69.4 46.19a1.776 1.776 0 0 0 .816-1.6 12.125 12.125 0 0 0-.192-2.6 3.4 3.4 0 0 0-.228-.686 1.483 1.483 0 0 0-2.261-.619 2.462 2.462 0 0 0-.343.267 2.77 2.77 0 0 1-1.782.715 45.054 45.054 0 0 1-4.8.032c-1.018-.039-2.033-.113-3.05-.174a2.453 2.453 0 0 1-.845-.2 1.064 1.064 0 0 1-.7-.933c-.018-.218-.058-.434-.067-.651a4.241 4.241 0 0 0-1.764-3.287 3.044 3.044 0 0 1-1.365-2.276c-.062-.82-.5-1.1-1.331-1.132a4.467 4.467 0 0 0-1.288.2c-1.22.315-2.44.627-3.653.967a2.753 2.753 0 0 1-1.785-.051 3.541 3.541 0 0 0-4.088 1.356 7.408 7.408 0 0 0-1.548 3.763c-.169 1.466-.607 2.891-.758 4.365a26.164 26.164 0 0 0 1.286 12.173c.241.634.45 1.279.69 1.914a5.833 5.833 0 0 1 .236 3c-.332 2.18-.806 4.333-1.18 6.5a18.166 18.166 0 0 0-.039 4.786c.18 1.931.378 3.865-.445 5.728a9.881 9.881 0 0 0-.47 1.6c-.056.224-.134.511.088.676a.652.652 0 0 0 .819.043c.706-.6 1.239-.238 1.784.244.562.5 1.141.977 1.66 1.525.331.35.5.345.848.038a1.575 1.575 0 0 0 .423-.751c.166-.532.341-1.063.458-1.607.079-.365.258-.462.6-.44.386.024.776 0 1.163-.015a1.369 1.369 0 0 0 .632-.147c.411-.222.46-.455.128-.794a5.338 5.338 0 0 0-.716-.614 5.317 5.317 0 0 1-2.089-3.22 13.865 13.865 0 0 1-.209-4.628c.106-1.109.263-2.213.4-3.319a11.877 11.877 0 0 0 .069-1.743c0-.144-.127-.4.189-.414a4.319 4.319 0 0 1 .79 1.764 11.921 11.921 0 0 1 .279 5.316 9.72 9.72 0 0 0 .652 5.321 9.882 9.882 0 0 0 .971 1.173 1.36 1.36 0 0 1 .345 1.409c-.081.278.143.442.244.651a.875.875 0 0 1-.748 1.353 1.453 1.453 0 0 1-.361.008 1.07 1.07 0 0 0-1.365.924 2.251 2.251 0 0 1-.793 1.1c-.3.281-.628.384-.963.084-.28-.252-.633-.193-.95-.281a2.223 2.223 0 0 1-.858-.825c-.248-.317-.5-.627-.754-.94-.325-.223-.613-.015-.88.115a6.4 6.4 0 0 1-1.292.459 27.793 27.793 0 0 0-.015 4.1 12.56 12.56 0 0 0 1.139 4.613 2.042 2.042 0 0 0 .717.789.527.527 0 0 0 .693.063 6.464 6.464 0 0 1 2.149-.838 9.228 9.228 0 0 1 6.526.887c.188.108.385.2.577.3a1.215 1.215 0 0 0 .7.111c1.58-.353 2.793.424 3.982 1.279.267.191.481.494.879.369a6.144 6.144 0 0 0 2-.842 15.872 15.872 0 0 0 5.533-5.653 6.384 6.384 0 0 0 .786-2.1 15.669 15.669 0 0 0 .529-2.922 14.9 14.9 0 0 0-1.786-7.185A30.664 30.664 0 0 0 58.9 68.4q-2.129-2.288-4.206-4.622a17.661 17.661 0 0 1-2.923-4.742 25.357 25.357 0 0 1-.838-2.851.927.927 0 0 0-.6-.657 10.536 10.536 0 0 1-1.343-.829 1.1 1.1 0 0 1-.4-1.28c.114-.451.492-.179.765-.168a14.088 14.088 0 0 0 4.266-.038c2.442-.162 4.848-.635 7.288-.824a9.931 9.931 0 0 0 3.468-1.014 2.019 2.019 0 0 0 1.146-1.151c.139-.352-.124-.49-.352-.443-1.081.223-2.187.141-3.271.3-.127.258-.236.528-.385.773a1.2 1.2 0 0 1-1.783.481c-.29-.158-.562-.348-.83-.517-.2.136-.246.337-.357.492a1.548 1.548 0 0 1-1.881.664 1.016 1.016 0 0 1-.738-.618 1.416 1.416 0 0 0-.318-.558 6.445 6.445 0 0 0-1.638.137 12.3 12.3 0 0 1-3.09-.135 2.535 2.535 0 0 1-1.507-.621" transform="translate(-25.686 -22.233)" style="fill:#ff7b90;fill-rule:evenodd"/>
                            <path data-name="Path 11849" d="M6.96 127.721a.786.786 0 0 1 1.064.415c.146.243.282.492.422.738.379.208.5-.139.672-.331a3.152 3.152 0 0 1 1.793-1.24 1.2 1.2 0 0 1 .9.61c.182.276.372.546.558.819.319.213.511-.041.645-.234.411-.588.9-1.108 1.358-1.652.009-.655.009-1.31.03-1.964a.891.891 0 0 0-.259-.648 1.4 1.4 0 0 1-.265-1.365 15.356 15.356 0 0 1 .741-2.126 4.558 4.558 0 0 0 .263-3.184 18.62 18.62 0 0 1-.362-5.134 10.386 10.386 0 0 1 .52-3.362 1.167 1.167 0 0 0-.071-1.043 1.924 1.924 0 0 1 .14-2.363c.355-.45.325-.473-.125-.873q-.272-.242-.537-.491a2.806 2.806 0 0 1-.779-3.244c.032-.089.055-.181.092-.308a19.185 19.185 0 0 1-2.481-1.034C10.261 99.144 9.3 98.5 8.33 97.846c-.574-.386-.674-.35-.763.314-.158 1.176-.337 2.351-.43 3.534a97.662 97.662 0 0 1-1.552 10.489 45.234 45.234 0 0 0-.983 6.46 2.409 2.409 0 0 1-.113.716 1.846 1.846 0 0 0-.049 1.274 1.263 1.263 0 0 1-.029.788 29.63 29.63 0 0 0-1.1 5.323c-.146 1.1-.387 2.194-.436 3.311.312.083.414-.183.557-.354a10.659 10.659 0 0 1 1.656-1.479 2.327 2.327 0 0 1 1.868-.5" transform="translate(-1.937 -65.671)" style="fill:#bc5b6f;fill-rule:evenodd"/>
                            <path data-name="Path 11850" d="M98.621 120.092c-2.425-3.745-4.84-7.5-7.283-11.231-.756-1.156-1.707-2.171-2.5-3.31-.968-1.4-1.963-2.769-2.8-4.252-.356-.633-.445-.642-1.1-.371a4.3 4.3 0 0 0-.813.479 9.68 9.68 0 0 1-3.361 1.515c-.6.142-.637.188-.407.79a15.357 15.357 0 0 0 2.541 4.389c1.446 1.734 3.008 3.361 4.582 4.979a29.108 29.108 0 0 1 4.917 6.824 7.827 7.827 0 0 0 .66 1.369 9.912 9.912 0 0 1 2.4.95c.216.123.488.193.393-.248a3.414 3.414 0 0 0-.19-1c-.163-.305-.329-.64-.094-.949a1.009 1.009 0 0 1 1.066-.283 13.415 13.415 0 0 1 1.369.477c.209.062.488.292.608-.129" transform="translate(-53.988 -67.799)" style="fill:#bc5b6f;fill-rule:evenodd"/>
                            <path data-name="Path 11851" d="M57.723 213.584a2.039 2.039 0 0 0-.55-.467c-1.2-.862-2.43-1.68-3.648-2.516a7.512 7.512 0 0 0-4.848-1.153 8.319 8.319 0 0 0-3.961 1.293 1.374 1.374 0 0 0-.62.681 8.408 8.408 0 0 0-.3.817 2.512 2.512 0 0 0 1.293 3.075 4.272 4.272 0 0 0 2.143.6c.557 0 1.116.009 1.67-.035.517-.041.636-.234.5-.726a5.365 5.365 0 0 0-.263-.6 1.043 1.043 0 0 1-.1-.866c.507.417.683 1.063 1.134 1.494a9.74 9.74 0 0 0 4.52.4.678.678 0 0 0 .57-.387c-.131-.563-.52-1.009-.742-1.664a3.251 3.251 0 0 1 1.15.943 4.075 4.075 0 0 0 1.886-.2c.354-.069.342-.406.171-.7" transform="translate(-29.388 -140.92)" style="fill:#ff7b90;fill-rule:evenodd"/>
                            <path data-name="Path 11852" d="M101.785 209.087c.158-.057.216-.26.4-.273.742-.346 1.049-1.076 1.467-1.7a9.584 9.584 0 0 0 .623-1.122 7.622 7.622 0 0 0-1.611-.617.85.85 0 0 0-1.05.358 12.7 12.7 0 0 1-4.751 3.842c-.416.186-.844.347-1.34.551a3.286 3.286 0 0 0 1.283 1.146 8.226 8.226 0 0 0 4.661.73.8.8 0 0 0 .778-.945.964.964 0 0 0-.161-.687 5.222 5.222 0 0 1-2.552.564 13.117 13.117 0 0 1 1.5-1.088 2.124 2.124 0 0 0 .756-.76" transform="translate(-64.276 -138.153)" style="fill:#b25665;fill-rule:evenodd"/>
                            <path data-name="Path 11853" d="M21.018 13.5a1.206 1.206 0 0 0 .68.717 13.485 13.485 0 0 0 1.848 1.008 9.1 9.1 0 0 1 3.678 2.875c.366.446.725.9 1.1 1.364a8.09 8.09 0 0 0 1-1.025c.217-.43-.186-.59-.372-.839a45.136 45.136 0 0 1-4.294-5.985c-.29-.556-.468-1.168-.794-1.707-.126-.207-.157-.535-.521-.506a4.817 4.817 0 0 0 .69 2.7.918.918 0 0 1 .056.957c-.095.3-.253.4-.59.311-.631-.158-1.263-.327-1.905-.434-.4-.067-.773-.027-.576.558" transform="translate(-14.106 -6.325)" style="fill:#bb5b6f;fill-rule:evenodd"/>
                            <path data-name="Path 11854" d="M117.985 207.387a.458.458 0 0 0-.376.289 11.008 11.008 0 0 1-1.714 2.531 12.91 12.91 0 0 0 .634 1.713c.94.479 1.613-.133 2.328-.571a6.872 6.872 0 0 1-1.063-1.338.623.623 0 0 1-.095-.666 25.959 25.959 0 0 0 2.132 2.163 1.437 1.437 0 0 0 .661.259c1.056.194 1.59-.419 1.272-1.462a9.453 9.453 0 0 0-3.78-2.917" transform="translate(-77.984 -139.546)" style="fill:#fe7b90;fill-rule:evenodd"/>
                            <path data-name="Path 11855" d="M67.906 3.132a1.65 1.65 0 0 0 .518 1.231c.348.462.726.9 1.115 1.333a2.358 2.358 0 0 1 .57 1.364 19.255 19.255 0 0 1-.131 4.545 1.281 1.281 0 0 0 .048.806l.917-.14c.2-.069.211-.232.222-.409a24.15 24.15 0 0 1 2.084-8.393c.231-.519.23-.519 0-.814a3.884 3.884 0 0 0-.937 1.258 1.672 1.672 0 0 1-.921.855 1.144 1.144 0 0 1-1.08-.238 36.78 36.78 0 0 1-1.721-1.2c-.194-.141-.377-.42-.687-.2" transform="translate(-45.685 -1.786)" style="fill:#bb5b6f;fill-rule:evenodd"/>
                            <path data-name="Path 11856" d="M59.74 140.668a3.108 3.108 0 0 0-.275-1.556 6.483 6.483 0 0 1-.206-3.292 14.009 14.009 0 0 0-.5-6.722 1.2 1.2 0 0 0-.736-.831 8.507 8.507 0 0 1 .22 3.663 20.572 20.572 0 0 0-.229 4.2 8.372 8.372 0 0 0 1.729 4.54" transform="translate(-39.011 -86.308)" style="fill:#b25665;fill-rule:evenodd"/>
                            <path data-name="Path 11857" d="M28.222 7.933a4.292 4.292 0 0 1 .752 1.39 13.87 13.87 0 0 0 2.281 3.752c.672.816 1.286 1.682 1.9 2.544a9 9 0 0 0 .825.912.643.643 0 0 1 .224.438c.546-.521.565-.537.091-1.076a31.337 31.337 0 0 1-2.266-2.816 35.332 35.332 0 0 1-2.433-4.6c-.128-.259-.245-.525-.384-.779s-.27-.561-.638-.467c-.351.09-.382.391-.352.7" transform="translate(-18.984 -4.856)" style="fill:#82404d;fill-rule:evenodd"/>
                            <path data-name="Path 11858" d="M52.3 177.892a2.946 2.946 0 0 1 .916.507c.283.306.626.26.971-.01a3.092 3.092 0 0 0 1.141-1.71c.082-.333.23-.437.545-.415.265.019.533-.014.8.012a1.083 1.083 0 0 0 .886-1.817q-.158-.2-.317-.394a2.973 2.973 0 0 1-1.929 1.046 1.073 1.073 0 0 0-1 .887 3.5 3.5 0 0 1-.754 1.312 1.371 1.371 0 0 1-1.252.58" transform="translate(-35.189 -117.125)" style="fill:#b15665;fill-rule:evenodd"/>
                            <path data-name="Path 11859" d="M79.494 2.207c.2.2-.005.355-.075.513a22.179 22.179 0 0 0-1.554 4.427c-.221 1.058-.468 2.113-.647 3.178a10.027 10.027 0 0 0-.032 1.5.5.5 0 0 0 .644-.5c.06-.478.18-.951.213-1.43a13.819 13.819 0 0 1 1.98-6.152c.134-.229.239-.474.369-.706.162-.29.288-.6 0-.858a.6.6 0 0 0-.9.026" transform="translate(-51.929 -1.338)" style="fill:#83404d;fill-rule:evenodd"/>
                            <path data-name="Path 11860" d="M31.494 79.008c0-1.109-.012-2.219.007-3.328.007-.4-.173-.508-.524-.483-.168.012-.337 0-.506 0a1.182 1.182 0 0 0-1.186.667 1.215 1.215 0 0 0 .236 1.411c.575.637 1.221 1.21 1.838 1.811l.136-.08" transform="translate(-19.616 -50.596)" style="fill:#83404d;fill-rule:evenodd"/>
                            <path data-name="Path 11861" d="M39.173 111.247a5.1 5.1 0 0 0-.472-3.938c-.068-.127-.138-.231-.33-.214a1.242 1.242 0 0 0-1.162 1.521 3.456 3.456 0 0 0 1 1.818c.279.261.585.493.968.813" transform="translate(-25.015 -72.061)" style="fill:#823f4d;fill-rule:evenodd"/>
                            <path data-name="Path 11862" d="M129.753 158.659a.215.215 0 0 1-.307.07 21.608 21.608 0 0 0-.993-.413 2.665 2.665 0 0 0-.968-.24c-.346 0-.715-.014-.864.358a.862.862 0 0 0 .183 1.109c.05-.262-.209-.5-.04-.829.906.29 1.473 1.168 2.334 1.459.912.308 1.561 1.02 2.508 1.391a5.122 5.122 0 0 0-.868-1.49c-.306-.486-.655-.946-.985-1.416" transform="translate(-85.121 -106.365)" style="fill:#823f4d;fill-rule:evenodd"/>
                            <path data-name="Path 11863" d="m34.537 94.5-.752-3.795c-.044-.221-.173-.287-.365-.172-.229.137-.448.29-.67.437-.908.605-1.035.733-.425 1.894a3.9 3.9 0 0 0 2.212 1.636" transform="translate(-21.498 -60.879)" style="fill:#823f4c;fill-rule:evenodd"/>
                            <path data-name="Path 11864" d="M82.32 213.777a.862.862 0 0 1-.442-.226 7.779 7.779 0 0 0-2.5-1.545 2.919 2.919 0 0 0-1.771-.091 7.225 7.225 0 0 1-.852.1c.712.452 1.414.917 2.1 1.407a3.425 3.425 0 0 0 2.486.571 2.18 2.18 0 0 0 .975-.219" transform="translate(-51.649 -142.53)" style="fill:#b15564;fill-rule:evenodd"/>
                            <path data-name="Path 11865" d="M6.521 189.174c-.628-.5-1.192-.147-1.7.19a7.623 7.623 0 0 0-2.159 1.966.971.971 0 0 1-.221.177c-.225.343-.108.75-.206 1.121-.05.188.174.263.314.349s.231.011.317-.081c.2-.212.4-.426.588-.642a30.467 30.467 0 0 1 3.068-3.08" transform="translate(-1.498 -127.124)" style="fill:#833f4d;fill-rule:evenodd"/>
                            <path data-name="Path 11866" d="M79.828 78.59c.214-.014.527-.034.84-.058.292-.022.427-.142.365-.47a2.6 2.6 0 0 0-.99-1.786.87.87 0 0 0-1.326.2 3.262 3.262 0 0 0-.523 1.707c-.033.238.149.274.31.32a5.444 5.444 0 0 0 1.324.091" transform="translate(-52.612 -51.175)" style="fill:#e2e8e6;fill-rule:evenodd"/>
                            <path data-name="Path 11867" d="M32.339 63.544c.124-1.1.252-2.054.335-3.013.059-.678-.088-.8-.78-.751a11.05 11.05 0 0 0-1.006.138c-.283.048-.456.238-.373.515a5.62 5.62 0 0 0 1.824 3.111" transform="translate(-20.519 -40.217)" style="fill:#823f4c;fill-rule:evenodd"/>
                            <path data-name="Path 11868" d="M82.386 222.13c-.083.581-.085.619-.613.593a5.778 5.778 0 0 0-1.444.3c.65 1.386.569 1.3 2.13 1.288a1.874 1.874 0 0 0 1.108-.253c.447-.309.495-.627.1-1.005a4.518 4.518 0 0 0-1.277-.925" transform="translate(-54.051 -149.466)" style="fill:#b15564;fill-rule:evenodd"/>
                            <path data-name="Path 11869" d="M72.412 85.438a.87.87 0 0 0 .643.62 4.779 4.779 0 0 0 1.478.3c.336-.007.674.061 1 .074a6.721 6.721 0 0 0 3.108-.371c-.24-.582-.242-.611-.809-.566-1.134.091-2.269.107-3.406.117a8.589 8.589 0 0 1-2.017-.17" transform="translate(-48.724 -57.489)" style="fill:#b25766;fill-rule:evenodd"/>
                            <path data-name="Path 11870" d="M68.612 227.041a5.3 5.3 0 0 1-2.716.234 17.619 17.619 0 0 0-2.374-.245 1.932 1.932 0 0 0 1.195.872 8.6 8.6 0 0 0 3.413.311c.813-.139.929-.431.482-1.172" transform="translate(-42.742 -152.762)" style="fill:#b15564;fill-rule:evenodd"/>
                            <path data-name="Path 11871" d="M110.693 82.328a5.043 5.043 0 0 0 2.438.015c.259-.061.518-.12.78-.165a.307.307 0 0 1 .406.293c.193-.162.14-.4.178-.606.17-.911.081-1.009-.789-.827-.849.178-1.675.454-2.538.568-.428.056-.345.46-.474.721" transform="translate(-74.483 -54.478)" style="fill:#b05665;fill-rule:evenodd"/>
                            <path data-name="Path 11872" d="M70.22 94.5a.6.6 0 0 0-.792-.026 1.022 1.022 0 0 0-.174 1.022 1.226 1.226 0 0 0 .5.606 10.476 10.476 0 0 0 1.425.86 1.439 1.439 0 0 1 .623.472c-.052-.529-.114-1.057-.154-1.586a.768.768 0 0 0-.71-.768 3.341 3.341 0 0 1-1.467-.5l.753-.076" transform="translate(-46.555 -63.474)" style="fill:#b15665;fill-rule:evenodd"/>
                            <path data-name="Path 11873" d="M120.161 219.5a2.309 2.309 0 0 0-.88.292 2.1 2.1 0 0 1-1.449.279c.032.19.076.378.094.569.058.6.054.61.678.617a3.911 3.911 0 0 0 1.3-.105c.718-.236.883-.584.557-1.253a.763.763 0 0 0-.3-.4" transform="translate(-79.287 -147.696)" style="fill:#b15564;fill-rule:evenodd"/>
                            <path data-name="Path 11874" d="M122.254 164.126c-.044.092-.028.265-.214.167-.316-.167-.636-.328-.941-.513a2.47 2.47 0 0 0-1.641-.356 3.23 3.23 0 0 0 1.1 1.317 18.72 18.72 0 0 1 1.774 1.251 4.058 4.058 0 0 0-.082-1.866" transform="translate(-80.38 -109.949)" style="fill:#823f4c;fill-rule:evenodd"/>
                            <path data-name="Path 11875" d="M33.9 187.007a2.958 2.958 0 0 0-1.267 1.256c-.189.275-.337.6-.736.629a5.812 5.812 0 0 0 .752.97c.209.211.378.192.52-.055a2.547 2.547 0 0 1 .7-1c.067-.045.055-.228.055-.347 0-.484-.013-.97-.02-1.454" transform="translate(-21.463 -125.832)" style="fill:#823f4c;fill-rule:evenodd"/>
                            <path data-name="Path 11876" d="M67.918 2.944c.413.049.629.411.948.61.546.341 1.056.74 1.6 1.091.314.2.656.338.944-.064-.3-.015-.447-.253-.622-.445-.418-.461-.816-.943-1.258-1.38a1.073 1.073 0 0 0-1.374-.221.4.4 0 0 0-.234.409" transform="translate(-45.698 -1.598)" style="fill:#81404d;fill-rule:evenodd"/>
                            <path data-name="Path 11877" d="M22.362 188.341a1.284 1.284 0 0 0-1.344.5 7.118 7.118 0 0 0-.759.875.385.385 0 0 1-.361.2 2.557 2.557 0 0 0 1 1.331 1.615 1.615 0 0 0 .423-.865 5.587 5.587 0 0 1 1.042-2.038" transform="translate(-13.389 -126.71)" style="fill:#823f4c;fill-rule:evenodd"/>
                            <path data-name="Path 11878" d="M109.418 216.842a20.957 20.957 0 0 0-2.55 1.9 3.03 3.03 0 0 0 2.85-.621c-.1-.428-.4-.81-.3-1.284" transform="translate(-71.909 -145.908)" style="fill:#fc7a8f;fill-rule:evenodd"/>
                            <path data-name="Path 11879" d="M129.861 216.3c-.008.145-.012.29-.023.435-.046.67-.406.983-1.048.858a3.7 3.7 0 0 0-.862-.09c.251.893.251.89 1.167.888a2.756 2.756 0 0 0 1.057-.185c.57-.234.691-.553.372-1.065a2.96 2.96 0 0 0-.662-.841" transform="translate(-86.08 -145.546)" style="fill:#b05564;fill-rule:evenodd"/>
                            <path data-name="Path 11880" d="M92.773 85.252c.266.925.686 1.3 1.325 1.225.667-.074 1-.516 1.007-1.343a13.808 13.808 0 0 0-2.332.118" transform="translate(-62.425 -57.267)" style="fill:#dee6e4;fill-rule:evenodd"/>
                            <path data-name="Path 11881" d="M40.632 179.4a.745.745 0 0 0 .863-.054 4.17 4.17 0 0 1 1.309-.52 1.609 1.609 0 0 0-.471-.527 1.331 1.331 0 0 0-1.633.126 1.482 1.482 0 0 0-.067.975" transform="translate(-27.308 -119.826)" style="fill:#b05665;fill-rule:evenodd"/>
                            <path data-name="Path 11882" d="M104.981 83.814a9.7 9.7 0 0 0-1.971.327c.257.7.67 1.034 1.181.968s.74-.412.79-1.3" transform="translate(-69.313 -56.396)" style="fill:#d9e1df;fill-rule:evenodd"/>
                            <path data-name="Path 11883" d="M20.858 19.49c0-.328.12-.512.481-.412a19.452 19.452 0 0 0 1.963.465c.486.082.485.089.627-.488a.413.413 0 0 1-.567.1c-.47-.24-.955-.455-1.436-.674-.285-.13-.6-.3-.866-.015s-.488.615-.2 1.026" transform="translate(-13.946 -12.319)" style="fill:#80404d;fill-rule:evenodd"/>
                            <path data-name="Path 11884" d="m40.373 186.217.015-4.1c-.029.037-.082.072-.085.111a22.44 22.44 0 0 0 0 3.86.4.4 0 0 0 .066.126" transform="translate(-27.065 -122.544)" style="fill:#b05665;fill-rule:evenodd"/>
                            <path data-name="Path 11885" d="M40.79 124.517a2.3 2.3 0 0 0 .36-1.362c-.727.5-.777.688-.36 1.362" transform="translate(-27.269 -82.868)" style="fill:#773a47;fill-rule:evenodd"/>
                            <path data-name="Path 11886" d="M73.77 148.036a42 42 0 0 0 .333 4.679 27.884 27.884 0 0 0 .709 3.854 8.7 8.7 0 0 0 3.382 4.849 2.759 2.759 0 0 0 2.149.443 7.7 7.7 0 0 0 5.08-2.955 9.954 9.954 0 0 0 2.313-4.624 14.779 14.779 0 0 0-.149-4.633 18.184 18.184 0 0 0-6.316-10.583 9.232 9.232 0 0 0-1.353-.977 3.627 3.627 0 0 0-5.269 1.747 9.621 9.621 0 0 0-.725 3.17 23.947 23.947 0 0 0-.155 5.03" transform="translate(-49.573 -92.556)" style="fill:#050203;fill-rule:evenodd"/>
                            <path data-name="Path 11887" d="M58.625 53.882c-.4.009-.586.15-.621.551a2.2 2.2 0 0 0 .585 1.584.443.443 0 0 0 .7-.006 1.3 1.3 0 0 0-.058-1.941.892.892 0 0 0-.606-.188" transform="translate(-39.025 -36.256)" style="fill:#040203;fill-rule:evenodd"/>
                            <path data-name="Path 11888" d="M81.707 48.661a1.749 1.749 0 0 0 .775 1.368c.181.114.295.086.412-.095a1.55 1.55 0 0 0-.419-2c-.128-.083-.257-.14-.4-.033a.806.806 0 0 0-.37.76" transform="translate(-54.978 -32.192)" style="fill:#070404;fill-rule:evenodd"/>
                            <path data-name="Path 11889" d="M128.509 62.273c.029.178.067.414.107.65.029.17.069.343.272.376a.429.429 0 0 0 .372-.181 1.275 1.275 0 0 0 .374-.908.741.741 0 0 0-.741-.722c-.3.024-.411.238-.384.784" transform="translate(-86.468 -41.373)" style="fill:#0c0607;fill-rule:evenodd"/>
                            <path data-name="Path 11890" d="M87.961 153.173a15.836 15.836 0 0 0-4.161-10.432 23.878 23.878 0 0 0-2.3-2.329 7 7 0 0 0-1.548-1.073 2.95 2.95 0 0 0-4.125 1.364 10.831 10.831 0 0 0-.983 3.1c-.2 1.127-.134 2.27-.255 3.4a8.57 8.57 0 0 0 .136 1.807 47.638 47.638 0 0 0 .865 6.91 20.662 20.662 0 0 0 .913 2.831 7.169 7.169 0 0 0 2.327 2.922 2.579 2.579 0 0 0 1.62.543 5.892 5.892 0 0 0 4.839-2.228 14.926 14.926 0 0 0 2.237-3.893 7.456 7.456 0 0 0 .432-2.929" transform="translate(-50.18 -93.514)" style="fill:#bc5b6f;fill-rule:evenodd"/>
                        </g>
                    </g>
                </g>
            </g>
            <g data-name="Group 26059" transform="rotate(-16 145.852 -501.732)">
                <ellipse data-name="Ellipse 1121" cx="29.5" cy="11" rx="29.5" ry="11" style="fill:#412732"/>
                <text transform="translate(30 15)" style="font-size:14px;font-family:Inter-Medium,Inter;font-weight:500;fill:#ff7b90"><tspan x="-16.366" y="0">Error</tspan></text>
            </g>
            <g data-name="Group 26062">
                <g data-name="Group 26073" style="clip-path:url(#9hssns1c2c)" transform="translate(205.203)">
                    <g data-name="Group 26072">
                        <g data-name="Group 26071" style="clip-path:url(#9hssns1c2c)">
                            <g data-name="Group 26070" style="opacity:.4;isolation:isolate">
                                <g data-name="Group 26069">
                                    <g data-name="Group 26068" style="clip-path:url(#9hssns1c2c)">
                                        <g data-name="Group 26063">
                                            <g data-name="Group 26062" style="clip-path:url(#eli4r7x0ld)">
                                                <path data-name="Rectangle 22147" style="fill:#c7cad9" d="M0 0h12.365v12.064H0z"/>
                                            </g>
                                        </g>
                                        <g data-name="Group 26065">
                                            <g data-name="Group 26064" style="clip-path:url(#c0iei2ypee)" transform="translate(12.748 3.628)">
                                                <path data-name="Rectangle 22148" style="fill:#c7cad9" d="M0 0h9.973v9.73H0z"/>
                                            </g>
                                        </g>
                                        <g data-name="Group 26067">
                                            <g data-name="Group 26066" style="clip-path:url(#mby5hm643f)" transform="translate(6.261 12.709)">
                                                <path data-name="Rectangle 22149" style="fill:#c7cad9" d="M0 0h8.505v8.298H0z"/>
                                            </g>
                                        </g>
                                    </g>
                                </g>
                            </g>
                        </g>
                    </g>
                </g>
            </g>
        </g>
    </g>
</svg>
