<svg data-name="Layer 2" xmlns="http://www.w3.org/2000/svg" width="20" height="20" viewBox="0 0 20 20">
    <g data-name="invisible box">
        <path data-name="Rectangle 20001" style="fill:none" d="M0 0h20v20H0z"/>
    </g>
    <g data-name="Q3 icons">
        <path data-name="Path 11780" d="m5.215.25-4.958 5a.792.792 0 0 0 0 1.167l4.958 5a.875.875 0 0 0 1.125.083.792.792 0 0 0 .083-1.25L2.84 6.666h8.833a.833.833 0 1 0 0-1.667H2.84l3.583-3.583A.792.792 0 0 0 6.34.166.875.875 0 0 0 5.215.25z" transform="rotate(-90 10.209 6.044)" style="fill:#636780"/>
    </g>
</svg>
