<svg xmlns="http://www.w3.org/2000/svg" width="28" height="28" viewBox="0 0 28 28">
    <g data-name="Group 21526">
        <g data-name="Layer 2">
            <g data-name="invisible box">
                <path data-name="Rectangle 20001" style="fill:none" d="M0 0h28v28H0z"/>
            </g>
            <g data-name="Q3 icons">
                <path data-name="Path 11780" d="m16.285 10.35-6.942 7a1.108 1.108 0 0 0 0 1.633l6.942 7a1.225 1.225 0 0 0 1.575.117 1.108 1.108 0 0 0 .117-1.75l-5.017-5.016h12.367a1.167 1.167 0 1 0 0-2.333H12.96l5.017-5.017a1.108 1.108 0 0 0-.117-1.75 1.225 1.225 0 0 0-1.575.117z" transform="translate(-3.744 -4.167)" style="fill:#636780"/>
            </g>
        </g>
    </g>
</svg>
