<svg xmlns="http://www.w3.org/2000/svg" width="142.352" height="142.352" viewBox="0 0 142.352 142.352">
    <defs>
        <clipPath id="tdjb1v3w3a">
            <path data-name="Rectangle 25521" style="fill:#fff" d="M0 0h76.709v98.551H0z"/>
        </clipPath>
    </defs>
    <g data-name="Group 35880">
        <g data-name="Group 35878">
            <g data-name="Group 35876">
                <g data-name="Group 35875" style="clip-path:url(#tdjb1v3w3a)" transform="translate(32.85 16.425)">
                    <path data-name="Path 20334" d="M.126 587.074H76.8a23.521 23.521 0 0 0-3.24-11.572H3.367a23.562 23.562 0 0 0-3.241 11.572" transform="translate(-.11 -500.423)" style="fill:#ff4a4a"/>
                    <path data-name="Path 20335" d="m.016 664.2-.006.165-.01.216V676.1h76.709v-11.519l-.013-.216-.006-.165z" transform="translate(0 -577.551)" style="fill:#fff"/>
                    <path data-name="Path 20336" d="M76.463 485.269a23.23 23.23 0 0 0-1.779-.089h-6.44a8.177 8.177 0 0 1-16.354 0h-6.44c-.6 0-1.19.044-1.778.089A23.735 23.735 0 0 0 25.065 496.8l-.094.166h70.191l-.1-.166a23.729 23.729 0 0 0-18.6-11.528" transform="translate(-21.713 -421.885)" style="fill:#fff"/>
                    <path data-name="Path 20337" d="M231.365 485.18h-.056a8.177 8.177 0 0 0 16.354 0h-.056a27.8 27.8 0 0 1-16.242 0" transform="translate(-201.133 -421.885)" style="fill:#fff"/>
                    <path data-name="Path 20338" d="M38.887 36.763v2.067a6.551 6.551 0 0 0 6.667 6.411h.391a26.761 26.761 0 0 0 18.1 18.053 27.814 27.814 0 0 0 16.242 0 26.743 26.743 0 0 0 18.1-18.053h.4a6.549 6.549 0 0 0 6.663-6.411v-2.067a6.475 6.475 0 0 0-5.245-6.249 24.169 24.169 0 0 0 .18-2.806l-.013-.268a16.621 16.621 0 0 0-.108-2.135A25.14 25.14 0 0 0 95.98 13.45a25.5 25.5 0 0 0-4.266-4.779 25.182 25.182 0 0 0-16.02-6.238l-.312-.244a.976.976 0 0 0-.749-.341 1.529 1.529 0 0 0-1.04.555H73.5C72.021.914 70.908 0 69.954 0h-.005a22.892 22.892 0 0 0-6.541 2.609c-.3.228-.644.52-1 .839a25.307 25.307 0 0 0-18.129 24.26c0 .176.014.347.018.519a20.173 20.173 0 0 0 .085 2.287 6.447 6.447 0 0 0-5.492 6.249m60.61-2.514a2.636 2.636 0 0 1 2.03 2.514v2.067a2.672 2.672 0 0 1-2.355 2.6 25.058 25.058 0 0 0 .208-3.09 23.321 23.321 0 0 0-.221-2.985c.116-.368.234-.734.337-1.107M49.162 35c.081-.509.193-1 .306-1.5 3.2-2.271 7.29-5.8 8.852-8.587 0 0 25.856 6.06 35.275 6.752.272.022.528.033.771.035a21.921 21.921 0 0 1 .8 3.3 20.166 20.166 0 0 1 .148 5.746 21.19 21.19 0 0 1-.824 3.935 23.551 23.551 0 0 1-44.655 0A20.609 20.609 0 0 1 49.162 35m-6.353 1.765a2.655 2.655 0 0 1 2.3-2.576c.005.5.022 1 .035 1.5a21.881 21.881 0 0 0-.186 2.655 24.824 24.824 0 0 0 .209 3.09 2.673 2.673 0 0 1-2.355-2.6z" transform="translate(-33.814 .001)" style="fill:#fff"/>
                    <path data-name="Path 20339" d="M166.762 260.173c0-3.21-4.213-5.813-9.411-5.813-.32 0-.64.011-.95.031l-11.214-.031h-12.3c-5.2 0-9.412 2.6-9.412 5.813s4.214 5.813 9.412 5.813a13.784 13.784 0 0 0 5.29-1 9.723 9.723 0 0 0 1.472-.771l5.787-3.031 5.055 2.969a12.651 12.651 0 0 0 6.861 1.843c5.2 0 9.411-2.6 9.411-5.813m-33.877 2.768c-3.951 0-6.367-1.792-6.367-2.768s2.416-2.769 6.367-2.769 6.364 1.792 6.364 2.769-2.417 2.768-6.364 2.768m18.1-2.768c0-.977 2.417-2.769 6.366-2.769s6.367 1.792 6.367 2.769-2.417 2.768-6.367 2.768-6.366-1.792-6.366-2.768" transform="translate(-107.365 -221.177)" style="fill:#fff"/>
                </g>
            </g>
            <g data-name="Group 35877">
                <path data-name="Ellipse 1331" d="M70.176 4.475a65.7 65.7 0 1 0 65.7 65.7 65.7 65.7 0 0 0-65.7-65.7m0-5.475A71.176 71.176 0 0 1 120.5 120.5 71.176 71.176 0 0 1 19.847 19.847 70.71 70.71 0 0 1 70.176-1z" transform="translate(1 1)" style="fill:#fe4a4a"/>
                <path data-name="Path 20340" d="m-6.115 108.5-4.275-3.42L73.924-.312l4.276 3.42z" transform="translate(40.007 17.082)" style="fill:#fe4a4a"/>
            </g>
        </g>
    </g>
</svg>
