<svg xmlns="http://www.w3.org/2000/svg" width="16" height="16" viewBox="0 0 16 16">
    <g data-name="Group 17229" transform="translate(-106 -420)">
        <rect data-name="Rectangle 18548" width="16" height="16" rx="8" transform="translate(106 420)" style="fill:none"/>
        <path d="M7.769 6.75 9.75 8.725v-.1A1.875 1.875 0 0 0 7.875 6.75h-.106m-2.687.5.969.969A1.722 1.722 0 0 0 6 8.625 1.875 1.875 0 0 0 7.875 10.5a1.763 1.763 0 0 0 .406-.05l.969.969A3.1 3.1 0 0 1 5.081 7.25M1.625 3.794 3.05 5.219l.281.281A7.4 7.4 0 0 0 1 8.625a7.389 7.389 0 0 0 9.612 4.163l.269.262 1.825 1.825.794-.794L2.419 3m5.456 2.5A3.125 3.125 0 0 1 11 8.625a3 3 0 0 1-.225 1.137l1.831 1.831a7.4 7.4 0 0 0 2.144-2.968 7.381 7.381 0 0 0-9.375-4.25l1.356 1.344A3.156 3.156 0 0 1 7.875 5.5z" transform="translate(106 419)" style="fill:#696c80"/>
    </g>
</svg>
