<svg xmlns="http://www.w3.org/2000/svg" width="32" height="32" viewBox="0 0 32 32">
    <g data-name="Group 31392" transform="translate(-153.33 -373.33)">
        <rect data-name="Rectangle 22014" width="32" height="32" rx="16" transform="translate(153.33 373.33)" style="fill:#1c1e29"/>
        <g data-name="Group 24647">
            <g data-name="invisible box">
                <path data-name="Rectangle 21638" transform="translate(159.331 379.331)" style="fill:none" d="M0 0h20v20H0z"/>
            </g>
            <path data-name="Path 12008" d="M12.615.3a1.05 1.05 0 0 0-1.35-.1.95.95 0 0 0-.1 1.5l2.3 2.3H6a1 1 0 1 0 0 2h7.465l-2.3 2.3a.95.95 0 0 0 .1 1.5 1.05 1.05 0 0 0 1.35-.1l3.95-4a.95.95 0 0 0 0-1.4z" transform="rotate(90 -102.033 276.363)" style="fill:#7b839e"/>
        </g>
    </g>
</svg>
