<svg xmlns="http://www.w3.org/2000/svg" width="16" height="16" viewBox="0 0 16 16">
    <g data-name="Group 31307" transform="rotate(180 8 8)">
        <circle data-name="Ellipse 595" cx="8" cy="8" r="8" style="fill:none;opacity:.44"/>
        <path data-name="Path 11462" d="M3.167 4a.831.831 0 0 1-.589-.244L-.756.423a.833.833 0 0 1 0-1.179.833.833 0 0 1 1.179 0l2.744 2.744L5.911-.756a.833.833 0 0 1 1.179 0 .833.833 0 0 1 0 1.179L3.756 3.756A.831.831 0 0 1 3.167 4z" transform="rotate(180 5.667 4.5)" style="fill:#696c80"/>
    </g>
</svg>
