<svg xmlns="http://www.w3.org/2000/svg" xmlns:xlink="http://www.w3.org/1999/xlink" width="752" height="207"><defs><linearGradient id="linear-gradient" x1="1.156" y1="1.185" x2=".887" y2=".353" gradientUnits="objectBoundingBox"><stop offset="0" stop-color="#82b1ff"/><stop offset="1" stop-color="#004ce6"/></linearGradient><linearGradient id="linear-gradient-2" x1="1.156" y1="-.185" x2=".887" y2=".647" xlink:href="#linear-gradient"/><linearGradient id="linear-gradient-3" x1=".5" x2=".5" y2="1" gradientUnits="objectBoundingBox"><stop offset="0" stop-color="#82b1ff"/><stop offset=".34" stop-color="#2962ff"/><stop offset=".626" stop-color="#0098ff"/><stop offset="1" stop-color="#004ce6"/></linearGradient><linearGradient id="linear-gradient-4" x1=".5" x2=".5" y2="1" gradientUnits="objectBoundingBox"><stop offset="0" stop-color="#448aff"/><stop offset=".34" stop-color="#00cff3"/><stop offset=".626" stop-color="#0098ff"/><stop offset="1" stop-color="#004ce6"/></linearGradient><clipPath id="clip-path"><path id="Rectangle_18585" data-name="Rectangle 18585" d="M20 0h712a20 20 0 0 1 20 20v187H0V20A20 20 0 0 1 20 0z" transform="translate(536 197)" style="fill:#e1bee7"/></clipPath><clipPath id="clip-path-2"><circle id="Ellipse_624" data-name="Ellipse 624" cx="56.76" cy="56.76" r="56.76" style="stroke:#707070;fill:#fff"/></clipPath><style>.cls-15,.cls-16,.cls-5{fill:#fff}.cls-15{isolation:isolate}.cls-11{fill:#004ce6}.cls-12{fill:url(#linear-gradient-4)}.cls-15{opacity:.05}.cls-16{opacity:.1}</style></defs><g id="Mask_Group_276" data-name="Mask Group 276" transform="translate(-536 -197)" style="clip-path:url(#clip-path)"><g id="Group_16479" data-name="Group 16479" transform="translate(773.201 225.779)"><g id="Group_16525" data-name="Group 16525" transform="translate(317.558 5.861)"><g id="Group_16471" data-name="Group 16471" transform="translate(0 45.077)" style="opacity:.4"><path id="Path_11488" data-name="Path 11488" class="cls-5" d="M20.756 67.241h-.169c0-3.92-2.325-7.116-5.177-7.116v-.162c2.859 0 5.177-3.2 5.177-7.123h.169c0 3.926 2.325 7.123 5.183 7.123v.162c-2.865 0-5.183 3.197-5.183 7.116z" transform="translate(109.624 -52.84)"/><path id="Path_11489" data-name="Path 11489" class="cls-5" d="M18.855 62.121h-.109c0-2.526-1.5-4.586-3.336-4.586v-.1c1.842 0 3.336-2.06 3.336-4.59h.109c0 2.53 1.5 4.59 3.34 4.59v.1c-1.846 0-3.34 2.06-3.34 4.586z" transform="translate(104.739 -40.614)"/><path id="Path_11491" data-name="Path 11491" class="cls-5" d="M18.75 62.12h.109c0-2.526 1.5-4.586 3.336-4.586v-.1c-1.842 0-3.336-2.06-3.336-4.59h-.109c0 2.53-1.5 4.59-3.34 4.59v.1c1.847.001 3.34 2.061 3.34 4.586z" transform="translate(-15.41 -40.615)"/></g><g id="Mask_Group_275" data-name="Mask Group 275" transform="translate(.121)" style="isolation:isolate;mix-blend-mode:luminosity;clip-path:url(#clip-path-2);opacity:.4"><g id="Group_16475" data-name="Group 16475" transform="translate(-9.074 8.133)"><g id="Group_16474" data-name="Group 16474" style="opacity:.9"><g id="Group_16472" data-name="Group 16472" transform="rotate(-166 60.696 45.934)"><path id="Path_11492" data-name="Path 11492" d="M60.512 30.54c-.123-.148-.049-.32-.059-.481l-.024-.354c0-.032-.007-.064-.011-.1a39.955 39.955 0 0 0-.891-5.124 37.714 37.714 0 0 0-1.82-6.06 32.553 32.553 0 0 0-3-6.167A27.909 27.909 0 0 0 50.619 6.9c-.1-.106-.223-.2-.335-.293l-.067.071a24.613 24.613 0 0 1 3.271 5.1 3.291 3.291 0 0 0 .323.692c.013.016.026.032.041.047l.765 2.11a3.19 3.19 0 0 1 .369.983c.278.936.543 1.878.813 2.817l.022.076.08.672c.02.031.053.06.06.093a39.688 39.688 0 0 1 .7 4.759c.12.186.055.405.073.609a.473.473 0 0 0 .075.228c.023 1.414.207 2.821.15 4.237v.494q0 .588.007 1.174-.036 2.013-.238 4.015l.007.119v.032c-.058.535-.1 1.074-.18 1.6-.205 1.322-.43 2.639-.647 3.958l-.007.042-.162.681c-.091.416-.176.833-.274 1.247-.32 1.35-.734 2.674-1.14 4l-.017.055-.236.605a18.25 18.25 0 0 1-1.183 2.8c.111-1.115.045-2.221.052-3.327v-.902c-.027-.3-.048-.6-.08-.9a14.8 14.8 0 0 0-.61-3.121 1.012 1.012 0 0 0-.1-.142c-.086-.116-.167-.233-.048-.376v-.011c-.173.009-.187-.145-.241-.248-.117-.223-.217-.456-.344-.674a3.213 3.213 0 0 0-2.536-1.83 8.414 8.414 0 0 0-6.408 2.083 1.235 1.235 0 0 1-.492.3 1.542 1.542 0 0 1-.573.683l-.087.06a11.481 11.481 0 0 0-1.6 2.371c-.453.817-.74 1.706-1.121 2.555v.156c-.048.129-.1.255-.144.387-.3 1-.545 2.007-.773 3.022q-.152.909-.3 1.818c-.01.129.042.27-.071.38l-.071.453a.133.133 0 0 1 0 .017c0 .12-.005.241-.008.361a2.368 2.368 0 0 1 0 .3c-.217 1.533-.195 3.08-.3 4.621 0 .589-.005 1.18.008 1.769 0 .218-.072.448.063.653v2.947c.133.163.042.357.077.534v.152c.158.32.034.659.071.987a13.313 13.313 0 0 0 .106 1.912 26.388 26.388 0 0 0 .393 2.731l.023.12h-.058c-.042-.029-.083-.058-.126-.084-.332-.2-.707-.32-1.048-.5-.95-.5-1.9-1.017-2.842-1.526h-.008q-2.448-1.484-4.761-3.171l-.014-.01-.818-.673a43.727 43.727 0 0 1-4.811-4.265c-.292-.292-.543-.624-.864-.888l-.063-.082-.4-.52a13.463 13.463 0 0 1-1.352-1.554 29.936 29.936 0 0 1-2.36-3.293l-.382-.533-.039-.071a11.907 11.907 0 0 1-.1-.192 17.271 17.271 0 0 1-1.22-2.236 17.107 17.107 0 0 1-1.358-2.88l-.3-.607-.018-.054q-.485-1.448-.972-2.894a.013.013 0 0 0 0-.005c-.166-.709-.4-1.4-.521-2.122a9.486 9.486 0 0 1-.232-.939v-.045a44.55 44.55 0 0 1-.607-4.848c0-.126.005-.252.008-.378l-.02-.386a33.858 33.858 0 0 1-.061-1.831c0-1.08.127-2.155.08-3.235a.414.414 0 0 0 .07-.327.785.785 0 0 1 0-.133c.033-.251-.066-.517.076-.758a13.24 13.24 0 0 1 .139-1.839c.09-.741.161-1.484.241-2.227a.135.135 0 0 1 0-.017c.089-.076.058-.183.077-.279a6.488 6.488 0 0 1 .224-1.165 1.792 1.792 0 0 1 .011-.264c.289-1.538.665-3.055 1.055-4.569l-.008-.011h.007l.3-.758a22.51 22.51 0 0 1 .845-2.419 24.489 24.489 0 0 1 1.576-3.339l.077-.228.024-.041a35.437 35.437 0 0 1 2-3.092 18.141 18.141 0 0 1 1.615-2.023.123.123 0 0 0 .019-.011c.189-.1.289-.292.438-.436.083-.094.158-.195.248-.281A24.931 24.931 0 0 1 24.5 3.211a19.51 19.51 0 0 1 5.376-2.7C30.492.32 31.14.237 31.747 0a29.235 29.235 0 0 0-6.914 1.338 30.464 30.464 0 0 0-9.227 4.735c-.089.067-.17.147-.255.221a28.31 28.31 0 0 0-3.99 3.616 15.467 15.467 0 0 0-1.3 1.515 32.779 32.779 0 0 0-3.313 4.722A22.672 22.672 0 0 0 5.629 18.2a40.734 40.734 0 0 0-2.659 6.283 63.547 63.547 0 0 0-1.37 4.194c-.082.29-.146.585-.219.878a33.259 33.259 0 0 0-.939 5.052 17.8 17.8 0 0 0-.271 2.317 50.616 50.616 0 0 0-.151 5.733 3.107 3.107 0 0 0 .042.333 28.629 28.629 0 0 0 .247 3.521c.174-.048.238-.195.329-.3a25.368 25.368 0 0 1 2.237-2.3 8.216 8.216 0 0 1 4.123-2 10.474 10.474 0 0 1 1.334-.236c.17-.132.365-.048.548-.063h.655a19.216 19.216 0 0 0-.52 2.266 18.247 18.247 0 0 0-.458 2.8 17.747 17.747 0 0 0-.257 2.134 55.275 55.275 0 0 0-.257 4.983A32.346 32.346 0 0 0 8.2 58.54a1.1 1.1 0 0 0 .052.179 22.956 22.956 0 0 0 1.035 4.861 6.752 6.752 0 0 0 .408 1.13 11.216 11.216 0 0 0 .9 2.138 17.525 17.525 0 0 0 1.605 2.929 27.055 27.055 0 0 0 3.616 4.645c.173.183.36.351.541.526a29.118 29.118 0 0 0 4.158 3.524A25.425 25.425 0 0 0 23 80.042c.106.058.217.107.366.182-.234-.724-.455-1.4-.672-2.08-.33-1.031-.547-2.091-.81-3.14a36.858 36.858 0 0 1-.486-3.8c-.03-.5-.073-1-.11-1.5 0-.177-.008-.355-.013-.532-.109-.117-.063-.262-.064-.395-.008-.667-.01-1.332-.013-2v-1.946c.216.167.14.3.159.414a19.151 19.151 0 0 0 .6 2.586 15.624 15.624 0 0 0 .555 2.024 43.073 43.073 0 0 0 2.188 5.516c.065.135.144.262.216.393a25.48 25.48 0 0 0 1.627 2.959 18.518 18.518 0 0 0 1.465 2.14 26.58 26.58 0 0 0 4.042 4.529 16.269 16.269 0 0 0 1.872 1.523 28.016 28.016 0 0 0 4.77 3.006 15.066 15.066 0 0 0 2.359 1.063 29.625 29.625 0 0 0 4.436 1.586 24.952 24.952 0 0 0 3.13.7c.079.026.164.064.155-.08a16.777 16.777 0 0 1-5.3-6.292 16.177 16.177 0 0 1-1.245-4.066c-.1-.687-.12-1.38-.187-2.07.038-1.665.125-3.328.307-4.985.211-1.085.382-2.177.665-3.248.244-.925.57-1.822.853-2.733.686-1.758 1.575-3.428 2.228-5.2.072-.195.176-.377.265-.566a16.718 16.718 0 0 0 1.442-5.48.939.939 0 0 1 .064-.208 12.233 12.233 0 0 0-.3-5.473c-.023-.071-.057-.139-.086-.208a16.34 16.34 0 0 0-1.65-3.595c.748.213 2.118 1.7 3.4 3.68a9.81 9.81 0 0 1 .917 4.914c0 .09-.007.181-.01.272-.016.212.073.434-.06.635a16.6 16.6 0 0 1-.843 3.753c-.209.548-.458 1.077-.7 1.629.32-.257.648-.5.959-.772a28.806 28.806 0 0 0 4.225-4.531c.208-.276.393-.569.589-.854a23.651 23.651 0 0 0 2.052-3.239 14.624 14.624 0 0 0 .9-1.819 30.339 30.339 0 0 0 1.886-4.845 7.365 7.365 0 0 0 .318-1.2 28.317 28.317 0 0 0 .986-5.066c.011-.159-.063-.33.063-.473.092-.195-.063-.417.069-.608v-5.606a41.308 41.308 0 0 0-.067-4.396z" style="fill:url(#linear-gradient)"/></g><g id="Group_16473" data-name="Group 16473" transform="rotate(-14 59.706 7.331)"><path id="Path_11493" data-name="Path 11493" d="M60.512 62.756c-.123.148-.049.32-.059.481l-.024.354c0 .032-.007.064-.011.1a39.954 39.954 0 0 1-.891 5.124 37.715 37.715 0 0 1-1.82 6.06 32.553 32.553 0 0 1-3 6.167 27.91 27.91 0 0 1-4.084 5.354c-.1.106-.223.2-.335.293l-.067-.071a24.614 24.614 0 0 0 3.271-5.1 3.291 3.291 0 0 1 .323-.692c.013-.016.026-.032.041-.047l.765-2.11a3.19 3.19 0 0 0 .369-.983c.278-.936.543-1.878.813-2.817l.022-.076.08-.672c.02-.031.053-.06.06-.093a39.7 39.7 0 0 0 .7-4.759c.12-.186.055-.405.073-.609a.473.473 0 0 1 .075-.228c.023-1.414.207-2.821.15-4.237v-.494l.007-1.174q-.036-2.013-.238-4.015l.007-.119v-.032c-.058-.535-.1-1.074-.18-1.6-.205-1.322-.43-2.639-.647-3.958l-.007-.042-.162-.681c-.091-.416-.176-.833-.274-1.247-.32-1.35-.734-2.674-1.14-4l-.017-.055-.236-.605a18.251 18.251 0 0 0-1.183-2.8c.111 1.115.045 2.221.052 3.327v.907c-.027.3-.048.6-.08.9a14.8 14.8 0 0 1-.61 3.121 1.011 1.011 0 0 1-.1.142c-.086.116-.167.233-.048.376v.011c-.173-.009-.187.145-.241.248-.117.223-.217.456-.344.674a3.213 3.213 0 0 1-2.536 1.83 8.413 8.413 0 0 1-6.408-2.083 1.235 1.235 0 0 0-.492-.3 1.542 1.542 0 0 0-.573-.683l-.087-.06a11.481 11.481 0 0 1-1.6-2.371c-.453-.817-.74-1.706-1.121-2.555v-.153c-.048-.129-.1-.255-.144-.387-.3-1-.545-2.007-.773-3.022q-.152-.909-.3-1.818c-.01-.129.042-.27-.071-.38l-.071-.453a.135.135 0 0 0 0-.017c0-.12-.005-.241-.008-.361a2.363 2.363 0 0 0 0-.3c-.217-1.533-.195-3.08-.3-4.621 0-.589-.005-1.18.008-1.769 0-.218-.072-.448.063-.653v-2.947c.133-.163.042-.357.077-.534v-.152c.158-.32.034-.659.071-.987a13.314 13.314 0 0 1 .106-1.912 26.4 26.4 0 0 1 .393-2.731l.023-.12h-.058c-.042.029-.083.058-.126.084-.332.2-.707.32-1.048.5-.95.5-1.9 1.017-2.842 1.527h-.008q-2.448 1.484-4.761 3.171l-.014.01-.83.682a43.727 43.727 0 0 0-4.811 4.265c-.292.292-.543.624-.864.888l-.063.082-.4.52a13.463 13.463 0 0 0-1.352 1.554 29.936 29.936 0 0 0-2.36 3.293l-.382.533-.039.071-.1.192a17.268 17.268 0 0 0-1.22 2.236 17.108 17.108 0 0 0-1.358 2.88l-.3.607-.018.054q-.485 1.448-.972 2.894a.013.013 0 0 1 0 .005c-.166.709-.4 1.4-.521 2.122a9.488 9.488 0 0 0-.232.939v.045a44.552 44.552 0 0 0-.607 4.848c0 .126.005.252.008.378l-.02.386c-.032.61-.062 1.219-.061 1.831 0 1.08.127 2.155.08 3.235a.414.414 0 0 1 .07.327.785.785 0 0 0 0 .133c.033.251-.066.517.076.758a13.241 13.241 0 0 0 .139 1.839c.09.741.161 1.484.241 2.227a.135.135 0 0 0 0 .017c.089.076.058.183.077.279a6.489 6.489 0 0 0 .224 1.165 1.792 1.792 0 0 0 .011.264c.289 1.538.665 3.055 1.055 4.569l-.008.011h.015l.3.758a22.508 22.508 0 0 0 .845 2.419 24.489 24.489 0 0 0 1.576 3.339l.077.228.024.041a35.439 35.439 0 0 0 2 3.092 18.142 18.142 0 0 0 1.615 2.023.123.123 0 0 1 .019.011c.189.1.289.292.438.436.083.094.158.195.248.281a24.929 24.929 0 0 0 2.959 2.51 19.508 19.508 0 0 0 5.376 2.7c.621.193 1.269.277 1.876.514a29.234 29.234 0 0 1-6.914-1.338 30.465 30.465 0 0 1-9.227-4.735c-.089-.067-.17-.147-.255-.221a28.308 28.308 0 0 1-3.989-3.617 15.464 15.464 0 0 1-1.3-1.515 32.779 32.779 0 0 1-3.313-4.722A22.676 22.676 0 0 1 5.629 75.1a40.735 40.735 0 0 1-2.659-6.286A63.547 63.547 0 0 1 1.6 64.62c-.082-.29-.146-.585-.219-.878a33.259 33.259 0 0 1-.939-5.052 17.8 17.8 0 0 1-.271-2.317A50.617 50.617 0 0 1 .02 50.64a3.107 3.107 0 0 1 .042-.333 28.629 28.629 0 0 1 .247-3.521c.174.048.238.195.329.3a25.371 25.371 0 0 0 2.237 2.3A8.216 8.216 0 0 0 7 51.39a10.473 10.473 0 0 0 1.334.236c.17.132.365.048.548.063h.655a19.219 19.219 0 0 1-.52-2.266 18.248 18.248 0 0 1-.458-2.8 17.748 17.748 0 0 1-.259-2.139 55.294 55.294 0 0 1-.257-4.983 32.347 32.347 0 0 1 .157-4.745 1.1 1.1 0 0 1 .052-.179 22.956 22.956 0 0 1 1.033-4.861 6.752 6.752 0 0 1 .408-1.13 11.216 11.216 0 0 1 .9-2.138 17.524 17.524 0 0 1 1.607-2.929 27.056 27.056 0 0 1 3.616-4.645c.173-.183.36-.351.541-.526a29.118 29.118 0 0 1 4.158-3.524A25.425 25.425 0 0 1 23 13.254c.106-.058.217-.107.366-.182-.234.724-.455 1.4-.672 2.08-.33 1.031-.547 2.091-.81 3.14a36.861 36.861 0 0 0-.486 3.8c-.03.5-.073 1-.11 1.5 0 .177-.008.355-.013.532-.109.118-.063.262-.064.395-.008.667-.01 1.333-.013 2v1.946c.216-.167.14-.3.159-.414a19.15 19.15 0 0 1 .6-2.586 15.622 15.622 0 0 1 .555-2.024 43.074 43.074 0 0 1 2.195-5.516c.065-.135.144-.262.216-.393a25.485 25.485 0 0 1 1.627-2.959 18.521 18.521 0 0 1 1.465-2.14A26.581 26.581 0 0 1 32.054 7.9a16.269 16.269 0 0 1 1.872-1.52A28.017 28.017 0 0 1 38.7 3.374a15.067 15.067 0 0 1 2.359-1.063A29.625 29.625 0 0 1 45.491.725a24.95 24.95 0 0 1 3.13-.7c.079-.026.164-.064.155.08a19.892 19.892 0 0 0-2.71 2.433A19.765 19.765 0 0 0 43.473 6.4a16.177 16.177 0 0 0-1.245 4.066c-.1.687-.12 1.38-.187 2.07.038 1.665.125 3.328.307 4.985.211 1.085.382 2.177.665 3.248.244.925.57 1.822.853 2.733.686 1.758 1.575 3.428 2.228 5.2.072.195.176.377.265.566a16.719 16.719 0 0 1 1.439 5.48.94.94 0 0 0 .064.208 12.234 12.234 0 0 1-.3 5.474c-.023.071-.057.139-.086.208a16.34 16.34 0 0 1-1.65 3.595c.748-.213 2.118-1.7 3.4-3.68a9.81 9.81 0 0 0 .917-4.914c0-.09-.007-.181-.01-.272-.016-.212.074-.434-.06-.635a16.6 16.6 0 0 0-.843-3.753c-.209-.548-.458-1.078-.7-1.629.32.257.648.5.959.772a28.808 28.808 0 0 1 4.225 4.531c.208.276.393.569.589.854a23.651 23.651 0 0 1 2.052 3.239 14.625 14.625 0 0 1 .9 1.819 30.341 30.341 0 0 1 1.886 4.845 7.366 7.366 0 0 1 .318 1.2 28.317 28.317 0 0 1 .986 5.066c.011.159-.063.33.063.473.092.195-.063.417.069.608v5.603a41.309 41.309 0 0 1-.065 4.396z" style="fill:url(#linear-gradient-2)"/></g></g><g id="Group_13546" data-name="Group 13546" transform="translate(21.437 17.658)"><circle id="Ellipse_454" data-name="Ellipse 454" class="cls-5" cx="43.468" cy="43.468" r="43.468"/><g id="Group_13545" data-name="Group 13545" transform="translate(8.754 6.1)"><path id="Path_5965" data-name="Path 5965" d="M872.611-162.21c1.107-12.5-7.75-23.653-20.08-26.221a26.4 26.4 0 0 0-5.964-.64 19.7 19.7 0 0 0-2.114.157c4.85 3.467 4.85 3.467 5.095 4.935h-.01a40.8 40.8 0 0 0-9.661-1.288 24.914 24.914 0 0 0-5.824.7A24.418 24.418 0 0 0 824-179.709c1.721 1.123 3.133 2.746 5.219 3.28 1.085.279 2.186.495 3.368.759-.939-2.844-.589-3.788 2.207-4.4a20.56 20.56 0 0 1 13.937 1.44c3.967 2.006 8.27 7.869 3.923 13.64-2.883 3.83-9.972 5.17-16.454 5.17-15.569 0-23.156-15.982-23.544-16.844.013.332.027.657.05 1a21.835 21.835 0 0 0 .154 2.419c.032.244.063.489.1.719l.027.171c.065.39.134.763.2 1.113a35.077 35.077 0 0 0 35.34 28.358 36.324 36.324 0 0 0 7.3-.929c10.973-2.533 16.025-9.893 16.784-18.397z" transform="translate(-812.6 214.987)" style="fill:url(#linear-gradient-3);isolation:isolate"/><path id="Path_5962" data-name="Path 5962" class="cls-11" d="M824.005-185.41c.143-1.618 1.488-2.155 2.395-2.939.414-.361 1.028.184 1.082.775.047.512.157 1.491-.7 1.2-1.232-.426-1.747.639-2.777.964z" transform="translate(-811.819 215.029)"/><g id="Group_13544" data-name="Group 13544" transform="translate(0 2.453)"><path id="Path_5963" data-name="Path 5963" class="cls-11" d="M853.312-197.6c2.868-2.95 5.434-6.1 6.578-10.16 10.338 5.425 16.8 13.769 19.062 25.291a34.292 34.292 0 0 1-.077 11.7 1.106 1.106 0 0 1-.619.706c-.4.159-.613-.229-.649-.545-.776-6.736-4.51-11.768-9.266-16.222 2.6-.252 4.916.9 7.449 1.62-.514-1.109-9.25-12.001-22.478-12.39z" transform="translate(-809.801 211.246)"/><path id="Path_5964" data-name="Path 5964" class="cls-11" d="M836.2-158.3c6.988 0 13.571-1.335 16.455-5.165 4.346-5.771.044-11.634-3.924-13.64a20.558 20.558 0 0 0-13.936-1.44c-2.8.608-3.148 1.55-2.208 4.4-1.181-.265-2.283-.482-3.368-.76-2.085-.536-3.5-2.158-5.218-3.281a24.411 24.411 0 0 1 10.052-4.863 24.867 24.867 0 0 1 5.824-.695 24.882 24.882 0 0 0-5.832.695A24.421 24.421 0 0 0 824-178.192c-.6-.249-1.107 1.393-1.707.134-1.8-3.77.066-10.042 3.628-12.3.577-.365 1.022-.6 1.241.426.409 1.926 1.257 2.311 3.1 1.739 2.038-.632 3.045-2.819 5.146-3.356.111-.03.162-.61.122-.919-.411-3.1.184-4.579 3.028-5.671 4.208-1.613 8.28-3.321 11.137-7.118.946 1.178.988 2.5 1.473 3.75a34.4 34.4 0 0 0 7.339-6.124c1.05-1.1.68-1.412-.541-1.772a34.9 34.9 0 0 0-17.965-.8 33.8 33.8 0 0 0-22.5 16.324 31.609 31.609 0 0 0-4.839 18.757c.385.84 7.274 16.485 23.538 16.822z" transform="translate(-812.605 211.022)"/></g><path id="Path_5966" data-name="Path 5966" class="cls-12" d="M851.252-199.15c-2.846 1.119-3.64 3.5-5.155 5.965 3.112-.858 5.3-2.683 7.723-4.035 2.87-2.95 5.435-6.1 6.579-10.161q.386-2.969.776-5.937c-1.726 2.6-2.784 5.478-4.873 7.685.368.647 1.14.03 1.528.56-1.83 2.49-3.83 4.841-6.578 5.923z" transform="translate(-810.297 213.317)"/><path id="Path_5968" data-name="Path 5968" class="cls-12" d="M839.3-193.881c2.583.608 5.566-1.953 5.6-5.018l-2.7 1.448c-.217 1.8-1.775 2.511-2.9 3.57z" transform="translate(-810.766 214.31)"/><path id="Path_5961" data-name="Path 5961" d="M837.279-193.537c-.607-.7.1-1.52.721-2.046a9.937 9.937 0 0 1 4.344-1.961c0 2.231-2.644 4.878-5.065 4.007z" transform="translate(-810.921 214.403)" style="fill:#004ce6;isolation:isolate"/></g></g></g></g><g id="Group_16478" data-name="Group 16478" transform="translate(.001 49.845)" style="opacity:.2"><g id="Group_16476" data-name="Group 16476" transform="translate(120.149)"><path id="Path_11494" data-name="Path 11494" class="cls-5" d="M20.756 67.241h-.169c0-3.92-2.325-7.116-5.177-7.116v-.162c2.859 0 5.177-3.2 5.177-7.123h.169c0 3.926 2.325 7.123 5.183 7.123v.162c-2.865 0-5.183 3.197-5.183 7.116z" transform="translate(-10.525 -52.84)"/><path id="Path_11495" data-name="Path 11495" class="cls-5" d="M18.855 62.121h-.109c0-2.526-1.5-4.586-3.336-4.586v-.1c1.842 0 3.336-2.06 3.336-4.59h.109c0 2.53 1.5 4.59 3.34 4.59v.1c-1.846 0-3.34 2.06-3.34 4.586z" transform="translate(-15.41 -40.614)"/></g><g id="Group_16477" data-name="Group 16477" transform="translate(0 12.225)"><path id="Path_11497" data-name="Path 11497" class="cls-5" d="M18.75 62.12h.109c0-2.526 1.5-4.586 3.336-4.586v-.1c-1.842 0-3.336-2.06-3.336-4.59h-.109c0 2.53-1.5 4.59-3.34 4.59v.1c1.847.001 3.34 2.061 3.34 4.586z" transform="translate(-15.41 -52.84)"/></g></g></g><path id="path60" class="cls-15" d="M1214.862 153.727a25.987 25.987 0 0 1-6.072-1.854 10.077 10.077 0 0 0-2.008-1.044 1.6 1.6 0 0 0-.268-.04 4.8 4.8 0 0 0 .308-2.008 2.3 2.3 0 0 0-.663-1.566 1.024 1.024 0 0 0-1.453 0 3.227 3.227 0 0 0-1.948-3.528A3.26 3.26 0 0 0 1199 145.2a3.454 3.454 0 0 0 .254-2.135 1.493 1.493 0 0 0-1.633-1.125 2.109 2.109 0 0 0-.85-1.031c-.408-.194-1.125-.054-1.145.395a1.125 1.125 0 0 0-.823-1 .991.991 0 0 0-1.058.6 5.839 5.839 0 0 0-1.379-2.39 3.2 3.2 0 0 0-2.51-.977 2.249 2.249 0 0 0-2.008 1.68.877.877 0 0 0-.87 0c-.254.167-.2.442-.181.75a4.385 4.385 0 0 0-4.016 1.473 4.432 4.432 0 0 0-.75 4.251 1.874 1.874 0 0 0-2.919 1.125.817.817 0 0 0-.83-.6c-.375.033-.582.127-.6.5a5.9 5.9 0 0 0-6.694-2.256 5.837 5.837 0 0 0-3.735 5.9 3.863 3.863 0 0 0-5.355 1.252 1.573 1.573 0 0 0-.194 1.566 1.72 1.72 0 0 0-2.075.248c-1.272-.515-1.493-.194-2.745.368a11.735 11.735 0 0 1-5.068.85h4.077c4.452 0 6.46 1.158 9.238.435a21.535 21.535 0 0 0 11.655-.1 4.552 4.552 0 0 0 4.057 0 18.422 18.422 0 0 0 9.459-.2 2.483 2.483 0 0 0 2.2-.06 12.143 12.143 0 0 0 6.875.241 4.445 4.445 0 0 0 3.976-.067 12.163 12.163 0 0 0 6.46.033 5.355 5.355 0 0 0 3.012-.033 7.784 7.784 0 0 1 1.52-.274h12.237a153.443 153.443 0 0 1-11.748-.89" transform="translate(-909.011 -3.778)"/><path id="path60-2" data-name="path60" class="cls-15" d="M1186.422 146.417a14.266 14.266 0 0 1-3.333-1.018 5.531 5.531 0 0 0-1.1-.573.884.884 0 0 0-.147-.022 2.639 2.639 0 0 0 .169-1.1 1.26 1.26 0 0 0-.364-.86.562.562 0 0 0-.8 0 1.771 1.771 0 0 0-1.069-1.937 1.79 1.79 0 0 0-2.065.83 1.9 1.9 0 0 0 .14-1.172.819.819 0 0 0-.9-.617 1.157 1.157 0 0 0-.467-.566c-.224-.107-.617-.029-.628.217a.617.617 0 0 0-.452-.551.544.544 0 0 0-.581.327 3.207 3.207 0 0 0-.757-1.312 1.756 1.756 0 0 0-1.378-.537 1.235 1.235 0 0 0-1.1.922.481.481 0 0 0-.478 0c-.14.092-.11.243-.1.412a2.407 2.407 0 0 0-2.2.808 2.433 2.433 0 0 0-.412 2.332 1.029 1.029 0 0 0-1.6.617.448.448 0 0 0-.456-.327c-.206.018-.32.07-.331.272a3.241 3.241 0 0 0-3.675-1.238 3.2 3.2 0 0 0-2.051 3.241 2.12 2.12 0 0 0-2.94.687.864.864 0 0 0-.107.86.944.944 0 0 0-1.139.136c-.7-.283-.819-.107-1.507.2a6.442 6.442 0 0 1-2.782.467h2.238c2.444 0 3.546.636 5.071.239a11.821 11.821 0 0 0 6.4-.055 2.5 2.5 0 0 0 2.227 0 10.113 10.113 0 0 0 5.193-.11 1.363 1.363 0 0 0 1.205-.033 6.666 6.666 0 0 0 3.774.132 2.44 2.44 0 0 0 2.183-.037 6.677 6.677 0 0 0 3.546.018 2.94 2.94 0 0 0 1.654-.018 4.274 4.274 0 0 1 .834-.151h6.717a84.35 84.35 0 0 1-6.449-.489" transform="translate(-1040.051 -104.52)"/><path id="path60-3" data-name="path60" class="cls-15" d="M1211.135 152.769a24.451 24.451 0 0 1-5.713-1.745 9.481 9.481 0 0 0-1.89-.983 1.508 1.508 0 0 0-.252-.038 4.522 4.522 0 0 0 .29-1.89 2.16 2.16 0 0 0-.624-1.474.964.964 0 0 0-1.367 0 3.036 3.036 0 0 0-1.833-3.319 3.068 3.068 0 0 0-3.54 1.423 3.249 3.249 0 0 0 .239-2.009 1.4 1.4 0 0 0-1.537-1.058 1.983 1.983 0 0 0-.8-.97c-.384-.183-1.058-.05-1.077.372a1.058 1.058 0 0 0-.775-.945.932.932 0 0 0-.995.561 5.5 5.5 0 0 0-1.3-2.249 3.01 3.01 0 0 0-2.362-.92 2.117 2.117 0 0 0-1.89 1.581.825.825 0 0 0-.819 0c-.239.157-.189.416-.17.705a4.126 4.126 0 0 0-3.779 1.386 4.17 4.17 0 0 0-.705 4 1.763 1.763 0 0 0-2.746 1.058.768.768 0 0 0-.781-.561c-.353.031-.548.12-.567.466a5.555 5.555 0 0 0-6.3-2.123 5.492 5.492 0 0 0-3.515 5.555 3.634 3.634 0 0 0-5.039 1.178 1.48 1.48 0 0 0-.183 1.474 1.619 1.619 0 0 0-1.953.233c-1.2-.485-1.4-.183-2.582.346a11.042 11.042 0 0 1-4.768.8h3.836c4.188 0 6.078 1.09 8.692.409a20.262 20.262 0 0 0 10.966-.094 4.283 4.283 0 0 0 3.817 0 17.334 17.334 0 0 0 8.9-.189 2.337 2.337 0 0 0 2.066-.057 11.426 11.426 0 0 0 6.469.227 4.182 4.182 0 0 0 3.741-.063 11.445 11.445 0 0 0 6.078.031 5.039 5.039 0 0 0 2.834-.032 7.323 7.323 0 0 1 1.43-.258h11.513a143.914 143.914 0 0 1-11.053-.838" transform="translate(-687.353 -137.52)"/><g id="Group_16526" data-name="Group 16526" transform="translate(0 61.925)"><path id="Path_11504" data-name="Path 11504" class="cls-16" d="M19.292 63.624h.127c0-2.935 1.741-5.329 3.876-5.329v-.121c-2.141 0-3.876-2.394-3.876-5.334h-.127c0 2.94-1.741 5.334-3.882 5.334v.126c2.146 0 3.882 2.389 3.882 5.324z" transform="translate(-15.41 -52.84)"/><path id="Path_11505" data-name="Path 11505" class="cls-16" d="M19.292 63.624h.127c0-2.935 1.741-5.329 3.876-5.329v-.121c-2.141 0-3.876-2.394-3.876-5.334h-.127c0 2.94-1.741 5.334-3.882 5.334v.126c2.146 0 3.882 2.389 3.882 5.324z" transform="translate(-15.41 -49.268)"/></g></g></g></svg>