<svg xmlns="http://www.w3.org/2000/svg" width="9.409" height="12" viewBox="0 0 9.409 12">
    <defs>
        <radialGradient id="911s76fuma" cx=".481" cy="1.003" r=".588" gradientTransform="matrix(-1.275 -.004 -.009 1.641 1.265 -.64)" gradientUnits="objectBoundingBox">
            <stop offset=".314" stop-color="#ff9800"/>
            <stop offset=".662" stop-color="#ff6d00"/>
            <stop offset=".971" stop-color="#f44336"/>
        </radialGradient>
        <radialGradient id="hauemevq0b" cx=".534" cy=".104" r=".947" gradientTransform="matrix(-.017 1 1.23 .008 .389 -.405)" gradientUnits="objectBoundingBox">
            <stop offset=".214" stop-color="#fff176"/>
            <stop offset=".327" stop-color="#fff27d"/>
            <stop offset=".487" stop-color="#fff48f"/>
            <stop offset=".672" stop-color="#fff7ad"/>
            <stop offset=".793" stop-color="#fff9c4"/>
            <stop offset=".822" stop-color="#fff8bd" stop-opacity=".804"/>
            <stop offset=".863" stop-color="#fff6ab" stop-opacity=".529"/>
            <stop offset=".91" stop-color="#fff38d" stop-opacity=".208"/>
            <stop offset=".941" stop-color="#fff176" stop-opacity="0"/>
        </radialGradient>
    </defs>
    <path data-name="Path 16676" d="M18.8 7.671a3.677 3.677 0 0 0 .262 2.142s-.169-1.182 1.346-2.665a1.963 1.963 0 0 0 .538-2.018 2.353 2.353 0 0 0-.534-.829A.179.179 0 0 1 20.55 4a3.381 3.381 0 0 1 3.263 2.02 4.124 4.124 0 0 1 .178 2.307c-.09.5-.41 1.618.32 1.755a.8.8 0 0 0 .886-.614.178.178 0 0 1 .3-.056 3.663 3.663 0 0 1 .773 3.195A4.419 4.419 0 0 1 21.955 16a4.759 4.759 0 0 1-4.938-3.965 4.973 4.973 0 0 1 1.489-4.511.178.178 0 0 1 .294.147z" transform="translate(-16.939 -3.998)" style="fill:url(#911s76fuma)"/>
    <path data-name="Path 16677" d="M44.229 49.127a3.018 3.018 0 0 1-.279-3.037.076.076 0 0 0-.113-.09 4.426 4.426 0 0 0-1.565 1.773 2.772 2.772 0 0 0-.17 2.486c.18.429-.029.52-.134.536a.343.343 0 0 1-.271-.123 1.609 1.609 0 0 1-.444-.76.076.076 0 0 0-.134-.028 2.8 2.8 0 0 0-.432 1.447 2.442 2.442 0 0 0 2.455 2.457 2.287 2.287 0 0 0 1.972-3.47 12.754 12.754 0 0 0-.885-1.191z" transform="translate(-38.312 -41.785)" style="fill:url(#hauemevq0b)"/>
</svg>
