<svg xmlns="http://www.w3.org/2000/svg" width="47.414" height="16" viewBox="0 0 47.414 16">
    <defs>
        <radialGradient id="3xmk9yerka" cx=".481" cy="1.003" r=".588" gradientTransform="matrix(-1.275 -.004 -.009 1.641 1.265 -.64)" gradientUnits="objectBoundingBox">
            <stop offset=".314" stop-color="#ff9800"/>
            <stop offset=".662" stop-color="#ff6d00"/>
            <stop offset=".971" stop-color="#f44336"/>
        </radialGradient>
        <radialGradient id="exp4o5ardb" cx=".534" cy=".104" r=".947" gradientTransform="matrix(-.017 1 1.23 .008 .389 -.405)" gradientUnits="objectBoundingBox">
            <stop offset=".214" stop-color="#fff176"/>
            <stop offset=".327" stop-color="#fff27d"/>
            <stop offset=".487" stop-color="#fff48f"/>
            <stop offset=".672" stop-color="#fff7ad"/>
            <stop offset=".793" stop-color="#fff9c4"/>
            <stop offset=".822" stop-color="#fff8bd" stop-opacity=".804"/>
            <stop offset=".863" stop-color="#fff6ab" stop-opacity=".529"/>
            <stop offset=".91" stop-color="#fff38d" stop-opacity=".208"/>
            <stop offset=".941" stop-color="#fff176" stop-opacity="0"/>
        </radialGradient>
    </defs>
    <g data-name="Group 34565" transform="translate(-93)">
        <rect data-name="Rectangle 23702" width="47.414" height="16" rx="8" transform="translate(93)" style="fill:#448aff;opacity:.24"/>
        <g data-name="Group 29376">
            <path data-name="Path 16730" d="M7.336 3v8H6.227L2.16 5.133h-.074V11H.879V3H2l4.07 5.875h.074V3zm4.25 8.121a2.924 2.924 0 0 1-1.525-.381 2.538 2.538 0 0 1-.984-1.074 3.6 3.6 0 0 1-.347-1.627 3.639 3.639 0 0 1 .346-1.625A2.586 2.586 0 0 1 11.5 4.922a2.94 2.94 0 0 1 .984.168 2.384 2.384 0 0 1 .855.527 2.48 2.48 0 0 1 .6.932 3.9 3.9 0 0 1 .219 1.389v.414H9.391v-.875h3.625a1.736 1.736 0 0 0-.187-.818 1.425 1.425 0 0 0-.525-.564 1.484 1.484 0 0 0-.791-.207 1.524 1.524 0 0 0-.857.24 1.623 1.623 0 0 0-.562.625 1.8 1.8 0 0 0-.2.834v.683a2.252 2.252 0 0 0 .213 1.023 1.5 1.5 0 0 0 .6.643 1.759 1.759 0 0 0 .895.221 1.823 1.823 0 0 0 .605-.1 1.286 1.286 0 0 0 .473-.287 1.256 1.256 0 0 0 .3-.473l1.105.2a2 2 0 0 1-.475.854 2.3 2.3 0 0 1-.855.566 3.189 3.189 0 0 1-1.169.204zm5.16-.121L14.98 5h1.207l1.176 4.406h.059L18.6 5h1.207l1.173 4.387h.059L22.207 5h1.207l-1.762 6h-1.191l-1.219-4.332h-.09L17.934 11z" transform="translate(111 .5)" style="fill:#c7cad9"/>
            <path data-name="Path 16676" d="M18.8 7.671a3.677 3.677 0 0 0 .262 2.142s-.169-1.182 1.346-2.665a1.963 1.963 0 0 0 .538-2.018 2.353 2.353 0 0 0-.534-.829A.179.179 0 0 1 20.55 4a3.381 3.381 0 0 1 3.263 2.02 4.124 4.124 0 0 1 .178 2.307c-.09.5-.41 1.618.32 1.755a.8.8 0 0 0 .886-.614.178.178 0 0 1 .3-.056 3.663 3.663 0 0 1 .773 3.195A4.419 4.419 0 0 1 21.955 16a4.759 4.759 0 0 1-4.938-3.965 4.973 4.973 0 0 1 1.489-4.511.178.178 0 0 1 .294.147z" transform="translate(80.061 -1.998)" style="fill:url(#3xmk9yerka)"/>
            <path data-name="Path 16677" d="M44.229 49.127a3.018 3.018 0 0 1-.279-3.037.076.076 0 0 0-.113-.09 4.426 4.426 0 0 0-1.565 1.773 2.772 2.772 0 0 0-.17 2.486c.18.429-.029.52-.134.536a.343.343 0 0 1-.271-.123 1.609 1.609 0 0 1-.444-.76.076.076 0 0 0-.134-.028 2.8 2.8 0 0 0-.432 1.447 2.442 2.442 0 0 0 2.455 2.457 2.287 2.287 0 0 0 1.972-3.47 12.754 12.754 0 0 0-.885-1.191z" transform="translate(58.688 -39.785)" style="fill:url(#exp4o5ardb)"/>
        </g>
    </g>
</svg>
