<svg data-name="Component 22" xmlns="http://www.w3.org/2000/svg" width="40" height="40">
    <rect data-name="Rectangle 18293" width="40" height="40" rx="20" style="fill:none"/>
    <path data-name="Path 11563" d="M13.386-5.53c0-1.585-1.147-2.4-2.9-2.4a4.786 4.786 0 0 0-2.941.98l.209 1.335a4.308 4.308 0 0 1 2.586-1c.959 0 1.5.417 1.5 1.147 0 .772-.521 1.21-2 1.752l-.417.146.167 1.9.98-.188.083-.918c1.524-.502 2.733-1.253 2.733-2.754zM10.884 1.1V-.567H9.278V1.1zM.352-3.194a9.814 9.814 0 0 0 9.99 10.01 9.819 9.819 0 0 0 10.01-10.01 9.789 9.789 0 0 0-10.01-9.99 9.784 9.784 0 0 0-9.99 9.99zm1.376 0a8.486 8.486 0 0 1 8.613-8.676 8.486 8.486 0 0 1 8.613 8.676 8.491 8.491 0 0 1-8.613 8.7 8.491 8.491 0 0 1-8.613-8.7z" transform="translate(10.148 23.684)" style="fill:#696c80"/>
</svg>
