<svg id="Layer_1" data-name="Layer 1" xmlns="http://www.w3.org/2000/svg" xmlns:xlink="http://www.w3.org/1999/xlink" viewBox="0 0 1440 800"><defs><style>.cls-1{fill:none;}.cls-2{opacity:0.72;}.cls-3{clip-path:url(#clip-path);}.cls-4,.cls-6,.cls-7{fill:#1c2938;}.cls-5{opacity:0.7;}.cls-6{opacity:0.8;}.cls-6,.cls-7{isolation:isolate;}.cls-7{opacity:0.6;}</style><clipPath id="clip-path"><rect class="cls-1" width="1440" height="800"/></clipPath></defs><g class="cls-2"><g class="cls-3"><g id="Path_5891" data-name="Path 5891"><path class="cls-4" d="M88.86,554.83H87.07l48.22-29.22,43,23.67-29.15,5.54Zm1.79-1H149l26.33-5-40-22.06Z"/></g><g id="Path_5892" data-name="Path 5892"><path class="cls-4" d="M177.61,550.06l-43.37-23.85,48.63-29.48-12.74,26.08Zm-41.37-23.89L176,548.05l-7-25.34,11.42-23.36Z"/></g><g id="Path_5893" data-name="Path 5893"><path class="cls-4" d="M200,532.24l-31.13-9.17,12.47-25.5,18.46-1.71Zm-29.71-9.79L199,530.9,198.81,497,182,498.52Z"/></g><g id="Path_5894" data-name="Path 5894"><path class="cls-4" d="M176.53,549.88,168.87,522l31.71,9.34Zm-6.22-26.39,6.79,24.69,21.32-16.41Z"/></g><g id="Path_5895" data-name="Path 5895"><path class="cls-4" d="M199,532.12V495.74l21.45,6.32-6.59,28.67Zm1-35.05V531l13.05-1.22,6.21-27Z"/></g><g id="Path_5896" data-name="Path 5896"><polygon class="cls-4" points="118.84 536.12 102.43 504.04 102.44 503.91 105.13 444.44 164.18 459.27 164.28 459.38 199.86 496.06 199.14 496.75 163.66 460.17 106.07 445.71 103.44 503.82 119.73 535.67 118.84 536.12"/></g><g id="Path_5897" data-name="Path 5897"><polygon class="cls-4" points="213.73 530.69 213.19 529.85 254.71 502.91 234.96 492.55 209.62 463.87 186.13 482.69 185.51 481.91 209.74 462.5 235.65 491.81 256.69 502.82 213.73 530.69"/></g><g id="Line_33" data-name="Line 33"><rect class="cls-4" x="217.15" y="462.14" width="1" height="61.67" transform="translate(-120 72.99) rotate(-14.98)"/></g><g id="Path_5898" data-name="Path 5898"><polygon class="cls-4" points="199.92 531.86 199.09 531.29 219.51 502.04 235.07 491.8 235.62 492.63 220.22 502.77 199.92 531.86"/></g><g id="Path_5900" data-name="Path 5900"><polygon class="cls-4" points="669.44 554.83 149.02 554.83 149.02 553.83 665.51 553.83 647.94 544.27 611.71 538.63 587.28 514.45 529.76 503.44 454.94 514.52 454.76 514.36 436.04 497.15 401.5 480.92 364.25 487.99 312.93 417.12 252.79 374.47 197.16 438.98 197.09 439.02 164.19 460.14 163.65 459.3 196.49 438.22 252.62 373.13 313.69 416.47 364.69 486.89 401.63 479.87 436.65 496.36 455.26 513.46 529.78 502.43 529.86 502.44 587.77 513.53 587.88 513.63 612.18 537.69 648.27 543.31 669.44 554.83"/></g><g id="Line_34" data-name="Line 34"><rect class="cls-4" x="619.88" y="548.56" width="29.21" height="1" transform="translate(-155.51 266.3) rotate(-21.18)"/></g><g id="Path_5901" data-name="Path 5901"><polygon class="cls-4" points="567.23 544.31 534.97 526.28 529.44 503.73 496.98 523.89 455.27 514.54 444.04 526.69 421.36 526.02 403.52 503.24 404.3 502.63 421.86 525.03 443.62 525.68 454.93 513.43 496.8 522.83 530.09 502.15 535.83 525.62 567.43 543.28 611.88 537.66 612.01 538.65 567.23 544.31"/></g><g id="Path_5902" data-name="Path 5902"><polygon class="cls-4" points="526.76 555.1 500.64 538.74 473.83 554.95 467.45 549.44 443.38 526.45 443.34 526.31 435.94 497.3 404.11 503.4 382.93 517.52 369.29 517.52 345.55 530.65 336.03 543.71 347.89 553.95 347.24 554.71 334.68 543.87 344.97 529.83 369.04 516.52 382.63 516.52 403.72 502.46 403.82 502.44 436.68 496.14 444.28 525.92 468.13 548.7 473.93 553.71 500.65 537.57 526.2 553.56 534.93 525.79 535.88 526.1 526.76 555.1"/></g><g id="Path_5903" data-name="Path 5903"><polygon class="cls-4" points="263.97 498.21 263.02 497.88 279.88 450.35 252.77 375.46 239.97 422.55 197.32 438.95 197.1 473.67 196.1 473.66 196.32 438.26 239.14 421.79 252.64 372.14 280.94 450.34 280.88 450.51 263.97 498.21"/></g><g id="Path_5904" data-name="Path 5904"><polygon class="cls-4" points="373.73 554.88 373.53 554.71 344.89 530.65 310.21 503.38 275.77 491.04 255.19 503.76 255.19 473.42 250.86 459.09 229.03 442.37 196.77 439.1 196.87 438.1 229.41 441.4 251.72 458.49 256.19 473.35 256.19 501.97 275.65 489.93 310.77 502.54 345.52 529.87 373.98 553.78 408.19 545.16 467.71 548.55 500.49 537.68 535.23 525.48 587.41 513.51 587.64 514.48 535.51 526.44 500.81 538.63 467.84 549.56 408.29 546.17 373.73 554.88"/></g><g id="Path_5905" data-name="Path 5905"><polygon class="cls-4" points="217.84 472.67 217.47 471.74 250.85 458.43 257.83 420.27 252.21 373.86 253.2 373.74 258.85 420.3 251.74 459.16 217.84 472.67"/></g><g id="Path_5906" data-name="Path 5906"><path class="cls-4" d="M1353.29,554.83h-61.94l-29.25-5.55,43-23.67Zm-88.28-6,26.43,5h58.27l-44.65-27.07Z"/></g><g id="Path_5907" data-name="Path 5907"><path class="cls-4" d="M1262.76,550.06l7.48-27.25-12.74-26.08,48.63,29.48Zm-2.87-50.71,11.42,23.36-7,25.33,39.78-21.87Z"/></g><g id="Path_5908" data-name="Path 5908"><path class="cls-4" d="M1240.36,532.24l.2-36.38,18.46,1.71,12.46,25.5Zm1.19-35.29-.18,33.95,28.7-8.45-11.7-23.94Z"/></g><g id="Path_5909" data-name="Path 5909"><path class="cls-4" d="M1263.84,549.88l-24.06-18.51,31.71-9.34ZM1242,531.77l21.32,16.41,6.78-24.69Z"/></g><g id="Path_5910" data-name="Path 5910"><path class="cls-4" d="M1241.36,532.12l-14.86-1.39-6.59-28.67,21.45-6.32Zm-14-2.32,13,1.22V497.07l-19.26,5.68Z"/></g><g id="Path_5911" data-name="Path 5911"><polygon class="cls-4" points="1321.53 536.12 1320.64 535.67 1336.92 503.82 1334.3 445.71 1276.7 460.17 1241.22 496.75 1240.51 496.06 1276.18 459.27 1335.24 444.44 1337.94 504.04 1337.88 504.16 1321.53 536.12"/></g><g id="Path_5912" data-name="Path 5912"><polygon class="cls-4" points="1226.63 530.68 1183.68 502.82 1204.71 491.81 1230.63 462.49 1254.86 481.9 1254.23 482.68 1230.74 463.87 1205.34 492.61 1185.66 502.91 1227.18 529.84 1226.63 530.68"/></g><g id="Line_35" data-name="Line 35"><rect class="cls-4" x="1191.88" y="492.47" width="61.67" height="1" transform="translate(430.84 1547.01) rotate(-75.04)"/></g><g id="Path_5913" data-name="Path 5913"><polygon class="cls-4" points="1240.45 531.86 1220.15 502.77 1204.75 492.63 1205.3 491.8 1220.91 502.12 1241.27 531.28 1240.45 531.86"/></g><g id="Path_5915" data-name="Path 5915"><polygon class="cls-4" points="1291.35 554.83 770.93 554.83 792.19 543.3 828.18 537.69 852.6 513.53 852.75 513.5 910.59 502.43 985.1 513.46 1003.83 496.28 1038.73 479.88 1075.68 486.89 1126.72 416.4 1187.74 373.13 1243.87 438.22 1276.71 459.3 1276.17 460.14 1243.16 438.93 1187.58 374.47 1127.44 417.12 1076.12 487.99 1038.86 480.92 1004.33 497.15 985.43 514.52 910.61 503.45 853.08 514.46 828.66 538.63 792.43 544.27 774.86 553.83 1291.35 553.83 1291.35 554.83"/></g><g id="Line_36" data-name="Line 36"><rect class="cls-4" x="805.38" y="534.46" width="1" height="29.2" transform="translate(2.98 1102.47) rotate(-68.84)"/></g><g id="Path_5916" data-name="Path 5916"><polygon class="cls-4" points="873.13 544.31 828.36 538.65 828.48 537.66 872.93 543.27 904.53 525.61 910.28 502.14 943.56 522.83 985.44 513.44 996.75 525.68 1018.51 525.03 1036.06 502.63 1036.85 503.24 1019 526.02 996.32 526.69 985.1 514.54 943.38 523.89 910.92 503.72 905.4 526.27 873.13 544.31"/></g><g id="Path_5917" data-name="Path 5917"><polygon class="cls-4" points="913.61 555.1 904.49 526.09 905.44 525.79 914.17 553.56 939.71 537.57 966.44 553.71 972.26 548.68 996.09 525.92 1003.68 496.14 1036.73 502.52 1057.73 516.52 1071.33 516.52 1095.56 529.97 1105.69 543.87 1093.13 554.71 1092.48 553.95 1104.34 543.71 1094.81 530.65 1071.07 517.52 1057.43 517.52 1036.26 503.41 1004.42 497.3 996.99 526.45 972.93 549.42 966.54 554.95 939.72 538.74 913.61 555.1"/></g><g id="Path_5918" data-name="Path 5918"><polygon class="cls-4" points="1176.4 498.21 1159.43 450.34 1159.49 450.17 1187.73 372.14 1201.22 421.79 1244.04 438.26 1244.26 473.66 1243.26 473.66 1243.04 438.94 1200.39 422.54 1187.59 375.45 1160.49 450.34 1177.35 497.87 1176.4 498.21"/></g><g id="Path_5919" data-name="Path 5919"><polygon class="cls-4" points="1066.64 554.88 1032.08 546.17 972.53 549.56 939.56 538.63 904.8 526.42 852.74 514.48 852.96 513.5 905.08 525.46 939.89 537.68 972.66 548.55 1032.17 545.16 1066.39 553.78 1094.84 529.88 1129.66 502.49 1164.72 489.93 1184.17 501.97 1184.19 473.2 1188.64 458.49 1210.95 441.4 1243.49 438.1 1243.59 439.1 1211.34 442.37 1189.51 459.09 1185.17 473.42 1185.17 503.76 1164.6 491.04 1130.15 503.38 1095.47 530.66 1066.64 554.88"/></g><g id="Path_5920" data-name="Path 5920"><polygon class="cls-4" points="1222.53 472.67 1188.63 459.15 1181.52 420.3 1181.53 420.23 1187.17 373.74 1188.16 373.86 1182.53 420.27 1189.51 458.43 1222.9 471.74 1222.53 472.67"/></g><g id="Line_37" data-name="Line 37"><rect class="cls-4" x="-180.64" y="619.67" width="458.96" height="1" transform="translate(-173.65 39.23) rotate(-16.45)"/></g><g id="Line_38" data-name="Line 38"><rect class="cls-4" x="70.55" y="619.67" width="340.22" height="1" transform="translate(-218.99 139.28) rotate(-22.5)"/></g><g id="Line_39" data-name="Line 39"><rect class="cls-4" x="317.93" y="619.67" width="229.09" height="1" transform="translate(-275.34 354.38) rotate(-34.53)"/></g><g id="Line_40" data-name="Line 40"><rect class="cls-4" x="552.1" y="619.67" width="144.39" height="1" transform="translate(-205.84 912.1) rotate(-64.19)"/></g><g id="Line_41" data-name="Line 41"><rect class="cls-4" x="815.61" y="547.97" width="1" height="144.39" transform="translate(-188.62 417.31) rotate(-25.82)"/></g><g id="Line_42" data-name="Line 42"><rect class="cls-4" x="1007.43" y="505.63" width="1" height="229.09" transform="translate(-74.63 1098.28) rotate(-55.43)"/></g><g id="Line_43" data-name="Line 43"><rect class="cls-4" x="1199.25" y="450.06" width="1" height="340.22" transform="translate(168.26 1491.97) rotate(-67.54)"/></g><g id="Line_44" data-name="Line 44"><rect class="cls-4" x="1391.07" y="390.69" width="1" height="458.96" transform="translate(402.69 1779.13) rotate(-73.55)"/></g><g id="Line_46" data-name="Line 46"><rect class="cls-4" x="-48.23" y="605.27" width="1580.34" height="1"/></g><g id="Line_51" data-name="Line 51"><rect class="cls-4" x="-48.23" y="554.27" width="1580.34" height="1"/></g></g></g><g class="cls-5"><path id="path60" class="cls-6" d="M1246,161.73a38.83,38.83,0,0,1-9.07-2.77,15.05,15.05,0,0,0-3-1.56,2.4,2.4,0,0,0-.4-.06,7.18,7.18,0,0,0,.46-3A3.43,3.43,0,0,0,1233,152a1.53,1.53,0,0,0-2.17,0h0a4.82,4.82,0,0,0-2.91-5.27,4.87,4.87,0,0,0-5.62,2.26,5.16,5.16,0,0,0,.38-3.19,2.23,2.23,0,0,0-2.44-1.68,3.15,3.15,0,0,0-1.27-1.54c-.61-.29-1.68-.08-1.71.59a1.68,1.68,0,0,0-1.23-1.5,1.48,1.48,0,0,0-1.58.89,8.72,8.72,0,0,0-2.06-3.57,4.78,4.78,0,0,0-3.75-1.46,3.36,3.36,0,0,0-3,2.51,1.31,1.31,0,0,0-1.3,0c-.38.25-.3.66-.27,1.12a6.55,6.55,0,0,0-6,2.2,6.62,6.62,0,0,0-1.12,6.35,2.8,2.8,0,0,0-4.36,1.68,1.22,1.22,0,0,0-1.24-.89c-.56.05-.87.19-.9.74a8.82,8.82,0,0,0-10-3.37,8.72,8.72,0,0,0-5.58,8.82,5.77,5.77,0,0,0-8,1.87,2.35,2.35,0,0,0-.29,2.34,2.57,2.57,0,0,0-3.1.37c-1.9-.77-2.23-.29-4.1.55a17.53,17.53,0,0,1-7.57,1.27h6.09c6.65,0,9.65,1.73,13.8.65a32.17,32.17,0,0,0,17.41-.15,6.8,6.8,0,0,0,6.06,0,27.52,27.52,0,0,0,14.13-.3,3.71,3.71,0,0,0,3.28-.09,18.14,18.14,0,0,0,10.27.36,6.64,6.64,0,0,0,5.94-.1,18.17,18.17,0,0,0,9.65.05,8,8,0,0,0,4.5-.05,11.63,11.63,0,0,1,2.27-.41h18.28c-5.86-.23-11.72-.65-17.55-1.33"/><path id="path60-2" class="cls-7" d="M587.21,446.73a37.9,37.9,0,0,1-9.07-2.77,15.58,15.58,0,0,0-3-1.56,2.4,2.4,0,0,0-.4-.06,7.16,7.16,0,0,0,.46-3,3.39,3.39,0,0,0-.91-2.32,1.53,1.53,0,0,0-2.17,0h0a4.56,4.56,0,0,0-8.54-3,5.08,5.08,0,0,0,.38-3.19,2.23,2.23,0,0,0-2.44-1.68,3.15,3.15,0,0,0-1.27-1.54c-.61-.29-1.68-.08-1.71.59a1.68,1.68,0,0,0-1.23-1.5,1.48,1.48,0,0,0-1.58.89,8.72,8.72,0,0,0-2.06-3.57,4.78,4.78,0,0,0-3.75-1.46,3.35,3.35,0,0,0-3,2.51,1.29,1.29,0,0,0-1.3,0c-.39.24-.3.65-.28,1.11a6.43,6.43,0,0,0-7.15,8.55,2.81,2.81,0,0,0-4.37,1.68,1.22,1.22,0,0,0-1.24-.89c-.55,0-.87.19-.9.74a8.82,8.82,0,0,0-10-3.37,8.7,8.7,0,0,0-5.57,8.82,5.8,5.8,0,0,0-8,1.87,2.41,2.41,0,0,0-.29,2.35,2.55,2.55,0,0,0-3.1.36c-1.9-.77-2.23-.29-4.1.55a17.53,17.53,0,0,1-7.57,1.27h6.09c6.65,0,9.65,1.73,13.8.65a32.08,32.08,0,0,0,17.41-.15,6.8,6.8,0,0,0,6.06,0,27.52,27.52,0,0,0,14.13-.3,3.71,3.71,0,0,0,3.28-.09,18.14,18.14,0,0,0,10.27.36,6.64,6.64,0,0,0,5.94-.1,18.17,18.17,0,0,0,9.65,0,8,8,0,0,0,4.5,0,10.91,10.91,0,0,1,2.27-.4h18.28c-5.86-.24-11.72-.66-17.55-1.34"/><path id="path60-3" class="cls-6" d="M311.67,152.34c-2-.33-8.93-1.86-13-4-1.14-.6-3.1-2-4.37-2.25l-.57-.08a10.47,10.47,0,0,0,.67-4.36,4.93,4.93,0,0,0-1.32-3.34,2.2,2.2,0,0,0-3.12-.06h0a6.92,6.92,0,0,0-4.19-7.57c-2.92-1.12-6.48.55-8.07,3.25a7.3,7.3,0,0,0,.54-4.58,3.2,3.2,0,0,0-3.5-2.42,4.51,4.51,0,0,0-1.82-2.2c-.88-.41-2.42-.12-2.46.85a2.4,2.4,0,0,0-1.76-2.16,2.13,2.13,0,0,0-2.27,1.27,12.49,12.49,0,0,0-3-5.12,6.89,6.89,0,0,0-5.39-2.1,4.82,4.82,0,0,0-4.25,3.6,1.87,1.87,0,0,0-1.86.07c-.56.35-.43,1-.4,1.6a9.25,9.25,0,0,0-10.28,12.29,4,4,0,0,0-6.26,2.41,1.75,1.75,0,0,0-1.79-1.27c-.79.07-1.24.27-1.3,1.06a12.65,12.65,0,0,0-14.28-4.84,12.51,12.51,0,0,0-8,12.66,8.3,8.3,0,0,0-11.52,2.68,3.38,3.38,0,0,0-.41,3.37,3.71,3.71,0,0,0-4.47.52c-2.73-1.1-3.2-.41-5.88.8a25.3,25.3,0,0,1-10.88,1.82h8.75c9.56,0,13.86,2.48,19.82.94a46.15,46.15,0,0,0,25-.22,9.81,9.81,0,0,0,8.71,0,39.44,39.44,0,0,0,20.29-.43,5.34,5.34,0,0,0,4.71-.12,26,26,0,0,0,14.75.51,9.58,9.58,0,0,0,8.54-.14,26,26,0,0,0,13.85.07,11.54,11.54,0,0,0,6.46-.07,15.07,15.07,0,0,1,3.26-.58h26.25c-8.41-.34-16.83-.94-25.2-1.93"/></g></svg>