<svg xmlns="http://www.w3.org/2000/svg" width="20" height="20" viewBox="0 0 20 20">
    <g transform="translate(.429)">
        <rect data-name="Rectangle 24344" width="20" height="20" rx="4" transform="translate(-.429)" style="fill:none"/>
        <path data-name="Path 15977" d="M16.564 11.135a.909.909 0 0 0-.878 0l-2.015 1.158-1.368.755-2.016 1.152a.906.906 0 0 1-.878 0l-1.6-.906a.862.862 0 0 1-.439-.729v-1.782a.812.812 0 0 1 .439-.729l1.575-.881a.908.908 0 0 1 .879 0l1.575.881a.863.863 0 0 1 .44.729v1.158l1.368-.78V10a.812.812 0 0 0-.439-.729l-2.919-1.66a.906.906 0 0 0-.878 0L6.439 9.274A.812.812 0 0 0 6 10v3.346a.813.813 0 0 0 .439.73L9.41 15.74a.909.909 0 0 0 .878 0l2.012-1.133 1.368-.78 2.019-1.127a.906.906 0 0 1 .878 0l1.576.881a.861.861 0 0 1 .439.729v1.786a.811.811 0 0 1-.439.729l-1.575.906a.907.907 0 0 1-.878 0l-1.576-.881a.863.863 0 0 1-.44-.729v-1.162l-1.368.78V16.9a.812.812 0 0 0 .439.729l2.971 1.66a.906.906 0 0 0 .878 0l2.971-1.66A.862.862 0 0 0 20 16.9v-3.349a.812.812 0 0 0-.439-.729l-3-1.686z" transform="translate(-3.679 -3.5)" style="fill:#cedaeb"/>
    </g>
</svg>
