<svg width="977" height="897" viewBox="0 0 977 897" fill="none" xmlns="http://www.w3.org/2000/svg">
<g filter="url(#filter0_f_42_923)">
<circle cx="511.059" cy="421.3" r="88.9914" transform="rotate(-180 511.059 421.3)" fill="#F969D3"/>
</g>
<g filter="url(#filter1_f_42_923)">
<circle cx="466.234" cy="430.529" r="88.9914" transform="rotate(-180 466.234 430.529)" fill="#6ED1E6"/>
</g>
<g filter="url(#filter2_f_42_923)">
<ellipse cx="468.212" cy="360.654" rx="69.8748" ry="69.2156" transform="rotate(-180 468.212 360.654)" fill="#E56496"/>
</g>
<path d="M305.815 288.663L454.255 203.252C468.609 194.993 486.272 194.993 500.625 203.252L649.066 288.663C663.483 296.958 672.369 312.324 672.369 328.957V499.587C672.369 516.22 663.483 531.586 649.066 539.882L500.625 625.292C486.272 633.551 468.609 633.551 454.255 625.292L305.815 539.882C291.398 531.586 282.511 516.22 282.511 499.587V328.957C282.511 312.324 291.398 296.958 305.815 288.663Z" fill="url(#paint0_linear_42_923)"/>
<path d="M305.815 288.663L454.255 203.252C468.609 194.993 486.272 194.993 500.625 203.252L649.066 288.663C663.483 296.958 672.369 312.324 672.369 328.957V499.587C672.369 516.22 663.483 531.586 649.066 539.882L500.625 625.292C486.272 633.551 468.609 633.551 454.255 625.292L305.815 539.882C291.398 531.586 282.511 516.22 282.511 499.587V328.957C282.511 312.324 291.398 296.958 305.815 288.663Z" fill="url(#paint1_linear_42_923)" fill-opacity="0.2"/>
<path d="M305.815 288.663L454.255 203.252C468.609 194.993 486.272 194.993 500.625 203.252L649.066 288.663C663.483 296.958 672.369 312.324 672.369 328.957V499.587C672.369 516.22 663.483 531.586 649.066 539.882L500.625 625.292C486.272 633.551 468.609 633.551 454.255 625.292L305.815 539.882C291.398 531.586 282.511 516.22 282.511 499.587V328.957C282.511 312.324 291.398 296.958 305.815 288.663Z" fill="black" fill-opacity="0.2"/>
<path d="M305.815 288.663L454.255 203.252C468.609 194.993 486.272 194.993 500.625 203.252L649.066 288.663C663.483 296.958 672.369 312.324 672.369 328.957V499.587C672.369 516.22 663.483 531.586 649.066 539.882L500.625 625.292C486.272 633.551 468.609 633.551 454.255 625.292L305.815 539.882C291.398 531.586 282.511 516.22 282.511 499.587V328.957C282.511 312.324 291.398 296.958 305.815 288.663Z" stroke="url(#paint2_linear_42_923)" stroke-width="3.02279"/>
<path d="M305.815 288.663L454.255 203.252C468.609 194.993 486.272 194.993 500.625 203.252L649.066 288.663C663.483 296.958 672.369 312.324 672.369 328.957V499.587C672.369 516.22 663.483 531.586 649.066 539.882L500.625 625.292C486.272 633.551 468.609 633.551 454.255 625.292L305.815 539.882C291.398 531.586 282.511 516.22 282.511 499.587V328.957C282.511 312.324 291.398 296.958 305.815 288.663Z" stroke="url(#paint3_linear_42_923)" stroke-opacity="0.5" stroke-width="3.02279"/>
<g opacity="0.6" filter="url(#filter3_f_42_923)">
<path d="M453.6 572.68C468.37 581.132 486.511 581.132 501.281 572.68L603.578 514.14C618.519 505.59 627.737 489.694 627.737 472.479L627.737 356.066C627.737 338.851 618.519 322.955 603.578 314.405L501.281 255.865C486.511 247.413 468.37 247.413 453.6 255.865L351.303 314.405C336.362 322.955 327.144 338.851 327.144 356.066L327.144 472.479C327.144 489.694 336.362 505.59 351.303 514.14L453.6 572.68Z" fill="url(#paint4_linear_42_923)"/>
</g>
<path opacity="0.7" d="M478.162 541.901L409.724 502.398V455.924L478.162 495.427V541.901Z" fill="url(#paint5_linear_42_923)"/>
<path opacity="0.7" d="M478.162 541.901L546.6 502.398V455.924L478.162 495.427V541.901Z" fill="url(#paint6_linear_42_923)"/>
<path opacity="0.7" d="M586.867 353.649V432.687L546.6 455.924V376.886L586.867 353.649Z" fill="url(#paint7_linear_42_923)"/>
<path d="M586.867 353.649L518.429 314.146L478.162 337.383L546.6 376.886L586.867 353.649Z" fill="url(#paint8_linear_42_923)"/>
<path d="M369.489 353.649L437.927 314.146L478.162 337.383L409.724 376.886L369.489 353.649Z" fill="#F969D3"/>
<path opacity="0.7" d="M369.489 353.649V432.687L409.724 455.924V376.886L369.489 353.649Z" fill="url(#paint9_linear_42_923)"/>
<mask id="mask0_42_923" style="mask-type:alpha" maskUnits="userSpaceOnUse" x="281" y="199" width="393" height="431">
<path d="M513.348 208.829C491.118 196.038 463.762 196.038 441.532 208.829L317.092 280.431C294.763 293.278 281 317.076 281 342.837V485.707C281 511.468 294.763 535.266 317.092 548.114L441.532 619.715C463.762 632.506 491.118 632.506 513.348 619.715L637.789 548.114C660.117 535.266 673.881 511.468 673.881 485.707V342.837C673.881 317.076 660.117 293.278 637.789 280.431L513.348 208.829Z" fill="url(#paint10_linear_42_923)"/>
<path d="M513.348 208.829C491.118 196.038 463.762 196.038 441.532 208.829L317.092 280.431C294.763 293.278 281 317.076 281 342.837V485.707C281 511.468 294.763 535.266 317.092 548.114L441.532 619.715C463.762 632.506 491.118 632.506 513.348 619.715L637.789 548.114C660.117 535.266 673.881 511.468 673.881 485.707V342.837C673.881 317.076 660.117 293.278 637.789 280.431L513.348 208.829Z" fill="url(#paint11_linear_42_923)" fill-opacity="0.2"/>
<path d="M513.348 208.829C491.118 196.038 463.762 196.038 441.532 208.829L317.092 280.431C294.763 293.278 281 317.076 281 342.837V485.707C281 511.468 294.763 535.266 317.092 548.114L441.532 619.715C463.762 632.506 491.118 632.506 513.348 619.715L637.789 548.114C660.117 535.266 673.881 511.468 673.881 485.707V342.837C673.881 317.076 660.117 293.278 637.789 280.431L513.348 208.829Z" fill="black" fill-opacity="0.2"/>
</mask>
<g mask="url(#mask0_42_923)">
<g filter="url(#filter4_f_42_923)">
<circle cx="214.421" cy="426.138" r="73.1708" fill="#F969D3"/>
</g>
<g filter="url(#filter5_f_42_923)">
<circle cx="732.549" cy="430.093" r="73.1708" fill="#5D9EBF"/>
</g>
</g>
<defs>
<filter id="filter0_f_42_923" x="45.1642" y="-44.5951" width="931.79" height="931.79" filterUnits="userSpaceOnUse" color-interpolation-filters="sRGB">
<feFlood flood-opacity="0" result="BackgroundImageFix"/>
<feBlend mode="normal" in="SourceGraphic" in2="BackgroundImageFix" result="shape"/>
<feGaussianBlur stdDeviation="188.452" result="effect1_foregroundBlur_42_923"/>
</filter>
<filter id="filter1_f_42_923" x="0.338928" y="-35.3664" width="931.79" height="931.79" filterUnits="userSpaceOnUse" color-interpolation-filters="sRGB">
<feFlood flood-opacity="0" result="BackgroundImageFix"/>
<feBlend mode="normal" in="SourceGraphic" in2="BackgroundImageFix" result="shape"/>
<feGaussianBlur stdDeviation="188.452" result="effect1_foregroundBlur_42_923"/>
</filter>
<filter id="filter2_f_42_923" x="21.4333" y="-85.4653" width="893.557" height="892.238" filterUnits="userSpaceOnUse" color-interpolation-filters="sRGB">
<feFlood flood-opacity="0" result="BackgroundImageFix"/>
<feBlend mode="normal" in="SourceGraphic" in2="BackgroundImageFix" result="shape"/>
<feGaussianBlur stdDeviation="188.452" result="effect1_foregroundBlur_42_923"/>
</filter>
<filter id="filter3_f_42_923" x="232.918" y="155.3" width="489.045" height="517.945" filterUnits="userSpaceOnUse" color-interpolation-filters="sRGB">
<feFlood flood-opacity="0" result="BackgroundImageFix"/>
<feBlend mode="normal" in="SourceGraphic" in2="BackgroundImageFix" result="shape"/>
<feGaussianBlur stdDeviation="47.113" result="effect1_foregroundBlur_42_923"/>
</filter>
<filter id="filter4_f_42_923" x="3.68054" y="215.397" width="421.481" height="421.481" filterUnits="userSpaceOnUse" color-interpolation-filters="sRGB">
<feFlood flood-opacity="0" result="BackgroundImageFix"/>
<feBlend mode="normal" in="SourceGraphic" in2="BackgroundImageFix" result="shape"/>
<feGaussianBlur stdDeviation="68.7849" result="effect1_foregroundBlur_42_923"/>
</filter>
<filter id="filter5_f_42_923" x="521.809" y="219.352" width="421.481" height="421.481" filterUnits="userSpaceOnUse" color-interpolation-filters="sRGB">
<feFlood flood-opacity="0" result="BackgroundImageFix"/>
<feBlend mode="normal" in="SourceGraphic" in2="BackgroundImageFix" result="shape"/>
<feGaussianBlur stdDeviation="68.7849" result="effect1_foregroundBlur_42_923"/>
</filter>
<linearGradient id="paint0_linear_42_923" x1="-51.8939" y1="106.428" x2="477.44" y2="640.376" gradientUnits="userSpaceOnUse">
<stop stop-color="#45415A"/>
<stop offset="1" stop-color="#070E26"/>
</linearGradient>
<linearGradient id="paint1_linear_42_923" x1="795.173" y1="681.906" x2="450.413" y2="640.376" gradientUnits="userSpaceOnUse">
<stop stop-color="#296399"/>
<stop offset="1" stop-color="#286093" stop-opacity="0"/>
</linearGradient>
<linearGradient id="paint2_linear_42_923" x1="796.556" y1="457.495" x2="587.983" y2="459.007" gradientUnits="userSpaceOnUse">
<stop stop-color="#4992FF"/>
<stop offset="1" stop-color="#4992FF" stop-opacity="0"/>
</linearGradient>
<linearGradient id="paint3_linear_42_923" x1="140.61" y1="460.518" x2="535.084" y2="486.212" gradientUnits="userSpaceOnUse">
<stop stop-color="#FFABE9"/>
<stop offset="1" stop-color="#F969D3" stop-opacity="0"/>
</linearGradient>
<linearGradient id="paint4_linear_42_923" x1="535.342" y1="242.222" x2="526.135" y2="651.046" gradientUnits="userSpaceOnUse">
<stop stop-color="#45415A"/>
<stop offset="1" stop-color="#070E26"/>
</linearGradient>
<linearGradient id="paint5_linear_42_923" x1="470.849" y1="541.497" x2="411.618" y2="358.949" gradientUnits="userSpaceOnUse">
<stop stop-color="#E98ADA"/>
<stop offset="1" stop-color="#7E4DBD"/>
</linearGradient>
<linearGradient id="paint6_linear_42_923" x1="512.381" y1="455.924" x2="512.381" y2="541.901" gradientUnits="userSpaceOnUse">
<stop stop-color="#719DED"/>
<stop offset="1" stop-color="#2545BE"/>
</linearGradient>
<linearGradient id="paint7_linear_42_923" x1="566.734" y1="353.649" x2="566.734" y2="455.924" gradientUnits="userSpaceOnUse">
<stop stop-color="#93EBFF"/>
<stop offset="1" stop-color="#197DDB"/>
</linearGradient>
<linearGradient id="paint8_linear_42_923" x1="532.515" y1="314.146" x2="577.638" y2="394.497" gradientUnits="userSpaceOnUse">
<stop stop-color="#F969D3"/>
<stop offset="1" stop-color="#4F51C0"/>
</linearGradient>
<linearGradient id="paint9_linear_42_923" x1="468.212" y1="554.681" x2="330.992" y2="396.847" gradientUnits="userSpaceOnUse">
<stop stop-color="#E98ADA"/>
<stop offset="1" stop-color="#7E4DBD"/>
</linearGradient>
<linearGradient id="paint10_linear_42_923" x1="-51.8939" y1="106.428" x2="477.44" y2="640.376" gradientUnits="userSpaceOnUse">
<stop stop-color="#45415A"/>
<stop offset="1" stop-color="#070E26"/>
</linearGradient>
<linearGradient id="paint11_linear_42_923" x1="795.173" y1="681.906" x2="450.413" y2="640.376" gradientUnits="userSpaceOnUse">
<stop stop-color="#296399"/>
<stop offset="1" stop-color="#286093" stop-opacity="0"/>
</linearGradient>
</defs>
</svg>
