<svg width="135" height="181" viewBox="0 0 135 181" fill="none" xmlns="http://www.w3.org/2000/svg">
<mask id="mask0_8646_1628" style="mask-type:luminance" maskUnits="userSpaceOnUse" x="0" y="-19" width="183" height="200">
<path d="M182.361 -19V181H0.0546875V179.679V-19H182.361Z" fill="white"/>
</mask>
<g mask="url(#mask0_8646_1628)">
<path opacity="0.3" d="M155.217 188.383C155.07 188.571 154.923 188.766 154.776 188.954C154.62 189.15 154.465 189.354 154.301 189.549C154.285 189.566 154.277 189.582 154.26 189.598C154.146 189.745 154.023 189.892 153.9 190.039C153.868 190.08 153.827 190.129 153.794 190.169C153.68 190.308 153.565 190.447 153.45 190.577C153.418 190.618 153.377 190.659 153.344 190.7C153.23 190.838 153.107 190.977 152.992 191.116L152.902 191.222C152.837 191.295 152.78 191.369 152.714 191.442C152.649 191.515 152.583 191.589 152.526 191.662L152.444 191.752C152.379 191.825 152.314 191.899 152.248 191.972C152.183 192.046 152.117 192.119 152.052 192.184C152.019 192.217 151.995 192.25 151.962 192.282L151.896 192.356L151.831 192.429C151.831 192.429 151.774 192.486 151.749 192.519C151.676 192.6 151.594 192.682 151.52 192.763C151.365 192.927 151.217 193.09 151.062 193.253C150.776 193.555 150.481 193.856 150.187 194.158C150.089 194.256 149.991 194.354 149.892 194.452C149.745 194.599 149.606 194.737 149.459 194.876L149.402 194.933C149.353 194.982 149.295 195.039 149.246 195.088C149.181 195.154 149.115 195.219 149.042 195.284C148.96 195.366 148.878 195.439 148.796 195.512C148.747 195.561 148.698 195.602 148.657 195.643L148.6 195.692L148.584 195.708L148.494 195.79C148.453 195.831 148.412 195.871 148.363 195.912C148.297 195.977 148.24 196.034 148.175 196.092L148.142 196.124C148.142 196.124 148.093 196.165 148.076 196.189C148.044 196.214 148.019 196.247 147.987 196.271L147.905 196.344L147.79 196.442L147.758 196.475L147.635 196.581L147.594 196.614H147.578C147.52 196.679 147.463 196.728 147.406 196.777L147.381 196.801C147.324 196.85 147.267 196.899 147.209 196.956C147.07 197.079 146.931 197.201 146.8 197.315C146.645 197.454 146.49 197.584 146.326 197.723H146.318C146.244 197.796 146.171 197.854 146.097 197.919C146.015 197.984 145.933 198.058 145.852 198.123C145.778 198.18 145.713 198.237 145.639 198.302C145.565 198.359 145.5 198.416 145.426 198.482L145.385 198.514C145.238 198.637 145.091 198.751 144.952 198.865L144.919 198.89C144.772 199.012 144.617 199.126 144.469 199.248L144.453 199.265C144.412 199.297 144.363 199.33 144.322 199.371C144.289 199.395 144.257 199.42 144.232 199.444L144.216 199.461L144.199 199.477L144.159 199.509C144.159 199.509 144.093 199.558 144.069 199.583C144.044 199.599 144.019 199.616 144.003 199.64L143.954 199.681C143.905 199.722 143.856 199.754 143.807 199.795C143.733 199.852 143.651 199.909 143.578 199.966C143.48 200.04 143.381 200.113 143.283 200.187C143.201 200.244 143.12 200.309 143.038 200.366C142.981 200.407 142.923 200.448 142.874 200.488C142.825 200.521 142.776 200.562 142.727 200.594C142.694 200.619 142.653 200.643 142.621 200.676C142.555 200.725 142.498 200.766 142.433 200.806C142.228 200.953 142.015 201.108 141.803 201.255C141.721 201.312 141.639 201.369 141.566 201.418C141.492 201.467 141.427 201.516 141.353 201.565C141.312 201.59 141.279 201.614 141.238 201.639C141.181 201.679 141.124 201.712 141.067 201.753C140.895 201.867 140.731 201.981 140.559 202.095C140.494 202.136 140.437 202.177 140.371 202.218C140.339 202.242 140.298 202.267 140.265 202.291C140.208 202.332 140.142 202.373 140.085 202.405C140.052 202.422 140.028 202.446 139.995 202.462C139.938 202.495 139.881 202.536 139.823 202.568C139.725 202.634 139.619 202.699 139.521 202.764C139.423 202.829 139.324 202.887 139.226 202.952C139.136 203.009 139.046 203.066 138.948 203.123C138.915 203.139 138.883 203.164 138.858 203.18C138.793 203.221 138.719 203.262 138.654 203.311C138.629 203.327 138.596 203.343 138.572 203.36C138.474 203.417 138.376 203.482 138.277 203.539C138.171 203.604 138.073 203.662 137.967 203.727L137.917 203.759C137.836 203.808 137.754 203.857 137.664 203.906C137.639 203.923 137.615 203.939 137.59 203.947C137.517 203.988 137.443 204.029 137.378 204.069C137.149 204.2 136.92 204.33 136.682 204.461C136.633 204.485 136.584 204.518 136.535 204.543C136.486 204.567 136.445 204.591 136.396 204.616C136.339 204.649 136.282 204.681 136.216 204.714C136.175 204.738 136.134 204.755 136.102 204.779C136.044 204.812 135.987 204.836 135.938 204.869C135.824 204.934 135.709 204.991 135.594 205.056C135.505 205.105 135.406 205.154 135.316 205.203H135.308C135.218 205.252 135.128 205.301 135.03 205.35C134.997 205.366 134.956 205.391 134.924 205.407C134.85 205.448 134.785 205.481 134.711 205.513C134.572 205.587 134.441 205.652 134.302 205.725C134.106 205.831 133.901 205.929 133.697 206.027L133.59 206.084C133.59 206.084 133.517 206.117 133.484 206.133C133.361 206.19 133.247 206.247 133.124 206.305C132.691 206.517 132.265 206.712 131.832 206.908C131.758 206.941 131.676 206.982 131.595 207.014C131.521 207.047 131.447 207.079 131.366 207.112C131.333 207.128 131.3 207.137 131.267 207.153C131.079 207.234 130.899 207.316 130.711 207.398C130.679 207.414 130.646 207.422 130.613 207.438C130.548 207.463 130.482 207.495 130.417 207.52C130.36 207.544 130.302 207.569 130.245 207.593C130.22 207.602 130.196 207.618 130.171 207.626C130.131 207.642 130.081 207.659 130.041 207.683C129.934 207.724 129.836 207.765 129.73 207.814C129.664 207.838 129.599 207.863 129.542 207.895C129.476 207.92 129.403 207.952 129.337 207.977C129.272 208.001 129.198 208.034 129.133 208.058H129.116C129.01 208.107 128.904 208.148 128.805 208.189C128.462 208.319 128.127 208.45 127.783 208.572C127.701 208.605 127.628 208.629 127.546 208.662C127.333 208.735 127.12 208.809 126.916 208.89C126.703 208.964 126.491 209.037 126.278 209.111C126.204 209.135 126.123 209.16 126.041 209.184C125.844 209.249 125.64 209.315 125.444 209.38C125.411 209.388 125.378 209.404 125.337 209.412H125.313C125.313 209.412 125.247 209.445 125.223 209.453C125.157 209.478 125.092 209.494 125.035 209.51H125.002V209.527C123.292 210.065 121.55 210.53 119.783 210.913C119.473 210.979 119.154 211.036 118.843 211.093C118.025 211.256 117.207 211.403 116.389 211.541C116.291 211.558 116.184 211.574 116.086 211.59H116.029C115.98 211.607 115.931 211.615 115.882 211.623C115.824 211.631 115.767 211.639 115.702 211.656C115.628 211.664 115.555 211.68 115.489 211.688C115.448 211.688 115.407 211.705 115.366 211.705H115.334C115.26 211.729 115.186 211.737 115.113 211.745C114.818 211.786 114.524 211.835 114.238 211.876H114.172C114.131 211.892 114.082 211.9 114.041 211.909C114 211.909 113.951 211.925 113.91 211.925H113.861L113.788 211.941H113.714L113.559 211.974H113.518C113.109 212.039 112.7 212.096 112.291 212.153L111.285 212.276L110.32 212.382H110.017C109.894 212.39 109.763 212.406 109.641 212.414C109.592 212.414 109.543 212.422 109.502 212.431H109.395C109.158 212.463 108.929 212.48 108.692 212.496C108.479 212.512 108.275 212.528 108.062 212.537H108.054C107.98 212.537 107.915 212.545 107.841 212.553C107.637 212.569 107.424 212.586 107.22 212.594H107.195C106.982 212.61 106.77 212.626 106.557 212.635C106.426 212.635 106.295 212.651 106.164 212.659C105.772 212.683 105.379 212.7 104.995 212.724C104.602 212.741 104.201 212.757 103.809 212.773C103.326 212.79 102.843 212.814 102.361 212.822H102.304C102.246 212.822 102.189 212.822 102.124 212.822C102.058 212.822 101.993 212.822 101.927 212.822C101.698 212.822 101.461 212.822 101.232 212.83C101.118 212.83 101.003 212.83 100.889 212.83C100.807 212.83 100.733 212.83 100.651 212.83H100.381C100.111 212.83 99.8497 212.838 99.5798 212.838C99.5635 212.838 99.5471 212.838 99.5307 212.838H99.4735C99.3753 212.838 99.2853 212.838 99.1872 212.838C98.3938 212.838 97.6004 212.822 96.8069 212.806C95.8826 212.781 94.9584 212.749 94.0422 212.708C93.3797 212.675 92.7172 212.635 92.0546 212.594C91.9156 212.594 91.7765 212.577 91.6456 212.569C90.8767 212.52 90.1079 212.455 89.339 212.39C88.7746 212.341 88.2102 212.284 87.6458 212.227C82.5336 211.696 77.4541 210.815 72.4563 209.608V172.558C73.7651 172.517 75.0738 172.444 76.3825 172.338H76.9224C81.0204 172.019 85.0611 171.171 88.9382 169.809C92.21 168.806 95.261 167.223 97.9603 165.135C101.371 162.622 104.299 159.514 106.606 155.958C106.631 155.925 106.655 155.884 106.68 155.852C110.033 150.737 111.898 144.791 112.054 138.673C112.168 129.936 106.86 120.531 97.993 114.111C97.7803 113.956 97.5676 113.801 97.355 113.662C97.3304 113.646 97.3141 113.638 97.2895 113.622C97.2732 113.605 97.2486 113.597 97.2323 113.581C97.0523 113.45 96.8642 113.32 96.6679 113.197L96.6515 113.181L96.5779 113.132C96.537 113.1 96.4879 113.075 96.4389 113.042L96.3816 113.01C96.2671 112.928 96.1444 112.855 96.0217 112.773C95.9481 112.724 95.8663 112.675 95.7927 112.626C95.67 112.553 95.5473 112.471 95.4164 112.398C95.1628 112.235 94.9011 112.08 94.6393 111.933C88.8973 108.58 81.9855 106.419 74.2886 106.223H74.2395C73.7487 106.207 73.2579 106.207 72.7672 106.207C72.4318 106.207 72.0964 106.207 71.7611 106.223H71.7202C71.5402 106.231 71.3685 106.239 71.1967 106.256H70.0924L69.0127 106.345C68.4075 106.402 67.8267 106.46 67.2296 106.533H67.0905C65.5773 106.737 64.0641 107.006 62.5427 107.357C54.6739 109.168 52.9971 113.589 52.9971 117.023C52.9971 118.581 53.3161 120.115 53.9051 121.55H53.8315C53.8315 121.55 53.7824 121.55 53.7578 121.55C50.6087 121.257 47.4923 120.629 44.474 119.674L44.3268 119.625L43.7215 119.421C40.5724 118.345 37.6686 116.656 35.1657 114.462L35.1411 114.437C35.0675 114.372 35.0021 114.315 34.9285 114.25H34.8876L34.6422 114.021C33.7588 113.165 32.949 112.243 32.221 111.256C32.1883 111.215 32.1638 111.174 32.1392 111.142L32.0983 111.085C31.493 110.261 30.945 109.396 30.446 108.507C30.446 108.507 30.4379 108.483 30.4297 108.474C42.7808 100.709 56.9724 96.3282 71.5648 95.7898L73.078 95.7327C75.1229 95.6674 77.1841 95.6674 79.2536 95.7327C82.4927 95.8306 85.7482 96.0835 89.0118 96.4832C93.9441 97.046 98.8191 98.0575 103.563 99.5014H103.612V99.4687H103.653C102.917 98.1636 102.091 96.8992 101.183 95.7082C101.019 95.4798 100.848 95.2596 100.668 95.0393C100.455 94.7701 100.242 94.5091 100.022 94.2562C99.8252 94.0197 99.6289 93.7913 99.4244 93.571C99.4244 93.571 99.3671 93.4976 99.3262 93.465C99.2608 93.3916 99.1954 93.31 99.1218 93.2284C99.0154 93.1061 98.9009 92.9755 98.7782 92.8369C98.6637 92.6982 98.5328 92.5595 98.402 92.4045C98.3202 92.3066 98.222 92.2006 98.132 92.1027C97.9521 91.8906 97.7558 91.6785 97.5513 91.4583C97.404 91.3033 97.2568 91.1402 97.1014 90.9688C96.6761 90.512 96.218 90.0471 95.7436 89.5821C95.6863 89.525 95.6291 89.4679 95.5636 89.4108L95.5391 89.3863C95.4818 89.3292 95.4246 89.2721 95.3591 89.2069C95.3264 89.1824 95.3019 89.1498 95.2692 89.1253C95.0647 88.9295 94.852 88.7338 94.6475 88.5461C94.6475 88.5461 94.6312 88.5298 94.623 88.5217C94.5003 88.4075 94.3776 88.3014 94.2467 88.1872C94.1895 88.1464 94.1404 88.0975 94.0831 88.0485C92.4636 86.6455 90.7541 85.5035 89.2899 85.2588C89.2654 85.2588 89.2408 85.2506 89.2163 85.2424H89.159C89.11 85.2261 89.0609 85.218 89.0118 85.218C88.8973 85.2098 88.791 85.2017 88.6764 85.2017H88.84L89.6989 85.1364C91.8338 85.0385 93.985 85.0385 96.1526 85.1364C98.6801 85.2098 101.183 85.4056 103.67 85.7319H103.727C103.792 85.7482 103.866 85.7563 103.931 85.7645H103.964L104.119 85.789H104.16C104.741 85.8787 105.322 85.9603 105.911 86.0582C106.557 86.1642 107.203 86.2784 107.841 86.4008C107.874 86.4008 107.898 86.4089 107.923 86.4171C117.035 88.1464 125.697 91.5643 133.492 96.4587C133.525 96.4832 133.558 96.4995 133.599 96.5239L133.631 96.5484L133.656 96.5647L133.68 96.5811L133.787 96.6545C133.983 96.7768 134.188 96.9073 134.384 97.0379L134.425 97.0623C134.842 97.3315 135.251 97.6007 135.66 97.8781C135.701 97.9025 135.734 97.927 135.774 97.9596C136.012 98.1228 136.257 98.2859 136.494 98.4491C136.764 98.6367 137.026 98.8243 137.288 99.0119C137.811 99.3872 138.326 99.7624 138.842 100.154C138.842 100.154 138.858 100.154 138.866 100.17C143.267 103.507 147.324 107.357 150.931 111.664L151.193 111.941L151.512 112.357C151.577 112.447 151.643 112.537 151.708 112.626C151.725 112.643 151.733 112.667 151.749 112.683C155.373 117.504 158.416 122.725 160.828 128.248V128.264C160.935 128.484 161.025 128.696 161.115 128.916C163.593 135.915 165.229 143.175 165.99 150.558C167.487 164.074 163.659 177.648 155.324 188.416L155.217 188.383Z" fill="url(#paint0_linear_8646_1628)"/>
<path opacity="0.4" d="M155.2 188.391H155.216C155.069 188.579 154.922 188.766 154.774 188.954C154.619 189.15 154.464 189.354 154.3 189.549L154.259 189.598C154.145 189.745 154.022 189.892 153.899 190.039C153.866 190.08 153.826 190.129 153.793 190.169C153.67 190.324 153.539 190.471 153.417 190.626L153.351 190.708C153.294 190.781 153.237 190.846 153.171 190.92C153.114 190.993 153.057 191.058 152.991 191.124L152.901 191.23C152.836 191.303 152.779 191.377 152.713 191.45C152.648 191.523 152.582 191.597 152.525 191.67L152.443 191.76C152.378 191.833 152.312 191.907 152.247 191.98C152.181 192.054 152.116 192.127 152.051 192.192C152.018 192.225 151.993 192.258 151.961 192.29L151.895 192.364C151.772 192.502 151.642 192.641 151.519 192.78C151.363 192.943 151.216 193.106 151.061 193.269C150.987 193.342 150.914 193.424 150.84 193.497C150.693 193.652 150.546 193.799 150.398 193.946C150.325 194.02 150.251 194.093 150.177 194.175C150.104 194.248 150.022 194.33 149.948 194.403C149.785 194.566 149.613 194.737 149.449 194.901L149.392 194.958C149.302 195.047 149.212 195.129 149.13 195.219C149.098 195.251 149.065 195.284 149.032 195.308C149 195.341 148.967 195.374 148.934 195.406L148.91 195.431L148.844 195.496L148.795 195.545L148.754 195.594L148.73 195.618C148.73 195.618 148.656 195.684 148.623 195.716L148.591 195.749L148.501 195.83C148.46 195.871 148.419 195.912 148.37 195.953C148.304 196.018 148.247 196.075 148.182 196.132L148.149 196.165L148.116 196.198L148.1 196.214C148.1 196.214 148.043 196.263 148.018 196.287L147.993 196.312L147.912 196.385L147.797 196.483L147.764 196.516L147.642 196.622L147.601 196.654H147.585C147.527 196.72 147.47 196.769 147.413 196.817L147.388 196.842C147.331 196.891 147.274 196.94 147.216 196.997C147.077 197.119 146.938 197.242 146.807 197.356L146.791 197.372C146.652 197.495 146.505 197.617 146.366 197.739L146.341 197.764H146.333C146.259 197.837 146.186 197.894 146.112 197.96C146.047 198.017 145.981 198.074 145.916 198.131L145.875 198.172C145.801 198.229 145.736 198.286 145.662 198.351C145.589 198.408 145.523 198.465 145.45 198.531L145.409 198.563C145.262 198.686 145.114 198.8 144.975 198.914L144.943 198.938C144.795 199.061 144.64 199.175 144.493 199.297L144.476 199.314C144.435 199.346 144.386 199.379 144.345 199.42C144.313 199.444 144.28 199.469 144.247 199.493L144.231 199.509L144.215 199.526C144.215 199.526 144.19 199.55 144.174 199.558H144.165L144.125 199.599C144.125 199.599 144.084 199.632 144.067 199.64L144.026 199.681L143.977 199.721C143.977 199.721 143.928 199.762 143.904 199.779C143.855 199.819 143.806 199.852 143.756 199.893C143.707 199.934 143.658 199.966 143.609 200.007C143.511 200.08 143.413 200.154 143.315 200.227C143.258 200.268 143.208 200.309 143.151 200.35L143.135 200.366H143.118V200.382L143.086 200.399H143.069L143.004 200.456L142.906 200.529L142.832 200.586C142.791 200.619 142.75 200.651 142.701 200.684C142.652 200.717 142.611 200.749 142.562 200.782L142.546 200.798C142.44 200.88 142.333 200.953 142.227 201.027L142.186 201.059L142.145 201.092L142.121 201.108L142.096 201.125L142.039 201.165L141.998 201.198C141.932 201.247 141.867 201.296 141.802 201.337C141.777 201.353 141.752 201.369 141.72 201.394C141.679 201.418 141.638 201.451 141.597 201.475C141.564 201.5 141.532 201.524 141.491 201.549L141.466 201.565H141.458V201.581C139.086 203.205 136.616 204.665 134.039 205.945H134.031L133.925 206.003L133.9 206.019L133.843 206.052H133.826L133.81 206.068C133.745 206.1 133.679 206.133 133.606 206.166C133.573 206.182 133.532 206.198 133.499 206.215C132.878 206.516 132.248 206.81 131.61 207.096C131.569 207.112 131.52 207.136 131.479 207.153C131.446 207.169 131.413 207.185 131.381 207.194C131.348 207.21 131.315 207.218 131.283 207.234C131.234 207.259 131.184 207.275 131.135 207.3H131.111C131.021 207.349 130.923 207.389 130.833 207.43H130.816L130.718 207.479C130.718 207.479 130.653 207.504 130.62 207.52C130.555 207.544 130.489 207.577 130.424 207.601C130.367 207.626 130.309 207.65 130.252 207.675C130.227 207.683 130.203 207.699 130.178 207.707C130.031 207.773 129.884 207.83 129.737 207.887C129.671 207.911 129.606 207.936 129.549 207.968C129.483 207.993 129.41 208.026 129.344 208.05C129.287 208.075 129.221 208.099 129.164 208.123C129.148 208.123 129.123 208.14 129.107 208.148H129.082V208.164L129.025 208.181C128.927 208.221 128.829 208.262 128.731 208.295C128.632 208.336 128.534 208.368 128.436 208.409C128.354 208.442 128.281 208.466 128.199 208.499C128.174 208.507 128.158 208.515 128.133 208.523C128.076 208.548 128.027 208.564 127.97 208.588C127.913 208.613 127.864 208.629 127.806 208.646C127.725 208.678 127.651 208.703 127.569 208.735C127.356 208.809 127.144 208.882 126.939 208.964C126.653 209.062 126.359 209.159 126.072 209.257C125.835 209.339 125.606 209.412 125.369 209.486H125.344C125.246 209.527 125.156 209.551 125.058 209.584H125.025C123.308 210.13 121.565 210.595 119.79 210.979C118.563 211.223 117.328 211.452 116.093 211.664H116.036C115.856 211.705 115.676 211.729 115.496 211.762C115.463 211.762 115.431 211.77 115.398 211.778C115.382 211.778 115.357 211.778 115.341 211.786C114.973 211.843 114.613 211.9 114.245 211.957H114.179C114.13 211.974 114.089 211.982 114.04 211.99C113.983 211.998 113.917 212.006 113.86 212.014H113.787L113.713 212.039L113.557 212.063H113.517C113.108 212.129 112.699 212.186 112.29 212.235L111.275 212.357L110.31 212.463H110.008C109.868 212.479 109.738 212.488 109.599 212.504C109.566 212.504 109.533 212.504 109.5 212.512H109.394C108.92 212.561 108.445 212.602 107.963 212.634C101.28 213.156 94.5563 213.067 87.89 212.365C82.6632 212.055 77.4856 211.28 72.4224 210.049V203.922C85.2071 201.704 97.1738 195.879 106.858 187.029C120.068 175.804 127.921 159.547 128.493 142.253C128.493 140.508 128.412 138.738 128.248 136.968L128.174 136.16L127.839 136.919C123.856 146.014 116.126 152.948 106.646 155.958C106.621 155.966 106.588 155.974 106.564 155.982L106.343 156.056C108.233 153.331 109.664 150.321 110.58 147.14C111.398 144.399 111.856 141.568 111.946 138.713C112.052 129.806 106.515 120.196 97.3292 113.768C97.2883 113.744 97.2474 113.711 97.2065 113.687C97.0184 113.556 96.8384 113.434 96.6421 113.303L96.6258 113.287C96.5603 113.238 96.4867 113.197 96.4213 113.148L96.364 113.116C96.1677 112.985 95.9714 112.863 95.7751 112.732C90.1803 109.192 83.3749 106.802 75.7597 106.345H75.457L74.3283 106.321H70.0258C69.6741 106.321 69.306 106.378 68.9379 106.41C68.349 106.459 67.7519 106.525 67.1548 106.598H67.0157C65.5025 106.794 63.9402 107.071 62.3697 107.43C48.898 110.505 53.5849 121.289 53.7403 121.64C46.7631 121.754 40.1295 119.144 35.1563 114.543C34.0602 113.532 33.0459 112.414 32.1217 111.215C31.5 110.408 30.9274 109.559 30.3958 108.678C30.3549 108.613 30.3221 108.556 30.2812 108.491C42.6488 100.709 56.8649 96.3362 71.4818 95.806L72.995 95.7489C75.0481 95.6836 77.1011 95.6836 79.1706 95.7489C82.4015 95.8549 85.6324 96.1078 88.8633 96.5075C93.8202 97.0541 98.7116 98.0656 103.472 99.5257H103.521C102.327 97.413 100.912 95.4308 99.3005 93.6198C97.5582 91.5968 93.3458 86.7188 89.9921 85.5115H89.9676L89.9349 85.487C89.6731 85.3973 89.4114 85.3239 89.1578 85.2831H89.1496C89.1087 85.275 89.0678 85.2668 89.0269 85.2668C88.9533 85.2586 88.8797 85.2505 88.8061 85.2423C88.7407 85.2423 88.6752 85.2423 88.6098 85.2423H88.5198C88.8797 85.2423 89.2723 85.1934 89.6159 85.1852C91.7589 85.0873 93.902 85.0873 96.0695 85.1852C98.6216 85.2586 101.149 85.4626 103.652 85.797H103.709C103.775 85.8133 103.848 85.8215 103.914 85.8297C103.979 85.8378 104.036 85.846 104.102 85.8541H104.143C108.421 86.4496 112.609 87.4122 116.674 88.7255C116.715 88.7418 116.756 88.75 116.797 88.7663C129.925 93.0162 141.736 100.888 150.766 111.656L151.028 111.933C151.159 112.072 151.29 112.202 151.413 112.349C151.503 112.455 151.592 112.553 151.682 112.659C151.707 112.683 151.732 112.716 151.756 112.74C155.666 117.268 158.709 122.472 160.737 128.084C160.762 128.158 160.786 128.223 160.811 128.296C160.885 128.5 160.95 128.696 161.024 128.9C163.494 135.899 165.13 143.159 165.882 150.541C167.412 164.074 163.616 177.664 155.281 188.448L155.2 188.391Z" fill="url(#paint1_linear_8646_1628)"/>
<path d="M191.486 138.966C188.975 124.144 182.849 110.155 173.638 98.2612C169.164 92.5185 163.806 87.5262 157.762 83.4639C152.421 79.8503 146.728 76.7913 140.765 74.3359C134.622 71.7338 128.225 69.7515 121.69 68.4219C135.832 69.5231 149.639 73.2347 162.416 79.3771L157.304 73.0879C157.443 73.0063 157.598 72.9655 157.762 72.9818C161.68 73.8057 165.369 75.4535 168.592 77.8354C175.078 82.1506 180.599 87.7465 184.828 94.2723C184.828 94.2723 184.844 94.2723 184.853 94.2723C184.885 94.2723 184.926 94.2397 184.959 94.1744C185.139 93.7584 185.09 93.2771 184.828 92.91C184.583 92.5266 184.296 92.0046 183.961 91.4009L183.896 91.2867C179.462 83.3416 165.982 59.1716 121.363 57.1241C114.541 62.0103 106.934 65.7055 98.877 68.0467C98.9506 67.9651 105.903 59.9139 105.961 55.3377C109.78 53.9917 113.461 52.2868 116.946 50.2394C123.841 46.5115 130.115 41.4295 133.869 34.5611L127.653 33.9411C130.074 31.135 132.356 28.1984 134.466 25.1558C136.372 22.4475 141.362 13.6458 142.466 7.0874C141.951 8.31915 130.802 23.8995 131.121 24.0137C124.373 31.6653 116.496 38.2563 107.768 43.5667C107.768 43.477 106.868 34.3816 103.588 34.0064C96.963 40.9972 88.9061 46.4952 79.974 50.1252C70.4203 53.5594 63.2713 58.6658 61.3164 63.4541C60.6457 64.8817 60.6375 66.5213 61.2919 67.9569C63.6558 72.8187 66.4777 73.2184 66.8213 73.2429C66.6086 73.2429 60.2449 73.1531 59.9177 72.1742C59.9177 72.1416 59.8768 72.109 59.8359 72.109C59.5824 72.109 58.8298 72.8431 57.6929 73.9607L57.6683 73.9852C56.7031 74.9232 55.5171 76.0979 54.1511 77.2807C51.4682 80.1276 47.8774 81.963 43.9921 82.4524H43.9185C42.2335 82.5503 40.5976 81.8732 39.477 80.617C38.2828 78.7327 37.8492 76.465 38.2664 74.2788C38.201 74.6377 36.2542 75.5514 35.9516 75.7553C31.1011 79.0753 27.2321 83.4558 25.0727 88.9701C22.0627 96.6461 23.5186 104.648 24.8355 112.52C25.768 111.974 26.6269 111.199 27.5184 110.579C28.0828 110.187 29.5551 108.784 30.2259 108.784H30.2668L30.3158 108.645L30.3486 108.548C42.6997 100.782 56.8831 96.4095 71.4755 95.863L72.9887 95.7977C74.0111 95.7651 75.0417 95.7488 76.0724 95.7488C77.103 95.7488 78.1336 95.7651 79.1643 95.7977C82.4279 95.9037 85.7079 96.1566 88.9225 96.5563C93.8548 97.1192 98.7298 98.1307 103.474 99.5745H103.523V99.5419H103.556C103.556 99.5419 103.548 99.5174 103.539 99.5093C102.811 98.2041 101.985 96.9397 101.086 95.7488C100.914 95.5204 100.742 95.3001 100.57 95.0799C100.358 94.8107 100.145 94.5496 99.924 94.2968C99.7441 94.0765 99.5559 93.8563 99.3596 93.6442L99.3269 93.6116C99.2942 93.5789 99.2696 93.5381 99.2287 93.5055C99.1633 93.4321 99.0979 93.3505 99.0243 93.269C98.9179 93.1466 98.8034 93.0161 98.6807 92.8774C98.5662 92.7387 98.4353 92.6001 98.3045 92.4451C98.2227 92.3472 98.1245 92.2411 98.0345 92.1433C97.8546 91.9312 97.6583 91.7191 97.4538 91.4988C97.3065 91.3438 97.1593 91.1807 97.0039 91.0094C96.5786 90.5526 96.1205 90.0876 95.6461 89.6227C95.5888 89.5656 95.5316 89.5085 95.4661 89.4514L95.4416 89.4269C95.3844 89.3698 95.3271 89.3127 95.2617 89.2474C95.2289 89.2229 95.2044 89.1903 95.1717 89.1659C94.9672 88.9701 94.7545 88.7825 94.55 88.5867C94.55 88.5867 94.5337 88.5704 94.5255 88.5622C94.4028 88.4562 94.2719 88.342 94.1492 88.2278C94.092 88.187 94.0429 88.138 93.9856 88.0891C92.6278 86.9308 91.2209 85.9437 89.9449 85.5114L89.8959 85.4951H89.8713L89.8468 85.4788H89.8386C89.4296 85.3483 89.0288 85.2748 88.6526 85.2748H88.6117L88.9061 85.2585H88.947L89.6341 85.2177C90.6974 85.1688 91.7772 85.1443 92.8487 85.1443C93.9202 85.1443 94.9999 85.1688 96.0796 85.2177C102.501 85.3972 108.799 86.4087 114.852 88.1788C115.359 88.3257 115.866 88.4806 116.373 88.6438L116.594 88.709C116.635 88.7253 116.676 88.7335 116.717 88.7498C117.183 88.8967 117.641 89.0517 118.099 89.2148C123.457 91.0502 128.585 93.5055 133.387 96.5074C133.419 96.5319 133.452 96.5482 133.485 96.5726L133.518 96.5971L133.542 96.6134L133.567 96.6298C133.567 96.6298 133.64 96.6787 133.673 96.695C133.869 96.8174 134.074 96.9479 134.27 97.0784L134.311 97.1029C134.728 97.3721 135.137 97.6413 135.546 97.9186C135.587 97.9431 135.62 97.9675 135.661 98.0002C135.898 98.1633 136.143 98.3265 136.38 98.4896C136.65 98.6772 136.912 98.8648 137.174 99.0525C137.697 99.4277 138.213 99.8029 138.728 100.194C138.728 100.194 138.744 100.194 138.752 100.211C143.169 103.547 147.226 107.389 150.85 111.704L151.112 111.99L151.414 112.406C151.504 112.52 151.586 112.634 151.668 112.749L151.701 112.797C155.251 117.537 158.253 122.668 160.641 128.084C160.772 128.378 160.895 128.663 161.017 128.949C163.496 135.948 165.123 143.208 165.884 150.59C167.381 164.107 163.553 177.68 155.21 188.44C154.138 189.843 153.009 191.189 151.815 192.486C151.791 192.518 151.758 192.551 151.733 192.576C151.431 192.91 151.128 193.236 150.817 193.554C150.531 193.856 150.237 194.158 149.942 194.444L149.877 194.509C149.729 194.656 149.59 194.794 149.443 194.933L149.386 194.99C149.337 195.039 149.28 195.096 149.23 195.145L149.124 195.251C149.124 195.251 149.059 195.316 149.026 195.341C148.993 195.374 148.961 195.406 148.928 195.439L148.903 195.463L148.838 195.528L148.789 195.577L148.748 195.626L148.723 195.651C148.723 195.651 148.674 195.692 148.65 195.716L148.617 195.749L148.584 195.781L148.494 195.863C148.453 195.904 148.413 195.944 148.363 195.985C148.298 196.051 148.241 196.108 148.175 196.165L148.143 196.197L148.11 196.23L148.094 196.246L148.077 196.263L148.028 196.303L148.012 196.32L147.987 196.344L147.905 196.418L147.791 196.516C147.725 196.573 147.66 196.63 147.595 196.695H147.578C147.521 196.76 147.464 196.809 147.406 196.858L147.382 196.883C147.325 196.932 147.267 196.98 147.21 197.038C147.071 197.16 146.932 197.282 146.801 197.396L146.785 197.413C146.646 197.535 146.498 197.658 146.359 197.78L146.335 197.804H146.327C146.253 197.878 146.179 197.935 146.106 198C146.04 198.057 145.975 198.114 145.91 198.171L145.869 198.212C145.795 198.269 145.73 198.326 145.656 198.392C145.582 198.449 145.517 198.506 145.443 198.571L145.402 198.604C145.255 198.726 145.108 198.84 144.969 198.955L144.936 198.979C144.789 199.101 144.634 199.216 144.486 199.338L144.47 199.354C144.429 199.387 144.38 199.419 144.339 199.46C144.306 199.485 144.274 199.509 144.241 199.534L144.225 199.55L144.208 199.566C144.208 199.566 144.184 199.591 144.167 199.599H144.159L144.118 199.64L144.077 199.672L144.061 199.689L144.02 199.729L143.971 199.77C143.971 199.77 143.922 199.811 143.897 199.827C143.873 199.844 143.848 199.86 143.824 199.884L143.742 199.942C143.693 199.982 143.644 200.015 143.595 200.056C143.497 200.129 143.398 200.203 143.3 200.276C143.251 200.309 143.202 200.349 143.153 200.382H143.137L143.12 200.407H143.104V200.423L143.071 200.439H143.055L142.989 200.496L142.891 200.57L142.818 200.627C142.818 200.627 142.769 200.659 142.744 200.684L142.687 200.725L142.63 200.765C142.63 200.765 142.572 200.806 142.548 200.823L142.531 200.839C142.482 200.871 142.433 200.912 142.384 200.945C142.351 200.969 142.319 200.994 142.286 201.01L142.204 201.067L142.163 201.1L142.139 201.124H142.122L142.098 201.149L142.073 201.165L142.016 201.206L141.975 201.239C141.926 201.279 141.869 201.312 141.82 201.353L141.779 201.385C141.689 201.443 141.607 201.508 141.517 201.565L141.493 201.581L141.476 201.597L141.46 201.614L141.444 201.63C141.444 201.63 141.403 201.663 141.378 201.671L141.362 201.687L141.231 201.777L141.108 201.859H141.1L141.084 201.875C141.01 201.924 140.945 201.973 140.871 202.022C140.846 202.038 140.822 202.054 140.797 202.071C140.732 202.111 140.666 202.16 140.601 202.201C140.536 202.25 140.478 202.291 140.413 202.332C140.38 202.356 140.339 202.381 140.307 202.405C140.249 202.446 140.184 202.487 140.127 202.519C140.094 202.536 140.069 202.56 140.037 202.576C139.979 202.609 139.922 202.65 139.865 202.682C139.767 202.748 139.66 202.813 139.562 202.878C139.464 202.943 139.366 203.001 139.268 203.066C139.178 203.123 139.088 203.18 138.99 203.237C138.957 203.253 138.924 203.278 138.9 203.294C138.834 203.335 138.761 203.376 138.695 203.425C138.671 203.441 138.638 203.457 138.613 203.474C138.515 203.531 138.417 203.596 138.319 203.653C138.213 203.718 138.114 203.775 138.008 203.841L137.959 203.873C137.877 203.922 137.795 203.971 137.705 204.02C137.681 204.037 137.656 204.053 137.632 204.061C137.558 204.102 137.485 204.143 137.419 204.183C137.19 204.314 136.961 204.444 136.724 204.575C136.675 204.599 136.626 204.632 136.577 204.656C136.528 204.681 136.487 204.705 136.438 204.73C136.38 204.763 136.323 204.795 136.258 204.828C136.217 204.852 136.176 204.869 136.143 204.893C136.086 204.926 136.029 204.95 135.98 204.983C135.865 205.048 135.751 205.105 135.636 205.17C135.546 205.219 135.448 205.268 135.358 205.317H135.35C135.26 205.366 135.17 205.415 135.072 205.464C135.039 205.48 134.998 205.505 134.965 205.521C134.892 205.562 134.826 205.595 134.753 205.627C134.614 205.701 134.483 205.766 134.344 205.839L134.245 205.888L134.147 205.937L134.106 205.962L134.066 205.978H134.057L133.951 206.035L133.926 206.051L133.869 206.084H133.853L133.837 206.1C133.837 206.1 133.771 206.133 133.738 206.149C133.55 206.247 133.354 206.337 133.166 206.427C132.732 206.639 132.307 206.834 131.873 207.03C131.751 207.087 131.628 207.136 131.514 207.193C131.448 207.218 131.383 207.25 131.317 207.275C131.268 207.299 131.219 207.316 131.17 207.34H131.145C131.055 207.389 130.957 207.43 130.867 207.471H130.851L130.753 207.52C130.753 207.52 130.687 207.544 130.655 207.56C130.467 207.642 130.27 207.724 130.082 207.797C129.788 207.919 129.485 208.042 129.191 208.156C129.174 208.156 129.15 208.172 129.133 208.18H129.109V208.197H129.092L129.06 208.213H129.035C128.937 208.262 128.839 208.295 128.741 208.335C128.642 208.376 128.544 208.409 128.446 208.45C128.364 208.482 128.291 208.507 128.209 208.539C128.184 208.547 128.168 208.556 128.144 208.564C128.086 208.588 128.037 208.605 127.98 208.629C127.849 208.678 127.71 208.727 127.579 208.776C127.162 208.923 126.737 209.078 126.311 209.216C126.238 209.241 126.156 209.265 126.074 209.29C125.878 209.355 125.673 209.42 125.477 209.486C125.444 209.494 125.412 209.51 125.371 209.518H125.362C125.362 209.518 125.289 209.543 125.256 209.559C125.183 209.583 125.109 209.608 125.035 209.632C123.326 210.171 121.584 210.636 119.817 211.019C119.506 211.084 119.187 211.142 118.876 211.199C118.058 211.354 117.24 211.509 116.422 211.647C116.25 211.68 116.087 211.704 115.915 211.737C115.858 211.745 115.801 211.753 115.735 211.77C115.67 211.778 115.596 211.794 115.531 211.802C115.49 211.802 115.457 211.81 115.424 211.819H115.367C115.293 211.843 115.22 211.851 115.146 211.867C114.852 211.908 114.557 211.957 114.271 211.998H114.206C114.206 211.998 114.206 212.014 114.197 212.014C114.107 212.022 114.026 212.039 113.944 212.055H113.895L113.821 212.071H113.747L113.592 212.104H113.551C113.142 212.169 112.733 212.226 112.324 212.284L111.318 212.406L110.353 212.512H110.05C109.928 212.52 109.797 212.536 109.674 212.545H109.633C109.118 212.593 108.611 212.626 108.095 212.667H108.087C108.014 212.667 107.948 212.675 107.875 212.683C107.67 212.7 107.466 212.708 107.253 212.724H107.228C107.016 212.74 106.803 212.757 106.59 212.765C106.459 212.773 106.329 212.781 106.198 212.789C105.805 212.814 105.413 212.83 105.028 212.855C104.635 212.871 104.235 212.887 103.842 212.903C103.359 212.92 102.877 212.936 102.394 212.952H102.337C102.28 212.952 102.222 212.952 102.157 212.952C102.092 212.952 102.026 212.952 101.961 212.952C101.732 212.952 101.494 212.952 101.265 212.961H100.906C100.824 212.961 100.75 212.961 100.668 212.961H100.398C100.129 212.961 99.8586 212.969 99.5968 212.969H99.4905C99.3923 212.969 99.3024 212.969 99.2042 212.969C98.4108 212.969 97.6174 212.961 96.824 212.936C95.8997 212.912 94.9754 212.879 94.0593 212.838C93.3967 212.806 92.7342 212.765 92.0716 212.724C91.9326 212.724 91.7935 212.708 91.6626 212.7C90.8938 212.651 90.1249 212.585 89.356 212.52C88.7916 212.471 88.2272 212.414 87.6628 212.357C82.5506 211.827 77.4711 210.954 72.4734 209.738V233.272C78.559 234.504 84.8163 235.271 91.2046 235.556C93.0368 235.638 94.869 235.679 96.7176 235.679C98.5907 235.679 100.456 235.638 102.329 235.556C116.61 234.92 130.679 231.755 143.865 226.184C159.823 219.446 174.914 208.507 184.321 193.579C194.791 176.971 195.478 157.834 191.617 139.039L191.486 138.966ZM73.9539 67.5899C73.9539 66.2521 74.5183 62.9158 79.8595 60.8357C84.4401 59.0084 88.9061 56.9283 93.2413 54.5872V54.6117C91.859 59.2205 88.9388 63.2094 84.9799 65.9339C82.2643 67.443 79.2133 68.2343 76.1133 68.2425C75.4017 68.2425 74.6982 68.2017 73.9948 68.1119C73.9702 67.9488 73.962 67.7856 73.962 67.6143V67.5899H73.9539ZM30.7003 91.8251C31.7718 88.6927 33.9476 86.4168 35.8698 86.4168C36.107 86.4168 36.3442 86.4576 36.565 86.5392C37.8411 86.9715 38.6181 88.6112 38.6181 90.8218C38.6181 91.2949 38.5772 91.768 38.5118 92.233C38.4791 90.936 37.7184 89.7695 36.5405 89.2148C36.3033 89.1332 36.0497 89.0924 35.7962 89.0924C33.8903 89.0924 31.7146 91.3683 30.6512 94.5007C30.414 95.1859 30.2422 95.8956 30.1441 96.6134C29.9478 94.9983 30.1441 93.3505 30.6921 91.8251H30.7003Z" fill="url(#paint2_linear_8646_1628)"/>
<path d="M73.9853 68.1033C73.9853 68.1033 73.5845 63.8207 78.2223 61.5856C82.8601 59.3506 88.3895 57.091 93.24 54.603C93.24 54.603 83.0073 61.2594 79.1057 62.7685C75.204 64.2775 73.8953 67.2386 73.9853 68.1033Z" fill="url(#paint3_radial_8646_1628)"/>
<path d="M-5.97591 192.097C-4.978 192.807 -3.93101 193.46 -2.84313 194.039C-1.28083 194.871 0.485959 195.238 2.24457 195.116C2.75988 195.116 3.28337 195.075 3.79868 195.001C4.01135 195.067 4.2322 195.034 4.42033 194.928L5.14831 194.749C4.70662 193.982 4.29764 193.191 3.93774 192.375C3.44696 191.412 3.02162 190.417 2.66172 189.389C2.32636 188.639 2.04008 187.872 1.78651 187.089C1.16486 185.302 0.592293 183.483 0.117877 181.648C-0.389256 179.902 -0.773695 178.132 -1.02726 176.329C-1.02726 176.264 -1.02726 176.191 -1.02726 176.125C-1.29719 174.249 -1.3708 172.349 -1.23175 170.456C-1.22357 169.999 -1.17449 169.534 -1.0927 169.086C-1.04362 168.205 -0.912748 167.324 -0.68372 166.475C-0.479231 165.219 -0.152049 163.979 0.297828 162.78C0.976732 160.643 1.89285 158.579 3.02163 156.638L3.47968 155.904C4.53485 154.101 5.76178 152.404 7.12777 150.83C7.85575 149.981 8.62463 149.174 9.44259 148.407L9.80249 148.105C9.80249 148.97 9.68798 149.778 9.6389 150.642C9.56529 151.915 9.6389 153.114 9.6389 154.346C9.73706 155.806 9.90883 157.25 10.146 158.702C10.2605 159.256 10.3505 159.819 10.4405 160.39C10.465 160.594 10.5141 160.79 10.5796 160.986C10.6041 161.141 10.6041 161.287 10.5796 161.442C10.7431 162.177 10.9395 162.911 11.1112 163.653L11.6593 165.807C11.8474 165.562 11.6593 165.439 11.6593 165.309C11.5856 164.297 11.5856 163.286 11.6593 162.274C11.602 161.475 11.602 160.676 11.6593 159.876C11.7983 157.617 12.101 155.373 12.559 153.163C12.5835 152.991 12.6244 152.828 12.6899 152.665C12.9434 151.401 13.2788 150.153 13.696 148.937C13.9741 147.991 14.3176 147.061 14.7266 146.156C15.5936 144.043 16.6979 142.036 18.023 140.176C18.5219 139.401 19.0781 138.659 19.6916 137.966C21.0167 136.269 22.5135 134.719 24.1576 133.324C24.8774 132.647 25.6545 132.035 26.4888 131.497C27.8957 130.38 29.4008 129.384 30.9794 128.512C32.0346 127.892 33.1306 127.337 34.2594 126.864C34.333 126.864 34.423 126.75 34.4475 126.864C32.3863 129.295 30.9631 132.19 30.3005 135.307C29.9979 136.905 29.9161 138.537 30.0469 140.152C30.1206 140.935 30.2923 141.71 30.4068 142.501C30.914 144.345 31.4784 146.156 32.1409 147.942C32.6726 149.084 33.1715 150.251 33.785 151.352C34.3985 152.453 34.9138 153.22 35.4864 154.142C36.7624 155.904 38.1856 157.502 39.4044 159.297C39.5434 159.485 39.6907 159.672 39.8461 159.844C41.2039 161.54 42.259 163.465 42.9788 165.513C43.0116 165.594 43.0525 165.668 43.1097 165.725C43.9604 167.658 44.3694 169.763 44.2958 171.876C44.2958 171.957 44.2958 172.047 44.2958 172.128C44.1976 173.638 43.9113 175.13 43.4533 176.566C44.2303 176.126 45.3346 174.094 46.218 171.492C46.6024 169.592 46.4797 167.634 45.8744 165.798C45.8581 165.701 45.8253 165.603 45.7844 165.505C45.7599 165.407 45.7844 164.999 45.539 164.82C45.0319 163.441 44.3694 162.119 43.5678 160.888C43.1833 160.341 42.7498 159.819 42.2918 159.273C42.7253 159.477 43.1588 159.656 43.5678 159.868C45.6781 160.92 47.6739 162.193 49.5061 163.678C49.8088 163.922 50.1033 164.2 50.3977 164.452C51.5674 165.423 52.6553 166.492 53.6532 167.634C54.2012 168.18 54.7002 168.776 55.1582 169.396C56.4342 170.921 57.5794 172.553 58.5691 174.266C58.839 174.665 59.0681 175.09 59.2562 175.538C60.2705 177.235 61.1211 179.021 61.8 180.881C61.7673 181.077 61.8409 181.273 62.0045 181.387C62.209 181.517 62.0045 181.868 62.2499 182.031L63.755 188.223C64.2212 189.822 64.5975 191.445 64.8837 193.084C64.8265 193.272 64.851 193.476 64.9492 193.639L65.0228 194.031C65.0228 194.031 65.0228 194.104 65.0228 194.145C65.2927 196.111 65.44 198.085 65.4563 200.067C65.5463 202.465 65.4318 204.872 65.1128 207.254C64.8428 209.84 64.2948 212.393 63.485 214.864C62.757 217.336 61.7346 219.71 60.4341 221.937C60.3441 222.084 60.2541 222.222 60.1559 222.353H60.0578C61.0639 220.273 61.8082 218.07 62.2745 215.802C62.3072 215.517 62.3563 215.231 62.438 214.954L62.708 212.417C62.8143 212.026 62.8634 211.626 62.847 211.226C62.847 210.109 62.9206 208.991 62.9615 207.874V207.784L62.8634 207.025V206.911C62.8307 206.12 62.7816 205.337 62.7161 204.554C62.6998 205.337 62.6589 206.12 62.5853 206.903C62.5853 206.936 62.5853 206.96 62.5853 206.993C62.4544 207.727 62.4871 208.494 62.3317 209.236C62.299 209.326 62.299 209.423 62.3317 209.513C62.1436 209.603 62.1763 209.815 62.1518 209.986C61.8573 211.577 61.432 213.143 60.8757 214.669C60.6794 215.183 60.4422 215.664 60.2377 216.161C60.7285 214.644 61.0148 213.07 61.0721 211.471C61.1375 211.047 61.1375 210.623 61.0721 210.198C61.162 210.149 61.2029 210.043 61.1702 209.946C61.2029 209.065 61.1211 208.184 60.9248 207.319V207.221C60.7367 205.965 60.4586 204.717 60.0823 203.501L59.7388 202.106C59.7715 201.919 59.6897 201.731 59.5343 201.625C58.9944 200.214 58.3074 198.86 57.4894 197.587L57.244 197.196V197.122C56.2543 195.711 55.0028 194.504 53.555 193.566C53.0561 193.248 52.5489 192.954 52.0418 192.652L51.9028 192.562H51.7228C51.6001 192.465 51.4692 192.375 51.3302 192.293C49.228 191.29 47.0523 190.442 44.9665 189.503C44.124 189.169 43.3142 188.777 42.5371 188.321H42.4635C41.9646 188.117 41.4902 187.88 41.0239 187.611C40.6804 187.35 40.3205 187.13 39.9279 186.95C39.2571 186.493 38.5701 186.069 37.8503 185.678C37.8257 185.629 37.8012 185.58 37.7603 185.539C36.8687 184.944 36.0835 184.266 35.2164 183.557C34.9629 183.345 34.7257 183.108 34.5048 182.855C34.4067 182.823 34.3167 182.757 34.2512 182.676C32.7462 181.297 31.3393 179.821 30.0388 178.246L29.6216 177.651L29.5071 177.488C28.6564 176.427 27.9039 175.293 27.2413 174.103C26.7178 173.156 26.2598 172.177 25.8672 171.174C24.9756 172.447 24.2476 173.711 23.5278 174.983V175.114C22.8816 176.387 22.2518 177.651 21.7201 178.923C21.4829 179.47 21.2703 180.033 21.0739 180.596C20.3623 182.39 19.7734 184.226 19.3317 186.102C19.2008 186.624 19.1027 187.154 19.0291 187.684C18.6364 189.446 18.391 191.241 18.3174 193.036V194.798C18.3092 196.494 18.4238 198.191 18.6773 199.871V199.969C18.5792 200.149 18.6773 200.312 18.6773 200.491V200.654C18.8655 201.266 18.9227 201.927 19.0454 202.506C19.3644 203.942 19.8879 205.312 20.3214 206.715H20.395V206.944C20.5341 207.4 20.7059 207.849 20.9022 208.29C21.5402 209.864 22.2518 211.406 23.037 212.907H23.1352C23.1352 212.972 23.1352 213.037 23.1352 213.094C23.7977 214.269 24.5175 215.411 25.2946 216.504C25.7118 217.148 26.1698 217.768 26.6688 218.356L26.9469 218.739C27.5358 219.4 28.092 220.012 28.6891 220.705C29.7934 221.92 30.9876 223.054 32.2554 224.107L32.9016 224.563C34.284 225.697 35.7972 226.66 37.4086 227.435C39.2817 228.463 41.4002 228.968 43.5432 228.895C42.7907 229.099 42.03 229.238 41.253 229.311C41.163 229.058 40.9339 229.156 40.7785 229.172C39.9688 229.213 39.159 229.189 38.3492 229.099C34.6848 228.707 31.1512 227.476 28.0429 225.493C27.863 225.355 27.7158 225.151 27.4458 225.224C27.4458 225.134 27.315 225.069 27.2413 225.012C26.9469 224.743 26.5952 224.539 26.2762 224.286C24.8774 223.185 23.5524 221.986 22.3091 220.705C22.2191 220.615 22.1536 220.477 21.9901 220.501C21.9901 220.419 21.9492 220.338 21.9001 220.273C20.3296 218.527 18.9227 216.651 17.704 214.652C17.704 214.628 17.704 214.603 17.704 214.579C17.4995 214.35 17.4586 213.967 17.0823 213.894C17.1968 213.551 16.9433 213.306 16.7878 213.053C16.0026 211.659 15.2992 210.223 14.6366 208.787L14.563 208.608C14.4076 208.281 14.2685 207.923 14.1213 207.58C14.0559 207.449 14.0068 207.286 13.8432 207.303C13.9168 207.148 13.9168 206.976 13.8432 206.821C13.3361 205.549 12.8371 204.211 12.4036 202.865C12.4036 202.832 12.4036 202.8 12.4036 202.767C12.3627 202.686 12.33 202.604 12.3136 202.514C12.2973 202.343 12.2564 202.18 12.1827 202.017C12.1337 201.854 12.1827 201.699 11.9946 201.625C11.7656 200.353 11.2666 199.088 10.964 197.816C10.7759 197.065 10.6695 196.315 10.4896 195.572C10.4896 195.532 10.4896 195.491 10.4896 195.442C10.4732 195.393 10.4487 195.336 10.4241 195.287C10.2197 193.533 9.91701 191.796 9.81067 190.034C9.81885 189.903 9.76977 189.781 9.67162 189.691C9.76159 189.316 9.79431 188.932 9.76159 188.549V188.125C9.6798 189.169 9.58982 190.221 9.50803 191.282V193.819C9.49167 194.194 9.49167 194.561 9.50803 194.936C9.63072 196.788 9.85975 198.64 10.1788 200.467C10.1624 200.614 10.2033 200.769 10.2933 200.883L10.3832 201.315C10.5141 202 10.6532 202.686 10.8168 203.371C11.1194 204.562 11.5529 205.72 11.8065 206.927C11.9046 207.017 11.9619 207.139 11.9701 207.27C11.9619 207.319 11.9619 207.376 11.9701 207.425C12.0682 207.694 11.9701 208.02 12.2645 208.249C12.4363 208.926 12.6572 209.595 12.9271 210.239C13.2297 211.039 13.516 211.838 13.8023 212.637C13.9168 212.637 13.9168 212.817 13.9659 212.915C14.1049 213.355 14.2931 213.779 14.5221 214.187C14.5466 214.285 14.5712 214.383 14.6121 214.481C15.3646 216.104 16.1989 217.679 17.0578 219.253L17.6058 220.012C18.0966 220.86 18.6283 221.676 19.209 222.459C20.0188 223.609 20.9104 224.702 21.8837 225.722L22.0391 225.966C23.0207 226.97 24.0513 227.932 25.1147 228.838C25.8508 229.499 26.6442 230.094 27.4704 230.641C27.7158 230.641 27.863 230.885 28.0838 230.999C28.1902 231.089 28.3047 231.171 28.4274 231.244C29.7034 231.995 31.0367 232.655 32.4108 233.21C34.5621 234.05 36.836 234.556 39.1426 234.711H41.3675C38.7091 235.176 36.0017 235.323 33.3106 235.143C29.3271 234.915 25.4173 234.001 21.7447 232.451L21.4011 232.272C19.5035 231.473 17.6794 230.502 15.9535 229.368C15.3073 228.985 14.6939 228.56 14.0968 228.095C12.3054 226.807 10.6368 225.355 9.10723 223.772C8.46922 223.144 7.86393 222.491 7.29136 221.806C5.55729 219.865 3.98682 217.785 2.59629 215.59C1.66382 214.179 0.747705 212.776 -0.0784321 211.316C-0.258383 211.014 -0.405615 210.704 -0.577386 210.402C-1.5344 208.689 -2.34417 206.903 -3.02308 205.059C-3.39116 204.235 -3.71016 203.387 -3.96373 202.522C-4.66717 200.442 -5.2561 198.321 -5.72234 196.176V195.793C-6.03316 194.479 -6.27037 193.158 -6.42578 191.82C-6.21311 191.82 -6.10678 191.975 -5.96773 192.065L-5.97591 192.097Z" fill="url(#paint4_linear_8646_1628)"/>
<path d="M340.981 184.377C330.159 182.501 319.607 179.287 309.579 174.817C306.275 172.631 302.733 170.812 299.028 169.4L297.67 169.205C298.946 165.86 299.486 162.279 299.257 158.714C299.257 155.737 298.12 152.874 296.091 150.704C294.063 148.583 290.693 148.51 288.566 150.533C289.866 142.857 285.679 135.311 278.464 132.334C271.389 129.511 262.825 133.663 258.972 140.149C260.608 136.714 261.074 132.84 260.306 129.12C259.373 125.31 255.717 122.806 251.823 123.312C250.973 121.126 249.435 119.274 247.439 118.034C245.321 117.023 241.615 117.724 241.501 120.065C241.337 117.61 239.636 115.53 237.255 114.877C234.949 114.535 232.691 115.783 231.767 117.92C230.409 113.311 227.972 109.086 224.667 105.594C221.273 102.103 216.52 100.259 211.653 100.545C206.737 100.977 202.631 104.46 201.413 109.232C199.989 108.482 198.28 108.547 196.914 109.404C195.556 110.219 195.867 111.663 195.949 113.238C183.81 111.117 172.244 119.217 170.118 131.33C169.439 135.181 169.799 139.137 171.14 142.808C166.772 139.708 160.711 140.728 157.603 145.084C156.842 146.144 156.31 147.343 156.032 148.616C155.517 146.699 153.717 145.418 151.73 145.54C149.808 145.712 148.703 146.193 148.589 148.11C140.933 137.081 126.946 132.342 114.137 136.429C101.638 141.193 93.7776 153.592 94.8164 166.896C85.459 161.007 73.0914 163.796 67.1858 173.128C67.1367 173.202 67.0877 173.283 67.0386 173.357C65.2636 175.69 64.8792 178.789 66.0243 181.481C62.5725 179.418 58.1637 179.932 55.2763 182.721C48.6836 180.07 47.5548 181.734 41.1339 184.638C32.8234 188.015 23.8668 189.508 14.9102 189.011H36.0135C59.0717 189.011 69.4515 194.99 83.8476 191.27C103.618 196.638 124.484 196.45 144.156 190.732C150.765 194.019 158.535 194.019 165.144 190.732C181.266 194.647 198.141 194.288 214.083 189.688C217.698 191.327 221.87 191.221 225.395 189.402C236.887 193.22 249.247 193.652 260.984 190.642C267.52 193.75 275.143 193.628 281.581 190.308C292.508 193.358 304.066 193.407 315.019 190.446C320.115 191.882 325.513 191.833 330.576 190.308C333.153 189.557 335.795 189.084 338.47 188.896H401.779C381.494 188.081 361.184 186.637 340.989 184.271V184.385L340.981 184.377Z" fill="url(#paint5_linear_8646_1628)"/>
</g>
<defs>
<linearGradient id="paint0_linear_8646_1628" x1="189.4" y1="238.044" x2="-5.20755" y2="42.9051" gradientUnits="userSpaceOnUse">
<stop stop-color="#091830"/>
<stop offset="0.16" stop-color="#0D1A35"/>
<stop offset="0.36" stop-color="#1B2343"/>
<stop offset="0.57" stop-color="#31305C"/>
<stop offset="0.8" stop-color="#50437E"/>
<stop offset="1" stop-color="#7259A4"/>
</linearGradient>
<linearGradient id="paint1_linear_8646_1628" x1="189.292" y1="238.15" x2="-5.31514" y2="43.011" gradientUnits="userSpaceOnUse">
<stop stop-color="#091830"/>
<stop offset="0.16" stop-color="#0D1A35"/>
<stop offset="0.36" stop-color="#1B2343"/>
<stop offset="0.57" stop-color="#31305C"/>
<stop offset="0.8" stop-color="#50437E"/>
<stop offset="1" stop-color="#7259A4"/>
</linearGradient>
<linearGradient id="paint2_linear_8646_1628" x1="207.51" y1="219.984" x2="12.9109" y2="24.8447" gradientUnits="userSpaceOnUse">
<stop stop-color="#091830"/>
<stop offset="0.16" stop-color="#0D1A35"/>
<stop offset="0.36" stop-color="#1B2343"/>
<stop offset="0.57" stop-color="#31305C"/>
<stop offset="0.8" stop-color="#50437E"/>
<stop offset="1" stop-color="#7259A4"/>
</linearGradient>
<radialGradient id="paint3_radial_8646_1628" cx="0" cy="0" r="1" gradientUnits="userSpaceOnUse" gradientTransform="translate(83.6126 61.354) scale(8.3268 4.98246)">
<stop stop-color="#A82178"/>
<stop offset="0.12" stop-color="#A02074"/>
<stop offset="0.3" stop-color="#8A1F6A"/>
<stop offset="0.53" stop-color="#671D5A"/>
<stop offset="0.78" stop-color="#371A44"/>
<stop offset="1" stop-color="#091830"/>
</radialGradient>
<linearGradient id="paint4_linear_8646_1628" x1="29.5153" y1="223.413" x2="29.5153" y2="129.947" gradientUnits="userSpaceOnUse">
<stop stop-color="#091830"/>
<stop offset="0.32" stop-color="#0B1932"/>
<stop offset="0.5" stop-color="#121D3A"/>
<stop offset="0.63" stop-color="#1E2547"/>
<stop offset="0.75" stop-color="#2F305B"/>
<stop offset="0.86" stop-color="#463E73"/>
<stop offset="0.95" stop-color="#614F92"/>
<stop offset="1" stop-color="#7259A4"/>
</linearGradient>
<linearGradient id="paint5_linear_8646_1628" x1="220.021" y1="215.008" x2="152.138" y2="62.7855" gradientUnits="userSpaceOnUse">
<stop stop-color="#091830"/>
<stop offset="0.32" stop-color="#0B1932"/>
<stop offset="0.5" stop-color="#121D3A"/>
<stop offset="0.63" stop-color="#1E2547"/>
<stop offset="0.75" stop-color="#2F305B"/>
<stop offset="0.86" stop-color="#463E73"/>
<stop offset="0.95" stop-color="#614F92"/>
<stop offset="1" stop-color="#7259A4"/>
</linearGradient>
</defs>
</svg>
