<svg width="1532" height="702" viewBox="0 0 1532 702" fill="none" xmlns="http://www.w3.org/2000/svg">
<rect width="1532" height="702" fill="black"/>
<path d="M641.869 189H469.997C468.937 189 467.921 189.421 467.171 190.171C466.421 190.92 466 191.937 466 192.997V364.869C466 365.929 466.421 366.946 467.171 367.695C467.921 368.445 468.937 368.866 469.997 368.866H641.869C642.929 368.866 643.946 368.445 644.696 367.695C645.445 366.946 645.866 365.929 645.866 364.869V192.997C645.866 191.937 645.445 190.92 644.696 190.171C643.946 189.421 642.929 189 641.869 189ZM585.911 304.914C585.911 305.974 585.49 306.99 584.74 307.74C583.991 308.49 582.974 308.911 581.914 308.911H529.953C528.893 308.911 527.876 308.49 527.126 307.74C526.377 306.99 525.956 305.974 525.956 304.914V252.952C525.956 251.892 526.377 250.876 527.126 250.126C527.876 249.377 528.893 248.955 529.953 248.955H581.914C582.974 248.955 583.991 249.377 584.74 250.126C585.49 250.876 585.911 251.892 585.911 252.952V304.914Z" fill="white"/>
<path d="M1001.7 248.966H949.74C947.533 248.966 945.743 250.755 945.743 252.963V304.924C945.743 307.132 947.533 308.921 949.74 308.921H1001.7C1003.91 308.921 1005.7 307.132 1005.7 304.924V252.963C1005.7 250.755 1003.91 248.966 1001.7 248.966Z" fill="white"/>
<path d="M941.722 189H889.761C887.553 189 885.764 190.79 885.764 192.997V244.958C885.764 247.166 887.553 248.955 889.761 248.955H941.722C943.93 248.955 945.719 247.166 945.719 244.958V192.997C945.719 190.79 943.93 189 941.722 189Z" fill="white"/>
<path d="M1061.63 189H1009.67C1007.46 189 1005.67 190.79 1005.67 192.997V244.958C1005.67 247.166 1007.46 248.955 1009.67 248.955H1061.63C1063.84 248.955 1065.63 247.166 1065.63 244.958V192.997C1065.63 190.79 1063.84 189 1061.63 189Z" fill="white"/>
<path d="M941.722 308.912H889.761C887.553 308.912 885.764 310.701 885.764 312.909V364.87C885.764 367.078 887.553 368.867 889.761 368.867H941.722C943.93 368.867 945.719 367.078 945.719 364.87V312.909C945.719 310.701 943.93 308.912 941.722 308.912Z" fill="white"/>
<path d="M1061.63 308.912H1009.67C1007.46 308.912 1005.67 310.701 1005.67 312.909V364.87C1005.67 367.078 1007.46 368.867 1009.67 368.867H1061.63C1063.84 368.867 1065.63 367.078 1065.63 364.87V312.909C1065.63 310.701 1063.84 308.912 1061.63 308.912Z" fill="white"/>
<path d="M851.714 189H799.753C797.545 189 795.756 190.79 795.756 192.997V244.958C795.756 247.166 797.545 248.955 799.753 248.955H851.714C853.921 248.955 855.711 247.166 855.711 244.958V192.997C855.711 190.79 853.921 189 851.714 189Z" fill="white"/>
<path d="M851.714 308.912H799.753C797.545 308.912 795.756 310.701 795.756 312.909V364.87C795.756 367.078 797.545 368.867 799.753 368.867H851.714C853.921 368.867 855.711 367.078 855.711 364.87V312.909C855.711 310.701 853.921 308.912 851.714 308.912Z" fill="white"/>
<path d="M795.755 252.907C795.755 251.847 795.334 250.831 794.585 250.081C793.835 249.332 792.818 248.91 791.758 248.91H735.8V192.997C735.8 191.937 735.379 190.92 734.629 190.171C733.88 189.421 732.863 189 731.803 189H679.842C678.781 189 677.765 189.421 677.015 190.171C676.266 190.92 675.844 191.937 675.844 192.997V364.779C675.844 365.839 676.266 366.856 677.015 367.606C677.765 368.355 678.781 368.776 679.842 368.776H731.803C732.863 368.776 733.88 368.355 734.629 367.606C735.379 366.856 735.8 365.839 735.8 364.779V308.866H791.758C792.818 308.866 793.835 308.445 794.585 307.695C795.334 306.946 795.755 305.929 795.755 304.869V252.907Z" fill="white"/>
<path d="M742.522 423.994L729.184 478.867L715.612 423.994H695.371L717.835 508H736.672L750.478 454.297L764.518 508H783.355L805.702 423.994H785.929L772.474 478.867L759.019 423.994H742.522ZM830.209 509.17C838.282 509.17 844.366 506.713 848.461 502.501C851.62 507.766 858.874 509.755 869.638 508V494.194C866.011 494.662 864.841 493.726 864.841 490.567V466.816C864.841 452.425 854.896 445.054 838.75 445.054C823.072 445.054 813.361 453.946 810.67 464.827L828.571 467.518C829.741 462.487 832.549 460.147 837.931 460.147C844.015 460.147 846.472 463.072 846.472 467.635V468.688L832.666 471.028C819.679 472.9 808.915 478.048 808.915 490.801C808.915 501.682 817.807 509.17 830.209 509.17ZM846.472 485.887C846.472 492.205 840.739 495.481 834.538 495.481C830.092 495.481 827.167 493.375 827.167 489.514C827.167 485.185 830.794 483.547 835.708 482.728L846.472 480.739V485.887ZM903.643 423.994H884.923V508H903.643V423.994ZM941.627 423.994H922.907V508H941.627V423.994ZM988.737 509.287C1001.02 509.287 1012.25 503.086 1016.82 491.269L1001.14 486.238C999.384 491.62 994.821 494.428 988.971 494.428C981.834 494.428 976.803 489.631 975.516 481.207H1017.28V476.293C1017.28 458.86 1007.11 445.054 988.386 445.054C970.602 445.054 957.498 458.86 957.498 477.112C957.498 496.3 970.134 509.287 988.737 509.287ZM988.152 459.562C995.055 459.562 998.682 464.242 998.799 469.741H976.101C977.973 462.955 982.419 459.562 988.152 459.562ZM1034.92 491.503C1034.92 504.139 1041.58 508.585 1054.92 508.585C1059.37 508.585 1062.88 508.234 1066.15 507.766V492.439C1064.05 492.673 1063 492.79 1060.77 492.79C1056.09 492.79 1053.4 491.854 1053.4 486.706V461.785H1065.45V446.341H1053.4V429.259H1034.92V446.341H1027.08V461.785H1034.92V491.503Z" fill="white"/>
<path d="M466.001 469L656 469.539" stroke="white" stroke-width="10"/>
</svg>
