<svg xmlns="http://www.w3.org/2000/svg" width="24" height="24" viewBox="0 0 24 24">
    <g data-name="Group 35681" transform="translate(0 3.129)">
        <circle data-name="Ellipse 1326" cx="12" cy="12" r="12" transform="translate(0 -3.129)" style="fill:none"/>
        <g data-name="Layer 2">
            <g data-name="invisible box">
                <path data-name="Rectangle 24443" style="fill:none" d="M0 0h16v16H0z" transform="translate(4 .871)"/>
            </g>
            <g data-name="icons Q2">
                <path data-name="Path 17233" d="M9.333 2a7.3 7.3 0 1 0 5.2 2.138A7.333 7.333 0 0 0 9.333 2zM14.7 6.667h-1.633a9.267 9.267 0 0 0-1-2.667A6.167 6.167 0 0 1 14.7 6.667zm.633 2.667a5.833 5.833 0 0 1-.167 1.333h-1.9c.033-.433.067-.867.067-1.333S13.3 8.433 13.267 8h1.9a5.833 5.833 0 0 1 .167 1.333zm-12 0A5.833 5.833 0 0 1 3.5 8h1.9c-.033.433-.067.867-.067 1.333s.033.9.067 1.333H3.5a5.833 5.833 0 0 1-.167-1.333zm3.333 0c0-.467.033-.9.067-1.333h1.934v2.667H6.733c-.033-.435-.066-.868-.066-1.335zM10 3.567A3.9 3.9 0 0 1 11 4.8a7.233 7.233 0 0 1 .7 1.867H10zm-1.333 0v3.1h-1.7a7.233 7.233 0 0 1 .7-1.867 3.9 3.9 0 0 1 1-1.233zm0 8.433v3.1a3.9 3.9 0 0 1-1-1.233 7.233 7.233 0 0 1-.7-1.867zM10 15.1V12h1.7a7.233 7.233 0 0 1-.7 1.867 3.9 3.9 0 0 1-1 1.233zm0-4.433V8h1.933c.033.433.067.867.067 1.333s-.033.9-.067 1.333zM6.6 4a9.267 9.267 0 0 0-1 2.667H3.967A6.167 6.167 0 0 1 6.6 4zm-2.633 8H5.6a9.267 9.267 0 0 0 1 2.667A6.167 6.167 0 0 1 3.967 12zm8.1 2.667a9.267 9.267 0 0 0 1-2.667H14.7a6.167 6.167 0 0 1-2.633 2.667z" transform="translate(2.667 -.462)" style="fill:#fff"/>
            </g>
        </g>
    </g>
</svg>
