<svg data-name="Group 25981" xmlns="http://www.w3.org/2000/svg" width="16" height="16" viewBox="0 0 16 16">
    <defs>
        <linearGradient id="j28ahoao2a" x1=".5" x2=".5" y2="1.54" gradientUnits="objectBoundingBox">
            <stop offset="0" stop-color="#9f38eb"/>
            <stop offset="1" stop-color="#2188c6"/>
        </linearGradient>
    </defs>
    <path data-name="Path 16225" d="M16 8a8 8 0 1 1-8-8 8 8 0 0 1 8 8" style="fill:url(#j28ahoao2a)"/>
    <path data-name="Path 16226" d="M33.2 32.266h-6.032a5.288 5.288 0 0 1-4.448-8.055l.6-.822 5.357 7.217a3.941 3.941 0 0 0 1.069-.644L24.2 22.639l.763-.439a5.288 5.288 0 0 1 6.573 7.844zm-9.742-6.338a3.91 3.91 0 0 0 3.708 4.958zm2.915-2.766 4.274 5.7a3.911 3.911 0 0 0-4.275-5.7" transform="translate(-19.196 -18.979)" style="fill:#fff"/>
    <g data-name="Group 25979">
        <path data-name="Path 16214" d="M39.082 31.212a5.329 5.329 0 1 1-5.329 5.329 5.329 5.329 0 0 1 5.329-5.329" transform="translate(-31.024 -28.541)" style="fill:#fff"/>
        <path data-name="Path 16215" d="M46.447 37.707a4.415 4.415 0 0 0-1.311-.915 1.238 1.238 0 0 0 .123-.427l-.021-.009a3.485 3.485 0 0 1-.232.382 4.743 4.743 0 0 1-.306.4h.252a2.278 2.278 0 0 1-1.224.959c0 .206-.317.571-.317.571a3.317 3.317 0 0 0 1.008-.491 2.989 2.989 0 0 1 2.845 1.609c.021.034 0 .066 0 .061a1.989 1.989 0 0 0-1.234-.953l.229.283a5.146 5.146 0 0 0-1.825-.492 4.161 4.161 0 0 1 2.329 1.341 4.1 4.1 0 0 1 .8 1.83l.01.084a4.423 4.423 0 0 0 .149-1.112 4.366 4.366 0 0 0-1.273-3.12zm-2.352-1.237-.063-.011-.054-.009h-.008l-.1-.013h-.007l-.054-.006-.1-.011h-.048l-.125-.008h-.282c-.056 0-.112 0-.168.005h-.055a4.383 4.383 0 0 0-4.129 4.4 1.657 1.657 0 0 0 .014.254.791.791 0 0 0 .025.111.054.054 0 0 0 0 .012 3.2 3.2 0 0 0 .3.661 3.431 3.431 0 0 0 .25.378 1.729 1.729 0 0 0 .123.15l.013.015.016.018a1.1 1.1 0 0 0 .046.049l.01.01a2.824 2.824 0 0 0 .775.552 3.733 3.733 0 0 0 1.411.368 3.42 3.42 0 0 0 .511 0h.025a2.093 2.093 0 0 0 .539-.113 1.289 1.289 0 0 0 .4-.21 1.57 1.57 0 0 0 .388-.413 1.477 1.477 0 0 0 .245-.776 1.627 1.627 0 0 0-1.56-1.483l-.09-.006H42.04l-.075.009q-.1.013-.195.034c-.6.138-.394.623-.387.639a1.974 1.974 0 0 1-.42-.085h-.006l-.027-.009a1.152 1.152 0 0 1-.394-.232l-.011-.011a1.083 1.083 0 0 1-.189-.249 2.811 2.811 0 0 0-.242.17 3.159 3.159 0 0 1-.036-.94c.074-.355.638-.78.638-.78s-.07.365.254.368.7-.506.716-.462.31.048.31.048-.133 0-.248-.238.244-.587.838-.8a3.049 3.049 0 0 0 1.059-.726c.148.017.187.43.187.43a4.569 4.569 0 0 0 1.047-.879 4.354 4.354 0 0 0-.762-.218zm-1.153 2.975" transform="translate(-35.25 -32.769)" style="fill:#2188c6"/>
        <path data-name="Path 16216" d="M46.022 58.331a2.739 2.739 0 0 1-1.592 1.014q-.167.034-.336.056l-.045.005H43.993a5.133 5.133 0 0 1-2.315-.321 3.783 3.783 0 0 1-.734-.379 4.466 4.466 0 0 1-.682-.566A4.9 4.9 0 0 1 39 55.313a.785.785 0 0 0 .025.111 2.978 2.978 0 0 0 .3.652 3.417 3.417 0 0 0 .249.378 1.793 1.793 0 0 0 .123.15l.013.015.016.018.046.049.01.011a2.823 2.823 0 0 0 .775.552 3.739 3.739 0 0 0 1.411.368 3.467 3.467 0 0 0 .511 0h.025a2.108 2.108 0 0 0 .538-.114 1.28 1.28 0 0 0 .4-.21 1.566 1.566 0 0 0 .387-.413 1.478 1.478 0 0 0 .245-.777 1.663 1.663 0 0 0-1.762-1.459H42.152l-.08.009h-.006a1.858 1.858 0 0 0-.2.037c-.353.081-.428.28-.428.435a.546.546 0 0 0 .041.2 1.98 1.98 0 0 1-.42-.085h-.006l-.027-.009a1.144 1.144 0 0 1-.399-.231l-.011-.01a1.015 1.015 0 0 1-.109-.124 1.182 1.182 0 0 1-.081-.125 3.712 3.712 0 0 1 1.844-.57H42.615q.218.007.438.034a3.627 3.627 0 0 1 .652.135 1.5 1.5 0 0 0-.189-.266c-.09-.1-.326-.379-.482-.377h.046q.144-.007.289 0a3.323 3.323 0 0 1 2.455 1.19l.012.012.014.019a3.513 3.513 0 0 1 .431.744 4.212 4.212 0 0 1 .218.973 2.361 2.361 0 0 1-.478 1.7z" transform="translate(-35.336 -47.009)" style="fill:#162b4e"/>
        <path data-name="Path 16217" d="M52.558 58.323a2.739 2.739 0 0 1-1.592 1.014q-.167.034-.336.056l-.046.005H50.528l-.091.008a4.909 4.909 0 0 1-.9-.012 3.888 3.888 0 0 1-1.323-.316l-.034-.018h.171a3.063 3.063 0 0 0 2.036-.8 2.764 2.764 0 0 0 .969-2.012c0-.079 0-.158-.011-.238v-.036l-.015.034a1.549 1.549 0 0 1-.954.857h-.01a1.356 1.356 0 0 0 .19-.4 1.474 1.474 0 0 0 .062-.379 1.642 1.642 0 0 0-1.622-1.454h-.306l-.08.009h-.01a2.275 2.275 0 0 0-.208.037c-.6.138-.394.623-.387.639a1.2 1.2 0 0 1-1.052-.59 3.715 3.715 0 0 1 1.847-.57H49.145q.217.007.435.034a3.568 3.568 0 0 1 .655.135 1.541 1.541 0 0 0-.189-.265c-.089-.1-.323-.376-.48-.377h.049q.144-.007.289 0a3.323 3.323 0 0 1 2.452 1.19l.012.012.017.019a2.2 2.2 0 0 1 .43.744 4.212 4.212 0 0 1 .218.973 2.359 2.359 0 0 1-.475 1.7z" transform="translate(-41.871 -47.002)" style="fill:#21326f"/>
        <path data-name="Path 16218" d="M66.183 33.378s-.436 1.149-.729 1.279.254.02.254.02l-1.123.859a2.879 2.879 0 0 1-.365.667 2.463 2.463 0 0 0 1.484-.955 2.774 2.774 0 0 0 .478-1.87" transform="translate(-56.06 -30.32)" style="fill:#162b4e"/>
        <path data-name="Path 16219" d="M66.168 35.1a4.328 4.328 0 0 0 1.591-1.757 3.38 3.38 0 0 1-.674 1.272l.284-.046a2.736 2.736 0 0 1-1.232 1.009 3.02 3.02 0 0 1 .031-.479z" transform="translate(-57.635 -30.293)" style="fill:#fff"/>
        <path data-name="Path 16220" d="M47.1 54.62a.125.125 0 0 1 .157.089c.011-.068.012-.223-.125-.186s-.248.263-.248.263h.019a.47.47 0 0 1 .193-.161z" transform="translate(-41.818 -47.691)" style="fill:#3a9dd7"/>
        <path data-name="Path 16221" d="M47.149 53.957c-.148.033-.261.363-.261.363l.019-.035c.037-.065.125-.2.229-.228s.13.062.129.134c.014-.088.066-.272-.118-.231" transform="translate(-41.817 -47.226)" style="fill:#162b4e"/>
        <path data-name="Path 16222" d="M57.541 45.965a.337.337 0 0 1 .14-.3 3.767 3.767 0 0 1 .547-.241c.146-.065.324-.155.327-.2a.883.883 0 0 1-.194.437.989.989 0 0 1-.82.3" transform="translate(-50.57 -40.059)" style="fill:#162b4e"/>
        <path data-name="Path 16223" d="M57.738 46.847a.852.852 0 0 0 .322-.2.649.649 0 0 0 .136-.206.169.169 0 0 0 .013-.069 3.421 3.421 0 0 0-.53.234.337.337 0 0 0-.14.3 1.5 1.5 0 0 0 .2-.06z" transform="translate(-50.569 -41.001)" style="fill:#2797d2"/>
        <path data-name="Path 16224" d="M72.789 50.56a2.587 2.587 0 0 0-1.136-.432 4.7 4.7 0 0 0-1.694-.73 5.307 5.307 0 0 1 1.825.492l-.238-.29s.366-.03.963.6c.389.412.28.359.28.359z" transform="translate(-60.776 -43.482)" style="fill:#162b4e"/>
    </g>
</svg>
