<svg data-name="Group 27753" xmlns="http://www.w3.org/2000/svg" width="16" height="16" viewBox="0 0 16 16">
    <circle data-name="Ellipse 1218" cx="8" cy="8" r="8" style="fill:#fff"/>
    <path data-name="Path 16023" d="M32.059-884.066a6.74 6.74 0 0 0-1.953-1.383 1.817 1.817 0 0 0 .19-.637l-.027-.013a4.019 4.019 0 0 1-.353.569 6.7 6.7 0 0 1-.461.583h.38a3.384 3.384 0 0 1-1.844 1.424c0 .312-.488.854-.488.854a4.916 4.916 0 0 0 1.519-.732c3.254.163 4.041 2.075 4.258 2.441.027.054.014.095 0 .095a2.967 2.967 0 0 0-1.844-1.437l.339.434a7.716 7.716 0 0 0-2.739-.759 6.223 6.223 0 0 1 3.484 2.027 6.176 6.176 0 0 1 1.18 2.753.467.467 0 0 1 .014.122 6.266 6.266 0 0 0 .231-1.668 6.547 6.547 0 0 0-1.885-4.678zm-3.512-1.871-.095-.013-.081-.014h-.014l-.149-.014h-.014l-.081-.014c-.054 0-.108-.014-.163-.014h-.068c-.068 0-.122-.014-.19-.014h-.759a6.635 6.635 0 0 0-6.007 4.841 6.673 6.673 0 0 0-.231 1.722 3.552 3.552 0 0 0 .014.38l.041.163v.014a4.343 4.343 0 0 0 .447.99 4.084 4.084 0 0 0 .366.57c.054.081.122.149.176.23l.027.027.027.027c.027.027.041.054.068.081l.014.014a4.656 4.656 0 0 0 1.153.841 5.773 5.773 0 0 0 2.115.569 7.287 7.287 0 0 0 .773 0h.027a3.467 3.467 0 0 0 .814-.163 2.169 2.169 0 0 0 .61-.312 1.614 1.614 0 0 0 .642-.6 2.167 2.167 0 0 0 .373-1.156c.155-1.094-.989-2.111-2.385-2.247-.041 0-.095-.013-.136-.013H25.4c-.041 0-.081.013-.108.013a2.793 2.793 0 0 0-.3.054c-.908.2-.6.936-.583.949a3.187 3.187 0 0 1-.624-.135h-.014l-.041-.014a1.6 1.6 0 0 1-.583-.353v-.027a1.985 1.985 0 0 1-.285-.38 5.842 5.842 0 0 0-.366.258 4.906 4.906 0 0 1-.041-1.41c.108-.529.963-1.166.963-1.166s-.108.542.38.556 1.058-.759 1.085-.692.461.068.461.068-.2 0-.366-.366.366-.881 1.261-1.193a4.715 4.715 0 0 0 1.6-1.085c.217.027.271.651.271.651a7.005 7.005 0 0 0 1.586-1.315 11.063 11.063 0 0 0-1.153-.312zm-1.763 4.448" transform="translate(-19.327 887.497)" style="fill:#b8b9ba"/>
    <path data-name="Path 16024" d="M31.422-844.917a4.119 4.119 0 0 1-2.4 1.505l-.5.081-.068.014-.068.014h-.027a7.578 7.578 0 0 1-3.471-.5 5.63 5.63 0 0 1-1.1-.569 6.794 6.794 0 0 1-1.017-.854 7.5 7.5 0 0 1-1.871-4.285l.041.163a4.246 4.246 0 0 0 .447.976 4.076 4.076 0 0 0 .366.569c.054.081.122.149.176.23l.027.027.027.027c.027.027.041.054.068.081l.014.014a4.659 4.659 0 0 0 1.153.841 5.776 5.776 0 0 0 2.115.57 7.369 7.369 0 0 0 .773 0h.041a3.47 3.47 0 0 0 .814-.163 2.168 2.168 0 0 0 .61-.312 2.265 2.265 0 0 0 .583-.61 2.248 2.248 0 0 0 .38-1.166 2.51 2.51 0 0 0-2.631-2.21h-.244c-.041 0-.081.014-.122.014h-.014a2.488 2.488 0 0 0-.312.054c-.529.122-.651.42-.651.651a1.255 1.255 0 0 0 .054.312 3.2 3.2 0 0 1-.624-.136h-.014l-.041-.014a1.6 1.6 0 0 1-.583-.353l-.027-.041a2.362 2.362 0 0 1-.163-.19c-.041-.054-.081-.122-.122-.19a5.6 5.6 0 0 1 2.78-.841h.529c.217.014.434.027.651.054a4.838 4.838 0 0 1 .976.217 2.08 2.08 0 0 0-.285-.393c-.136-.163-.488-.569-.719-.569h.5a5.015 5.015 0 0 1 3.675 1.8l.014.014.027.027a5.119 5.119 0 0 1 .637 1.125 6 6 0 0 1 .312 1.464 3.514 3.514 0 0 1-.716 2.552z" transform="translate(-19.503 857.934)" style="fill:#4b4b4b"/>
    <path data-name="Path 16025" d="M45.166-845a4.12 4.12 0 0 1-2.4 1.505l-.5.081-.068.014-.068.014h-.03c-.041 0-.095.014-.136.014a7.555 7.555 0 0 1-1.356-.027 5.591 5.591 0 0 1-1.98-.488l-.054-.027h.258a4.572 4.572 0 0 0 3.064-1.193 4.168 4.168 0 0 0 1.478-3.024 2.947 2.947 0 0 0-.014-.353v-.054l-.027.041a2.311 2.311 0 0 1-1.437 1.274h-.014a1.864 1.864 0 0 0 .285-.6 2.087 2.087 0 0 0 .095-.569 2.459 2.459 0 0 0-2.427-2.2H39.4c-.041 0-.081.014-.122.014h-.014a2.521 2.521 0 0 0-.312.054c-.908.2-.6.936-.583.949a1.787 1.787 0 0 1-1.573-.9 5.6 5.6 0 0 1 2.78-.841h.529c.217.014.434.027.651.054a4.635 4.635 0 0 1 .976.217 2.078 2.078 0 0 0-.285-.393c-.136-.163-.488-.569-.719-.569h.5a5.015 5.015 0 0 1 3.675 1.8l.014.014.027.027a3.189 3.189 0 0 1 .637 1.125 6 6 0 0 1 .312 1.464 3.62 3.62 0 0 1-.727 2.577z" transform="translate(-33.247 858.02)" style="fill:#727272"/>
    <path data-name="Path 16026" d="M73.783-892s-.664 1.722-1.112 1.912.38.027.38.027l-1.695 1.275a4.335 4.335 0 0 1-.556 1 3.7 3.7 0 0 0 2.237-1.424 4.108 4.108 0 0 0 .746-2.79z" transform="translate(-62.637 892.597)" style="fill:#4b4b4b"/>
    <path data-name="Path 16027" d="M74.754-889.383a6.521 6.521 0 0 0 2.4-2.617 4.911 4.911 0 0 1-1.031 1.9l.434-.068a4.049 4.049 0 0 1-1.858 1.505 4.438 4.438 0 0 1 .055-.72z" transform="translate(-66.008 892.596)" style="fill:#fff"/>
    <g data-name="Group 27751">
        <path data-name="Path 16028" d="M36.739-850.4a.177.177 0 0 1 .146.016.178.178 0 0 1 .085.12c.014-.108.027-.339-.19-.285s-.38.393-.38.393h.027a.819.819 0 0 1 .312-.244z" transform="translate(-32.902 856.776)" style="fill:#b8b9ba"/>
        <path data-name="Path 16029" d="M36.993-851.668c-.217.054-.393.542-.393.542l.027-.054c.054-.095.19-.3.339-.339s.19.095.19.2c.027-.146.108-.417-.163-.349z" transform="translate(-33.075 857.743)" style="fill:#4b4b4b"/>
    </g>
    <g data-name="Group 27752">
        <path data-name="Path 16030" d="M57.692-867.6a.5.5 0 0 1 .217-.447 6.052 6.052 0 0 1 .827-.353c.217-.095.488-.23.488-.3a1.278 1.278 0 0 1-.3.651 1.51 1.51 0 0 1-1.232.449z" transform="translate(-51.306 872.456)" style="fill:#4b4b4b"/>
        <path data-name="Path 16031" d="M57.994-865.881a1.252 1.252 0 0 0 .488-.3 1.046 1.046 0 0 0 .2-.312.27.27 0 0 0 .027-.108 5.63 5.63 0 0 0-.8.339.515.515 0 0 0-.217.447c.008.029.139-.012.302-.066z" transform="translate(-51.309 870.641)" style="fill:#b8b9ba"/>
    </g>
    <path data-name="Path 16032" d="M86.344-858.653a3.937 3.937 0 0 0-1.708-.664 7.2 7.2 0 0 0-2.536-1.112 7.876 7.876 0 0 1 2.739.759l-.353-.434s.556-.041 1.437.909c.583.624.42.542.42.542z" transform="translate(-72.405 865.31)" style="fill:#4b4b4b"/>
</svg>
