<svg xmlns="http://www.w3.org/2000/svg" width="22" height="24" viewBox="0 0 22 24">
  <g id="flip-in" transform="translate(-0.137 0.428)" opacity="0.87">
    <rect id="Rectangle_17064" data-name="Rectangle 17064" width="24" height="22" transform="translate(0.137 23.572) rotate(-90)" fill="#1db2d5" opacity="0"/>
    <path id="Path_5705" data-name="Path 5705" d="M4.906,5.978V17.6l-1.25-1.259a.973.973,0,0,0-1.376,1.376l2.906,2.906a.969.969,0,0,0,1.376,0l2.906-2.906a.973.973,0,1,0-1.376-1.376L6.843,17.6V5.978a1.511,1.511,0,0,1,1.482-1.54h2.393a.969.969,0,1,0,0-1.937H8.325A3.448,3.448,0,0,0,4.906,5.978Z" transform="translate(-0.55 -0.003)" fill="#1db2d5"/>
    <path id="Path_5706" data-name="Path 5706" d="M14.218,5.687a.973.973,0,1,0,1.376,1.376L16.843,5.8V17.427a1.511,1.511,0,0,1-1.482,1.54H12.969a.969.969,0,0,0,0,1.937h2.393a3.448,3.448,0,0,0,3.419-3.478V5.8l1.25,1.259a.973.973,0,1,0,1.376-1.376L18.5,2.781a.969.969,0,0,0-1.376,0Z" transform="translate(-0.863 -0.002)" fill="#1db2d5"/>
  </g>
</svg>
