<svg id="Group_14188" data-name="Group 14188" xmlns="http://www.w3.org/2000/svg" width="18" height="18" viewBox="0 0 18 18">
  <rect id="Rectangle_17064" data-name="Rectangle 17064" width="18" height="18" fill="#fff" opacity="0"/>
  <g id="Group_14187" data-name="Group 14187" transform="translate(1.871 1.496)">
    <path id="Path_5705" data-name="Path 5705" d="M2.253,11.562v-9l-.968.975A.753.753,0,1,1,.221,2.472L2.471.222a.75.75,0,0,1,1.065,0l2.25,2.25A.753.753,0,1,1,4.721,3.537l-.967-.975v9A1.17,1.17,0,0,0,4.9,12.754H6.753a.75.75,0,1,1,0,1.5H4.9A2.67,2.67,0,0,1,2.253,11.562Z" transform="translate(0 15.007) rotate(-90)" fill="#fff"/>
    <path id="Path_5706" data-name="Path 5706" d="M1.717,11.783a.753.753,0,0,1,1.065-1.065l.968.975v-9A1.17,1.17,0,0,0,2.6,1.5H.75A.75.75,0,1,1,.75,0H2.6A2.67,2.67,0,0,1,5.25,2.693v9l.968-.975a.753.753,0,1,1,1.065,1.065l-2.25,2.25a.75.75,0,0,1-1.065,0Z" transform="translate(0.004 7.504) rotate(-90)" fill="#fff"/>
  </g>
</svg>
