<svg data-name="Group 27753" xmlns="http://www.w3.org/2000/svg" width="32" height="32" viewBox="0 0 32 32">
    <circle data-name="Ellipse 1218" cx="16" cy="16" r="16" style="fill:#fff"/>
    <path data-name="Path 16023" d="M43.422-882.032a13.481 13.481 0 0 0-3.905-2.766 3.632 3.632 0 0 0 .38-1.275l-.054-.027a8.022 8.022 0 0 1-.705 1.139 13.415 13.415 0 0 1-.922 1.166h.759c-.976 2.007-3.688 2.847-3.688 2.847 0 .624-.976 1.708-.976 1.708a9.831 9.831 0 0 0 3.037-1.464c6.508.325 8.081 4.149 8.515 4.881.054.108.027.19 0 .19-1.437-2.251-3.553-3.01-3.688-2.875l.678.868a15.431 15.431 0 0 0-5.478-1.519s4.529.814 6.969 4.068a12.351 12.351 0 0 1 2.359 5.505.934.934 0 0 1 .027.244 12.533 12.533 0 0 0 .461-3.336 13.094 13.094 0 0 0-3.769-9.356zm-7.022-3.743-.19-.027-.163-.027h-.027l-.3-.027h-.027l-.163-.027c-.108 0-.217-.027-.325-.027h-.135c-.136 0-.244-.027-.38-.027h-1.518a13.27 13.27 0 0 0-12.014 9.681 13.346 13.346 0 0 0-.461 3.444 7.105 7.105 0 0 0 .027.759l.081.325v.027a8.687 8.687 0 0 0 .895 1.98 8.164 8.164 0 0 0 .732 1.139c.108.163.244.3.353.461l.054.054.054.054c.054.054.081.109.136.163l.027.027a9.315 9.315 0 0 0 2.305 1.681A11.55 11.55 0 0 0 29.592-865a14.672 14.672 0 0 0 1.546 0h.054a6.928 6.928 0 0 0 1.627-.325 4.332 4.332 0 0 0 1.22-.624 3.228 3.228 0 0 0 1.285-1.2 4.333 4.333 0 0 0 .747-2.311c.309-2.189-1.977-4.223-4.77-4.494-.081 0-.19-.027-.271-.027h-.922c-.081 0-.163.027-.217.027a5.587 5.587 0 0 0-.6.109c-1.817.407-1.193 1.871-1.166 1.9a6.383 6.383 0 0 1-1.247-.271h-.027l-.081-.027a3.2 3.2 0 0 1-1.166-.705V-873a3.97 3.97 0 0 1-.569-.759c-.244.163-.488.326-.732.515a9.812 9.812 0 0 1-.081-2.82c.217-1.058 1.925-2.332 1.925-2.332s-.217 1.085.759 1.112 2.115-1.519 2.169-1.383.922.135.922.135-.407 0-.732-.732.732-1.763 2.522-2.386a9.433 9.433 0 0 0 3.2-2.169c.434.054.542 1.3.542 1.3a14.014 14.014 0 0 0 3.173-2.631 22.217 22.217 0 0 0-2.305-.624zm-3.525 8.9" transform="translate(-17.958 888.893)" style="fill:#272840"/>
    <path data-name="Path 16024" d="M41.944-837.934a8.24 8.24 0 0 1-4.8 3.01c-.325.054-.678.109-1 .163l-.136.027-.136.027h-.054a15.159 15.159 0 0 1-6.942-1 11.253 11.253 0 0 1-2.2-1.139 13.577 13.577 0 0 1-2.034-1.708 14.992 14.992 0 0 1-3.742-8.569l.081.326a8.492 8.492 0 0 0 .895 1.952 8.164 8.164 0 0 0 .732 1.139c.108.163.244.3.353.461l.054.054.054.054c.054.054.081.109.136.163l.027.027a9.314 9.314 0 0 0 2.305 1.681 11.549 11.549 0 0 0 4.231 1.139 14.689 14.689 0 0 0 1.546 0h.081a6.928 6.928 0 0 0 1.627-.325 4.333 4.333 0 0 0 1.22-.624 4.534 4.534 0 0 0 1.166-1.22 4.5 4.5 0 0 0 .759-2.332c.027-2.061-2.169-4.42-5.261-4.42h-.488c-.081 0-.163.027-.244.027h-.027a5.009 5.009 0 0 0-.624.109c-1.058.244-1.3.841-1.3 1.3a2.51 2.51 0 0 0 .108.624 6.4 6.4 0 0 1-1.247-.271h-.027l-.081-.027a3.206 3.206 0 0 1-1.166-.705l-.054-.081a4.7 4.7 0 0 1-.325-.38 4.49 4.49 0 0 1-.244-.38 11.206 11.206 0 0 1 5.559-1.681H31.8c.434.027.868.054 1.3.108a9.677 9.677 0 0 1 1.953.434 4.161 4.161 0 0 0-.569-.786c-.271-.326-.976-1.139-1.437-1.139h1a10.031 10.031 0 0 1 7.349 3.607l.027.027.054.054a10.244 10.244 0 0 1 1.275 2.251 12 12 0 0 1 .624 2.929 7.027 7.027 0 0 1-1.437 5.1z" transform="translate(-18.107 863.968)" style="fill:#d6d5d9"/>
    <path data-name="Path 16025" d="M53.532-838.007a8.239 8.239 0 0 1-4.8 3.01c-.325.054-.678.108-1 .163l-.136.027-.136.027h-.06c-.081 0-.19.027-.271.027a15.121 15.121 0 0 1-2.712-.054 11.184 11.184 0 0 1-3.959-.976l-.108-.054h.515A9.143 9.143 0 0 0 47-838.224a8.337 8.337 0 0 0 2.956-6.047 5.9 5.9 0 0 0-.027-.705v-.108l-.054.081A4.623 4.623 0 0 1 47-842.454h-.027a3.731 3.731 0 0 0 .569-1.193 4.173 4.173 0 0 0 .19-1.139c.027-1.98-1.953-4.2-4.854-4.393h-.868c-.081 0-.163.027-.244.027h-.027a5.009 5.009 0 0 0-.624.108c-1.817.407-1.193 1.871-1.166 1.9a3.574 3.574 0 0 1-3.146-1.79 11.207 11.207 0 0 1 5.559-1.681h1.058c.434.027.868.054 1.3.108a9.276 9.276 0 0 1 1.953.434 4.163 4.163 0 0 0-.569-.786c-.271-.326-.976-1.139-1.437-1.139h1a10.03 10.03 0 0 1 7.349 3.607l.027.027.054.054a6.382 6.382 0 0 1 1.275 2.251 12 12 0 0 1 .628 2.926 7.241 7.241 0 0 1-1.464 5.125z" transform="translate(-29.695 864.041)" style="fill:#bcbcbc"/>
    <path data-name="Path 16026" d="M76.766-892s-1.329 3.444-2.224 3.824c-.868.38.759.054.759.054l-3.39 2.549a8.674 8.674 0 0 1-1.112 2.007 7.39 7.39 0 0 0 4.475-2.847A8.216 8.216 0 0 0 76.766-892z" transform="translate(-54.475 893.193)" style="fill:#d6d5d9"/>
    <path data-name="Path 16027" d="M74.808-886.766a13.041 13.041 0 0 0 4.8-5.234 9.82 9.82 0 0 1-2.061 3.8l.868-.136a8.1 8.1 0 0 1-3.715 3.01 8.881 8.881 0 0 1 .108-1.44z" transform="translate(-57.317 893.193)" style="fill:#fff"/>
    <g data-name="Group 27751">
        <path data-name="Path 16028" d="M37.078-850.245a.356.356 0 0 1 .292.031.356.356 0 0 1 .169.24c.027-.217.054-.678-.38-.569s-.759.786-.759.786h.054a1.641 1.641 0 0 1 .624-.488z" transform="translate(-29.403 862.992)" style="fill:#d6d5d9"/>
        <path data-name="Path 16029" d="M37.386-851.657c-.434.108-.786 1.085-.786 1.085l.054-.109c.108-.19.38-.6.678-.678.325-.081.38.19.38.407.054-.299.217-.841-.326-.705z" transform="translate(-29.549 863.807)" style="fill:#94939c"/>
    </g>
    <g data-name="Group 27752">
        <path data-name="Path 16030" d="M57.694-866.5a1 1 0 0 1 .434-.895 12.088 12.088 0 0 1 1.654-.705c.434-.19.976-.461.976-.6a2.557 2.557 0 0 1-.6 1.3 3.02 3.02 0 0 1-2.464.9z" transform="translate(-44.92 876.212)" style="fill:#d6d5d9"/>
        <path data-name="Path 16031" d="M58.293-865.163a2.5 2.5 0 0 0 .976-.6 2.089 2.089 0 0 0 .407-.624.54.54 0 0 0 .054-.217 11.281 11.281 0 0 0-1.6.678 1.03 1.03 0 0 0-.434.895c.004.058.271-.023.597-.132z" transform="translate(-44.923 874.681)" style="fill:#94939c"/>
    </g>
    <path data-name="Path 16032" d="M90.588-856.872a7.874 7.874 0 0 0-3.417-1.329 14.413 14.413 0 0 0-5.071-2.224 15.762 15.762 0 0 1 5.478 1.519l-.705-.868s1.112-.081 2.875 1.817c1.166 1.247.841 1.085.841 1.085z" transform="translate(-62.71 870.187)" style="fill:#d6d5d9"/>
</svg>
