<svg data-name="Layer 2" xmlns="http://www.w3.org/2000/svg" width="32" height="32" viewBox="0 0 32 32">
    <g data-name="invisible box">
        <path data-name="Rectangle 24200" style="fill:none" d="M0 0h32v32H0z"/>
    </g>
    <g data-name="Q3 icons">
        <path data-name="Path 16919" d="M31.333 17.667 26 4.8A25.533 25.533 0 0 0 16.667 3a25.533 25.533 0 0 0-9.334 1.8L2 17.667V19a5.333 5.333 0 1 0 10.667 0v-1.333l-4.267-10 .2-.533a22.867 22.867 0 0 1 6.733-1.4v22.6h-4.666a1.333 1.333 0 1 0 0 2.667h12a1.333 1.333 0 1 0 0-2.667H18V5.733a22.867 22.867 0 0 1 6.733 1.4l.2.533-4.267 10V19a5.333 5.333 0 1 0 10.667 0zm-24 4A2.667 2.667 0 0 1 5 20.333h4.667a2.667 2.667 0 0 1-2.334 1.334zm2.8-4h-6l3.2-7.133zM26 10.533l2.8 7.133h-6zm0 11.133a2.667 2.667 0 0 1-2.333-1.333h4.667A2.667 2.667 0 0 1 26 21.667z" transform="translate(-.667 -1)" style="fill:#f6f6f9"/>
    </g>
</svg>
