<svg xmlns="http://www.w3.org/2000/svg" width="32" height="32" viewBox="0 0 32 32">
    <g data-name="Group 34672" transform="rotate(180 401.5 360.5)">
        <circle data-name="Ellipse 1294" cx="8.8" cy="8.8" r="8.8" transform="translate(785.4 703.4)" style="fill:#f6f6f9"/>
        <circle data-name="Ellipse 1295" cx="8.8" cy="8.8" r="8.8" transform="translate(771 689)" style="opacity:.5;fill:#f6f6f9"/>
        <path data-name="Path 16896" d="M12.426 1.515v2.046a.593.593 0 0 1-.593.593H9.758a.593.593 0 0 1-.593-.682.623.623 0 0 1 .623-.5h.682a5.337 5.337 0 0 0-9.28 3.024.593.593 0 0 1-.59.53.593.593 0 0 1-.6-.652 6.523 6.523 0 0 1 11.24-3.825v-.563a.593.593 0 0 1 .682-.593.623.623 0 0 1 .5.623z" transform="rotate(60 -198.434 1034.302)" style="fill:#f6f6f9"/>
        <path data-name="Path 16897" d="M0 5.011V2.965a.593.593 0 0 1 .593-.593h2.076a.593.593 0 0 1 .593.682.623.623 0 0 1-.623.5h-.682a5.337 5.337 0 0 0 5.624 1.512A5.337 5.337 0 0 0 11.237.534.593.593 0 0 1 11.83 0a.593.593 0 0 1 .593.652A6.523 6.523 0 0 1 1.186 4.477v.563a.593.593 0 0 1-.686.593.623.623 0 0 1-.5-.622z" transform="rotate(60 -223.796 1026.323)" style="fill:#f6f6f9"/>
    </g>
</svg>
