<svg id="Layer_2" data-name="Layer 2" xmlns="http://www.w3.org/2000/svg" width="16" height="16" viewBox="0 0 16 16">
  <g id="invisible_box" data-name="invisible box">
    <rect id="Rectangle_22199" data-name="Rectangle 22199" width="16" height="16" fill="none"/>
  </g>
  <g id="Layer_6" data-name="Layer 6" transform="translate(0.617 0.667)">
    <g id="Group_25758" data-name="Group 25758">
      <path id="Path_15963" data-name="Path 15963" d="M24.467,16.867,21.833,14.2a.7.7,0,0,0-.9-.067.633.633,0,0,0-.067,1L22.4,16.667H14.667a.667.667,0,0,0,0,1.333H22.4l-1.533,1.533a.633.633,0,0,0,.067,1,.7.7,0,0,0,.9-.067L24.467,17.8a.633.633,0,0,0,0-.933Z" transform="translate(-9.95 -10.001)" fill="#c7cad9"/>
      <path id="Path_15964" data-name="Path 15964" d="M10.567,15.333H9.233a6,6,0,0,1,0-12h1.333a.684.684,0,0,0,.667-.667.8.8,0,0,0-.067-.3.667.667,0,0,0-.6-.367h-1.4A7.333,7.333,0,0,0,9.2,16.667h1.367a.667.667,0,0,0,.467-.2l.133-.167a.8.8,0,0,0,.067-.3A.667.667,0,0,0,10.567,15.333Z" transform="translate(-1.85 -2)" fill="#c7cad9"/>
    </g>
  </g>
</svg>
