<svg width="91.911194" height="146.681915" viewBox="0 0 91.9112 146.682" fill="none" xmlns="http://www.w3.org/2000/svg" xmlns:xlink="http://www.w3.org/1999/xlink">
	<desc>
			Created with Pixso.
	</desc>
	<mask id="mask1_34" mask-type="alpha" maskUnits="userSpaceOnUse" x="0.000000" y="0.000000" width="91.911194" height="146.681915">
		<rect id="Rectangle 21416" width="91.911179" height="146.681915" fill="#C4C4C4"/>
	</mask>
	<g mask="url(#mask1_34)">
		<mask id="mask1_37" mask-type="alpha" maskUnits="userSpaceOnUse" x="0.000000" y="0.000000" width="91.911194" height="146.681915">
			<rect id="Rectangle 21415" width="91.911179" height="146.681915" fill="#C4C4C4"/>
		</mask>
		<g mask="url(#mask1_37)">
			<g opacity="0.199997">
				<mask id="mask1_85" mask-type="alpha" maskUnits="userSpaceOnUse" x="8.352417" y="136.424438" width="83.558838" height="10.257469">
					<rect id="Rectangle 21414" x="8.352417" y="136.424438" width="83.558823" height="10.257467" fill="#C4C4C4"/>
				</mask>
				<g mask="url(#mask1_85)">
					<path id="Path 11846" d="M8.35211 141.553C8.35211 144.385 27.0579 146.682 50.1323 146.682C73.2061 146.682 91.9119 144.385 91.9119 141.553C91.9119 138.721 73.2061 136.424 50.1323 136.424C27.0579 136.424 8.35211 138.721 8.35211 141.553Z" fill-rule="evenodd" fill="#000000"/>
				</g>
			</g>
		</g>
		<g mask="url(#mask1_37)">
			<path id="Path 11847" d="M17.4417 11.0738C16.907 11.2905 16.4524 10.9327 15.9596 10.8771C15.8241 10.8621 15.6929 10.8009 15.5599 10.764C13.8168 10.2913 12.7076 10.5736 12.1074 11.6415C11.4229 12.8619 11.8232 14.8479 12.9868 15.8197C13.3365 16.112 13.7587 16.325 14.164 16.543C16.1595 17.614 18.1942 18.6164 20.1184 19.8181C22.4642 21.2839 24.4721 23.1051 26.0379 25.4009C26.3464 25.8537 26.5413 26.2359 26.1553 26.7605C24.8369 28.5523 24.5708 30.6702 24.3385 32.7961C24.2323 33.7629 24.1237 34.7285 24 35.6928C23.8751 36.6639 23.8676 36.6296 22.9164 36.5528C21.6723 36.4528 20.4226 36.351 19.1898 36.6833C17.5122 37.1348 16.9957 38.0604 17.5809 39.6861C18.3391 41.7908 19.2847 43.7912 20.9822 45.3376C21.0765 45.4225 21.1271 45.5556 21.2383 45.7286C20.6924 46.0433 20.1078 46.1133 19.5532 46.28C17.1956 46.9858 16.265 49.5908 17.6621 51.6262C18.5621 52.9371 19.6838 54.0307 21.0734 54.8382C21.4244 55.0418 21.8453 55.1586 22.122 55.5652C21.7903 56.1941 21.2208 56.5869 20.6649 56.9922C20.254 57.2914 19.8093 57.5531 19.4327 57.8903C18.4153 58.8028 18.1499 59.9338 18.7638 61.1505C19.8224 63.2446 21.2589 64.9415 23.7277 65.4142C23.9175 65.4517 24.0706 65.5416 24.1774 65.7203C24.0193 66.0975 23.7039 66.0563 23.3804 66.0207C22.7778 65.9545 22.1595 65.8883 21.6511 65.556C18.5196 63.5119 15.0378 62.0117 12.2823 59.3836C11.0875 58.2445 9.82657 58.6554 9.30881 60.2474C8.91849 61.449 8.91348 62.7181 8.81918 63.9559C8.51627 67.973 8.04288 71.9782 7.79367 75.9922C7.63068 78.6015 7.09607 81.1003 6.65762 83.6453C5.9213 87.9291 5.01508 92.1879 4.55417 96.5185C4.48483 97.1617 4.32681 97.7782 4.05576 98.3833C3.42059 99.8054 3.45682 101.372 3.26321 102.878C2.80792 106.412 2.11655 109.914 1.71185 113.451C1.28403 117.178 0.487732 120.843 0.0549316 124.566C-0.0106506 125.129 -0.0562439 125.675 0.153625 126.207C0.65387 127.473 1.81302 127.804 2.79233 126.865C4.06076 125.648 5.25052 124.347 6.44714 123.056C7.3927 122.035 8.36761 121.047 9.43497 120.155C10.2875 119.442 10.5948 119.504 11.1469 120.471C11.5359 121.152 11.8676 121.868 12.2229 122.569C12.4328 122.984 12.6589 123.385 13.0136 123.699C13.9017 124.482 15.0996 124.365 15.7935 123.409C16.1782 122.881 16.3806 122.26 16.636 121.665C16.9626 120.909 17.2674 120.131 17.9881 119.556C18.7207 120.212 19.171 121.013 19.6725 121.774C19.8255 122.006 19.9798 122.238 20.1434 122.461C21.2101 123.924 21.7036 124.018 23.2474 123.059C23.4423 122.938 23.6296 122.808 23.7945 122.699C24.2042 122.804 24.1599 123.14 24.1986 123.372C24.7588 126.659 26.0223 129.676 27.7579 132.495C28.1744 133.171 28.0758 133.555 27.475 133.944C24.4109 135.927 25.3509 141.286 28.7159 142.662C31.3122 143.723 34.0239 144.221 36.8038 144.409C37.1223 144.431 37.4852 144.432 37.7643 144.304C39.1583 143.669 40.4561 144.131 41.7939 144.527C43.7025 145.09 45.628 145.563 47.6602 145.435C48.885 145.357 49.9536 145.085 50.6293 143.977C50.9179 143.505 51.2383 143.372 51.7766 143.576C52.9352 144.016 54.1505 143.899 55.3472 143.799C56.5781 143.695 57.405 142.937 57.8591 141.867C58.305 140.815 57.8972 139.877 57.1053 139.105C56.6768 138.688 56.2365 138.284 55.7762 137.85C57.1914 137.289 57.6567 137.387 58.5211 138.395C60.3123 140.481 62.7311 141.321 65.3193 141.815C67.0143 142.138 68.7305 142.103 70.4443 142.096C71.012 142.094 71.6197 142.039 72.0519 141.734C72.8912 141.142 73.7844 141.217 74.7056 141.243C75.4919 141.266 76.2819 141.289 77.067 141.245C77.8177 141.203 78.5428 140.97 79.1117 140.47C79.7319 139.926 80.3877 139.831 81.1702 139.978C82.3849 140.206 83.5766 140.086 84.6589 139.432C86.0667 138.582 86.2646 137.731 85.4046 136.324C84.2811 134.485 82.8259 132.941 81.154 131.595C78.94 129.812 76.4886 128.433 73.8787 127.318C72.8144 126.864 72.8107 126.829 73.4252 125.844C76.4868 120.934 77.13 115.568 76.4643 109.946C76.3019 108.576 75.8166 107.236 76.0615 105.677C78.1006 106.154 79.454 107.904 81.5524 108.487C81.4057 106.225 80.7443 104.121 80.5288 101.915C83.9913 103.152 86.6831 105.904 90.5028 106.637C90.2667 105.822 89.887 105.305 89.5654 104.766C87.0772 100.592 84.5578 96.4366 82.0908 92.2516C79.8549 88.46 77.4392 84.7908 74.9204 81.1821C70.972 75.5262 67.0624 69.8423 63.1321 64.1733C62.7361 63.6031 62.3346 63.0335 61.8899 62.502C61.2504 61.7388 60.4422 61.5308 59.5254 61.9661C58.4824 62.4626 57.4119 62.9192 56.427 63.5125C54.5409 64.6492 52.4843 65.3118 50.3989 65.932C49.838 66.0987 49.587 65.8552 49.4983 65.4042C49.2391 64.079 49.2522 62.7387 49.3896 61.4003C49.4227 61.0749 49.6132 60.9119 49.9298 60.875C50.1597 60.8488 50.3883 60.8001 50.6181 60.7857C56.0279 60.4553 61.3322 59.2325 66.7551 58.9627C69.4525 58.8278 71.9732 57.8585 74.4001 56.6381C76.4206 55.6226 77.5191 54.0269 77.684 51.8479C77.7989 50.3396 78.4497 49.4771 79.888 49.0605C81.0872 48.7139 82.2138 48.1493 83.2893 47.5116C84.9294 46.538 85.9805 45.1727 86.1878 43.1992C86.4295 40.9083 86.3065 38.6675 85.5377 36.4872C84.7151 34.1526 82.6854 33.1727 80.3296 33.924C79.5695 34.167 78.8769 34.5286 78.258 35.0207C77.2706 35.8064 76.1364 36.1412 74.8979 36.1231C70.1283 36.0544 65.3599 35.98 60.5908 35.8832C59.3211 35.8576 59.1681 35.7121 59.0164 34.4555C58.804 32.6962 58.2269 31.0343 57.6811 29.3674C57.2333 28.0002 56.3246 26.9329 55.1335 26.1628C53.8607 25.3397 53.0295 24.2648 52.6678 22.7847C52.4449 21.8722 52.0358 20.966 51.217 20.4876C50.4351 20.0292 50.4632 19.4202 50.5057 18.7232C50.7399 14.8817 51.6942 11.2499 53.5753 7.86865C54.316 6.5365 55.0324 5.18186 55.6438 3.78725C56.3027 2.28646 55.7637 1.03425 54.3141 0.350998C52.9645 -0.284786 52.0496 -0.078064 51.1996 1.15791C50.65 1.95546 50.1753 2.80921 49.7169 3.66484C49.4352 4.18821 49.1486 4.14137 48.7388 3.84158C48.1343 3.39816 47.6802 2.80796 47.1575 2.28459C46.162 1.28844 45.0097 0.709488 43.5551 0.817535C42.6539 0.883736 41.9619 1.19851 41.5578 2.061C41.175 2.87978 41.3524 3.60675 41.8726 4.2644C42.8494 5.49913 43.8324 6.73073 44.8611 7.92174C45.628 8.80796 46.0002 9.80661 46.0308 10.9608C46.0658 12.258 46.0489 13.5458 45.8279 14.8354C45.5637 16.3868 45.4044 17.9544 45.1677 19.5102C45.0047 20.5806 44.8654 20.6924 43.7768 20.9123C42.825 21.1053 41.8626 21.2551 40.9239 21.5006C39.5849 21.8491 38.2752 21.8304 36.9562 21.4263C35.5522 20.9953 34.1145 20.966 32.7049 21.3282C31.5795 21.6168 30.7157 21.3226 29.9594 20.4976C27.6017 17.9263 25.5239 15.1621 23.9887 12.0113C22.9776 9.93214 21.9221 7.87427 20.926 5.78829C20.3633 4.61165 19.3877 3.96649 18.2386 3.52619C17.5053 3.24514 17.017 3.4375 16.606 4.14511C16.0658 5.07631 16.0064 6.0862 16.2869 7.10483C16.5698 8.12971 16.902 9.14022 17.2218 10.1545C17.3161 10.4536 17.4729 10.7353 17.4417 11.0738Z" fill-rule="evenodd" fill="#020101"/>
		</g>
		<g mask="url(#mask1_37)">
			<path id="Path 11848" d="M45.2246 53.3599C44.8486 52.9927 44.1897 52.9046 44.0836 52.1027C45.0029 51.999 45.9003 52.1396 46.7953 52.1702C47.6928 52.2008 47.7278 52.202 47.7465 51.2771C47.7708 50.1435 47.9938 49.0805 48.5559 48.0856C49.6052 46.2301 52.3088 45.387 54.0051 47.5136C55.0324 48.8007 56.4064 49.8687 56.5963 51.6799C56.6338 52.0309 56.9055 52.1152 57.2046 52.0883C58.7554 51.9509 60.3455 52.0659 61.8175 51.3939C61.9824 51.3189 62.1879 51.2027 62.3359 51.244C64.0234 51.7174 65.6366 51.0797 67.266 50.8873C70.3407 50.5257 73.4259 50.1622 76.4056 49.2498C78.9488 48.4716 81.2902 47.2956 83.4542 45.7392C84.5284 44.9673 85.0481 44.0086 85.0112 42.6846C84.9675 41.0195 85.0462 39.3476 84.6446 37.7119C84.5353 37.2654 84.4104 36.8113 84.2099 36.4016C83.3499 34.6467 81.5469 34.162 79.8937 35.2206C79.6626 35.3693 79.4397 35.5429 79.2379 35.7309C78.2786 36.6271 77.1313 37.0068 75.836 37.0961C72.7827 37.306 69.7292 37.2735 66.6758 37.158C64.7329 37.0836 62.7943 36.9419 60.8532 36.8263C60.2949 36.7939 59.7552 36.6702 59.24 36.4454C58.4568 36.1031 57.9722 35.5416 57.8985 34.6635C57.8641 34.2482 57.7873 33.8354 57.7711 33.4201C57.6655 30.7801 56.4314 28.7141 54.4041 27.1453C52.9402 26.0117 51.9466 24.7539 51.7979 22.8003C51.6786 21.2346 50.848 20.6993 49.256 20.6394C48.406 20.6082 47.6028 20.8167 46.7978 21.0247C44.4695 21.6262 42.1393 22.222 39.8235 22.8703C38.6613 23.1956 37.5171 23.2031 36.4154 22.7722C33.2496 21.5381 30.2742 23.1813 28.6104 25.3616C26.9479 27.5418 25.9673 29.8377 25.6557 32.5451C25.3328 35.343 24.4959 38.0654 24.2086 40.8796C23.4017 48.8001 23.7958 56.5888 26.6644 64.1208C27.1253 65.3306 27.5244 66.5634 27.9815 67.775C28.6848 69.6468 28.7322 71.5404 28.4324 73.5096C27.7985 77.6716 26.8929 81.783 26.1791 85.9275C25.6576 88.9527 25.8212 92.0118 26.1054 95.0639C26.4489 98.7512 26.828 102.443 25.2554 106C24.8301 106.965 24.6146 108.028 24.3573 109.059C24.2511 109.487 24.1006 110.035 24.5253 110.35C24.985 110.692 25.6245 110.829 26.0885 110.433C27.4363 109.283 28.4543 109.979 29.4948 110.899C30.5684 111.85 31.6738 112.765 32.6631 113.81C33.2952 114.479 33.6243 114.47 34.2826 113.883C34.7191 113.496 34.9252 112.978 35.0901 112.449C35.4061 111.435 35.7402 110.419 35.9651 109.382C36.1162 108.685 36.4572 108.499 37.1199 108.542C37.8575 108.587 38.6006 108.535 39.3408 108.514C39.7592 108.502 40.1689 108.439 40.5468 108.233C41.3312 107.81 41.4242 107.364 40.7903 106.717C40.3712 106.289 39.9103 105.892 39.4225 105.545C37.2779 104.019 36.045 101.914 35.4336 99.3976C34.726 96.4785 34.7503 93.5225 35.0339 90.5622C35.2368 88.4456 35.536 86.3378 35.799 84.2262C35.9357 83.1201 35.9563 82.0128 35.9301 80.8992C35.9232 80.6244 35.6872 80.1435 36.2917 80.1086C37.1442 81.0741 37.4528 82.2764 37.7994 83.4761C38.768 86.8218 38.8948 90.2237 38.3321 93.6256C37.7482 97.1599 38.2596 100.508 39.5768 103.784C40.0933 104.614 40.7984 105.288 41.4298 106.023C42.1056 106.808 42.4491 107.674 42.0894 108.712C41.9345 109.243 42.3617 109.556 42.5559 109.954C43.188 111.256 42.579 112.363 41.1276 112.537C40.8984 112.564 40.6642 112.581 40.4381 112.551C39.0541 112.369 38.1504 112.827 37.8268 114.294C37.6332 115.176 36.9606 115.793 36.3136 116.394C35.734 116.931 35.1144 117.128 34.4755 116.554C33.9409 116.073 33.2677 116.185 32.6625 116.017C31.9043 115.711 31.4952 115.045 31.0237 114.441C30.5509 113.836 30.065 113.243 29.5847 112.646C28.9633 112.221 28.4149 112.617 27.9053 112.865C27.1103 113.253 26.2903 113.533 25.4384 113.742C25.2048 116.347 25.2585 118.956 25.4096 121.563C25.5202 124.651 26.3527 127.56 27.5843 130.371C27.8729 131.031 28.3875 131.45 28.9533 131.878C29.4323 132.239 29.7646 132.304 30.2755 131.998C31.5477 131.233 32.916 130.67 34.3781 130.398C38.7125 129.588 42.9138 129.835 46.8378 132.092C47.1969 132.299 47.5723 132.475 47.9395 132.666C48.3704 132.835 48.8251 132.979 49.2785 132.878C52.2951 132.205 54.6109 133.688 56.8805 135.32C57.3895 135.685 57.7986 136.264 58.5586 136.025C59.9432 135.763 61.1761 135.13 62.3683 134.418C66.8382 131.753 70.2895 128.081 72.9388 123.633C73.6758 122.395 74.1691 121.061 74.4402 119.631C74.7943 117.775 75.4482 115.977 75.4501 114.053C75.4563 109.195 74.3359 104.592 72.0401 100.335C69.6655 95.9327 66.8339 91.8288 63.4095 88.1496C60.6996 85.238 58.0234 82.2951 55.3784 79.3248C52.9889 76.6417 51.2321 73.5496 49.7975 70.2714C49.0356 68.5276 48.747 66.639 48.1968 64.8291C48.0763 64.1721 47.5985 63.8423 47.0508 63.5756C46.142 63.134 45.317 62.562 44.4876 61.9924C43.587 61.3728 43.4915 60.4573 43.7207 59.5485C43.9393 58.6873 44.6594 59.2069 45.1821 59.2269C47.9026 59.8733 50.6125 59.3343 53.3268 59.1538C57.9884 58.8441 62.5826 57.9416 67.2411 57.5806C69.5594 57.4014 71.7609 56.64 73.8625 55.6451C74.8399 55.183 75.6774 54.5334 76.0509 53.4467C76.3163 52.7747 75.8148 52.5105 75.3782 52.6005C73.3135 53.0264 71.2032 52.8697 69.1328 53.1713C68.8899 53.6641 68.6819 54.1793 68.3977 54.6477C67.5652 56.0149 66.3929 56.3296 64.9933 55.5652C64.4406 55.2629 63.9203 54.9 63.4095 54.5784C63.0235 54.8376 62.9392 55.2223 62.7287 55.5177C61.7932 56.8374 60.6527 57.2284 59.1382 56.7862C58.4799 56.5951 57.9915 56.2697 57.7299 55.6064C57.5812 55.2292 57.4388 54.8307 57.1234 54.5403C56.0673 54.4454 55.0125 54.6315 53.9963 54.802C51.9934 55.1361 50.0567 54.7064 48.1019 54.5459C47.0601 54.4616 46.044 54.0938 45.2246 53.3599Z" fill-rule="evenodd" fill="#FF7B90"/>
		</g>
		<g mask="url(#mask1_37)">
			<path id="Path 11849" d="M9.58994 118.466C10.5193 118.085 11.1507 118.475 11.6209 119.259C11.8989 119.723 12.1587 120.197 12.4272 120.667C13.1511 121.065 13.3828 120.402 13.7094 120.034C14.6606 118.962 15.6212 117.922 17.1319 117.666C17.9201 117.739 18.4404 118.203 18.8557 118.83C19.2036 119.357 19.5658 119.873 19.9218 120.394C20.5301 120.801 20.8967 120.316 21.1534 119.948C21.9372 118.827 22.8665 117.833 23.7452 116.794C23.7615 115.544 23.7627 114.294 23.8033 113.045C23.8196 112.542 23.6291 112.178 23.3081 111.808C22.6504 111.05 22.5386 110.165 22.8016 109.202C23.1813 107.817 23.6372 106.46 24.2155 105.143C25.0793 103.177 25.3172 101.199 24.7183 99.0654C23.8189 95.8633 24.0201 92.5482 24.0269 89.2631C24.0313 87.0729 24.3111 84.9232 25.0206 82.8447C25.2592 82.1464 25.2747 81.5163 24.885 80.8536C23.972 79.3029 23.9932 77.809 25.1523 76.3413C25.8306 75.4826 25.7719 75.4382 24.9138 74.675C24.5671 74.3671 24.2255 74.0555 23.8889 73.7376C22.0409 71.9995 21.5294 69.9385 22.4019 67.5446C22.463 67.3747 22.5062 67.1986 22.578 66.9575C20.9592 66.338 19.3378 65.8127 17.8408 64.9839C15.8929 63.906 14.0498 62.6681 12.2055 61.4278C11.1095 60.6902 10.9196 60.7589 10.7485 62.0267C10.4474 64.272 10.1046 66.516 9.92719 68.7737C9.39883 75.5188 8.2178 82.1633 6.96436 88.7997C6.19177 92.8874 5.26559 96.9544 5.08759 101.133C5.06824 101.593 5.02701 102.075 4.87149 102.501C4.57608 103.315 4.49615 104.089 4.7778 104.932C4.93646 105.406 4.88647 105.936 4.72284 106.436C3.64551 109.745 3.0853 113.162 2.63062 116.599C2.35208 118.707 1.89117 120.788 1.79749 122.92C2.39267 123.078 2.58752 122.571 2.86172 122.245C3.77979 121.149 4.91147 120.295 6.02377 119.421C7.06863 118.6 8.25903 118.255 9.58994 118.466Z" fill-rule="evenodd" fill="#BC5B6F"/>
		</g>
		<g mask="url(#mask1_37)">
			<path id="Path 11850" d="M85.2124 99.8379C80.582 92.6881 75.971 85.5252 71.3075 78.396C69.8636 76.1883 68.048 74.2516 66.5403 72.0775C64.6923 69.4132 62.7918 66.7914 61.198 63.9603C60.5185 62.7512 60.348 62.7337 59.1045 63.2521C58.5449 63.4856 58.0465 63.8185 57.5531 64.1664C55.6014 65.5404 53.4624 66.506 51.1372 67.0593C49.9905 67.331 49.9218 67.4178 50.3609 68.5682C51.5269 71.6185 53.1189 74.4377 55.2117 76.9471C57.9716 80.2572 60.955 83.363 63.9604 86.4527C67.7257 90.3249 70.8372 94.6898 73.3479 99.4801C73.7982 100.338 73.9887 101.319 74.6076 102.094C76.2089 102.514 77.7478 103.084 79.1955 103.907C79.6083 104.141 80.128 104.275 79.9449 103.434C79.9606 102.771 79.7563 102.152 79.5815 101.526C79.2698 100.943 78.9532 100.304 79.4022 99.7136C79.9006 99.061 80.6738 99.0329 81.437 99.1734C82.3551 99.3414 83.167 99.8217 84.0507 100.083C84.4498 100.202 84.9825 100.64 85.2124 99.8379Z" fill-rule="evenodd" fill="#BC5B6F"/>
		</g>
		<g mask="url(#mask1_37)">
			<path id="Path 11851" d="M54.0962 138.73C53.8283 138.337 53.4199 138.107 53.0457 137.838C50.7556 136.192 48.4066 134.631 46.0815 133.034C43.2554 131.094 40.1283 130.661 36.8251 130.833C34.0783 130.973 31.5926 131.878 29.2637 133.302C28.726 133.631 28.305 134.017 28.0802 134.603C27.8816 135.12 27.6499 135.628 27.5062 136.162C26.8211 138.693 27.6848 140.749 29.975 142.033C31.2416 142.742 32.5925 143.198 34.0664 143.184C35.1294 143.175 36.1974 143.201 37.2548 143.118C38.2415 143.04 38.4695 142.671 38.2065 141.732C38.0954 141.336 37.8656 140.976 37.705 140.593C37.4927 140.088 37.246 139.58 37.5071 138.939C38.4745 139.736 38.8117 140.969 39.6724 141.792C42.4984 142.626 45.3601 143.076 48.3023 142.552C48.7508 142.472 49.1904 142.301 49.3896 141.814C49.1392 140.739 48.396 139.886 47.9726 138.637C48.9956 139.063 49.5576 139.783 50.1691 140.438C51.4138 140.772 52.5917 140.293 53.769 140.061C54.4441 139.929 54.4222 139.287 54.0962 138.73Z" fill-rule="evenodd" fill="#FF7B90"/>
		</g>
		<g mask="url(#mask1_37)">
			<path id="Path 11852" d="M71.6116 135.428C71.9126 135.32 72.0244 134.931 72.3823 134.907C73.7994 134.246 74.3846 132.853 75.1821 131.665C75.633 130.993 76.0103 130.258 76.3706 129.523C75.4113 128.956 74.3446 128.678 73.2947 128.344C72.4229 128.066 71.8701 128.297 71.2899 129.027C68.8161 132.138 65.892 134.723 62.2184 136.363C61.4234 136.717 60.6071 137.025 59.6597 137.414C60.3354 138.387 61.1105 139.122 62.1085 139.602C64.9327 140.956 67.9137 141.38 71.007 140.995C72.0706 140.864 72.5403 140.268 72.4928 139.192C72.4728 138.748 72.5397 138.256 72.1855 137.88C70.6529 138.547 69.0941 139.099 67.3141 138.956C68.2372 138.178 69.1815 137.497 70.1689 136.878C70.7678 136.502 71.2662 136.045 71.6116 135.428Z" fill-rule="evenodd" fill="#B25665"/>
		</g>
		<g mask="url(#mask1_37)">
			<path id="Path 11853" d="M13.196 13.6907C13.3634 14.3958 13.9455 14.7349 14.4938 15.059C15.6492 15.7392 16.784 16.4974 18.0219 16.9839C20.9291 18.1243 23.1113 20.1303 25.0455 22.4793C25.7444 23.3299 26.4289 24.1918 27.1483 25.083C27.9041 24.4385 28.4973 23.8002 29.0563 23.1263C29.471 22.305 28.7016 21.999 28.3456 21.5243C25.5302 17.7733 22.3387 14.2927 20.1478 10.0976C19.5932 9.0353 19.2534 7.86865 18.632 6.8394C18.3916 6.44344 18.3316 5.81889 17.6365 5.87385C17.4785 7.74623 18.0956 9.42751 18.9537 11.0338C19.2841 11.6528 19.4165 12.2267 19.0598 12.86C18.8794 13.4296 18.5771 13.6151 17.9332 13.454C16.7278 13.1523 15.5224 12.8294 14.2958 12.6246C13.5314 12.4965 12.8206 12.5721 13.196 13.6907Z" fill-rule="evenodd" fill="#BB5B6F"/>
		</g>
		<g mask="url(#mask1_37)">
			<path id="Path 11854" d="M76.3706 129.523C76.0309 129.576 75.7954 129.749 75.6536 130.075C74.8655 131.888 73.6207 133.396 72.3823 134.907C72.6358 136.052 73.1842 137.089 73.592 138.177C75.387 139.091 76.671 137.923 78.0369 137.087C77.2687 136.309 76.5661 135.482 76.0078 134.532C75.7973 134.173 75.5674 133.851 75.8273 133.26C77.1906 134.721 78.4429 136.159 79.8968 137.39C80.2665 137.684 80.705 137.8 81.1596 137.884C83.1757 138.255 84.1943 137.085 83.5872 135.092C81.5856 132.712 79.3253 130.667 76.3706 129.523Z" fill-rule="evenodd" fill="#FE7B90"/>
		</g>
		<g mask="url(#mask1_37)">
			<path id="Path 11855" d="M42.4236 2.56941C42.2855 3.54808 42.8938 4.23195 43.4122 4.91895C44.0773 5.80144 44.7987 6.64332 45.54 7.46397C46.2189 8.2153 46.4974 9.05656 46.6292 10.069C47.009 12.9843 46.6842 15.8604 46.3788 18.7464C46.3263 19.2404 46.1883 19.7469 46.4712 20.2853C47.0489 20.1972 47.636 20.1073 48.2224 20.0186C48.6041 19.8874 48.6259 19.5752 48.6459 19.2373C48.9832 13.6507 50.3596 8.32085 52.6255 3.2127C53.0658 2.22217 53.0652 2.22217 52.6286 1.6582C51.8205 2.30024 51.3164 3.18147 50.8399 4.0602C50.4265 4.82215 49.9044 5.40298 49.0812 5.69339C48.2936 5.99317 47.6491 5.64592 47.0202 5.2381C45.901 4.51112 44.8137 3.73919 43.7351 2.95538C43.3641 2.6862 43.0162 2.15409 42.4236 2.56941Z" fill-rule="evenodd" fill="#BB5B6F"/>
		</g>
		<g mask="url(#mask1_37)">
			<path id="Path 11856" d="M39.5768 103.784C39.7224 102.738 39.4157 101.75 39.0522 100.812C38.249 98.7462 38.3777 96.6378 38.6594 94.528C39.2421 90.1768 39.2033 85.8881 37.6969 81.6943C37.4296 80.9486 37.0593 80.3721 36.2917 80.1086C37.0056 82.405 37.0162 84.7402 36.7126 87.1022C36.3704 89.7621 36.0706 92.4346 36.2761 95.1164C36.5197 98.3134 37.6139 101.223 39.5768 103.784Z" fill-rule="evenodd" fill="#B25665"/>
		</g>
		<g mask="url(#mask1_37)">
			<path id="Path 11857" d="M17.6372 5.87449C18.3373 6.63894 18.7096 7.60136 19.0731 8.52881C20.1104 11.1788 21.6299 13.5058 23.428 15.693C24.7102 17.2512 25.8825 18.9038 27.0547 20.5494C27.5163 21.1971 28.094 21.7198 28.6299 22.29C28.8566 22.533 29.0546 22.7753 29.057 23.1269C30.1 22.1327 30.135 22.1021 29.2307 21.0728C27.7086 19.3422 26.2191 17.5935 24.9038 15.6961C23.0033 12.9531 21.7261 9.8872 20.2585 6.91874C20.0143 6.42347 19.7907 5.91634 19.5259 5.43232C19.2623 4.95204 19.01 4.3606 18.3086 4.54047C17.6379 4.71222 17.5792 5.28617 17.6372 5.87449Z" fill-rule="evenodd" fill="#82404D"/>
		</g>
		<g mask="url(#mask1_37)">
			<path id="Path 11858" d="M32.6619 116.017C33.244 116.333 33.9054 116.44 34.41 116.985C34.9509 117.57 35.606 117.482 36.2631 116.967C37.3454 116.116 38.1161 115.032 38.4421 113.702C38.5982 113.066 38.8812 112.868 39.4826 112.91C39.9879 112.946 40.5 112.883 41.0027 112.933C42.0376 113.036 42.699 112.466 43.0962 111.654C43.4666 110.897 43.2211 110.122 42.6946 109.463C42.4935 109.212 42.2912 108.962 42.0894 108.712C41.1126 109.839 39.8879 110.524 38.4071 110.709C37.3647 110.839 36.7646 111.362 36.4929 112.403C36.2462 113.348 35.6779 114.151 35.0527 114.909C34.4219 115.674 33.6774 116.119 32.6619 116.017Z" fill-rule="evenodd" fill="#B15665"/>
		</g>
		<g mask="url(#mask1_37)">
			<path id="Path 11859" d="M52.6286 1.65819C53.0089 2.04478 52.6186 2.33644 52.4849 2.63685C51.2702 5.37548 50.136 8.14096 49.519 11.0894C49.0974 13.1098 48.6252 15.1228 48.2842 17.1563C48.1287 18.0875 48.2355 19.063 48.2224 20.0186C48.9425 20.1054 49.3572 19.825 49.4521 19.0705C49.567 18.158 49.7963 17.255 49.8581 16.34C50.1429 12.1068 51.4988 8.22778 53.6391 4.59542C53.8958 4.15887 54.095 3.68983 54.343 3.24828C54.6527 2.69493 54.8919 2.11036 54.3511 1.60947C53.8083 1.10609 53.1882 1.11858 52.6286 1.65819Z" fill-rule="evenodd" fill="#83404D"/>
		</g>
		<g mask="url(#mask1_37)">
			<path id="Path 11860" d="M22.6772 54.2436C22.6772 52.1258 22.6535 50.0073 22.6897 47.8901C22.7022 47.1307 22.36 46.9196 21.6886 46.9683C21.3676 46.9908 21.0446 46.9777 20.7218 46.972C19.7188 46.9564 18.9181 47.3068 18.4572 48.2455C17.9644 49.246 18.2436 50.2034 18.9075 50.9391C20.0048 52.1558 21.2395 53.2493 22.4168 54.396C22.5036 54.3448 22.5898 54.2948 22.6772 54.2436Z" fill-rule="evenodd" fill="#83404D"/>
		</g>
		<g mask="url(#mask1_37)">
			<path id="Path 11861" d="M27.0297 74.8143C27.7835 72.0538 27.3819 69.6224 26.1291 67.2966C25.9992 67.0549 25.8655 66.8557 25.4989 66.8882C23.9813 67.0212 22.9501 68.299 23.2799 69.7917C23.5741 71.1188 24.173 72.3186 25.181 73.2629C25.7131 73.7613 26.2983 74.2041 27.0297 74.8143Z" fill-rule="evenodd" fill="#823F4D"/>
		</g>
		<g mask="url(#mask1_37)">
			<path id="Path 11862" d="M85.2123 99.8379C85.0587 100.064 84.8751 100.081 84.6271 99.9716C84.002 99.6949 83.3699 99.4288 82.7304 99.1834C82.1358 98.9561 81.5456 98.7231 80.8823 98.7256C80.2216 98.7269 79.5164 98.6987 79.2323 99.4089C78.94 100.137 78.8201 100.929 79.5814 101.526C79.6776 101.026 79.1817 100.577 79.5059 99.9435C81.2352 100.497 82.3182 102.174 83.9626 102.73C85.7045 103.317 86.9429 104.677 88.751 105.386C88.4512 104.201 87.6524 103.433 87.0934 102.542C86.5101 101.613 85.8431 100.736 85.2123 99.8379Z" fill-rule="evenodd" fill="#823F4D"/>
		</g>
		<g mask="url(#mask1_37)">
			<path id="Path 11863" d="M24.8944 64.1851C24.3892 61.6307 23.9245 59.2856 23.4592 56.9404C23.3749 56.5176 23.1295 56.3927 22.7622 56.6125C22.3257 56.8736 21.9066 57.1652 21.4825 57.4475C19.7482 58.6029 19.5059 58.8465 20.6713 61.0643C21.525 62.6856 23.0727 63.43 24.8944 64.1851Z" fill-rule="evenodd" fill="#823F4C"/>
		</g>
		<g mask="url(#mask1_37)">
			<path id="Path 11864" d="M58.558 136.025C58.2451 135.944 57.9484 135.842 57.7148 135.593C56.3964 134.175 54.6396 133.455 52.9471 132.643C51.8585 132.119 50.6887 132.291 49.5658 132.469C49.023 132.553 48.4872 132.646 47.9388 132.666C49.2979 133.528 50.6387 134.416 51.949 135.353C53.3599 136.363 55.0006 136.654 56.6962 136.443C57.3164 136.366 57.9909 136.394 58.558 136.025Z" fill-rule="evenodd" fill="#B15564"/>
		</g>
		<g mask="url(#mask1_37)">
			<path id="Path 11865" d="M9.58987 118.466C8.39075 117.516 7.31342 118.186 6.34222 118.828C4.78525 119.861 3.30319 121.009 2.22025 122.583C2.12344 122.725 1.94043 122.808 1.79742 122.92C1.36774 123.574 1.5907 124.352 1.40396 125.06C1.30777 125.418 1.7356 125.562 2.00415 125.726C2.24896 125.875 2.44446 125.748 2.6087 125.572C2.98779 125.167 3.36377 124.76 3.73227 124.346C5.57217 122.274 7.4689 120.259 9.58987 118.466Z" fill-rule="evenodd" fill="#833F4D"/>
		</g>
		<g mask="url(#mask1_37)">
			<path id="Path 11866" d="M51.9603 52.3406C52.3694 52.3131 52.9665 52.2763 53.5641 52.2301C54.1212 52.1876 54.3786 51.959 54.2611 51.332C54.0095 49.9748 53.5473 48.7551 52.3707 47.9226C51.4207 47.2506 50.572 47.3805 49.8394 48.2973C49.0774 49.2522 48.9969 50.4151 48.8407 51.5556C48.7783 52.0102 49.1255 52.0783 49.4322 52.1664C50.1985 52.3843 50.9879 52.315 51.9603 52.3406Z" fill-rule="evenodd" fill="#E2E8E6"/>
		</g>
		<g mask="url(#mask1_37)">
			<path id="Path 11867" d="M22.5667 44.5351C22.804 42.4378 23.047 40.6135 23.2056 38.7824C23.3174 37.4877 23.037 37.2479 21.7167 37.349C21.0728 37.3978 20.4332 37.5045 19.7968 37.6132C19.2572 37.705 18.9268 38.0673 19.0848 38.5956C19.7325 40.7628 20.4732 42.8894 22.5667 44.5351Z" fill-rule="evenodd" fill="#823F4C"/>
		</g>
		<g mask="url(#mask1_37)">
			<path id="Path 11868" d="M54.0962 138.73C53.9382 139.839 53.9344 139.911 52.9258 139.863C51.9365 139.816 51.0878 140.254 50.1691 140.438C51.4106 143.085 51.2545 142.928 54.2361 142.898C54.9849 142.89 55.7113 142.858 56.3508 142.416C57.2046 141.826 57.2957 141.218 56.5344 140.496C55.8062 139.805 55.038 139.141 54.0962 138.73Z" fill-rule="evenodd" fill="#B15564"/>
		</g>
		<g mask="url(#mask1_37)">
			<path id="Path 11869" d="M45.2245 53.3599C45.3976 53.9988 45.8466 54.3604 46.4518 54.5434C47.373 54.8207 48.2867 55.1268 49.2735 55.1068C49.9149 55.093 50.56 55.2236 51.1896 55.2479C53.1944 55.326 55.2216 55.3972 57.1234 54.5403C56.6656 53.4286 56.6612 53.373 55.5782 53.4605C53.4124 53.6341 51.2458 53.6641 49.0755 53.6841C47.7814 53.6953 46.4924 53.6522 45.2245 53.3599Z" fill-rule="evenodd" fill="#B25766"/>
		</g>
		<g mask="url(#mask1_37)">
			<path id="Path 11870" d="M49.3896 141.814C47.7103 142.525 45.9509 142.454 44.2047 142.26C42.6952 142.093 41.2037 141.755 39.6724 141.792C40.2138 142.65 41.0208 143.241 41.9538 143.457C44.0891 143.95 46.2488 144.432 48.4703 144.051C50.0217 143.785 50.2447 143.228 49.3896 141.814Z" fill-rule="evenodd" fill="#B15564"/>
		</g>
		<g mask="url(#mask1_37)">
			<path id="Path 11871" d="M69.1328 53.1713C70.6816 53.5704 72.2324 53.5622 73.7869 53.2C74.2809 53.0845 74.7768 52.9702 75.2764 52.8859C75.7017 52.8153 75.999 52.9752 76.0508 53.4461C76.4193 53.1369 76.3175 52.6823 76.3906 52.2888C76.7153 50.5488 76.5455 50.3615 74.8842 50.71C73.2641 51.0491 71.6865 51.5768 70.0377 51.7948C69.2202 51.9022 69.3782 52.6735 69.1328 53.1713Z" fill-rule="evenodd" fill="#B05665"/>
		</g>
		<g mask="url(#mask1_37)">
			<path id="Path 11872" d="M45.1815 59.2269C44.6825 58.8521 44.0017 58.7903 43.6701 59.1781C43.2435 59.6765 43.0724 60.421 43.3385 61.1292C43.5215 61.6157 43.8438 62.0005 44.2865 62.2871C45.1759 62.8642 46.0315 63.4969 47.007 63.9291C47.4792 64.1376 47.8945 64.405 48.1962 64.8297C48.0963 63.8204 47.9789 62.8124 47.902 61.8012C47.8358 60.9356 47.4012 60.5122 46.5461 60.3354C45.6618 60.1531 44.7194 60.0756 43.7444 59.3724C44.3565 59.3105 44.7693 59.2681 45.1815 59.2269Z" fill-rule="evenodd" fill="#B15665"/>
		</g>
		<g mask="url(#mask1_37)">
			<path id="Path 11873" d="M78.0369 137.088C77.4467 137.181 76.8547 137.331 76.3575 137.645C75.4907 138.192 74.572 138.304 73.592 138.177C73.6533 138.54 73.7363 138.899 73.7719 139.264C73.8818 140.412 73.8743 140.429 75.0666 140.442C75.8941 140.451 76.7229 140.509 77.5392 140.242C78.91 139.792 79.2254 139.126 78.6028 137.849C78.4635 137.563 78.3486 137.251 78.0369 137.088Z" fill-rule="evenodd" fill="#B15564"/>
		</g>
		<g mask="url(#mask1_37)">
			<path id="Path 11874" d="M79.945 103.434C79.8619 103.61 79.8906 103.941 79.5371 103.753C78.9338 103.435 78.3237 103.127 77.7403 102.774C76.7686 102.187 75.7324 101.947 74.607 102.094C75.0567 103.144 75.8124 103.938 76.7161 104.608C77.7528 105.376 78.9257 105.934 80.1024 106.996C80.2604 105.621 80.3278 104.526 79.945 103.434Z" fill-rule="evenodd" fill="#823F4C"/>
		</g>
		<g mask="url(#mask1_37)">
			<path id="Path 11875" d="M23.7453 116.794C22.5955 117.249 21.9816 118.241 21.3264 119.193C20.9654 119.718 20.6831 120.338 19.9218 120.394C20.3465 121.053 20.7999 121.687 21.357 122.247C21.7555 122.649 22.0778 122.614 22.3494 122.142C22.7373 121.469 22.974 120.702 23.6791 120.232C23.8065 120.147 23.784 119.798 23.784 119.57C23.7809 118.645 23.7596 117.719 23.7453 116.794Z" fill-rule="evenodd" fill="#823F4C"/>
		</g>
		<g mask="url(#mask1_37)">
			<path id="Path 11876" d="M42.4236 2.56939C43.213 2.66307 43.6239 3.35382 44.2328 3.73354C45.2746 4.38494 46.2483 5.14564 47.2787 5.8164C47.879 6.20674 48.531 6.46093 49.0812 5.69337C48.5035 5.66401 48.2281 5.21122 47.8946 4.84461C47.0958 3.96463 46.3369 3.04467 45.4932 2.21028C44.6725 1.39837 43.6558 1.27971 42.8701 1.78871C42.5922 1.96858 42.3692 2.19342 42.4236 2.56939Z" fill-rule="evenodd" fill="#81404D"/>
		</g>
		<g mask="url(#mask1_37)">
			<path id="Path 11877" d="M17.1319 117.666C16.0889 117.474 15.2401 117.757 14.5663 118.614C14.1122 119.193 13.4827 119.624 13.1167 120.285C12.9687 120.552 12.727 120.667 12.4272 120.668C13.241 122.333 13.2684 122.371 14.3345 123.208C14.846 122.78 14.9653 122.152 15.1421 121.556C15.5662 120.136 16.1713 118.811 17.1319 117.666Z" fill-rule="evenodd" fill="#823F4C"/>
		</g>
		<g mask="url(#mask1_37)">
			<path id="Path 11878" d="M71.6116 135.428C70.0121 136.653 68.1822 137.575 66.7439 139.064C68.4876 139.666 71.0358 139.097 72.1855 137.88C71.9907 137.063 71.4224 136.334 71.6116 135.428Z" fill-rule="evenodd" fill="#FC7A8F"/>
		</g>
		<g mask="url(#mask1_37)">
			<path id="Path 11879" d="M83.5867 135.092C83.5723 135.368 83.5629 135.647 83.5436 135.923C83.4555 137.203 82.7685 137.799 81.5425 137.562C80.9923 137.456 80.4539 137.366 79.8969 137.39C80.3759 139.095 80.3759 139.088 82.124 139.086C82.821 139.084 83.4974 138.996 84.1413 138.731C85.2292 138.285 85.4597 137.677 84.8514 136.698C84.4935 136.121 84.1437 135.52 83.5867 135.092Z" fill-rule="evenodd" fill="#B05564"/>
		</g>
		<g mask="url(#mask1_37)">
			<path id="Path 11880" d="M57.9409 53.4286C58.4481 55.1948 59.25 55.9037 60.4709 55.7675C61.7444 55.6258 62.3896 54.7833 62.3939 53.2025C60.9319 53.037 59.4948 53.3374 57.9409 53.4286Z" fill-rule="evenodd" fill="#DEE6E4"/>
		</g>
		<g mask="url(#mask1_37)">
			<path id="Path 11881" d="M25.4384 113.742C26.0155 114.148 26.5557 113.935 27.0859 113.639C27.8754 113.196 28.6835 112.805 29.5847 112.646C29.3955 112.213 29.0195 111.935 28.6854 111.64C27.9572 110.996 26.0873 111.102 25.567 111.88C25.2098 112.416 25.3797 113.111 25.4384 113.742Z" fill-rule="evenodd" fill="#B05665"/>
		</g>
		<g mask="url(#mask1_37)">
			<path id="Path 11882" d="M68.0974 52.3456C66.8252 52.5024 65.5573 52.5549 64.3345 52.9696C64.8247 54.3105 65.6129 54.9431 66.5891 54.8182C67.5859 54.6908 68.0012 54.0325 68.0974 52.3456Z" fill-rule="evenodd" fill="#D9E1DF"/>
		</g>
		<g mask="url(#mask1_37)">
			<path id="Path 11883" d="M13.196 13.6907C13.1917 13.0649 13.4246 12.7126 14.1147 12.9037C15.3526 13.2479 16.593 13.577 17.8633 13.7918C18.792 13.948 18.7901 13.9617 19.0599 12.86C18.7501 13.2135 18.421 13.2722 17.9776 13.0468C17.0795 12.5877 16.1552 12.1774 15.2352 11.7608C14.6906 11.5135 14.0854 11.1831 13.582 11.7327C13.0886 12.273 12.6508 12.9075 13.196 13.6907Z" fill-rule="evenodd" fill="#80404D"/>
		</g>
		<g mask="url(#mask1_37)">
			<path id="Path 11884" d="M25.409 121.563C25.4184 118.957 25.4284 116.349 25.4384 113.742C25.3822 113.812 25.2823 113.879 25.276 113.953C25.0899 116.41 25.0462 118.868 25.2835 121.324C25.2922 121.407 25.3659 121.484 25.409 121.563Z" fill-rule="evenodd" fill="#B05665"/>
		</g>
		<g mask="url(#mask1_37)">
			<path id="Path 11885" d="M25.8131 79.5165C26.3933 78.7214 26.4608 77.8621 26.5001 76.9159C25.1118 77.8764 25.0168 78.2293 25.8131 79.5165Z" fill-rule="evenodd" fill="#773A47"/>
		</g>
		<g mask="url(#mask1_37)">
			<path id="Path 11886" d="M46.1957 105.923C46.2707 108.963 46.4293 111.918 46.8315 114.856C47.17 117.33 47.5029 119.813 48.1849 122.214C49.2673 126.022 51.3876 129.157 54.6427 131.472C55.8824 132.354 57.2777 132.571 58.746 132.317C62.675 131.64 65.9782 129.933 68.4452 126.675C70.4768 123.992 72.4104 121.259 72.8619 117.847C73.2516 114.906 73.1199 111.935 72.5784 109.002C71.0583 100.777 66.7433 94.2108 60.5203 88.796C59.7215 88.1015 58.8478 87.4695 57.9366 86.9311C54.1674 84.7058 49.5851 86.2422 47.8764 90.2662C47.0557 92.1998 46.626 94.2258 46.4918 96.3193C46.2851 99.5438 45.7255 102.756 46.1957 105.923Z" fill-rule="evenodd" fill="#050203"/>
		</g>
		<g mask="url(#mask1_37)">
			<path id="Path 11887" d="M37.4209 33.6517C36.6546 33.668 36.3023 33.9371 36.2355 34.7035C36.13 35.8732 36.6521 36.8569 37.3516 37.7275C37.73 38.199 38.2528 38.1179 38.6887 37.7169C39.7704 36.7239 39.7067 34.9402 38.5788 34.0115C38.2341 33.7273 37.8456 33.6492 37.4209 33.6517Z" fill-rule="evenodd" fill="#040203"/>
		</g>
		<g mask="url(#mask1_37)">
			<path id="Path 11888" d="M51.0316 31.4428C51.1415 32.384 51.4744 33.4007 52.5112 34.0546C52.8565 34.2726 53.0739 34.2195 53.2968 33.8735C54.0475 32.7043 53.6591 30.8101 52.4968 30.0544C52.2532 29.8964 52.0053 29.7877 51.7374 29.9913C51.3208 30.3073 50.9941 30.6783 51.0316 31.4428Z" fill-rule="evenodd" fill="#070404"/>
		</g>
		<g mask="url(#mask1_37)">
			<path id="Path 11889" d="M80.2647 39.9022C80.3203 40.2413 80.3921 40.6935 80.4689 41.1432C80.5245 41.4673 80.6007 41.7977 80.9873 41.8614C81.2827 41.9107 81.5056 41.7184 81.698 41.5166C82.1595 41.032 82.4163 40.4512 82.4119 39.7823C82.4069 39.0216 81.6961 38.3483 80.9973 38.4045C80.4314 38.4495 80.2122 38.8592 80.2647 39.9022Z" fill-rule="evenodd" fill="#0C0607"/>
		</g>
		<g mask="url(#mask1_37)">
			<path id="Path 11890" d="M72.1325 113.901C72.0638 106.235 69.1184 99.7043 64.1852 93.9853C62.8268 92.4102 61.3691 90.9182 59.8027 89.5385C58.8965 88.7398 57.9341 88.0203 56.8467 87.49C53.7303 85.9655 50.5482 87.0098 48.9706 90.0938C48.0157 91.9593 47.4548 93.9547 47.0938 96.0195C46.7185 98.1716 46.8384 100.354 46.6067 102.517C46.4868 103.646 46.7404 104.819 46.8671 105.967C47.3555 110.372 47.3861 114.833 48.5184 119.159C48.9993 120.993 49.5215 122.814 50.2621 124.564C51.2233 126.835 52.7535 128.651 54.7058 130.143C55.632 130.85 56.6556 131.181 57.7979 131.179C61.5265 131.174 64.6685 129.871 67.0362 126.925C68.8461 124.672 70.247 122.176 71.3075 119.492C72.0163 117.699 72.17 115.813 72.1325 113.901Z" fill-rule="evenodd" fill="#BC5B6F"/>
		</g>
	</g>
	<defs/>
</svg>
