<svg xmlns="http://www.w3.org/2000/svg" width="16" height="16" viewBox="0 0 16 16">
  <path id="Settings_2" data-name="Settings 2" d="M16,9.458V6.542c-1.432-.511-1.817-.535-2.018-1.019s.055-.779.706-2.149L12.626,1.312c-1.351.642-1.659.909-2.149.706S9.965,1.425,9.459,0H6.542c-.509,1.429-.533,1.817-1.019,2.018-.5.209-.8-.067-2.149-.706L1.312,3.374c.651,1.37.908,1.662.706,2.149S1.431,6.033,0,6.542V9.459c1.426.507,1.817.533,2.018,1.019s-.054.778-.706,2.149l2.062,2.062c1.333-.633,1.647-.915,2.149-.706.485.2.509.587,1.019,2.018H9.458c.505-1.421.533-1.815,1.025-2.021s.791.066,2.143.708l2.062-2.062c-.65-1.367-.908-1.661-.706-2.149S14.569,9.968,16,9.458Zm-3.25.509a2.643,2.643,0,0,0,.325,2.385l-.723.723a2.63,2.63,0,0,0-2.382-.327,2.648,2.648,0,0,0-1.459,1.918H7.489A2.643,2.643,0,0,0,6.034,12.75a2.646,2.646,0,0,0-2.386.325l-.722-.723a2.637,2.637,0,0,0,.325-2.387A2.646,2.646,0,0,0,1.333,8.511V7.489A2.642,2.642,0,0,0,3.25,6.033a2.642,2.642,0,0,0-.325-2.386l.723-.723a2.639,2.639,0,0,0,2.387.325A2.641,2.641,0,0,0,7.489,1.333H8.512A2.644,2.644,0,0,0,9.968,3.25a2.646,2.646,0,0,0,2.386-.325l.723.723a2.646,2.646,0,0,0-.325,2.387,2.643,2.643,0,0,0,1.917,1.455V8.512A2.638,2.638,0,0,0,12.75,9.967ZM8,6A2,2,0,1,1,6,8,2,2,0,0,1,8,6ZM8,4.667A3.333,3.333,0,1,0,11.333,8,3.333,3.333,0,0,0,8,4.667Z" fill="#c7cad9"/>
</svg>
