<svg xmlns="http://www.w3.org/2000/svg" width="17.237" height="14" viewBox="0 0 17.237 14">
  <path id="Icon_awesome-twitter" data-name="Icon awesome-twitter" d="M15.466,6.87c.011.153.011.306.011.459A9.983,9.983,0,0,1,5.425,17.381,9.983,9.983,0,0,1,0,15.795a7.308,7.308,0,0,0,.853.044,7.075,7.075,0,0,0,4.386-1.509,3.539,3.539,0,0,1-3.3-2.45,4.455,4.455,0,0,0,.667.055,3.736,3.736,0,0,0,.93-.12A3.533,3.533,0,0,1,.7,8.346V8.3a3.558,3.558,0,0,0,1.6.448A3.538,3.538,0,0,1,1.2,4.026a10.042,10.042,0,0,0,7.284,3.7A3.988,3.988,0,0,1,8.4,6.914,3.536,3.536,0,0,1,14.514,4.5a6.955,6.955,0,0,0,2.242-.853A3.523,3.523,0,0,1,15.2,5.59a7.082,7.082,0,0,0,2.034-.547A7.594,7.594,0,0,1,15.466,6.87Z" transform="translate(0 -3.381)" fill="#f5f6f8"/>
</svg>