<svg id="Layer_2" data-name="Layer 2" xmlns="http://www.w3.org/2000/svg" width="16" height="16" viewBox="0 0 16 16">
  <g id="invisible_box" data-name="invisible box">
    <rect id="Rectangle_22198" data-name="Rectangle 22198" width="16" height="16" fill="none"/>
  </g>
  <g id="icons_Q2" data-name="icons Q2" transform="translate(1.333 1.333)">
    <path id="Path_15961" data-name="Path 15961" d="M25.347,4a.667.667,0,0,0-.667.767.7.7,0,0,0,.7.567h3.033L24.247,9.5a.667.667,0,0,0-.067.933.6.6,0,0,0,.5.233.667.667,0,0,0,.467-.2l4.2-4.2V9.3a.7.7,0,0,0,.567.7.667.667,0,0,0,.767-.667V4.667A.667.667,0,0,0,30.014,4Z" transform="translate(-17.347 -4)" fill="#c7cad9"/>
    <path id="Path_15962" data-name="Path 15962" d="M16.567,12.666a.7.7,0,0,0-.567.7V16H5.333V5.333H8a.667.667,0,0,0,.667-.767A.7.7,0,0,0,7.967,4h-3.3A.667.667,0,0,0,4,4.666v12a.667.667,0,0,0,.667.667h12a.667.667,0,0,0,.667-.667V13.333a.667.667,0,0,0-.767-.667Z" transform="translate(-4 -4)" fill="#c7cad9"/>
  </g>
</svg>
