<svg width="20.000000" height="20.000000" viewBox="0 0 20 20" fill="none" xmlns="http://www.w3.org/2000/svg" xmlns:xlink="http://www.w3.org/1999/xlink">
	<desc>
			Created with Pixso.
	</desc>
	<path id="Path 15751" d="M10 2.10526C14.3601 2.10527 17.8947 5.63986 17.8947 10C17.8947 14.3601 14.3601 17.8947 10 17.8947C5.63986 17.8947 2.10526 14.3601 2.10526 10C2.10526 5.63986 5.63986 2.10526 10 2.10526ZM10 0C4.47714 0 0 4.47716 0 10C0 15.5228 4.47714 20 10 20C15.5229 20 20 15.5228 20 10C20 4.47716 15.5229 0 10 0Z" fill-rule="nonzero" fill="#EC605A"/>
	<path id="Path 15754" d="M10 12C10.5523 12 11 11.5523 11 11L11 5C11 4.44772 10.5523 4 10 4C9.44772 4 9 4.44772 9 5L9 11C9 11.5523 9.44772 12 10 12Z" fill-rule="nonzero" fill="#EC605A"/>
	<circle id="Ellipse 1039" cx="10.000000" cy="14.333984" r="1.000000" fill="#EC605A"/>
	<defs/>
</svg>
