<svg width="25" height="24" viewBox="0 0 25 24" fill="none" xmlns="http://www.w3.org/2000/svg">
<path opacity="0.32" d="M2.662 8.5C2.5 9.603 2.5 11.05 2.5 13C2.5 16.771 2.5 18.657 3.672 19.828C4.843 21 6.729 21 10.5 21H14.5C18.271 21 20.157 21 21.328 19.828C22.5 18.657 22.5 16.771 22.5 13C22.5 11.05 22.5 9.603 22.338 8.5C20.061 9.98 18.602 10.923 17.25 11.505V12C17.2511 12.0985 17.2327 12.1962 17.196 12.2876C17.1593 12.379 17.1049 12.4623 17.036 12.5327C16.8968 12.6748 16.7069 12.7559 16.508 12.758C16.3091 12.7601 16.1175 12.6831 15.9753 12.544C15.8332 12.4048 15.7521 12.2149 15.75 12.016C13.6197 12.5776 11.3803 12.5776 9.25 12.016C9.24788 12.2149 9.16683 12.4048 9.02467 12.544C8.88252 12.6831 8.69091 12.7601 8.492 12.758C8.29309 12.7559 8.10317 12.6748 7.96401 12.5327C7.82486 12.3905 7.74788 12.1989 7.75 12V11.504C6.398 10.924 4.94 9.98 2.662 8.5Z" fill="#C7CAD9"/>
<path fill-rule="evenodd" clip-rule="evenodd" d="M11.081 2.24999H11.061C10.947 2.24999 10.859 2.24999 10.775 2.25499C10.2554 2.28658 9.75549 2.46498 9.3333 2.76945C8.9111 3.07392 8.584 3.49197 8.38999 3.97499C8.34737 4.08839 8.30736 4.20276 8.26999 4.31799L8.26599 4.32999C8.16284 4.60265 7.98845 4.84265 7.76099 5.02499C7.53399 5.03299 7.31699 5.04199 7.10899 5.05499C5.46499 5.15099 4.42199 5.42099 3.67099 6.17199C3.42699 6.41599 3.23299 6.69199 3.08099 7.00999C3.13945 7.03005 3.19521 7.05726 3.24699 7.09099C5.34699 8.45599 6.66699 9.31099 7.76299 9.85799C7.79767 9.67415 7.8998 9.5099 8.04935 9.39749C8.19889 9.28507 8.38506 9.23261 8.5713 9.25039C8.75753 9.26818 8.9304 9.35493 9.05597 9.49361C9.18154 9.6323 9.25074 9.81291 9.24999 9.99999V10.458C11.37 11.098 13.63 11.098 15.75 10.458V9.99999C15.7505 9.81382 15.8203 9.6345 15.9458 9.49692C16.0712 9.35933 16.2433 9.27332 16.4286 9.25561C16.614 9.2379 16.7993 9.28976 16.9485 9.4011C17.0977 9.51243 17.2002 9.67529 17.236 9.85799C18.333 9.30999 19.653 8.45599 21.753 7.09099C21.8051 7.05722 21.8612 7.03001 21.92 7.00999C21.7719 6.69896 21.5716 6.41554 21.328 6.17199C20.578 5.42199 19.535 5.15199 17.891 5.05399C17.694 5.04299 17.488 5.03399 17.273 5.02599C17.0214 4.82098 16.8271 4.55433 16.709 4.25199L16.705 4.24299C16.669 4.13599 16.641 4.05199 16.61 3.97399C16.4158 3.49116 16.0887 3.07332 15.6665 2.76903C15.2443 2.46474 14.7445 2.28649 14.225 2.25499C14.1297 2.2505 14.0344 2.24883 13.939 2.24999H11.081ZM15.318 4.81599L15.313 4.80499L15.308 4.79299L15.303 4.78099L15.3 4.77099L15.298 4.76599L15.294 4.75399L15.29 4.74199L15.288 4.73599L15.285 4.72799L15.283 4.72099L15.281 4.71499C15.2615 4.65414 15.2405 4.59378 15.218 4.53399C15.1298 4.31442 14.9812 4.12437 14.7893 3.98594C14.5974 3.84751 14.3702 3.76638 14.134 3.75199C14.0624 3.74949 13.9907 3.74882 13.919 3.74999H11.081C10.938 3.74999 10.898 3.74999 10.866 3.75199C10.6298 3.76638 10.4026 3.84751 10.2107 3.98594C10.0188 4.12437 9.87014 4.31442 9.78199 4.53399L9.77899 4.54099L9.77099 4.56199C9.74331 4.63808 9.7173 4.71476 9.69299 4.79199L9.69199 4.79799L9.68899 4.80499L9.68699 4.81299L9.68499 4.81899L9.68099 4.83099L9.67599 4.84299L9.67499 4.84799L9.67099 4.85799L9.66599 4.86999L9.66199 4.88199L9.65699 4.89199C9.64306 4.92829 9.62839 4.9653 9.61299 5.00099L10.5 4.99999H15.396C15.3676 4.93955 15.3423 4.87818 15.318 4.81599Z" fill="#C7CAD9"/>
</svg>
