<svg width="25" height="24" viewBox="0 0 25 24" fill="none" xmlns="http://www.w3.org/2000/svg">
<path opacity="0.32" d="M2.82694 4.28658C2.92248 3.46288 3.4222 2.78287 4.23187 2.60381C5.4948 2.32451 7.94275 2 12.5 2C17.0573 2 19.5052 2.32451 20.7682 2.60381C21.5778 2.78287 22.0775 3.46288 22.173 4.28658C22.3176 5.5322 22.5 7.58365 22.5 10C22.5 14.5142 20.1175 18.7382 16.1037 20.8039C14.7629 21.494 13.4543 22 12.5 22C11.5457 22 10.2371 21.494 8.8963 20.8039C4.88247 18.7382 2.5 14.5142 2.5 10C2.5 7.58365 2.68247 5.5322 2.82694 4.28658Z" fill="#C7CAD9"/>
<path fill-rule="evenodd" clip-rule="evenodd" d="M9.62105 7.7538C9.6895 6.21355 10.9582 5 12.5 5C14.0418 5 15.3105 6.21355 15.379 7.7538L15.4386 9.0968L15.5076 9.10265C16.3102 9.172 16.8768 9.7301 16.9377 10.5334C16.9735 11.0057 17 11.6444 17 12.5C17 13.3556 16.9735 13.9943 16.9377 14.4666C16.8768 15.2699 16.3102 15.828 15.5076 15.8974C14.8596 15.9534 13.8997 16 12.5 16C11.1003 16 10.1404 15.9534 9.4924 15.8974C8.68975 15.828 8.12325 15.2699 8.06235 14.4666C8.02655 13.9943 8 13.3556 8 12.5C8 11.7185 8.019 11.1179 8.04565 10.6598C8.0963 9.79025 8.69675 9.1729 9.5614 9.0959L9.62105 7.7538ZM13.3809 7.8426L13.4327 9.00755C13.1459 9.0027 12.8356 9 12.5 9C12.1648 9 11.8544 9.0027 11.5673 9.0075L11.6191 7.84265C11.64 7.3713 12.0283 7 12.5 7C12.9717 7 13.36 7.3713 13.3809 7.8426ZM13.5 12C13.5 12.4089 13.2545 12.7605 12.903 12.9155L12.9734 13.5415C12.9908 13.6961 12.9655 13.8652 12.8258 13.9338C12.7501 13.971 12.6446 14 12.5 14C12.3554 14 12.2499 13.971 12.1742 13.9338C12.0345 13.8652 12.0092 13.6961 12.0266 13.5415L12.097 12.9155C11.7455 12.7605 11.5 12.4089 11.5 12C11.5 11.4477 11.9477 11 12.5 11C13.0523 11 13.5 11.4477 13.5 12Z" fill="#C7CAD9"/>
</svg>
