<svg width="24" height="25" viewBox="0 0 24 25" fill="none" xmlns="http://www.w3.org/2000/svg">
<path d="M2.625 20.9424C2.32663 20.9424 2.04048 21.0609 1.8295 21.2719C1.61853 21.4829 1.5 21.769 1.5 22.0674C1.5 22.3658 1.61853 22.6519 1.8295 22.8629C2.04048 23.0739 2.32663 23.1924 2.625 23.1924H21.375C21.6734 23.1924 21.9595 23.0739 22.1705 22.8629C22.3815 22.6519 22.5 22.3658 22.5 22.0674C22.5 21.769 22.3815 21.4829 22.1705 21.2719C21.9595 21.0609 21.6734 20.9424 21.375 20.9424H2.625Z" fill="#C7CAD9"/>
<path opacity="0.32" d="M12.453 6.91738C12.5805 6.72238 12.726 6.51688 12.888 6.30538L12.912 6.27238C13.31 5.74453 13.7681 5.26481 14.277 4.84288C14.8665 4.36288 15.5805 3.95188 16.3995 3.77788C16.6725 3.72088 16.959 3.69088 17.2545 3.69238C19.281 3.70588 20.8125 5.08738 21.7515 6.24838C21.87 6.39388 21.9765 6.53488 22.0755 6.66988L22.1175 6.72838C22.218 6.86638 22.2975 7.01038 22.3575 7.15588L22.3695 7.18438C22.7655 8.19238 22.227 9.28138 21.3 9.74188C21.2283 9.77792 21.1547 9.80997 21.0795 9.83788L17.7315 11.0649L13.0725 17.7849C11.6655 19.8144 8.4915 18.4269 9.027 16.0149L9.495 13.9044L4.8375 15.2169C4.44734 15.3269 4.037 15.3451 3.63864 15.27C3.24029 15.1949 2.86474 15.0285 2.54143 14.784C2.21813 14.5394 1.95585 14.2233 1.77517 13.8604C1.59449 13.4976 1.5003 13.0978 1.5 12.6924V8.43238C1.5 6.61738 3.957 6.05188 4.749 7.68688L5.6565 9.56038L10.8045 8.20438C11.4525 8.03488 12.0285 7.56238 12.4545 6.91738H12.453ZM6.516 7.55188L6.666 7.74388L10.4235 6.75388C10.6215 6.70288 10.92 6.51688 11.202 6.09088C11.3516 5.86276 11.5087 5.63964 11.673 5.42188L9.762 4.11238C9.36328 3.83879 8.89106 3.69237 8.4075 3.69238C6.42 3.69238 5.2965 5.97988 6.516 7.55188Z" fill="#C7CAD9"/>
</svg>
