<svg width="25" height="24" viewBox="0 0 25 24" fill="none" xmlns="http://www.w3.org/2000/svg">
<path opacity="0.32" d="M21.6808 16.9703C21.3971 17.6255 20.7225 18 20.0086 18H15.3154C15.3462 17.9145 15.3735 17.8269 15.3971 17.7373C15.6709 16.6974 15.3825 15.639 14.7214 14.8963C14.9654 12.9091 15.1177 10.8733 15.2108 9.26516C15.2569 8.46731 14.2795 8.20081 13.9274 8.91526C13.2178 10.3553 12.3493 12.1958 11.5842 14.041C10.6467 14.3479 9.8768 15.1177 9.60295 16.1576C9.43642 16.7899 9.47782 17.4291 9.68451 18H4.99141C4.27747 18 3.60288 17.6255 3.31918 16.9703C2.79212 15.7533 2.5 14.4108 2.5 13C2.5 7.47715 6.97715 3 12.5 3C18.0229 3 22.5 7.47715 22.5 13C22.5 14.4108 22.2079 15.7533 21.6808 16.9703Z" fill="#C7CAD9"/>
<path d="M15.2108 9.26516C15.2569 8.46731 14.2795 8.20081 13.9274 8.91526C13.2178 10.3553 12.3493 12.1958 11.5842 14.041C10.6467 14.3479 9.8768 15.1177 9.60295 16.1576C9.1742 17.7856 10.1238 19.459 11.7238 19.8953C13.3238 20.3315 14.9684 19.3654 15.3971 17.7373C15.6709 16.6974 15.3825 15.639 14.7214 14.8963C14.9654 12.9091 15.1177 10.8733 15.2108 9.26516Z" fill="#C7CAD9"/>
</svg>
