<svg xmlns="http://www.w3.org/2000/svg" width="16" height="16" viewBox="0 0 16 16">
    <defs>
        <clipPath id="5j8lzr6qia">
            <path data-name="Rectangle 24156" d="M0 0h16v16H0z"/>
        </clipPath>
    </defs>
    <g data-name="Group 22933" style="clip-path:url(#5j8lzr6qia)">
        <g data-name="Group 21552">
            <path data-name="Path 11962" d="M8 15.993A8 8 0 1 0 0 8a8 8 0 0 0 8 8z" style="fill:#a149ff" transform="translate(0 .004)"/>
            <path data-name="Path 11964" d="M6.911 2.388a.607.607 0 0 0-.572 0l-1.333.787-.907.5-1.311.787a.607.607 0 0 1-.572 0l-1.024-.619a.581.581 0 0 1-.286-.5V2.15a.588.588 0 0 1 .286-.5l1.024-.6a.607.607 0 0 1 .572 0l1.025.62a.581.581 0 0 1 .286.5v.79l.906-.524v-.81a.588.588 0 0 0-.286-.5L2.812 0a.607.607 0 0 0-.572 0L.286 1.149A.524.524 0 0 0 0 1.621v2.244a.588.588 0 0 0 .286.5l1.93 1.121a.607.607 0 0 0 .572 0L4.1 4.724 5 4.2l1.311-.762a.607.607 0 0 1 .572 0l1.025.6a.581.581 0 0 1 .286.5v1.186a.588.588 0 0 1-.286.5l-1 .594a.607.607 0 0 1-.572 0l-1.025-.6a.581.581 0 0 1-.286-.5v-.756l-.905.525v.785a.588.588 0 0 0 .286.5l1.932 1.121a.607.607 0 0 0 .572 0l1.93-1.121a.581.581 0 0 0 .286-.5V4.008a.588.588 0 0 0-.286-.5z" transform="translate(3.433 4.265)" style="fill:#fdfdff"/>
        </g>
    </g>
</svg>
