<svg xmlns="http://www.w3.org/2000/svg" width="72.266" height="16" viewBox="0 0 72.266 16">
    <g data-name="Group 28438" transform="translate(-801 -689)">
        <path data-name="Path 16650" d="M139.954 300.76a.259.259 0 0 0-.257.292 2.622 2.622 0 0 0 5.105 0 .259.259 0 0 0-.257-.292z" transform="translate(666.907 400.301)" style="fill:#fff"/>
        <path data-name="Path 16652" d="M15.258 5.348A1.4 1.4 0 0 0 14 5.421a6.443 6.443 0 0 0-.251-.629q-.1-.225-.223-.445a6.941 6.941 0 0 0-3.759-3.255L9.738.244 8.717.856 8.594.842a4.215 4.215 0 0 0-.226-.015L8.219.185 8.174 0a1.3 1.3 0 0 0-.149.006 1.968 1.968 0 0 0-1.494 1.086 6.95 6.95 0 0 0-3.762 3.255q-.12.219-.223.445a6.584 6.584 0 0 0-.251.629.487.487 0 0 0-.04-.021 1.4 1.4 0 0 0-1.215-.052C-.078 5.782-.381 7.629.528 8.782a2.345 2.345 0 0 0 1.136.839l-.014.063a4.406 4.406 0 0 0-.1.942 5.462 5.462 0 0 0 3.945 4.922 7.685 7.685 0 0 0 1.687.4 8.088 8.088 0 0 0 .9.056h.071c3.646 0 6.6-2.406 6.6-5.373a4.406 4.406 0 0 0-.1-.943l-.014-.063a2.335 2.335 0 0 0 1.136-.84c.906-1.156.603-3.003-.517-3.437zm-13.081.464a5.642 5.642 0 0 0-.2 1.469v.1a7.579 7.579 0 0 1-.2 1.782 1.882 1.882 0 0 1-.834-.642 1.8 1.8 0 0 1 .405-2.7 1.117 1.117 0 0 1 .831-.017v.006zm10.6 3.068a2.522 2.522 0 0 1-.166.305 1.6 1.6 0 0 0-.176 1.371 3.58 3.58 0 0 1 .223 1.028c0 2.13-2.017 3.854-4.506 3.854s-4.507-1.724-4.507-3.854a3.585 3.585 0 0 1 .223-1.028 1.6 1.6 0 0 0-.176-1.37 2.561 2.561 0 0 1-.166-.306A2.44 2.44 0 0 1 3.3 7.857 2.626 2.626 0 0 1 5.989 5.3a2.778 2.778 0 0 1 1.369.357 1.6 1.6 0 0 0 1.582 0 2.778 2.778 0 0 1 1.369-.357A2.628 2.628 0 0 1 13 7.857a2.442 2.442 0 0 1-.222 1.023zm2.582-.354a1.886 1.886 0 0 1-.833.642 7.552 7.552 0 0 1-.2-1.782v-.1a5.639 5.639 0 0 0-.2-1.475 1.117 1.117 0 0 1 .831.017 1.8 1.8 0 0 1 .405 2.7z" transform="translate(801.006 689)" style="fill:#fff"/>
        <rect data-name="Rectangle 23315" width=".433" height=".983" rx=".217" transform="rotate(-65.48 947.638 -278.655)" style="fill:#fff"/>
        <rect data-name="Rectangle 23316" width=".433" height=".983" rx=".217" transform="rotate(-114.52 629.672 89.572)" style="fill:#fff"/>
        <path data-name="Exclusion 1" d="M8821.771 1222.708a.754.754 0 0 1-.772-.733v-.244a.774.774 0 0 1 1.546 0v.244a.755.755 0 0 1-.774.733zm0-1.464a.244.244 0 1 0 .257.244.252.252 0 0 0-.257-.244z" transform="translate(-8014.93 -524.827)" style="fill:#fff"/>
        <path data-name="Exclusion 2" d="M8821.771 1222.707a.753.753 0 0 1-.771-.733v-.244a.773.773 0 0 1 1.543 0v.244a.754.754 0 0 1-.772.733zm0-1.464a.244.244 0 1 0 .257.244.251.251 0 0 0-.257-.243z" transform="translate(-8010.299 -524.827)" style="fill:#fff"/>
        <g data-name="Group 28437">
            <path data-name="Path 16658" d="M485.686 126.989a3.374 3.374 0 0 1-1.074.115 5.021 5.021 0 0 1-1.294-.142q-.519-.141-.519-.361a32.585 32.585 0 0 1 .933-3.211q.933-2.959 1.068-3.409.053-.136.842-.225a15.208 15.208 0 0 1 1.7-.089q.906 0 1 .314 1.98 6.579 1.98 6.684a.288.288 0 0 1-.126.209 2.02 2.02 0 0 1-1.163.231q-1.855 0-1.9-.441l-.073-.682h-1.007l-.052.587a.457.457 0 0 1-.315.42zm1.158-3-.157-1.885h-.23l-.178 1.885z" transform="translate(337.561 574.131)" style="fill:#fff"/>
            <path data-name="Path 16659" d="M687.36 158.659V152q0-.22.587-.45a3.439 3.439 0 0 1 1.268-.231 1.336 1.336 0 0 1 .492.073.45.45 0 0 1 .22.147 3.948 3.948 0 0 1 .157.628h.084a.87.87 0 0 1 .188-.293 1.968 1.968 0 0 1 .34-.325 1.714 1.714 0 0 1 .5-.225 2.607 2.607 0 0 1 .759-.1 1.625 1.625 0 0 1 .791.194 1.461 1.461 0 0 1 .529.45 2.06 2.06 0 0 1 .272.65 3.692 3.692 0 0 1 .115.628q.016.236.016.682t-.031.88a8.107 8.107 0 0 1-.115.885 3.054 3.054 0 0 1-.241.775 2.414 2.414 0 0 1-.4.587 1.824 1.824 0 0 1-1.414.524 1.632 1.632 0 0 1-.592-.1 1.012 1.012 0 0 1-.383-.236 1.1 1.1 0 0 1-.3-.5l-.01-.1h-.084l.147.943v1.184q0 .115-.6.183a10.929 10.929 0 0 1-1.236.068 3.89 3.89 0 0 1-.842-.057c-.147-.05-.217-.114-.217-.205zm3.384-5.584q-.095-.356-.281-.356a.288.288 0 0 0-.273.21v2.744q0 .273.283.273.366 0 .367-1.624a5.637 5.637 0 0 0-.096-1.247z" transform="translate(141.203 543.844)" style="fill:#fff"/>
            <path data-name="Path 16660" d="M866.011 155.024q0 .682.65.682a2.691 2.691 0 0 0 .984-.257q.608-.257.639-.257.2 0 .524.6a2.2 2.2 0 0 1 .325.88q0 .409-.838.618a6.751 6.751 0 0 1-1.639.209 6.034 6.034 0 0 1-1.341-.126 3.286 3.286 0 0 1-.88-.321 2.554 2.554 0 0 1-.98-1.016 2.692 2.692 0 0 1-.2-.571 4.291 4.291 0 0 1-.1-.953 3.05 3.05 0 0 1 1-2.63 3 3 0 0 1 1.1-.513 6.17 6.17 0 0 1 1.435-.147q2.65 0 2.651 1.845 0 1.959-2.975 1.959zm-.02-1.53v.692a.61.61 0 0 0 .5-.241.907.907 0 0 0 .194-.587q0-.628-.325-.629-.369 0-.369.765z" transform="translate(-27.537 543.844)" style="fill:#fff"/>
            <path data-name="Path 16661" d="M1041.1 124.065a2.656 2.656 0 0 1-.875.382 5.694 5.694 0 0 1-1.446.152 9.266 9.266 0 0 1-1.681-.147 4.461 4.461 0 0 1-1.142-.324q-.346-.178-.346-.346a4.781 4.781 0 0 1 .168-1.22q.168-.634.4-.634.04 0 .87.283a4.228 4.228 0 0 0 1.246.281 1.077 1.077 0 0 0 .545-.089.3.3 0 0 0 .125-.257q0-.168-.23-.3a2.679 2.679 0 0 0-.576-.23 5.144 5.144 0 0 1-.749-.288 5.679 5.679 0 0 1-.749-.419 1.793 1.793 0 0 1-.576-.655 2 2 0 0 1-.231-.969q0-2.326 2.776-2.326a10.64 10.64 0 0 1 1.792.131 3.954 3.954 0 0 1 1.063.294q.309.16.309.321a3.12 3.12 0 0 1-.257 1.173q-.257.629-.5.628a1.286 1.286 0 0 1-.272-.094 3.006 3.006 0 0 0-1.147-.3 1.514 1.514 0 0 0-.618.084.273.273 0 0 0-.162.257q0 .173.23.283a3.205 3.205 0 0 0 .571.2 4.68 4.68 0 0 1 .744.273 4.481 4.481 0 0 1 .749.429 1.882 1.882 0 0 1 .576.7 2.279 2.279 0 0 1 .231 1.048 2.091 2.091 0 0 1-.325 1.142 2 2 0 0 1-.513.537z" transform="translate(-193.081 576.73)" style="fill:#fff"/>
            <path data-name="Path 16662" d="M1214.746 159.4q-.136.251-1.42.251t-1.336-.251l-.356-1.907h-.147l-.334 1.907q-.031.251-1.833.251a2.416 2.416 0 0 1-.665-.058.367.367 0 0 1-.225-.194q-1.949-4.787-1.949-5.039t.76-.518a4.391 4.391 0 0 1 1.462-.267q.9 0 .932.481l.356 2.87h.126l.125-2.315q.01-.261.535-.461a2.963 2.963 0 0 1 1.058-.2 1.9 1.9 0 0 1 .8.131q.268.131.277.321l.115 2.526h.115l.346-2.692q.031-.251.707-.456a4.2 4.2 0 0 1 1.189-.2 1.829 1.829 0 0 1 .807.147q.481.23.481.545 0 .031-.948 2.556t-.978 2.572z" transform="translate(-357.1 541.579)" style="fill:#fff"/>
            <path data-name="Path 16663" d="M1466.623 157.482a2.284 2.284 0 0 1-1.5-.45 1.539 1.539 0 0 1-.382-.555 2.112 2.112 0 0 1-.162-.859 1.552 1.552 0 0 1 .236-.859 1.727 1.727 0 0 1 .571-.566 3.245 3.245 0 0 1 .786-.325 5.916 5.916 0 0 1 1.5-.178h.346a.653.653 0 0 0-.294-.608.779.779 0 0 0-.382-.073 1.819 1.819 0 0 0-.619.136 3.962 3.962 0 0 0-.6.278.868.868 0 0 1-.325.141q-.189 0-.513-.5a1.7 1.7 0 0 1-.325-.906q0-.136.388-.356a4.642 4.642 0 0 1 1.1-.4 5.5 5.5 0 0 1 1.378-.183 5.338 5.338 0 0 1 1.157.11 3.451 3.451 0 0 1 .8.267 1.62 1.62 0 0 1 .524.419 2.876 2.876 0 0 1 .325.471 1.769 1.769 0 0 1 .16.545 5.217 5.217 0 0 1 .073.953v3.153q0 .115-.562.183a9.138 9.138 0 0 1-1.11.068 4.886 4.886 0 0 1-.713-.031.36.36 0 0 1-.194-.073.387.387 0 0 1-.052-.147l-.083-.6h-.084a1.3 1.3 0 0 1-1.444.945zm1.4-1.739v-1.225a.521.521 0 0 0-.441.23.869.869 0 0 0-.168.524q0 .691.314.691a.315.315 0 0 0 .214-.068.2.2 0 0 0 .08-.152z" transform="translate(-604.85 543.848)" style="fill:#fff"/>
            <path data-name="Path 16664" d="M1644.59 158.659V152q0-.22.587-.45a3.436 3.436 0 0 1 1.268-.231 1.337 1.337 0 0 1 .492.073.451.451 0 0 1 .22.147 3.928 3.928 0 0 1 .157.628h.084a.879.879 0 0 1 .189-.293 1.937 1.937 0 0 1 .34-.325 1.707 1.707 0 0 1 .5-.225 2.607 2.607 0 0 1 .76-.1 1.625 1.625 0 0 1 .791.194 1.464 1.464 0 0 1 .529.45 2.08 2.08 0 0 1 .272.65 3.735 3.735 0 0 1 .115.628q.016.236.016.682t-.031.88a8 8 0 0 1-.115.885 3.092 3.092 0 0 1-.241.775 2.4 2.4 0 0 1-.4.587 1.824 1.824 0 0 1-1.414.524 1.633 1.633 0 0 1-.592-.1 1.011 1.011 0 0 1-.383-.236 1.1 1.1 0 0 1-.3-.5l-.01-.1h-.086l.146.943v1.184q0 .115-.6.183a10.923 10.923 0 0 1-1.236.068 3.89 3.89 0 0 1-.842-.057c-.146-.05-.216-.114-.216-.205zm3.385-5.584c-.063-.237-.157-.356-.281-.356a.286.286 0 0 0-.272.21v2.744a.244.244 0 0 0 .281.273q.367 0 .367-1.624a5.69 5.69 0 0 0-.095-1.247z" transform="translate(-777.642 543.844)" style="fill:#fff"/>
        </g>
    </g>
</svg>
