<svg xmlns="http://www.w3.org/2000/svg" width="40" height="40" viewBox="0 0 40 40">
    <g data-name="Group 29057">
        <g data-name="Ellipse 1247" style="stroke:#ebecf2;stroke-width:2px;fill:none">
            <circle cx="20" cy="20" r="20" style="stroke:none"/>
            <circle cx="20" cy="20" r="19" style="fill:none"/>
        </g>
        <g data-name="Iconly/Bold/Discount">
            <path data-name="Path 16019" d="M7.865.885a3.018 3.018 0 0 1 4.262-.009l.73.729a1.5 1.5 0 0 0 1.06.441h1.03a3.013 3.013 0 0 1 3.011 3.009v1.031a1.5 1.5 0 0 0 .44 1.059l.72.72a3.029 3.029 0 0 1 .02 4.25l-.74.74a1.5 1.5 0 0 0-.44 1.061v1.029a3.014 3.014 0 0 1-3.011 3.011h-1.03a1.5 1.5 0 0 0-1.06.439l-.72.72a3 3 0 0 1-2.131.88 3.03 3.03 0 0 1-2.131-.869l-.73-.731a1.5 1.5 0 0 0-1.06-.439H5.054a3.014 3.014 0 0 1-3.011-3.011v-1.029a1.54 1.54 0 0 0-.44-1.071l-.72-.71a3.022 3.022 0 0 1-.01-4.259l.73-.731a1.5 1.5 0 0 0 .44-1.07v-1.02a3.013 3.013 0 0 1 3.011-3.009h1.03a1.5 1.5 0 0 0 1.06-.441zM12.577 11.7a.875.875 0 1 0 .87.87.874.874 0 0 0-.87-.87zm.61-4.89a.871.871 0 0 0-1.23 0l-5.142 5.14a.881.881 0 0 0 0 1.24.858.858 0 0 0 1.23 0l5.142-5.139a.882.882 0 0 0 0-1.246zm-5.752-.25a.875.875 0 1 0 .87.87.879.879 0 0 0-.87-.875z" style="fill:#fff" transform="translate(9.432 10.001)"/>
        </g>
    </g>
</svg>
