<svg width="48" height="48" viewBox="0 0 48 48" fill="none" xmlns="http://www.w3.org/2000/svg">
<path d="M24 47C36.7025 47 47 36.7025 47 24C47 11.2975 36.7025 1 24 1C11.2975 1 1 11.2975 1 24C1 36.7025 11.2975 47 24 47Z" fill="#FFCE52"/>
<path d="M24 3.99999C36.15 3.99999 46 12.507 46 23H46.975C46.6993 17.092 44.1584 11.5174 39.8799 7.4339C35.6015 3.35044 29.9144 1.07208 24 1.07208C18.0857 1.07208 12.3986 3.35044 8.12013 7.4339C3.84168 11.5174 1.30071 17.092 1.02502 23H2.00002C2.00002 12.507 11.85 3.99999 24 3.99999Z" fill="#FFE369"/>
<path d="M46 23C46 33.493 36.15 42 24 42C11.85 42 2 33.493 2 23H1.025C1.011 23.332 1 23.665 1 24C1 30.1 3.42321 35.9501 7.73654 40.2635C12.0499 44.5768 17.9 47 24 47C30.1 47 35.9501 44.5768 40.2635 40.2635C44.5768 35.9501 47 30.1 47 24C47 23.665 46.989 23.332 46.975 23H46Z" fill="#FFB32B"/>
<path d="M37.812 9.81148C38.134 9.48918 38.0316 8.8646 37.5831 8.41644C37.1346 7.96827 36.51 7.86623 36.1879 8.18853C35.8658 8.51082 35.9683 9.1354 36.4168 9.58357C36.8653 10.0317 37.4899 10.1338 37.812 9.81148Z" fill="#F6FAFD"/>
<path d="M31.1517 4.90502C31.3129 4.74368 31.2619 4.43123 31.0376 4.20714C30.8134 3.98306 30.5009 3.9322 30.3397 4.09354C30.1784 4.25489 30.2295 4.56734 30.4538 4.79142C30.678 5.0155 30.9905 5.06636 31.1517 4.90502Z" fill="#F6FAFD"/>
<path d="M35.6248 8.62364C36.2689 7.97905 36.0636 6.72957 35.1663 5.83285C34.2689 4.93612 33.0193 4.73173 32.3752 5.37632C31.731 6.02091 31.9363 7.27039 32.8337 8.16711C33.731 9.06384 34.9806 9.26823 35.6248 8.62364Z" fill="#F6FAFD"/>
<path d="M24 28C32.8366 28 40 24.866 40 21C40 17.134 32.8366 14 24 14C15.1634 14 8 17.134 8 21C8 24.866 15.1634 28 24 28Z" fill="url(#paint0_radial_525_1254)"/>
<path d="M24 37C31.1797 37 37 33.866 37 30C37 26.134 31.1797 23 24 23C16.8203 23 11 26.134 11 30C11 33.866 16.8203 37 24 37Z" fill="#273941"/>
<path d="M9.6 41.93C9.91813 41.6232 10.2942 41.383 10.7063 41.2233C11.1184 41.0636 11.5582 40.9877 12 41C12.6065 40.9548 13.2123 41.0976 13.7348 41.4089C14.2573 41.7203 14.6711 42.185 14.92 42.74C15.2574 42.5799 15.6265 42.4979 16 42.5C16.4926 42.4922 16.9753 42.6391 17.38 42.92C17.6985 42.538 18.1002 42.234 18.5543 42.0312C19.0084 41.8284 19.503 41.7322 20 41.75C20.497 41.7322 20.9916 41.8284 21.4457 42.0312C21.8998 42.234 22.3015 42.538 22.62 42.92C23.0281 42.6462 23.5085 42.5 24 42.5C24.4915 42.5 24.9719 42.6462 25.38 42.92C25.71 42.5519 26.1139 42.2575 26.5654 42.056C27.0168 41.8544 27.5056 41.7503 28 41.7503C28.4944 41.7503 28.9832 41.8544 29.4346 42.056C29.8861 42.2575 30.29 42.5519 30.62 42.92C31.0247 42.6391 31.5074 42.4922 32 42.5C32.06 42.5 32.12 42.51 32.18 42.51C32.4639 42.0217 32.8779 41.6218 33.3759 41.3552C33.8739 41.0886 34.4362 40.9656 35 41C35.3279 40.9963 35.6546 41.0401 35.97 41.13C36.5738 41.2651 37.1196 41.587 37.53 42.05C37.8674 41.9043 38.2247 41.8099 38.59 41.77H38.6C38.73 41.76 38.86 41.75 39 41.75C39.464 41.7358 39.9258 41.8183 40.3562 41.9921C40.7866 42.166 41.1761 42.4275 41.5 42.76C41.8239 42.4275 42.2134 42.166 42.6438 41.9921C43.0742 41.8183 43.536 41.7358 44 41.75C45.66 41.75 47 42.76 47 44V47H1V44C1 43.17 1.9 42.5 3 42.5C3.49262 42.4922 3.97529 42.6391 4.38 42.92C4.69848 42.538 5.10017 42.234 5.55431 42.0312C6.00844 41.8284 6.50296 41.7322 7 41.75C7.79237 41.7333 8.56611 41.9913 9.19 42.48C9.29265 42.2736 9.43152 42.0873 9.6 41.93Z" fill="#78B300"/>
<path d="M34.41 34.19C34.79 36.89 35.4 40.4 36 41L35.97 41.13C35.6546 41.04 35.3279 40.9962 35 41C34.4362 40.9656 33.8739 41.0885 33.3759 41.3552C32.8779 41.6218 32.4639 42.0216 32.18 42.51C32.12 42.51 32.06 42.5 32 42.5C31.5074 42.4921 31.0247 42.639 30.62 42.92C30.29 42.5519 29.8861 42.2575 29.4346 42.056C28.9832 41.8544 28.4944 41.7502 28 41.7502C27.5056 41.7502 27.0168 41.8544 26.5654 42.056C26.1139 42.2575 25.71 42.5519 25.38 42.92C24.9719 42.6462 24.4915 42.5 24 42.5C23.5085 42.5 23.0281 42.6462 22.62 42.92C22.3015 42.538 21.8998 42.2339 21.4457 42.0311C20.9916 41.8283 20.497 41.7322 20 41.75C19.503 41.7322 19.0084 41.8283 18.5543 42.0311C18.1002 42.2339 17.6985 42.538 17.38 42.92C16.9753 42.639 16.4926 42.4921 16 42.5C15.6265 42.4979 15.2574 42.5799 14.92 42.74C14.6711 42.185 14.2573 41.7202 13.7348 41.4089C13.2123 41.0975 12.6065 40.9548 12 41C12.6 40.4 13.21 36.89 13.59 34.19C13.84 32.42 14 31 14 31V30C14 29.2044 14.3161 28.4413 14.8787 27.8787C15.4413 27.3161 16.2044 27 17 27H31C31.7956 27 32.5587 27.3161 33.1213 27.8787C33.6839 28.4413 34 29.2044 34 30V31C34 31 34.16 32.42 34.41 34.19Z" fill="#4F813B"/>
<path d="M37.553 20.9C35.764 20 33.717 20 30 20C29.7348 20 29.4804 19.8946 29.2929 19.7071C29.1053 19.5196 29 19.2652 29 19C29 16.735 32.568 14 37 14V16C35.0046 15.9489 33.0656 16.6647 31.582 18C34.639 18.018 36.544 18.151 38.447 19.1L37.553 20.9ZM10.447 20.9L9.55298 19.11C11.453 18.159 13.361 18.026 16.418 18.01C14.9359 16.671 12.9967 15.9516 11 16V14C15.432 14 19 16.735 19 19C19 19.2652 18.8946 19.5196 18.7071 19.7071C18.5195 19.8946 18.2652 20 18 20C14.283 20 12.236 20 10.447 20.9ZM36 13C30.869 13 27 10.851 27 8H29C29 9.416 31.994 11 36 11V13ZM12 13V11C16.006 11 19 9.416 19 8H21C21 10.851 17.131 13 12 13Z" fill="#273941"/>
<path d="M24 25C30.547 25 35.949 27.609 36.852 31C36.9451 30.6746 36.9949 30.3384 37 30C37 26.134 31.18 23 24 23C16.82 23 11 26.134 11 30C11.0051 30.3384 11.0549 30.6746 11.148 31C12.051 27.609 17.453 25 24 25Z" fill="#141E21"/>
<path d="M14 33V32C14 31.2044 14.3161 30.4413 14.8787 29.8787C15.4413 29.3161 16.2044 29 17 29H31C31.7956 29 32.5587 29.3161 33.1213 29.8787C33.6839 30.4413 34 31.2044 34 32V33C34 33 34.16 34.42 34.41 36.19C34.633 37.771 34.934 39.627 35.266 41.017C35.5028 41.0285 35.7376 41.0664 35.966 41.13L36 41C35.4 40.4 34.79 36.89 34.41 34.19C34.16 32.42 34 31 34 31V30C34 29.2044 33.6839 28.4413 33.1213 27.8787C32.5587 27.3161 31.7956 27 31 27H17C16.2044 27 15.4413 27.3161 14.8787 27.8787C14.3161 28.4413 14 29.2044 14 30V31C14 31 13.84 32.42 13.59 34.19C13.21 36.89 12.6 40.4 12 41C12.2418 41.0025 12.4828 41.0272 12.72 41.074C13.057 39.674 13.364 37.793 13.59 36.19C13.84 34.42 14 33 14 33Z" fill="#78B300"/>
<path d="M35 39C34.4362 38.9656 33.8739 39.0885 33.3759 39.3552C32.8779 39.6218 32.4639 40.0216 32.18 40.51C32.12 40.51 32.06 40.5 32 40.5C31.5074 40.4921 31.0247 40.639 30.62 40.92C30.29 40.5519 29.8861 40.2575 29.4346 40.056C28.9832 39.8544 28.4944 39.7502 28 39.7502C27.5056 39.7502 27.0168 39.8544 26.5654 40.056C26.1139 40.2575 25.71 40.5519 25.38 40.92C24.9719 40.6462 24.4915 40.5 24 40.5C23.5085 40.5 23.0281 40.6462 22.62 40.92C22.3015 40.538 21.8998 40.2339 21.4457 40.0311C20.9916 39.8283 20.497 39.7322 20 39.75C19.503 39.7322 19.0084 39.8283 18.5543 40.0311C18.1002 40.2339 17.6985 40.538 17.38 40.92C16.9753 40.639 16.4926 40.4921 16 40.5C15.6265 40.4979 15.2574 40.5799 14.92 40.74C14.7337 40.2923 14.4319 39.9022 14.0453 39.6094C13.6588 39.3167 13.2014 39.1319 12.72 39.074C12.6123 39.758 12.3673 40.4131 12 41C12.6065 40.9548 13.2123 41.0975 13.7348 41.4089C14.2573 41.7202 14.6711 42.185 14.92 42.74C15.2574 42.5799 15.6265 42.4979 16 42.5C16.4926 42.4921 16.9753 42.639 17.38 42.92C17.6985 42.538 18.1002 42.2339 18.5543 42.0311C19.0084 41.8283 19.503 41.7322 20 41.75C20.497 41.7322 20.9916 41.8283 21.4457 42.0311C21.8998 42.2339 22.3015 42.538 22.62 42.92C23.0281 42.6462 23.5085 42.5 24 42.5C24.4915 42.5 24.9719 42.6462 25.38 42.92C25.71 42.5519 26.1139 42.2575 26.5654 42.056C27.0168 41.8544 27.5056 41.7502 28 41.7502C28.4944 41.7502 28.9832 41.8544 29.4346 42.056C29.8861 42.2575 30.29 42.5519 30.62 42.92C31.0247 42.639 31.5074 42.4921 32 42.5C32.06 42.5 32.12 42.51 32.18 42.51C32.4639 42.0216 32.8779 41.6218 33.3759 41.3552C33.8739 41.0885 34.4362 40.9656 35 41C35.3279 40.9962 35.6546 41.04 35.97 41.13L36 41C35.6244 40.3951 35.3748 39.7206 35.266 39.017C35.178 39.011 35.091 39 35 39Z" fill="#426704"/>
<path d="M19 34C20.1046 34 21 33.1046 21 32C21 30.8954 20.1046 30 19 30C17.8954 30 17 30.8954 17 32C17 33.1046 17.8954 34 19 34Z" fill="#78B300"/>
<path d="M22 37C22.5523 37 23 36.5523 23 36C23 35.4477 22.5523 35 22 35C21.4477 35 21 35.4477 21 36C21 36.5523 21.4477 37 22 37Z" fill="#78B300"/>
<path d="M25 33C25.5523 33 26 32.5523 26 32C26 31.4477 25.5523 31 25 31C24.4477 31 24 31.4477 24 32C24 32.5523 24.4477 33 25 33Z" fill="#78B300"/>
<path d="M16 46C16.5523 46 17 45.5523 17 45C17 44.4477 16.5523 44 16 44C15.4477 44 15 44.4477 15 45C15 45.5523 15.4477 46 16 46Z" fill="#4F813B"/>
<path d="M24 45C24.5523 45 25 44.5523 25 44C25 43.4477 24.5523 43 24 43C23.4477 43 23 43.4477 23 44C23 44.5523 23.4477 45 24 45Z" fill="#4F813B"/>
<path d="M32 46C32.5523 46 33 45.5523 33 45C33 44.4477 32.5523 44 32 44C31.4477 44 31 44.4477 31 45C31 45.5523 31.4477 46 32 46Z" fill="#4F813B"/>
<path d="M44 44C44.5523 44 45 43.5523 45 43C45 42.4477 44.5523 42 44 42C43.4477 42 43 42.4477 43 43C43 43.5523 43.4477 44 44 44Z" fill="#4F813B"/>
<path d="M8 45C8.55228 45 9 44.5523 9 44C9 43.4477 8.55228 43 8 43C7.44772 43 7 43.4477 7 44C7 44.5523 7.44772 45 8 45Z" fill="#4F813B"/>
<path d="M16.5 38C16.7761 38 17 37.7761 17 37.5C17 37.2239 16.7761 37 16.5 37C16.2239 37 16 37.2239 16 37.5C16 37.7761 16.2239 38 16.5 38Z" fill="#A9CC11"/>
<path d="M29.5 32C29.7761 32 30 31.7761 30 31.5C30 31.2239 29.7761 31 29.5 31C29.2239 31 29 31.2239 29 31.5C29 31.7761 29.2239 32 29.5 32Z" fill="#A9CC11"/>
<path d="M32.5 37C32.7761 37 33 36.7761 33 36.5C33 36.2239 32.7761 36 32.5 36C32.2239 36 32 36.2239 32 36.5C32 36.7761 32.2239 37 32.5 37Z" fill="#A9CC11"/>
<path d="M34.5 45C34.7761 45 35 44.7761 35 44.5C35 44.2239 34.7761 44 34.5 44C34.2239 44 34 44.2239 34 44.5C34 44.7761 34.2239 45 34.5 45Z" fill="#A9CC11"/>
<path d="M3.5 44C3.77614 44 4 43.7761 4 43.5C4 43.2239 3.77614 43 3.5 43C3.22386 43 3 43.2239 3 43.5C3 43.7761 3.22386 44 3.5 44Z" fill="#A9CC11"/>
<path d="M42.5 44C42.7761 44 43 43.7761 43 43.5C43 43.2239 42.7761 43 42.5 43C42.2239 43 42 43.2239 42 43.5C42 43.7761 42.2239 44 42.5 44Z" fill="#A9CC11"/>
<path d="M44.5 46C44.7761 46 45 45.7761 45 45.5C45 45.2239 44.7761 45 44.5 45C44.2239 45 44 45.2239 44 45.5C44 45.7761 44.2239 46 44.5 46Z" fill="#A9CC11"/>
<path d="M34.5 43C34.7761 43 35 42.7761 35 42.5C35 42.2239 34.7761 42 34.5 42C34.2239 42 34 42.2239 34 42.5C34 42.7761 34.2239 43 34.5 43Z" fill="#A9CC11"/>
<path d="M18.5 44C18.7761 44 19 43.7761 19 43.5C19 43.2239 18.7761 43 18.5 43C18.2239 43 18 43.2239 18 43.5C18 43.7761 18.2239 44 18.5 44Z" fill="#A9CC11"/>
<path d="M27.5 46C27.7761 46 28 45.7761 28 45.5C28 45.2239 27.7761 45 27.5 45C27.2239 45 27 45.2239 27 45.5C27 45.7761 27.2239 46 27.5 46Z" fill="#A9CC11"/>
<path d="M24.5 39C24.7761 39 25 38.7761 25 38.5C25 38.2239 24.7761 38 24.5 38C24.2239 38 24 38.2239 24 38.5C24 38.7761 24.2239 39 24.5 39Z" fill="#A9CC11"/>
<path d="M28 38C29.1046 38 30 37.1046 30 36C30 34.8954 29.1046 34 28 34C26.8954 34 26 34.8954 26 36C26 37.1046 26.8954 38 28 38Z" fill="#78B300"/>
<path d="M39 46C40.1046 46 41 45.1046 41 44C41 42.8954 40.1046 42 39 42C37.8954 42 37 42.8954 37 44C37 45.1046 37.8954 46 39 46Z" fill="#A9CC11"/>
<path d="M12 46C13.1046 46 14 45.1046 14 44C14 42.8954 13.1046 42 12 42C10.8954 42 10 42.8954 10 44C10 45.1046 10.8954 46 12 46Z" fill="#A9CC11"/>
<path d="M41.812 44.8115C42.134 44.4892 42.0316 43.8646 41.5831 43.4164C41.1346 42.9683 40.51 42.8662 40.1879 43.1885C39.8658 43.5108 39.9683 44.1354 40.4168 44.5836C40.8653 45.0317 41.4899 45.1338 41.812 44.8115Z" fill="#F6FAFD"/>
<path d="M32.812 31.8115C33.134 31.4892 33.0316 30.8646 32.5831 30.4164C32.1346 29.9683 31.51 29.8662 31.1879 30.1885C30.8658 30.5108 30.9683 31.1354 31.4168 31.5836C31.8653 32.0317 32.4899 32.1338 32.812 31.8115Z" fill="#F6FAFD"/>
<path d="M39.1517 43.905C39.3129 43.7437 39.2619 43.4312 39.0376 43.2071C38.8134 42.9831 38.5009 42.9322 38.3397 43.0935C38.1784 43.2549 38.2295 43.5673 38.4538 43.7914C38.678 44.0155 38.9905 44.0664 39.1517 43.905Z" fill="#F6FAFD"/>
<path d="M33.1521 33.9058C33.3133 33.7444 33.2622 33.432 33.038 33.2079C32.8137 32.9838 32.5013 32.9329 32.34 33.0943C32.1788 33.2556 32.2299 33.5681 32.4541 33.7922C32.6784 34.0162 32.9908 34.0671 33.1521 33.9058Z" fill="#F6FAFD"/>
<defs>
<radialGradient id="paint0_radial_525_1254" cx="0" cy="0" r="1" gradientUnits="userSpaceOnUse" gradientTransform="translate(24.0042 21.0002) scale(16.002 7.002)">
<stop stop-color="#63B300"/>
<stop offset="0.13" stop-color="#7AB80F"/>
<stop offset="0.547" stop-color="#C1C63D"/>
<stop offset="0.848" stop-color="#EED059"/>
<stop offset="1" stop-color="#FFD364"/>
</radialGradient>
</defs>
</svg>
