<svg width="48" height="48" viewBox="0 0 48 48" fill="none" xmlns="http://www.w3.org/2000/svg">
<path d="M24 47C36.7025 47 47 36.7025 47 24C47 11.2975 36.7025 1 24 1C11.2975 1 1 11.2975 1 24C1 36.7025 11.2975 47 24 47Z" fill="#FFCE52"/>
<path d="M40 25C40.0233 28.1905 38.8288 31.2698 36.66 33.61C34.5725 35.8222 31.9258 37.4288 29 38.26V34C28.9984 33.4701 28.7872 32.9623 28.4125 32.5875C28.0377 32.2128 27.5299 32.0016 27 32H21C20.4701 32.0016 19.9623 32.2128 19.5875 32.5875C19.2128 32.9623 19.0016 33.4701 19 34V38.26C13.25 36.56 8 31.98 8 25C8.47 25 10.26 25.5 13.04 26C16.6563 26.6586 20.3242 26.9933 24 27C29.3949 26.9881 34.7681 26.3164 40 25Z" fill="#273941"/>
<path d="M24 32H27C27.5299 32.0016 28.0377 32.2128 28.4125 32.5875C28.7872 32.9623 28.9984 33.4701 29 34V39C29 40.3261 28.4732 41.5979 27.5355 42.5355C26.5979 43.4732 25.3261 44 24 44C22.6739 44 21.4021 43.4732 20.4645 42.5355C19.5268 41.5979 19 40.3261 19 39V34C19.0016 33.4701 19.2128 32.9623 19.5875 32.5875C19.9623 32.2128 20.4701 32.0016 21 32H24Z" fill="#CF4054"/>
<path d="M24 3.99999C36.15 3.99999 46 12.507 46 23H46.975C46.6993 17.092 44.1584 11.5174 39.8799 7.4339C35.6015 3.35044 29.9144 1.07208 24 1.07208C18.0857 1.07208 12.3986 3.35044 8.12013 7.4339C3.84168 11.5174 1.30071 17.092 1.02502 23H2.00002C2.00002 12.507 11.85 3.99999 24 3.99999Z" fill="#FFE369"/>
<path d="M46 23C46 33.493 36.15 42 24 42C11.85 42 2 33.493 2 23H1.025C1.011 23.332 1 23.665 1 24C1 30.1 3.42321 35.9501 7.73654 40.2635C12.0499 44.5768 17.9 47 24 47C30.1 47 35.9501 44.5768 40.2635 40.2635C44.5768 35.9501 47 30.1 47 24C47 23.665 46.989 23.332 46.975 23H46Z" fill="#FFB32B"/>
<path d="M37.812 9.81148C38.134 9.48918 38.0316 8.8646 37.5831 8.41644C37.1346 7.96827 36.51 7.86623 36.1879 8.18853C35.8658 8.51082 35.9683 9.1354 36.4168 9.58357C36.8653 10.0317 37.4899 10.1338 37.812 9.81148Z" fill="#F6FAFD"/>
<path d="M31.1517 4.90502C31.3129 4.74368 31.2619 4.43123 31.0376 4.20714C30.8134 3.98306 30.5009 3.9322 30.3397 4.09354C30.1784 4.25489 30.2295 4.56734 30.4538 4.79142C30.678 5.0155 30.9905 5.06636 31.1517 4.90502Z" fill="#F6FAFD"/>
<path d="M35.6248 8.62364C36.2689 7.97905 36.0636 6.72957 35.1663 5.83285C34.2689 4.93612 33.0193 4.73173 32.3752 5.37632C31.731 6.02091 31.9363 7.27039 32.8337 8.16711C33.731 9.06384 34.9806 9.26823 35.6248 8.62364Z" fill="#F6FAFD"/>
<path d="M24 42C22.6739 42 21.4021 41.4732 20.4645 40.5355C19.5268 39.5979 19 38.3261 19 37V39C19 40.3261 19.5268 41.5979 20.4645 42.5355C21.4021 43.4732 22.6739 44 24 44C25.3261 44 26.5979 43.4732 27.5355 42.5355C28.4732 41.5979 29 40.3261 29 39V37C29 38.3261 28.4732 39.5979 27.5355 40.5355C26.5979 41.4732 25.3261 42 24 42Z" fill="#8A293D"/>
<path d="M24 29C29.3359 28.9841 34.6506 28.3278 39.83 27.045C39.9398 26.3688 39.9966 25.6851 40 25C34.7681 26.3164 29.3949 26.9881 24 27C20.3242 26.9933 16.6563 26.6586 13.04 26C10.26 25.5 8.47 25 8 25C8.00362 25.6753 8.05911 26.3492 8.166 27.016C8.804 27.092 10.503 27.544 13.04 28C16.6563 28.6586 20.3242 28.9933 24 29Z" fill="#141E21"/>
<path d="M24 44C22.6739 44 21.4021 43.4732 20.4645 42.5355C19.5268 41.5979 19 40.3261 19 39V41C19 42.3261 19.5268 43.5979 20.4645 44.5355C21.4021 45.4732 22.6739 46 24 46C25.3261 46 26.5979 45.4732 27.5355 44.5355C28.4732 43.5979 29 42.3261 29 41V39C29 40.3261 28.4732 41.5979 27.5355 42.5355C26.5979 43.4732 25.3261 44 24 44Z" fill="#F29410"/>
<path d="M27 32H21C20.4701 32.0016 19.9623 32.2128 19.5875 32.5875C19.2128 32.9623 19.0016 33.4701 19 34V36C19.0016 35.4701 19.2128 34.9623 19.5875 34.5875C19.9623 34.2128 20.4701 34.0016 21 34H21.432C21.9242 33.9999 22.3992 34.1814 22.7659 34.5096C23.1327 34.8378 23.3656 35.2898 23.42 35.779L24 41L24.58 35.779C24.6344 35.2898 24.8673 34.8378 25.2341 34.5096C25.6008 34.1814 26.0758 33.9999 26.568 34H27C27.5299 34.0016 28.0377 34.2128 28.4125 34.5875C28.7872 34.9623 28.9984 35.4701 29 36V34C28.9984 33.4701 28.7872 32.9623 28.4125 32.5875C28.0377 32.2128 27.5299 32.0016 27 32Z" fill="#AE2D4C"/>
<path d="M19 34C19.001 33.7172 19.0627 33.4379 19.181 33.181C18.8301 33.3385 18.532 33.5939 18.3225 33.9166C18.1131 34.2392 18.0011 34.6154 18 35V37.931C18.331 38.05 18.664 38.161 19 38.26V34ZM28.819 33.181C28.9373 33.4379 28.999 33.7172 29 34V38.26C29.336 38.16 29.669 38.05 30 37.931V35C29.9989 34.6154 29.8869 34.2392 29.6775 33.9166C29.468 33.5939 29.1699 33.3385 28.819 33.181Z" fill="#141E21"/>
<path d="M33 20C34.6569 20 36 18.2091 36 16C36 13.7909 34.6569 12 33 12C31.3431 12 30 13.7909 30 16C30 18.2091 31.3431 20 33 20Z" fill="#273941"/>
<path d="M15 20C16.6569 20 18 18.2091 18 16C18 13.7909 16.6569 12 15 12C13.3431 12 12 13.7909 12 16C12 18.2091 13.3431 20 15 20Z" fill="#273941"/>
<path d="M33 19C34.1046 19 35 17.6569 35 16C35 14.3431 34.1046 13 33 13C31.8954 13 31 14.3431 31 16C31 17.6569 31.8954 19 33 19Z" fill="#141E21"/>
<path d="M15 19C16.1046 19 17 17.6569 17 16C17 14.3431 16.1046 13 15 13C13.8954 13 13 14.3431 13 16C13 17.6569 13.8954 19 15 19Z" fill="#141E21"/>
<path d="M34 16C34.5523 16 35 15.5523 35 15C35 14.4477 34.5523 14 34 14C33.4477 14 33 14.4477 33 15C33 15.5523 33.4477 16 34 16Z" fill="#F6FAFD"/>
<path d="M16 16C16.5523 16 17 15.5523 17 15C17 14.4477 16.5523 14 16 14C15.4477 14 15 14.4477 15 15C15 15.5523 15.4477 16 16 16Z" fill="#F6FAFD"/>
</svg>
