<svg width="48" height="48" viewBox="0 0 48 48" fill="none" xmlns="http://www.w3.org/2000/svg">
<path d="M24 47C36.7025 47 47 36.7025 47 24C47 11.2975 36.7025 1 24 1C11.2975 1 1 11.2975 1 24C1 36.7025 11.2975 47 24 47Z" fill="#FFCE52"/>
<path d="M33 22C34.6569 22 36 20.2091 36 18C36 15.7909 34.6569 14 33 14C31.3431 14 30 15.7909 30 18C30 20.2091 31.3431 22 33 22Z" fill="#273941"/>
<path d="M15 22C16.6569 22 18 20.2091 18 18C18 15.7909 16.6569 14 15 14C13.3431 14 12 15.7909 12 18C12 20.2091 13.3431 22 15 22Z" fill="#273941"/>
<path d="M33 21C34.1046 21 35 19.6569 35 18C35 16.3431 34.1046 15 33 15C31.8954 15 31 16.3431 31 18C31 19.6569 31.8954 21 33 21Z" fill="#141E21"/>
<path d="M15 21C16.1046 21 17 19.6569 17 18C17 16.3431 16.1046 15 15 15C13.8954 15 13 16.3431 13 18C13 19.6569 13.8954 21 15 21Z" fill="#141E21"/>
<path d="M34 18C34.5523 18 35 17.5523 35 17C35 16.4477 34.5523 16 34 16C33.4477 16 33 16.4477 33 17C33 17.5523 33.4477 18 34 18Z" fill="#F6FAFD"/>
<path d="M16 18C16.5523 18 17 17.5523 17 17C17 16.4477 16.5523 16 16 16C15.4477 16 15 16.4477 15 17C15 17.5523 15.4477 18 16 18Z" fill="#F6FAFD"/>
<path d="M24 3.99999C36.15 3.99999 46 12.507 46 23H46.975C46.6993 17.092 44.1584 11.5174 39.8799 7.4339C35.6015 3.35044 29.9144 1.07208 24 1.07208C18.0857 1.07208 12.3986 3.35044 8.12013 7.4339C3.84168 11.5174 1.30071 17.092 1.02502 23H2.00002C2.00002 12.507 11.85 3.99999 24 3.99999Z" fill="#FFE369"/>
<path d="M46 23C46 33.493 36.15 42 24 42C11.85 42 2 33.493 2 23H1.025C1.011 23.332 1 23.665 1 24C1 30.1 3.42321 35.9501 7.73654 40.2635C12.0499 44.5768 17.9 47 24 47C30.1 47 35.9501 44.5768 40.2635 40.2635C44.5768 35.9501 47 30.1 47 24C47 23.665 46.989 23.332 46.975 23H46Z" fill="#FFB32B"/>
<path d="M16 32H32V34H16V32Z" fill="#273941"/>
<path d="M37.812 9.81148C38.134 9.48918 38.0316 8.8646 37.5831 8.41644C37.1346 7.96827 36.51 7.86623 36.1879 8.18853C35.8658 8.51082 35.9683 9.1354 36.4168 9.58357C36.8653 10.0317 37.4899 10.1338 37.812 9.81148Z" fill="#F6FAFD"/>
<path d="M31.1517 4.90502C31.3129 4.74368 31.2619 4.43123 31.0376 4.20714C30.8134 3.98306 30.5009 3.9322 30.3397 4.09354C30.1784 4.25489 30.2295 4.56734 30.4538 4.79142C30.678 5.0155 30.9905 5.06636 31.1517 4.90502Z" fill="#F6FAFD"/>
<path d="M35.6248 8.62364C36.2689 7.97905 36.0636 6.72957 35.1663 5.83285C34.2689 4.93612 33.0193 4.73173 32.3752 5.37632C31.731 6.02091 31.9363 7.27039 32.8337 8.16711C33.731 9.06384 34.9806 9.26823 35.6248 8.62364Z" fill="#F6FAFD"/>
</svg>
