<svg width="46" height="46" viewBox="0 0 46 46" fill="none" xmlns="http://www.w3.org/2000/svg">
<path d="M23 46C35.7025 46 46 35.7025 46 23C46 10.2975 35.7025 0 23 0C10.2975 0 0 10.2975 0 23C0 35.7025 10.2975 46 23 46Z" fill="#FFCE52"/>
<path d="M23 2.99999C35.15 2.99999 45 11.507 45 22H45.975C45.6993 16.092 43.1584 10.5174 38.8799 6.4339C34.6015 2.35044 28.9144 0.0720825 23 0.0720825C17.0857 0.0720825 11.3986 2.35044 7.12013 6.4339C2.84168 10.5174 0.300709 16.092 0.0250244 22H1.00002C1.00002 11.507 10.85 2.99999 23 2.99999Z" fill="#FFE369"/>
<path d="M45 22C45 32.493 35.15 41 23 41C10.85 41 1 32.493 1 22H0.025C0.011 22.332 0 22.665 0 23C9.08968e-08 29.1 2.42321 34.9501 6.73654 39.2635C11.0499 43.5768 16.9 46 23 46C29.1 46 34.9501 43.5768 39.2635 39.2635C43.5768 34.9501 46 29.1 46 23C46 22.665 45.989 22.332 45.975 22H45Z" fill="#FFB32B"/>
<path d="M36.812 8.81148C37.134 8.48918 37.0316 7.8646 36.5831 7.41644C36.1346 6.96827 35.51 6.86623 35.1879 7.18853C34.8658 7.51082 34.9683 8.1354 35.4168 8.58357C35.8653 9.03174 36.4899 9.13377 36.812 8.81148Z" fill="#F6FAFD"/>
<path d="M30.1517 3.90502C30.3129 3.74368 30.2619 3.43123 30.0376 3.20714C29.8134 2.98306 29.5009 2.9322 29.3397 3.09354C29.1784 3.25489 29.2295 3.56734 29.4538 3.79142C29.678 4.0155 29.9905 4.06636 30.1517 3.90502Z" fill="#F6FAFD"/>
<path d="M34.6248 7.62364C35.2689 6.97905 35.0636 5.72957 34.1663 4.83285C33.2689 3.93612 32.0193 3.73173 31.3752 4.37632C30.731 5.02091 30.9363 6.27039 31.8337 7.16711C32.731 8.06384 33.9806 8.26823 34.6248 7.62364Z" fill="#F6FAFD"/>
<path d="M32.9999 38C32.9999 35.24 28.5299 33 22.9999 33C17.4699 33 12.9999 35.24 12.9999 38L12.8999 38.13C11.4 37.1596 10.1662 35.8299 9.31053 34.2617C8.45483 32.6935 8.00434 30.9365 7.99995 29.15C7.96553 28.6175 8.14265 28.093 8.49281 27.6904C8.84297 27.2879 9.33787 27.0397 9.86995 27C11.7499 28.08 16.2599 28 22.9999 28C29.7399 28 34.2499 28.08 36.1199 27C36.6537 27.0375 37.151 27.2846 37.5032 27.6874C37.8554 28.0902 38.034 28.616 37.9999 29.15C37.9956 30.9365 37.5451 32.6935 36.6894 34.2617C35.8337 35.8299 34.5999 37.1596 33.0999 38.13L32.9999 38Z" fill="#273941"/>
<path d="M33 38L33.1 38.13C30.0964 40.0758 26.578 41.0756 23 41C19.422 41.0756 15.9036 40.0758 12.9 38.13L13 38C13 35.24 17.47 33 23 33C28.53 33 33 35.24 33 38Z" fill="#AE2D4C"/>
<path d="M15.5 8.00001C16.1186 7.99341 16.7318 8.11543 17.3007 8.35831C17.8696 8.6012 18.3819 8.95966 18.805 9.41096C19.2281 9.86226 19.5528 10.3966 19.7585 10.98C19.9642 11.5634 20.0464 12.1831 20 12.8C20 20 12.5 24 11 24C10.28 24 2.62 20.3 2.03 13.61C2.01 13.34 2 13.07 2 12.8C1.91865 11.7143 2.23804 10.6365 2.89774 9.77038C3.55745 8.90428 4.51171 8.31002 5.58 8.10001C5.88184 8.03166 6.19052 7.99811 6.5 8.00001C8.75 8.00001 10.25 9.60001 11 12C11.75 9.60001 13.25 8.00001 15.5 8.00001ZM44 12.8C44 13.0667 43.99 13.3367 43.97 13.61C43.44 20.3 36.44 24 35 24C34.25 24 26 20 26 12.8C25.9536 12.1831 26.0358 11.5634 26.2415 10.98C26.4472 10.3966 26.7719 9.86226 27.195 9.41096C27.6181 8.95966 28.1304 8.6012 28.6993 8.35831C29.2682 8.11543 29.8814 7.99341 30.5 8.00001C32.75 8.00001 34.25 9.60001 35 12C35.75 9.60001 37.25 8.00001 39.5 8.00001C39.8095 7.99811 40.1182 8.03166 40.42 8.10001C41.4883 8.31002 42.4426 8.90428 43.1023 9.77038C43.762 10.6365 44.0814 11.7143 44 12.8Z" fill="#CF4054"/>
<path d="M9.86995 29C11.7499 30.08 16.2599 30 22.9999 30C29.7399 30 34.2499 30.08 36.1199 29C36.5469 29.0208 36.9548 29.183 37.2794 29.4611C37.604 29.7391 37.8269 30.1173 37.9129 30.536C37.971 30.0763 38.0001 29.6134 37.9999 29.15C38.034 28.616 37.8554 28.0902 37.5032 27.6874C37.151 27.2846 36.6537 27.0375 36.1199 27C34.2499 28.08 29.7399 28 22.9999 28C16.2599 28 11.7499 28.08 9.86995 27C9.33787 27.0397 8.84297 27.2879 8.49281 27.6904C8.14265 28.093 7.96553 28.6175 7.99995 29.15C7.99981 29.613 8.02887 30.0756 8.08695 30.535C8.17179 30.1176 8.39301 29.7403 8.71579 29.4624C9.03857 29.1845 9.44459 29.0219 9.86995 29Z" fill="#141E21"/>
<path d="M32.531 36.486C29.6463 38.1862 26.348 39.0562 23 39C19.6521 39.0562 16.3537 38.1862 13.469 36.486C13.1706 36.9352 13.0078 37.4608 13 38L12.9 38.13C15.9036 40.0758 19.422 41.0756 23 41C26.578 41.0756 30.0964 40.0758 33.1 38.13L33 38C32.9923 37.4608 32.8294 36.9352 32.531 36.486Z" fill="#8A293D"/>
<path d="M35 24C34.29 24 26.869 20.41 26.079 13.919C26.031 14.2103 26.0046 14.5048 26 14.8C26 22 34.25 26 35 26C36.44 26 43.44 22.3 43.97 15.61C43.99 15.3367 44 15.0667 44 14.8C43.9994 14.4963 43.976 14.1932 43.93 13.893C43.225 20.4 36.419 24 35 24ZM11 24C10.29 24 2.869 20.41 2.079 13.919C2.03103 14.2103 2.00462 14.5048 2 14.8C2 22 10.25 26 11 26C12.44 26 19.44 22.3 19.97 15.61C19.99 15.3367 20 15.0667 20 14.8C19.9994 14.4963 19.976 14.1932 19.93 13.893C19.225 20.4 12.419 24 11 24Z" fill="#FBB40A"/>
<path d="M39.5 8.00001C37.25 8.00001 35.75 9.60001 35 12C35.583 10.2 36.75 9.00001 38.5 9.00001C38.9719 8.98651 39.4414 9.07117 39.8788 9.24864C40.3162 9.42611 40.712 9.69252 41.041 10.031C41.3701 10.3694 41.6252 10.7725 41.7903 11.2148C41.9554 11.657 42.0268 12.1287 42 12.6C42 18 36.167 21 35 21C34.44 21 28.482 18.225 28.023 13.207C28.0078 13.005 28.0001 12.8026 28 12.6C27.9486 11.7728 28.2043 10.9557 28.718 10.3052C29.2317 9.65477 29.9674 9.21673 30.784 9.07501C31.0191 9.02351 31.2593 8.99836 31.5 9.00001C33.25 9.00001 34.417 10.2 35 12C34.25 9.60001 32.75 8.00001 30.5 8.00001C30.1905 7.99811 29.8818 8.03166 29.58 8.10001C28.5117 8.31002 27.5574 8.90428 26.8977 9.77038C26.238 10.6365 25.9186 11.7143 26 12.8C26 13.0667 26.01 13.3367 26.03 13.61C26.62 20.3 34.28 24 35 24C36.5 24 44 20 44 12.8C44.0464 12.1831 43.9642 11.5634 43.7585 10.98C43.5528 10.3966 43.2281 9.86226 42.805 9.41096C42.3819 8.95966 41.8696 8.6012 41.3007 8.35831C40.7318 8.11543 40.1186 7.99341 39.5 8.00001ZM15.5 8.00001C13.25 8.00001 11.75 9.60001 11 12C11.583 10.2 12.75 9.00001 14.5 9.00001C14.9718 8.98651 15.4414 9.07117 15.8788 9.24864C16.3162 9.42611 16.712 9.69252 17.041 10.031C17.3701 10.3694 17.6252 10.7725 17.7903 11.2148C17.9554 11.657 18.0268 12.1287 18 12.6C18 18 12.167 21 11 21C10.44 21 4.482 18.225 4.023 13.207C4.00788 13.005 4.00021 12.8026 4 12.6C3.94864 11.7728 4.20431 10.9557 4.71802 10.3052C5.23173 9.65477 5.96737 9.21673 6.784 9.07501C7.01914 9.02351 7.25929 8.99836 7.5 9.00001C9.25 9.00001 10.417 10.2 11 12C10.25 9.60001 8.75 8.00001 6.5 8.00001C6.19052 7.99811 5.88184 8.03166 5.58 8.10001C4.51171 8.31002 3.55745 8.90428 2.89774 9.77038C2.23804 10.6365 1.91865 11.7143 2 12.8C2 13.0667 2.01 13.3367 2.03 13.61C2.62 20.3 10.28 24 11 24C12.5 24 20 20 20 12.8C20.0464 12.1831 19.9642 11.5634 19.7585 10.98C19.5528 10.3966 19.2281 9.86226 18.805 9.41096C18.3819 8.95966 17.8696 8.6012 17.3007 8.35831C16.7318 8.11543 16.1186 7.99341 15.5 8.00001Z" fill="#AE2D4C"/>
<path d="M41.8117 12.8107C42.1338 12.4884 42.0313 11.8639 41.5829 11.4157C41.1344 10.9675 40.5097 10.8655 40.1877 11.1878C39.8656 11.5101 39.9681 12.1347 40.4165 12.5828C40.865 13.031 41.4897 13.133 41.8117 12.8107Z" fill="#F6FAFD"/>
<path d="M40.1521 10.9058C40.3133 10.7444 40.2622 10.432 40.038 10.2079C39.8137 9.98379 39.5013 9.93293 39.34 10.0943C39.1788 10.2556 39.2299 10.5681 39.4541 10.7922C39.6784 11.0162 39.9908 11.0671 40.1521 10.9058Z" fill="#F6FAFD"/>
<path d="M17.812 12.8115C18.134 12.4892 18.0316 11.8646 17.5831 11.4164C17.1346 10.9683 16.51 10.8662 16.1879 11.1885C15.8658 11.5108 15.9683 12.1354 16.4168 12.5836C16.8653 13.0317 17.4899 13.1338 17.812 12.8115Z" fill="#F6FAFD"/>
<path d="M16.1517 10.905C16.3129 10.7437 16.2619 10.4312 16.0376 10.2071C15.8134 9.98306 15.5009 9.9322 15.3397 10.0935C15.1784 10.2549 15.2295 10.5673 15.4538 10.7914C15.678 11.0155 15.9905 11.0664 16.1517 10.905Z" fill="#F6FAFD"/>
</svg>
