<?xml version="1.0" encoding="UTF-8"?>
<svg id="Layer_1" data-name="Layer 1" xmlns="http://www.w3.org/2000/svg" xmlns:xlink="http://www.w3.org/1999/xlink" viewBox="0 0 489.8 489.8">
  <defs>
    <style>
      .cls-1 {
        fill: url(#linear-gradient);
      }

      .cls-2 {
        fill: #f5f0fd;
      }
    </style>
    <linearGradient id="linear-gradient" x1="123.7" y1="1831.36" x2="374.78" y2="1648.28" gradientTransform="translate(0 -1498)" gradientUnits="userSpaceOnUse">
      <stop offset="0" stop-color="#a726c1"/>
      <stop offset=".88" stop-color="#803bdf"/>
      <stop offset="1" stop-color="#7b3fe4"/>
    </linearGradient>
  </defs>
  <circle class="cls-2" cx="244.9" cy="244.9" r="244.9"/>
  <path class="cls-1" d="m315.7,297.8l69.3-40c3.7-2.1,5.9-6.1,5.9-10.3v-80c0-4.2-2.3-8.2-5.9-10.3l-69.3-40c-3.7-2.1-8.2-2.1-11.9,0l-69.3,40c-3.7,2.1-5.9,6.1-5.9,10.3v143l-48.6,28-48.6-28v-56.1l48.6-28.1,32.1,18.5v-37.6l-26.1-15.1c-1.8-1-3.9-1.6-5.9-1.6s-4.1.6-5.9,1.6l-69.3,40c-3.7,2.1-5.9,6.1-5.9,10.3v80c0,4.2,2.3,8.2,5.9,10.3l69.3,40c3.7,2.1,8.2,2.1,11.9,0l69.3-40c3.7-2.1,5.9-6.1,5.9-10.3v-143l.9-.5,47.7-27.6,48.6,28.1v56.1l-48.6,28-32-18.5v37.6l26.1,15c3.5,2.3,8.1,2.3,11.7.2h0Z"/>
</svg>