<svg data-name="Layer 2" xmlns="http://www.w3.org/2000/svg" width="16" height="16" viewBox="0 0 16 16">
    <g data-name="invisible box">
        <path data-name="Rectangle 24056" style="fill:none" d="M0 0h16v16H0z"/>
        <path data-name="Rectangle 24057" style="fill:none" d="M0 0h16v16H0z"/>
        <path data-name="Rectangle 24058" style="fill:none" d="M0 0h16v16H0z"/>
    </g>
    <g data-name="icons Q2">
        <path data-name="Path 16733" d="m14.734 11.067 1.833-.5a7.667 7.667 0 0 0 0-2.467l-1.833-.5a.6.6 0 0 1-.367-.867l.933-1.666a6.867 6.867 0 0 0-1.7-1.7l-1.666.933-.267.067a.6.6 0 0 1-.6-.433l-.5-1.833A7.667 7.667 0 0 0 8.1 2.1l-.5 1.834a.6.6 0 0 1-.6.433L6.734 4.3l-1.667-.933a6.867 6.867 0 0 0-1.7 1.7L4.3 6.734a.6.6 0 0 1-.367.867L2.1 8.1a7.667 7.667 0 0 0 0 2.467l1.833.5a.6.6 0 0 1 .367.867L3.367 13.6a6.867 6.867 0 0 0 1.7 1.7l1.667-.933L7 14.3a.6.6 0 0 1 .6.433l.5 1.833a7.667 7.667 0 0 0 2.467 0l.5-1.833a.6.6 0 0 1 .6-.433l.267.067 1.666.933a6.867 6.867 0 0 0 1.7-1.7l-.933-1.667a.6.6 0 0 1 .367-.867zm-5.4 1.267a3 3 0 1 1 3-3 3 3 0 0 1-3 3z" transform="translate(-1.333 -1.333)" style="fill:rgba(255,255,255,.5)"/>
    </g>
</svg>
