<svg xmlns="http://www.w3.org/2000/svg" width="12.002" height="12" viewBox="0 0 12.002 12">
    <path data-name="Subtraction 27" d="M6 12a6 6 0 1 1 .01-12h.007A6 6 0 0 1 6 12zm-.974-6.77.636.06c-.03.074-.08.215-.168.472l-.128.373-.149.435c-.1.3-.214.625-.329.958s-.224.644-.319.933l-.239.732a2.53 2.53 0 0 0-.1.335c0 .047.041.1.121.167a1.475 1.475 0 0 0 .28.174 2.575 2.575 0 0 0 .332.131.913.913 0 0 0 .268.054.752.752 0 0 0 .356-.117 2.013 2.013 0 0 0 .42-.323 3.861 3.861 0 0 0 .442-.51 4.662 4.662 0 0 0 .414-.7l-.108-.1-.84 1.066-.589-.084c.026-.086.081-.241.157-.449l.275-.754c.1-.269.2-.563.325-.9.1-.291.206-.587.306-.88.088-.26.165-.495.228-.7a1.907 1.907 0 0 0 .09-.365.408.408 0 0 0-.1-.246 1.213 1.213 0 0 0-.24-.234 1.372 1.372 0 0 0-.306-.175.76.76 0 0 0-.282-.066A1.242 1.242 0 0 0 4.945 5a5.1 5.1 0 0 0-.835 1.267l.132.1.784-1.137zm1.8-3.17h-.045a.607.607 0 0 0-.468.246.951.951 0 0 0-.2.629.7.7 0 0 0 .18.48.629.629 0 0 0 .459.2h.033a.605.605 0 0 0 .476-.252 1.022 1.022 0 0 0 .216-.623.7.7 0 0 0-.18-.48.657.657 0 0 0-.469-.2z" transform="translate(0 .002)" style="fill:#fff;opacity:.5"/>
</svg>
