<svg xmlns="http://www.w3.org/2000/svg" width="24" height="24" viewBox="0 0 24 24">
    <path data-name="Path 16682" d="M0 15.2V.8A.8.8 0 0 1 .8 0h8a.8.8 0 0 1 .8.8v2a.8.8 0 0 1-.92.8.84.84 0 0 1-.68-.84V1.6H1.6v12.8H8v-1.2a.8.8 0 0 1 .92-.8.84.84 0 0 1 .68.84v1.96a.8.8 0 0 1-.8.8h-8a.8.8 0 0 1-.8-.8z" style="fill:#c7cad9" transform="translate(5 4)"/>
    <path data-name="Path 16683" d="m12.193 12.16 3.56-3.6a.76.76 0 0 0 0-1.12l-3.56-3.6a.84.84 0 0 0-1.08-.08.76.76 0 0 0-.08 1.2l2.24 2.24h-7.68a.8.8 0 0 0 0 1.6h7.68l-2.24 2.24a.76.76 0 0 0 .08 1.2.84.84 0 0 0 1.08-.08z" style="fill:#c7cad9" transform="translate(5 4)"/>
</svg>
