<svg data-name="Layer 2" xmlns="http://www.w3.org/2000/svg" width="16" height="16" viewBox="0 0 16 16">
    <g data-name="invisible box">
        <path data-name="Rectangle 25472" style="fill:none" d="M0 0h16v16H0z"/>
        <path data-name="Rectangle 25473" style="fill:none" d="M0 0h16v16H0z"/>
        <path data-name="Rectangle 25474" style="fill:none" d="M0 0h16v16H0z"/>
    </g>
    <g data-name="icons Q2">
        <g data-name="Group 35704">
            <path data-name="Path 20150" d="M9.333 2a7.3 7.3 0 1 0 5.2 2.138A7.333 7.333 0 0 0 9.333 2zm0 13.333a6 6 0 1 1 6-6 6 6 0 0 1-6 6z" transform="translate(-1.333 -1.333)" style="fill:#448aff"/>
            <path data-name="Path 20151" d="M19.333 15.333h-2.666v-2.666a.667.667 0 1 0-1.333 0v2.667h-2.667a.667.667 0 1 0 0 1.333h2.667v2.667a.667.667 0 0 0 1.333 0v-2.667h2.667a.667.667 0 0 0 0-1.333z" transform="translate(-8 -8)" style="fill:#448aff"/>
        </g>
    </g>
</svg>
