<svg data-name="Layer 2" xmlns="http://www.w3.org/2000/svg" width="24" height="24" viewBox="0 0 24 24">
    <g data-name="invisible box">
        <path data-name="Rectangle 23797" style="fill:none" d="M0 0h24v24H0z"/>
    </g>
    <g data-name="icons Q2">
        <g data-name="Group 29991">
            <path data-name="Path 16810" d="M18.227 23.267a.934.934 0 0 0-1.2-.089.845.845 0 0 0-.089 1.334l2.045 2.045H6.889a.889.889 0 1 0 0 1.778h12.094l-2.045 2.045a.845.845 0 0 0 .089 1.334.934.934 0 0 0 1.2-.089l3.512-3.557a.845.845 0 0 0 0-1.245z" transform="translate(-2.001 -11.497)" style="fill:#c6cad9"/>
            <path data-name="Path 16811" d="M9.771 13.626a.934.934 0 0 0 1.2.089.845.845 0 0 0 .089-1.334l-2.045-2.045h12.093a.889.889 0 0 0 0-1.778H9.015l2.045-2.046a.845.845 0 0 0-.089-1.334.934.934 0 0 0-1.2.089L6.258 8.824a.845.845 0 0 0 0 1.245z" transform="translate(-1.993 -1.5)" style="fill:#c6cad9"/>
        </g>
    </g>
</svg>
