<svg width="86" height="80" viewBox="0 0 86 80" fill="none" xmlns="http://www.w3.org/2000/svg">
    <path d="M80.8 0.900024L48 25.3L54.1 10.9L80.8 0.900024Z" fill="#E17726" stroke="#E17726" stroke-linecap="round"
          stroke-linejoin="round"/>
    <path d="M4.99997 0.900024L37.6 25.5L31.8 10.9L4.99997 0.900024Z" fill="#E27625" stroke="#E27625"
          stroke-linecap="round" stroke-linejoin="round"/>
    <path d="M69 57.4L60.2 70.8L79 76L84.3 57.7L69 57.4Z" fill="#E27625" stroke="#E27625" stroke-linecap="round"
          stroke-linejoin="round"/>
    <path d="M1.59998 57.7L6.89998 76L25.6 70.8L16.9 57.4L1.59998 57.7Z" fill="#E27625" stroke="#E27625"
          stroke-linecap="round" stroke-linejoin="round"/>
    <path d="M24.6 34.8L19.4 42.7L37.9 43.5L37.3 23.5L24.6 34.8Z" fill="#E27625" stroke="#E27625" stroke-linecap="round"
          stroke-linejoin="round"/>
    <path d="M61.3 34.8L48.4 23.3L48 43.5L66.5 42.7L61.3 34.8Z" fill="#E27625" stroke="#E27625" stroke-linecap="round"
          stroke-linejoin="round"/>
    <path d="M25.6 70.8L36.8 65.4L27.1 57.8L25.6 70.8Z" fill="#E27625" stroke="#E27625" stroke-linecap="round"
          stroke-linejoin="round"/>
    <path d="M49.1 65.4L60.2 70.8L58.7 57.8L49.1 65.4Z" fill="#E27625" stroke="#E27625" stroke-linecap="round"
          stroke-linejoin="round"/>
    <path d="M60.2 70.8L49.1 65.4L50 72.6L49.9 75.7L60.2 70.8Z" fill="#D5BFB2" stroke="#D5BFB2" stroke-linecap="round"
          stroke-linejoin="round"/>
    <path d="M25.6 70.8L36 75.7L35.9 72.6L36.8 65.4L25.6 70.8Z" fill="#D5BFB2" stroke="#D5BFB2" stroke-linecap="round"
          stroke-linejoin="round"/>
    <path d="M36.2 53L26.9 50.3L33.4 47.3L36.2 53Z" fill="#233447" stroke="#233447" stroke-linecap="round"
          stroke-linejoin="round"/>
    <path d="M49.7 53L52.4 47.3L59 50.3L49.7 53Z" fill="#233447" stroke="#233447" stroke-linecap="round"
          stroke-linejoin="round"/>
    <path d="M25.6 70.8L27.2 57.4L16.9 57.7L25.6 70.8Z" fill="#CC6228" stroke="#CC6228" stroke-linecap="round"
          stroke-linejoin="round"/>
    <path d="M58.7 57.4L60.2 70.8L69 57.7L58.7 57.4Z" fill="#CC6228" stroke="#CC6228" stroke-linecap="round"
          stroke-linejoin="round"/>
    <path d="M66.5 42.7L48 43.5L49.7 53L52.4 47.3L59 50.3L66.5 42.7Z" fill="#CC6228" stroke="#CC6228"
          stroke-linecap="round" stroke-linejoin="round"/>
    <path d="M26.9 50.3L33.4 47.3L36.2 53L37.9 43.5L19.4 42.7L26.9 50.3Z" fill="#CC6228" stroke="#CC6228"
          stroke-linecap="round" stroke-linejoin="round"/>
    <path d="M19.4 42.7L27.1 57.8L26.9 50.3L19.4 42.7Z" fill="#E27525" stroke="#E27525" stroke-linecap="round"
          stroke-linejoin="round"/>
    <path d="M59 50.3L58.7 57.8L66.5 42.7L59 50.3Z" fill="#E27525" stroke="#E27525" stroke-linecap="round"
          stroke-linejoin="round"/>
    <path d="M37.9 43.5L36.2 53L38.3 64.3L38.8 49.4L37.9 43.5Z" fill="#E27525" stroke="#E27525" stroke-linecap="round"
          stroke-linejoin="round"/>
    <path d="M48 43.5L47.1 49.4L47.5 64.3L49.7 53L48 43.5Z" fill="#E27525" stroke="#E27525" stroke-linecap="round"
          stroke-linejoin="round"/>
    <path d="M49.7 53L47.5 64.3L49.1 65.4L58.7 57.8L59 50.3L49.7 53Z" fill="#F5841F" stroke="#F5841F"
          stroke-linecap="round" stroke-linejoin="round"/>
    <path d="M26.9 50.3L27.1 57.8L36.8 65.4L38.3 64.3L36.2 53L26.9 50.3Z" fill="#F5841F" stroke="#F5841F"
          stroke-linecap="round" stroke-linejoin="round"/>
    <path d="M49.9 75.7L50 72.6001L49.1 71.9H36.7L35.9 72.6001L36 75.7L25.6 70.8L29.2 73.8L36.6 78.9H49.2L56.6 73.8L60.2 70.8L49.9 75.7Z"
          fill="#C0AC9D" stroke="#C0AC9D" stroke-linecap="round" stroke-linejoin="round"/>
    <path d="M49.1 65.4L47.5 64.3H38.3L36.8 65.4L35.9 72.6001L36.7 71.9H49.1L50 72.6001L49.1 65.4Z" fill="#161616"
          stroke="#161616" stroke-linecap="round" stroke-linejoin="round"/>
    <path d="M82.2 26.9L85 13.4L80.8 0.900024L49.1 24.5L61.3 34.8L78.5 39.8L82.3 35.4L80.7 34.2L83.3 31.8L81.3 30.2L83.9 28.2L82.2 26.9Z"
          fill="#763E1A" stroke="#763E1A" stroke-linecap="round" stroke-linejoin="round"/>
    <path d="M0.899994 13.4L3.69999 26.9L1.89999 28.2L4.49999 30.2L2.49999 31.8L5.19999 34.2L3.49999 35.4L7.3 39.8L24.6 34.8L36.8 24.5L4.99999 0.900024L0.899994 13.4Z"
          fill="#763E1A" stroke="#763E1A" stroke-linecap="round" stroke-linejoin="round"/>
    <path d="M78.5 39.8L61.3 34.8L66.5 42.7L58.7 57.8L69 57.7H84.3L78.5 39.8Z" fill="#F5841F" stroke="#F5841F"
          stroke-linecap="round" stroke-linejoin="round"/>
    <path d="M24.6 34.8L7.29998 39.8L1.59998 57.7H16.9L27.1 57.8L19.4 42.7L24.6 34.8Z" fill="#F5841F" stroke="#F5841F"
          stroke-linecap="round" stroke-linejoin="round"/>
    <path d="M48 43.5L49.1 24.5L54.1 10.9H31.8L36.8 24.5L37.9 43.5L38.3 49.5V64.3H47.5V49.5L48 43.5Z" fill="#F5841F"
          stroke="#F5841F" stroke-linecap="round" stroke-linejoin="round"/>
</svg>
