<svg width="42" height="41" viewBox="0 0 42 41" fill="none" xmlns="http://www.w3.org/2000/svg">
<mask id="mask0_1265_4904" style="mask-type:alpha" maskUnits="userSpaceOnUse" x="0" y="0" width="42" height="41">
<rect width="42" height="41" fill="#C4C4C4"/>
</mask>
<g mask="url(#mask0_1265_4904)">
<path d="M12.0517 26.154C11.9326 26.606 11.5454 26.7154 11.203 26.3946L4.40613 20.1829C4.05624 19.8621 4.13068 19.4611 4.57735 19.2861L14.1138 15.5532C14.5605 15.3782 14.821 15.6115 14.7019 16.0636L12.0517 26.154Z" fill="url(#paint0_linear_1265_4904)"/>
<path d="M6.43849 32.0595C6.07371 32.3657 5.70892 32.2418 5.62703 31.7752L3.7659 21.6775C3.68401 21.2181 3.8999 21.1015 4.2498 21.4223L10.7191 27.3351C11.069 27.6559 11.0615 28.1663 10.6968 28.4725L6.43849 32.0595Z" fill="url(#paint1_linear_1265_4904)"/>
<path d="M14.2404 13.541C14.553 13.8982 14.4414 14.3284 14.0021 14.5033L4.5178 18.2144C4.07113 18.3893 3.84779 18.1706 4.01157 17.7332L7.90506 7.48233C8.06884 7.04489 8.4634 6.97198 8.77607 7.32923L14.2404 13.541Z" fill="url(#paint2_linear_1265_4904)"/>
<path d="M4.30935 30.3389C4.39124 30.7982 4.24979 30.8566 3.98924 30.4629L0.311636 24.9C0.0510769 24.5063 0.0734105 23.8793 0.356303 23.5002L2.00155 21.3421C2.28444 20.9703 2.58966 21.0359 2.679 21.4952L4.30935 30.3389Z" fill="url(#paint3_linear_1265_4904)"/>
<path d="M3.148 17.1062C2.98422 17.5436 2.72367 17.5436 2.56733 17.0989L1.3092 13.4097C1.16031 12.965 1.32409 12.3453 1.68143 12.0318L6.16304 8.0583C6.52038 7.7448 6.66927 7.84687 6.50549 8.28432L3.148 17.1062Z" fill="url(#paint4_linear_1265_4904)"/>
<path d="M1.96432 18.5279C2.11321 18.9726 2.00899 19.6433 1.71865 20.0152L0.438193 21.7066C0.155301 22.0785 -0.0382575 22.0056 0.00640973 21.5389L0.624306 15.6772C0.676418 15.2105 0.840198 15.196 0.989089 15.6407L1.96432 18.5279Z" fill="url(#paint5_linear_1265_4904)"/>
<path d="M7.01916 5.33155C7.1755 5.51382 7.01916 5.91482 6.66182 6.23561L4.6518 8.02185C4.29446 8.33535 4.24235 8.28432 4.52524 7.91249L6.21515 5.6888C6.49804 5.30968 6.86283 5.14928 7.01916 5.33155Z" fill="url(#paint6_linear_1265_4904)"/>
<path d="M19.7344 36.5215C19.4962 36.9225 19.0719 36.9443 18.8039 36.5579L13.5331 29.0484C13.2651 28.662 13.4289 28.3048 13.9054 28.261L24.4915 27.1893C24.9679 27.1383 25.1615 27.4299 24.9158 27.8382L19.7344 36.5215Z" fill="url(#paint7_linear_1265_4904)"/>
<path d="M17.5308 36.5288C17.7989 36.9152 17.65 37.1047 17.2033 36.9589L7.27972 33.6562C6.8256 33.5031 6.75116 33.1313 7.11594 32.8251L11.3668 29.238C11.7316 28.9318 12.2452 28.9974 12.5207 29.3838L17.5308 36.5288Z" fill="url(#paint8_linear_1265_4904)"/>
<path d="M24.7148 25.4468C25.0275 25.804 24.8935 26.1321 24.417 26.1832L13.6746 27.2695C13.1981 27.3205 12.9078 26.9852 13.0269 26.5331L15.7144 16.2896C15.8335 15.8376 16.1834 15.7574 16.4961 16.1073L24.7148 25.4468Z" fill="url(#paint9_linear_1265_4904)"/>
<path d="M32.4274 34.2249C32.74 34.5821 32.6135 34.9467 32.1445 35.0487L21.2159 37.3016C20.7469 37.3964 20.5608 37.1485 20.8064 36.7402L25.9581 28.1079C26.1963 27.7069 26.6504 27.6632 26.9631 28.0204L32.4274 34.2249Z" fill="url(#paint10_linear_1265_4904)"/>
<path d="M14.8508 39.9846C14.4265 40.2033 13.7937 40.1304 13.4364 39.8242L8.35918 35.4352C8.00184 35.1217 8.07629 34.9977 8.5304 35.1435L17.2107 38.0307C17.6648 38.1838 17.6872 38.4827 17.2703 38.7087L14.8508 39.9846Z" fill="url(#paint11_linear_1265_4904)"/>
<path d="M26.6355 40.4002C26.2633 40.6991 25.6156 40.7647 25.1838 40.5533L21.6477 38.7889C21.2233 38.5775 21.2531 38.3223 21.7221 38.2275L31.1395 36.2882C31.6085 36.1934 31.6904 36.3538 31.3181 36.6527L26.6355 40.4002Z" fill="url(#paint12_linear_1265_4904)"/>
<path d="M16.7789 40.6116C16.3025 40.5897 16.2578 40.3929 16.6747 40.1669L18.5731 39.168C18.9974 38.9493 19.6898 38.942 20.1141 39.1535L22.8835 40.5314C23.3078 40.7428 23.2706 40.9032 22.7867 40.8814L16.7789 40.6116Z" fill="url(#paint13_linear_1265_4904)"/>
<path d="M34.1917 36.2226C34.3481 36.4048 34.1396 36.7329 33.7153 36.9516L31.2213 38.2567C30.797 38.4754 30.7598 38.4171 31.1246 38.1182L33.2314 36.434C33.5961 36.1351 34.0279 36.0403 34.1917 36.2226Z" fill="url(#paint14_linear_1265_4904)"/>
<path d="M27.8787 25.3374C27.4321 25.5124 27.1715 25.2791 27.2906 24.8271L29.9409 14.7367C30.06 14.2846 30.4471 14.1753 30.797 14.4961L37.5939 20.7078C37.9438 21.0286 37.8693 21.4296 37.4226 21.6046L27.8787 25.3374Z" fill="url(#paint15_linear_1265_4904)"/>
<path d="M38.2341 19.2132C38.316 19.6725 38.1001 19.7892 37.7502 19.4684L31.2809 13.5555C30.931 13.2348 30.9385 12.7244 31.3032 12.4182L35.5541 8.83112C35.9189 8.52491 36.2836 8.64885 36.3655 9.11546L38.2341 19.2132Z" fill="url(#paint16_linear_1265_4904)"/>
<path d="M34.0875 33.4083C33.9237 33.8458 33.5292 33.9187 33.2165 33.5614L27.7522 27.3497C27.4395 26.9924 27.5512 26.5623 27.9904 26.3873L37.4748 22.6763C37.9214 22.5013 38.1448 22.72 37.981 23.1575L34.0875 33.4083Z" fill="url(#paint17_linear_1265_4904)"/>
<path d="M41.6809 15.9907C41.9415 16.3844 41.9192 17.0114 41.6363 17.3905L39.991 19.5413C39.7081 19.9131 39.4029 19.8475 39.3136 19.3882L37.6832 10.5517C37.6013 10.0924 37.7428 10.0341 38.0033 10.4278L41.6809 15.9907Z" fill="url(#paint18_linear_1265_4904)"/>
<path d="M40.6759 27.4882C40.8248 27.933 40.661 28.5527 40.3037 28.8662L35.8221 32.8396C35.4647 33.1531 35.3158 33.0511 35.4796 32.6136L38.8371 23.7845C39.0009 23.3471 39.2615 23.3471 39.4178 23.7918L40.6759 27.4882Z" fill="url(#paint19_linear_1265_4904)"/>
<path d="M41.3757 25.2062C41.3236 25.6728 41.1598 25.6874 41.0109 25.2427L40.0282 22.3555C39.8793 21.9108 39.991 21.24 40.2739 20.8682L41.5618 19.1767C41.8447 18.8049 42.0383 18.8778 41.9936 19.3444L41.3757 25.2062Z" fill="url(#paint20_linear_1265_4904)"/>
<path d="M35.7774 35.2019C35.4945 35.581 35.1297 35.7341 34.966 35.5591C34.8096 35.3768 34.9659 34.9758 35.3233 34.655L37.3408 32.8688C37.6981 32.5553 37.7502 32.6063 37.4673 32.9782L35.7774 35.2019Z" fill="url(#paint21_linear_1265_4904)"/>
<path d="M28.4594 11.8422C28.7274 12.2286 28.5636 12.5859 28.0872 12.6296L17.5011 13.7014C17.0246 13.7524 16.8311 13.4608 17.0767 13.0525L22.2581 4.36917C22.4964 3.96818 22.9207 3.94631 23.1887 4.33272L28.4594 11.8422Z" fill="url(#paint22_linear_1265_4904)"/>
<path d="M30.6258 11.6527C30.261 11.9589 29.7473 11.8933 29.4719 11.5068L24.4617 4.36188C24.1937 3.97547 24.3426 3.78591 24.7893 3.93172L34.7128 7.23445C35.167 7.38755 35.2414 7.75938 34.8766 8.06559L30.6258 11.6527Z" fill="url(#paint23_linear_1265_4904)"/>
<path d="M26.2782 24.6011C26.1591 25.0531 25.8092 25.1333 25.4965 24.7833L17.2852 15.4439C16.9725 15.0866 17.1065 14.7585 17.583 14.7075L28.3254 13.6212C28.8019 13.5701 29.0922 13.9055 28.9731 14.3575L26.2782 24.6011Z" fill="url(#paint24_linear_1265_4904)"/>
<path d="M16.0345 12.79C15.7963 13.191 15.3422 13.2348 15.0295 12.8775L9.56519 6.66576C9.25252 6.30852 9.37908 5.94398 9.84809 5.84191L20.7767 3.58906C21.2457 3.49428 21.4318 3.74216 21.1861 4.15045L16.0345 12.79Z" fill="url(#paint25_linear_1265_4904)"/>
<path d="M24.7818 2.85998C24.3277 2.70687 24.3054 2.40795 24.7223 2.18194L27.1417 0.913345C27.5661 0.694621 28.1989 0.767529 28.5636 1.07374L33.6334 5.46279C33.9907 5.77629 33.9163 5.90023 33.4622 5.75442L24.7818 2.85998Z" fill="url(#paint26_linear_1265_4904)"/>
<path d="M10.8531 4.60248C10.3841 4.69726 10.3022 4.53686 10.6744 4.23794L15.3496 0.49048C15.7218 0.191558 16.3695 0.125941 16.8013 0.337373L20.3449 2.10174C20.7692 2.31317 20.7394 2.56835 20.2704 2.66313L10.8531 4.60248Z" fill="url(#paint27_linear_1265_4904)"/>
<path d="M23.4269 1.71533C23.0026 1.93405 22.3102 1.94134 21.8859 1.72991L19.1165 0.351955C18.6922 0.140522 18.7294 -0.0198745 19.2133 0.00199782L25.2211 0.271756C25.6975 0.293629 25.7422 0.49048 25.3253 0.716494L23.4269 1.71533Z" fill="url(#paint28_linear_1265_4904)"/>
<path d="M8.76863 4.45666C8.3964 4.75558 7.96462 4.85036 7.80828 4.66809C7.65195 4.48582 7.8604 4.15774 8.28473 3.93902L10.7787 2.63397C11.203 2.41524 11.2402 2.47357 10.8754 2.77249L8.76863 4.45666Z" fill="url(#paint29_linear_1265_4904)"/>
<path d="M5.56748 34.1301C5.75359 33.977 6.16304 34.1301 6.4906 34.4801L8.31451 36.4559C8.63463 36.8058 8.58251 36.8569 8.20284 36.5798L5.92481 34.9248C5.54514 34.6478 5.38136 34.2905 5.56748 34.1301Z" fill="url(#paint30_linear_1265_4904)"/>
<path d="M37.1025 7.52608C37.2886 7.37297 37.6236 7.57711 37.847 7.99269L39.1796 10.4351C39.4029 10.8507 39.3433 10.8871 39.0381 10.5299L37.3184 8.46659C37.0206 8.10934 36.9239 7.67918 37.1025 7.52608Z" fill="url(#paint31_linear_1265_4904)"/>
<path d="M36.0677 5.96585C36.4548 6.2429 36.6112 6.60015 36.4325 6.76054C36.2464 6.91365 35.837 6.76054 35.5094 6.41059L33.6855 4.43479C33.3654 4.08483 33.4175 4.0338 33.7971 4.31084L36.0677 5.96585Z" fill="url(#paint32_linear_1265_4904)"/>
<path d="M4.67413 32.4241C4.97936 32.7886 5.07614 33.2115 4.89002 33.3646C4.70391 33.5177 4.36891 33.3135 4.14557 32.898L2.813 30.4556C2.58966 30.04 2.64922 30.0035 2.95445 30.3608L4.67413 32.4241Z" fill="url(#paint33_linear_1265_4904)"/>
<path d="M8.48355 47.1317C9.15873 47.5075 9.69305 48.0166 10.0865 48.654C10.48 49.2962 10.6791 50.0003 10.6791 50.7662C10.6791 51.5321 10.48 52.2409 10.0865 52.8878C9.69305 53.5348 9.15388 54.0486 8.48355 54.4291C7.80836 54.8097 7.07003 55 6.25884 55C5.45251 55 4.70932 54.8097 4.03413 54.4291C3.35895 54.0486 2.82463 53.5348 2.43118 52.8878C2.03772 52.2409 1.83857 51.5321 1.83857 50.7662C1.83857 50.0003 2.03772 49.2962 2.43118 48.654C2.82463 48.0118 3.3638 47.5075 4.03413 47.1317C4.70932 46.7559 5.44765 46.5704 6.25884 46.5704C7.07003 46.5656 7.80836 46.7559 8.48355 47.1317ZM4.48102 47.7644C3.93213 48.0736 3.49496 48.4923 3.17436 49.0203C2.84892 49.5483 2.68862 50.1335 2.68862 50.7662C2.68862 51.3989 2.84892 51.984 3.17436 52.5215C3.49496 53.0591 3.93213 53.4825 4.48102 53.7964C5.02991 54.1104 5.62737 54.2674 6.27341 54.2674C6.90974 54.2674 7.50235 54.1104 8.04638 53.7964C8.59041 53.4825 9.02758 53.0591 9.34817 52.5215C9.66877 51.984 9.83392 51.3989 9.83392 50.7662C9.83392 49.9955 9.59105 49.2962 9.11016 48.6778C8.877 48.3781 8.59041 48.1117 8.26982 47.9024C7.66264 47.5028 6.99717 47.303 6.27341 47.303C5.62737 47.303 5.02991 47.4552 4.48102 47.7644Z" fill="url(#paint34_linear_1265_4904)"/>
<path d="M19.6362 54.7574L17.9264 52.2266C17.669 52.2409 17.4698 52.2504 17.3338 52.2504H15.0071V54.5433C15.0071 54.7574 14.8322 54.9286 14.6136 54.9286H14.5651C14.3465 54.9286 14.1716 54.7574 14.1716 54.5433V46.637H17.3338C18.3927 46.637 19.2088 46.8748 19.7868 47.3553C20.3649 47.8358 20.6514 48.5113 20.6514 49.3914C20.6514 50.0811 20.4814 50.652 20.1414 51.1134C19.8014 51.5701 19.3156 51.8936 18.689 52.0744L20.292 54.3245C20.4766 54.5814 20.2871 54.9334 19.9665 54.9334C19.8354 54.9334 19.7091 54.8668 19.6362 54.7574ZM17.3338 51.513C18.1401 51.513 18.7619 51.3323 19.1991 50.9755C19.6362 50.6139 19.8548 50.0954 19.8548 49.4151C19.8548 48.7491 19.6362 48.2449 19.1991 47.8976C18.7619 47.5504 18.1401 47.3743 17.3338 47.3743H15.0071V51.513H17.3338Z" fill="url(#paint35_linear_1265_4904)"/>
<path d="M30.1186 47.1793C30.5995 47.5456 30.8375 48.0546 30.8375 48.7016C30.8375 49.1916 30.6966 49.6054 30.4198 49.9337C30.1429 50.2667 29.7494 50.4855 29.2491 50.5854C29.8709 50.6663 30.3566 50.8899 30.7015 51.2609C31.0464 51.632 31.2212 52.1029 31.2212 52.6738C31.2212 53.3873 30.9492 53.9392 30.41 54.334C29.8709 54.7288 29.118 54.9286 28.1562 54.9286H24.5714V46.6275H28.1222C28.9722 46.6275 29.6377 46.8082 30.1186 47.1793ZM29.4823 49.9051C29.8126 49.6482 29.9777 49.2819 29.9777 48.8062C29.9777 48.3496 29.8126 47.9928 29.4823 47.7406C29.152 47.4885 28.6857 47.3648 28.0882 47.3743H25.4117V50.2905H28.0882C28.6857 50.2905 29.152 50.162 29.4823 49.9051ZM29.7786 53.7727C30.1769 53.492 30.376 53.0972 30.376 52.5929C30.376 52.0934 30.172 51.7081 29.7689 51.4322C29.3657 51.1563 28.8022 51.0183 28.0833 51.0183H25.4069V54.196H28.0833C28.8168 54.196 29.3803 54.0533 29.7786 53.7727Z" fill="url(#paint36_linear_1265_4904)"/>
<path d="M38.4977 47.498C38.0848 47.3839 37.6962 47.3268 37.3368 47.3268C36.7539 47.3268 36.2876 47.4409 35.9378 47.6645C35.5881 47.8881 35.4132 48.1973 35.4132 48.5826C35.4132 48.9252 35.5104 49.2011 35.7047 49.4151C35.899 49.6292 36.137 49.7957 36.4187 49.9194C36.7004 50.0431 37.089 50.1763 37.5796 50.3285C38.1528 50.495 38.6143 50.6567 38.9689 50.8185C39.3186 50.9802 39.6198 51.2181 39.8675 51.5225C40.1152 51.8318 40.2367 52.2409 40.2367 52.7451C40.2367 53.1875 40.1104 53.5776 39.8529 53.9201C39.6003 54.2626 39.2409 54.5243 38.7794 54.7098C38.318 54.8953 37.7885 54.9905 37.191 54.9905C36.6033 54.9905 36.0253 54.8763 35.4666 54.648C35.0149 54.4624 34.6117 54.2294 34.262 53.9487C34.1163 53.8298 34.0823 53.63 34.1697 53.4682C34.2863 53.2637 34.5583 53.2113 34.7429 53.354C35.0392 53.5824 35.3646 53.7679 35.7241 53.9154C36.2244 54.1199 36.715 54.2246 37.2008 54.2246C37.8468 54.2246 38.3617 54.0961 38.7406 53.8393C39.1194 53.5824 39.3089 53.2351 39.3089 52.8022C39.3089 52.4549 39.2117 52.1695 39.0174 51.9459C38.8231 51.7223 38.5851 51.5558 38.3034 51.4369C38.0217 51.318 37.6233 51.18 37.1182 51.0231C36.545 50.847 36.0835 50.6853 35.7387 50.5331C35.3889 50.3808 35.0975 50.1477 34.8546 49.8433C34.6117 49.5388 34.4903 49.1392 34.4903 48.6493C34.4903 48.2306 34.6117 47.8643 34.8546 47.5456C35.0975 47.2316 35.4375 46.9843 35.8747 46.8178C36.3118 46.6465 36.817 46.5609 37.3902 46.5609C37.8517 46.5609 38.3131 46.6275 38.7794 46.7607C39.1 46.8558 39.3963 46.97 39.6683 47.1032C39.8626 47.1983 39.9403 47.4267 39.8432 47.617L39.8335 47.6407C39.7363 47.831 39.4983 47.9024 39.304 47.8025C39.0417 47.6788 38.7746 47.5789 38.4977 47.498Z" fill="url(#paint37_linear_1265_4904)"/>
</g>
<defs>
<linearGradient id="paint0_linear_1265_4904" x1="21" y1="1.80548e-09" x2="21.0397" y2="49.8" gradientUnits="userSpaceOnUse">
<stop stop-color="#DA88DE"/>
<stop offset="0.373617" stop-color="#5E75E8"/>
<stop offset="1" stop-color="#80C6EB"/>
</linearGradient>
<linearGradient id="paint1_linear_1265_4904" x1="21" y1="1.80548e-09" x2="21.0397" y2="49.8" gradientUnits="userSpaceOnUse">
<stop stop-color="#DA88DE"/>
<stop offset="0.373617" stop-color="#5E75E8"/>
<stop offset="1" stop-color="#80C6EB"/>
</linearGradient>
<linearGradient id="paint2_linear_1265_4904" x1="21" y1="1.80548e-09" x2="21.0397" y2="49.8" gradientUnits="userSpaceOnUse">
<stop stop-color="#DA88DE"/>
<stop offset="0.373617" stop-color="#5E75E8"/>
<stop offset="1" stop-color="#80C6EB"/>
</linearGradient>
<linearGradient id="paint3_linear_1265_4904" x1="21" y1="1.80548e-09" x2="21.0397" y2="49.8" gradientUnits="userSpaceOnUse">
<stop stop-color="#DA88DE"/>
<stop offset="0.373617" stop-color="#5E75E8"/>
<stop offset="1" stop-color="#80C6EB"/>
</linearGradient>
<linearGradient id="paint4_linear_1265_4904" x1="21" y1="1.80548e-09" x2="21.0397" y2="49.8" gradientUnits="userSpaceOnUse">
<stop stop-color="#DA88DE"/>
<stop offset="0.373617" stop-color="#5E75E8"/>
<stop offset="1" stop-color="#80C6EB"/>
</linearGradient>
<linearGradient id="paint5_linear_1265_4904" x1="21" y1="1.80548e-09" x2="21.0397" y2="49.8" gradientUnits="userSpaceOnUse">
<stop stop-color="#DA88DE"/>
<stop offset="0.373617" stop-color="#5E75E8"/>
<stop offset="1" stop-color="#80C6EB"/>
</linearGradient>
<linearGradient id="paint6_linear_1265_4904" x1="21" y1="1.80548e-09" x2="21.0397" y2="49.8" gradientUnits="userSpaceOnUse">
<stop stop-color="#DA88DE"/>
<stop offset="0.373617" stop-color="#5E75E8"/>
<stop offset="1" stop-color="#80C6EB"/>
</linearGradient>
<linearGradient id="paint7_linear_1265_4904" x1="21" y1="1.80548e-09" x2="21.0397" y2="49.8" gradientUnits="userSpaceOnUse">
<stop stop-color="#DA88DE"/>
<stop offset="0.373617" stop-color="#5E75E8"/>
<stop offset="1" stop-color="#80C6EB"/>
</linearGradient>
<linearGradient id="paint8_linear_1265_4904" x1="21" y1="1.80548e-09" x2="21.0397" y2="49.8" gradientUnits="userSpaceOnUse">
<stop stop-color="#DA88DE"/>
<stop offset="0.373617" stop-color="#5E75E8"/>
<stop offset="1" stop-color="#80C6EB"/>
</linearGradient>
<linearGradient id="paint9_linear_1265_4904" x1="21" y1="1.80548e-09" x2="21.0397" y2="49.8" gradientUnits="userSpaceOnUse">
<stop stop-color="#DA88DE"/>
<stop offset="0.373617" stop-color="#5E75E8"/>
<stop offset="1" stop-color="#80C6EB"/>
</linearGradient>
<linearGradient id="paint10_linear_1265_4904" x1="21" y1="1.80548e-09" x2="21.0397" y2="49.8" gradientUnits="userSpaceOnUse">
<stop stop-color="#DA88DE"/>
<stop offset="0.373617" stop-color="#5E75E8"/>
<stop offset="1" stop-color="#80C6EB"/>
</linearGradient>
<linearGradient id="paint11_linear_1265_4904" x1="21" y1="1.80548e-09" x2="21.0397" y2="49.8" gradientUnits="userSpaceOnUse">
<stop stop-color="#DA88DE"/>
<stop offset="0.373617" stop-color="#5E75E8"/>
<stop offset="1" stop-color="#80C6EB"/>
</linearGradient>
<linearGradient id="paint12_linear_1265_4904" x1="21" y1="1.80548e-09" x2="21.0397" y2="49.8" gradientUnits="userSpaceOnUse">
<stop stop-color="#DA88DE"/>
<stop offset="0.373617" stop-color="#5E75E8"/>
<stop offset="1" stop-color="#80C6EB"/>
</linearGradient>
<linearGradient id="paint13_linear_1265_4904" x1="21" y1="1.80548e-09" x2="21.0397" y2="49.8" gradientUnits="userSpaceOnUse">
<stop stop-color="#DA88DE"/>
<stop offset="0.373617" stop-color="#5E75E8"/>
<stop offset="1" stop-color="#80C6EB"/>
</linearGradient>
<linearGradient id="paint14_linear_1265_4904" x1="21" y1="1.80548e-09" x2="21.0397" y2="49.8" gradientUnits="userSpaceOnUse">
<stop stop-color="#DA88DE"/>
<stop offset="0.373617" stop-color="#5E75E8"/>
<stop offset="1" stop-color="#80C6EB"/>
</linearGradient>
<linearGradient id="paint15_linear_1265_4904" x1="21" y1="1.80548e-09" x2="21.0397" y2="49.8" gradientUnits="userSpaceOnUse">
<stop stop-color="#DA88DE"/>
<stop offset="0.373617" stop-color="#5E75E8"/>
<stop offset="1" stop-color="#80C6EB"/>
</linearGradient>
<linearGradient id="paint16_linear_1265_4904" x1="21" y1="1.80548e-09" x2="21.0397" y2="49.8" gradientUnits="userSpaceOnUse">
<stop stop-color="#DA88DE"/>
<stop offset="0.373617" stop-color="#5E75E8"/>
<stop offset="1" stop-color="#80C6EB"/>
</linearGradient>
<linearGradient id="paint17_linear_1265_4904" x1="21" y1="1.80548e-09" x2="21.0397" y2="49.8" gradientUnits="userSpaceOnUse">
<stop stop-color="#DA88DE"/>
<stop offset="0.373617" stop-color="#5E75E8"/>
<stop offset="1" stop-color="#80C6EB"/>
</linearGradient>
<linearGradient id="paint18_linear_1265_4904" x1="21" y1="1.80548e-09" x2="21.0397" y2="49.8" gradientUnits="userSpaceOnUse">
<stop stop-color="#DA88DE"/>
<stop offset="0.373617" stop-color="#5E75E8"/>
<stop offset="1" stop-color="#80C6EB"/>
</linearGradient>
<linearGradient id="paint19_linear_1265_4904" x1="21" y1="1.80548e-09" x2="21.0397" y2="49.8" gradientUnits="userSpaceOnUse">
<stop stop-color="#DA88DE"/>
<stop offset="0.373617" stop-color="#5E75E8"/>
<stop offset="1" stop-color="#80C6EB"/>
</linearGradient>
<linearGradient id="paint20_linear_1265_4904" x1="21" y1="1.80548e-09" x2="21.0397" y2="49.8" gradientUnits="userSpaceOnUse">
<stop stop-color="#DA88DE"/>
<stop offset="0.373617" stop-color="#5E75E8"/>
<stop offset="1" stop-color="#80C6EB"/>
</linearGradient>
<linearGradient id="paint21_linear_1265_4904" x1="21" y1="1.80548e-09" x2="21.0397" y2="49.8" gradientUnits="userSpaceOnUse">
<stop stop-color="#DA88DE"/>
<stop offset="0.373617" stop-color="#5E75E8"/>
<stop offset="1" stop-color="#80C6EB"/>
</linearGradient>
<linearGradient id="paint22_linear_1265_4904" x1="21" y1="1.80548e-09" x2="21.0397" y2="49.8" gradientUnits="userSpaceOnUse">
<stop stop-color="#DA88DE"/>
<stop offset="0.373617" stop-color="#5E75E8"/>
<stop offset="1" stop-color="#80C6EB"/>
</linearGradient>
<linearGradient id="paint23_linear_1265_4904" x1="21" y1="1.80548e-09" x2="21.0397" y2="49.8" gradientUnits="userSpaceOnUse">
<stop stop-color="#DA88DE"/>
<stop offset="0.373617" stop-color="#5E75E8"/>
<stop offset="1" stop-color="#80C6EB"/>
</linearGradient>
<linearGradient id="paint24_linear_1265_4904" x1="21" y1="1.80548e-09" x2="21.0397" y2="49.8" gradientUnits="userSpaceOnUse">
<stop stop-color="#DA88DE"/>
<stop offset="0.373617" stop-color="#5E75E8"/>
<stop offset="1" stop-color="#80C6EB"/>
</linearGradient>
<linearGradient id="paint25_linear_1265_4904" x1="21" y1="1.80548e-09" x2="21.0397" y2="49.8" gradientUnits="userSpaceOnUse">
<stop stop-color="#DA88DE"/>
<stop offset="0.373617" stop-color="#5E75E8"/>
<stop offset="1" stop-color="#80C6EB"/>
</linearGradient>
<linearGradient id="paint26_linear_1265_4904" x1="21" y1="1.80548e-09" x2="21.0397" y2="49.8" gradientUnits="userSpaceOnUse">
<stop stop-color="#DA88DE"/>
<stop offset="0.373617" stop-color="#5E75E8"/>
<stop offset="1" stop-color="#80C6EB"/>
</linearGradient>
<linearGradient id="paint27_linear_1265_4904" x1="21" y1="1.80548e-09" x2="21.0397" y2="49.8" gradientUnits="userSpaceOnUse">
<stop stop-color="#DA88DE"/>
<stop offset="0.373617" stop-color="#5E75E8"/>
<stop offset="1" stop-color="#80C6EB"/>
</linearGradient>
<linearGradient id="paint28_linear_1265_4904" x1="21" y1="1.80548e-09" x2="21.0397" y2="49.8" gradientUnits="userSpaceOnUse">
<stop stop-color="#DA88DE"/>
<stop offset="0.373617" stop-color="#5E75E8"/>
<stop offset="1" stop-color="#80C6EB"/>
</linearGradient>
<linearGradient id="paint29_linear_1265_4904" x1="21" y1="1.80548e-09" x2="21.0397" y2="49.8" gradientUnits="userSpaceOnUse">
<stop stop-color="#DA88DE"/>
<stop offset="0.373617" stop-color="#5E75E8"/>
<stop offset="1" stop-color="#80C6EB"/>
</linearGradient>
<linearGradient id="paint30_linear_1265_4904" x1="21" y1="1.80548e-09" x2="21.0397" y2="49.8" gradientUnits="userSpaceOnUse">
<stop stop-color="#DA88DE"/>
<stop offset="0.373617" stop-color="#5E75E8"/>
<stop offset="1" stop-color="#80C6EB"/>
</linearGradient>
<linearGradient id="paint31_linear_1265_4904" x1="21" y1="1.80548e-09" x2="21.0397" y2="49.8" gradientUnits="userSpaceOnUse">
<stop stop-color="#DA88DE"/>
<stop offset="0.373617" stop-color="#5E75E8"/>
<stop offset="1" stop-color="#80C6EB"/>
</linearGradient>
<linearGradient id="paint32_linear_1265_4904" x1="21" y1="1.80548e-09" x2="21.0397" y2="49.8" gradientUnits="userSpaceOnUse">
<stop stop-color="#DA88DE"/>
<stop offset="0.373617" stop-color="#5E75E8"/>
<stop offset="1" stop-color="#80C6EB"/>
</linearGradient>
<linearGradient id="paint33_linear_1265_4904" x1="21" y1="1.80548e-09" x2="21.0397" y2="49.8" gradientUnits="userSpaceOnUse">
<stop stop-color="#DA88DE"/>
<stop offset="0.373617" stop-color="#5E75E8"/>
<stop offset="1" stop-color="#80C6EB"/>
</linearGradient>
<linearGradient id="paint34_linear_1265_4904" x1="21" y1="1.80548e-09" x2="21.0397" y2="49.8" gradientUnits="userSpaceOnUse">
<stop stop-color="#DA88DE"/>
<stop offset="0.373617" stop-color="#5E75E8"/>
<stop offset="1" stop-color="#80C6EB"/>
</linearGradient>
<linearGradient id="paint35_linear_1265_4904" x1="21" y1="1.80548e-09" x2="21.0397" y2="49.8" gradientUnits="userSpaceOnUse">
<stop stop-color="#DA88DE"/>
<stop offset="0.373617" stop-color="#5E75E8"/>
<stop offset="1" stop-color="#80C6EB"/>
</linearGradient>
<linearGradient id="paint36_linear_1265_4904" x1="21" y1="1.80548e-09" x2="21.0397" y2="49.8" gradientUnits="userSpaceOnUse">
<stop stop-color="#DA88DE"/>
<stop offset="0.373617" stop-color="#5E75E8"/>
<stop offset="1" stop-color="#80C6EB"/>
</linearGradient>
<linearGradient id="paint37_linear_1265_4904" x1="21" y1="1.80548e-09" x2="21.0397" y2="49.8" gradientUnits="userSpaceOnUse">
<stop stop-color="#DA88DE"/>
<stop offset="0.373617" stop-color="#5E75E8"/>
<stop offset="1" stop-color="#80C6EB"/>
</linearGradient>
</defs>
</svg>
