<svg xmlns="http://www.w3.org/2000/svg" width="12" height="10.559" viewBox="0 0 12 10.559">
  <path id="Polygon_Logo" data-name="Polygon Logo" d="M9.086,3.127a.8.8,0,0,0-.752,0L6.58,4.161l-1.191.658L3.666,5.853a.8.8,0,0,1-.752,0L1.567,5.038a.764.764,0,0,1-.376-.658V2.814a.773.773,0,0,1,.376-.658l1.347-.783a.8.8,0,0,1,.752,0l1.347.815a.764.764,0,0,1,.376.658V3.879L6.58,3.19V2.125A.773.773,0,0,0,6.2,1.467L3.7-.006a.8.8,0,0,0-.752,0L.376,1.5A.689.689,0,0,0,0,2.125V5.07a.773.773,0,0,0,.376.658L2.914,7.2a.8.8,0,0,0,.752,0l1.723-1L6.58,5.508l1.723-1a.8.8,0,0,1,.752,0l1.347.783a.764.764,0,0,1,.376.658V7.514a.773.773,0,0,1-.376.658l-1.316.783a.8.8,0,0,1-.752,0L6.987,8.172a.764.764,0,0,1-.376-.658v-1L5.42,7.2V8.234a.773.773,0,0,0,.376.658l2.538,1.473a.8.8,0,0,0,.752,0l2.538-1.473A.764.764,0,0,0,12,8.234V5.258a.773.773,0,0,0-.376-.658Z" transform="translate(0 0.1)" fill="#823ee9"/>
</svg>
