<svg width="60" height="60" viewBox="0 0 60 60" fill="none" xmlns="http://www.w3.org/2000/svg">
<path d="M30.0187 60C46.5769 60 59.9916 46.5686 59.9813 30C59.971 13.4315 46.5395 0 29.9813 0C13.4231 0 0.00837366 13.4315 0.0187031 30C0.0290325 46.5686 13.4605 60 30.0187 60Z" fill="#8247E5"/>
<path d="M40.39 23.0926C39.6526 22.6702 38.7029 22.6702 37.8582 23.0926L31.9522 26.5741L27.9455 28.7886L22.1445 32.2701C21.407 32.6924 20.4573 32.6924 19.6127 32.2701L15.0786 29.5282C14.3412 29.1059 13.8139 28.2634 13.8139 27.3137V22.0401C13.8139 21.1954 14.2362 20.3529 15.0786 19.8256L19.6127 17.1887C20.3501 16.7664 21.2998 16.7664 22.1445 17.1887L26.6785 19.9306C27.4159 20.3529 27.9433 21.1954 27.9433 22.1451V25.6244L31.9499 23.3049V19.7183C31.9499 18.8736 31.5276 18.0312 30.6851 17.5038L22.2473 12.5475C21.5098 12.1251 20.5601 12.1251 19.7154 12.5475L11.0675 17.6088C10.2228 18.0312 9.80273 18.8736 9.80273 19.7183V29.6333C9.80273 30.4779 10.2251 31.3204 11.0675 31.8478L19.6104 36.8041C20.3478 37.2264 21.2976 37.2264 22.1422 36.8041L27.9433 33.4299L31.9499 31.1103L37.751 27.7361C38.4884 27.3137 39.4381 27.3137 40.2828 27.7361L44.8168 30.3729C45.5542 30.7953 46.0816 31.6377 46.0816 32.5874V37.8611C46.0816 38.7058 45.6592 39.5482 44.8168 40.0756L40.3878 42.7124C39.6504 43.1348 38.7007 43.1348 37.856 42.7124L33.322 40.0756C32.5845 39.6532 32.0572 38.8108 32.0572 37.8611V34.4868L28.0505 36.8063V40.2879C28.0505 41.1326 28.4729 41.975 29.3153 42.5024L37.8582 47.4587C38.5956 47.8811 39.5453 47.8811 40.39 47.4587L48.9329 42.5024C49.6703 42.08 50.1977 41.2376 50.1977 40.2879V30.2679C50.1977 29.4232 49.7754 28.5808 48.9329 28.0534L40.39 23.097V23.0926Z" fill="white"/>
</svg>
