<svg  width="60" height="60" viewBox="0 0 60 60" fill="none" xmlns="http://www.w3.org/2000/svg">
<path d="M53.6189 6.3158L32.8809 21.6605L36.7373 12.6174L53.6189 6.3158Z" fill="#E17726" stroke="#E17726" stroke-width="0.25" stroke-linecap="round" stroke-linejoin="round"/>
<path d="M5.7832 6.3158L26.3366 21.8037L22.6649 12.6173L5.7832 6.3158Z" fill="#E27625" stroke="#E27625" stroke-width="0.25" stroke-linecap="round" stroke-linejoin="round"/>
<path d="M46.1506 41.8948L40.6328 50.3242L52.4479 53.5773L55.8325 42.0791L46.1506 41.8948Z" fill="#E27625" stroke="#E27625" stroke-width="0.25" stroke-linecap="round" stroke-linejoin="round"/>
<path d="M3.58984 42.0791L6.95385 53.5773L18.7485 50.3242L13.2512 41.8948L3.58984 42.0791Z" fill="#E27625" stroke="#E27625" stroke-width="0.25" stroke-linecap="round" stroke-linejoin="round"/>
<path d="M18.112 27.6551L14.8301 32.6064L26.5221 33.1384L26.1324 20.5557L18.112 27.6551Z" fill="#E27625" stroke="#E27625" stroke-width="0.25" stroke-linecap="round" stroke-linejoin="round"/>
<path d="M41.2908 27.6553L33.1475 20.4126L32.8809 33.1385L44.5728 32.6065L41.2908 27.6553Z" fill="#E27625" stroke="#E27625" stroke-width="0.25" stroke-linecap="round" stroke-linejoin="round"/>
<path d="M18.7461 50.3242L25.8228 46.9075L19.7307 42.1609L18.7461 50.3242Z" fill="#E27625" stroke="#E27625" stroke-width="0.25" stroke-linecap="round" stroke-linejoin="round"/>
<path d="M33.5781 46.9075L40.6343 50.3242L39.6702 42.1609L33.5781 46.9075Z" fill="#E27625" stroke="#E27625" stroke-width="0.25" stroke-linecap="round" stroke-linejoin="round"/>
<path d="M40.6343 50.3245L33.5781 46.9078L34.1524 51.4907L34.0908 53.4344L40.6343 50.3245Z" fill="#D5BFB2" stroke="#D5BFB2" stroke-width="0.25" stroke-linecap="round" stroke-linejoin="round"/>
<path d="M18.7461 50.3245L25.3101 53.4344L25.269 51.4907L25.8228 46.9078L18.7461 50.3245Z" fill="#D5BFB2" stroke="#D5BFB2" stroke-width="0.25" stroke-linecap="round" stroke-linejoin="round"/>
<path d="M25.433 39.1329L19.5664 37.4144L23.7099 35.5116L25.433 39.1329Z" fill="#233447" stroke="#233447" stroke-width="0.25" stroke-linecap="round" stroke-linejoin="round"/>
<path d="M33.9688 39.1329L35.6919 35.5116L39.8559 37.4144L33.9688 39.1329Z" fill="#233447" stroke="#233447" stroke-width="0.25" stroke-linecap="round" stroke-linejoin="round"/>
<path d="M18.7453 50.3242L19.771 41.8948L13.248 42.0791L18.7453 50.3242Z" fill="#CC6228" stroke="#CC6228" stroke-width="0.25" stroke-linecap="round" stroke-linejoin="round"/>
<path d="M39.627 41.8948L40.6321 50.3242L46.1499 42.0791L39.627 41.8948Z" fill="#CC6228" stroke="#CC6228" stroke-width="0.25" stroke-linecap="round" stroke-linejoin="round"/>
<path d="M44.5728 32.6062L32.8809 33.1381L33.968 39.1329L35.6911 35.5115L39.8551 37.4143L44.5728 32.6062Z" fill="#CC6228" stroke="#CC6228" stroke-width="0.25" stroke-linecap="round" stroke-linejoin="round"/>
<path d="M19.5684 37.4143L23.7119 35.5115L25.435 39.1329L26.5221 33.1381L14.8301 32.6062L19.5684 37.4143Z" fill="#CC6228" stroke="#CC6228" stroke-width="0.25" stroke-linecap="round" stroke-linejoin="round"/>
<path d="M14.8301 32.6062L19.7326 42.1609L19.5684 37.4143L14.8301 32.6062Z" fill="#E27525" stroke="#E27525" stroke-width="0.25" stroke-linecap="round" stroke-linejoin="round"/>
<path d="M39.8565 37.4143L39.6719 42.1609L44.5743 32.6062L39.8565 37.4143Z" fill="#E27525" stroke="#E27525" stroke-width="0.25" stroke-linecap="round" stroke-linejoin="round"/>
<path d="M26.5228 33.1381L25.4355 39.1329L26.8099 46.2118L27.1176 36.8823L26.5228 33.1381Z" fill="#E27525" stroke="#E27525" stroke-width="0.25" stroke-linecap="round" stroke-linejoin="round"/>
<path d="M32.8811 33.1381L32.3066 36.8619L32.5939 46.2118L33.9682 39.1329L32.8811 33.1381Z" fill="#E27525" stroke="#E27525" stroke-width="0.25" stroke-linecap="round" stroke-linejoin="round"/>
<path d="M33.9681 39.1331L32.5938 46.212L33.5784 46.9077L39.6706 42.1611L39.8552 37.4144L33.9681 39.1331Z" fill="#F5841F" stroke="#F5841F" stroke-width="0.25" stroke-linecap="round" stroke-linejoin="round"/>
<path d="M19.5664 37.4144L19.7306 42.1611L25.8227 46.9077L26.8073 46.212L25.433 39.1331L19.5664 37.4144Z" fill="#F5841F" stroke="#F5841F" stroke-width="0.25" stroke-linecap="round" stroke-linejoin="round"/>
<path d="M34.0894 53.4342L34.1508 51.4906L33.6176 51.0404H25.7819L25.269 51.4906L25.3101 53.4342L18.7461 50.3243L21.0435 52.2066L25.6998 55.4188H33.679L38.3558 52.2066L40.6327 50.3243L34.0894 53.4342Z" fill="#C0AC9D" stroke="#C0AC9D" stroke-width="0.25" stroke-linecap="round" stroke-linejoin="round"/>
<path d="M33.577 46.9076L32.5924 46.212H26.8079L25.8234 46.9076L25.2695 51.4906L25.7824 51.0405H33.6181L34.1514 51.4906L33.577 46.9076Z" fill="#161616" stroke="#161616" stroke-width="0.25" stroke-linecap="round" stroke-linejoin="round"/>
<path d="M54.5006 22.663L56.2442 14.1927L53.6186 6.3158L33.5781 21.1491L41.2907 27.6551L52.1827 30.8264L54.5827 28.0235L53.5367 27.2664L55.198 25.7525L53.9263 24.7704L55.5879 23.5018L54.5006 22.663Z" fill="#763E1A" stroke="#763E1A" stroke-width="0.25" stroke-linecap="round" stroke-linejoin="round"/>
<path d="M3.1582 14.1927L4.92227 22.663L3.79409 23.5018L5.4761 24.7704L4.20433 25.7525L5.86583 27.2664L4.8197 28.0235L7.21965 30.8264L18.1118 27.6551L25.8243 21.1491L5.78379 6.3158L3.1582 14.1927Z" fill="#763E1A" stroke="#763E1A" stroke-width="0.25" stroke-linecap="round" stroke-linejoin="round"/>
<path d="M52.1844 30.8262L41.2923 27.6551L44.5743 32.6064L39.6719 42.1609L46.1538 42.0791H55.8356L52.1844 30.8262Z" fill="#F5841F" stroke="#F5841F" stroke-width="0.25" stroke-linecap="round" stroke-linejoin="round"/>
<path d="M18.1125 27.6551L7.22052 30.8262L3.58984 42.0791H13.2512L19.733 42.1609L14.8306 32.6064L18.1125 27.6551Z" fill="#F5841F" stroke="#F5841F" stroke-width="0.25" stroke-linecap="round" stroke-linejoin="round"/>
<path d="M32.8812 33.1383L33.5786 21.1489L36.7374 12.6173H22.666L25.8249 21.1489L26.5223 33.1383L26.789 36.9028L26.8095 46.212H32.594L32.6145 36.9028L32.8812 33.1383Z" fill="#F5841F" stroke="#F5841F" stroke-width="0.25" stroke-linecap="round" stroke-linejoin="round"/>
</svg>
