<svg width="32" height="32" viewBox="0 0 32 32" fill="none" xmlns="http://www.w3.org/2000/svg">
<path d="M23.1292 11.3418C22.6126 11.0369 21.941 11.0369 21.3726 11.3418L17.3432 13.679L14.6052 15.2032L10.5756 17.5404C10.059 17.8452 9.38746 17.8452 8.81918 17.5404L5.61624 15.7113C5.09964 15.4064 4.738 14.8476 4.738 14.2379V10.6305C4.738 10.0208 5.04798 9.46188 5.61624 9.15704L8.76752 7.37874C9.28414 7.0739 9.95572 7.0739 10.524 7.37874L13.6753 9.15704C14.1919 9.46188 14.5535 10.0208 14.5535 10.6305V12.9677L17.2915 11.3926V9.05542C17.2915 8.44572 16.9815 7.88683 16.4133 7.58199L10.5756 4.22864C10.059 3.92379 9.38746 3.92379 8.81918 4.22864L2.87822 7.58199C2.30996 7.88683 2 8.44572 2 9.05542V15.8129C2 16.4226 2.30996 16.9815 2.87822 17.2864L8.81918 20.6396C9.3358 20.9446 10.0074 20.9446 10.5756 20.6396L14.6052 18.3533L17.3432 16.7783L21.3726 14.4919C21.8892 14.187 22.5608 14.187 23.1292 14.4919L26.2804 16.2702C26.797 16.575 27.1586 17.1339 27.1586 17.7436V21.351C27.1586 21.9608 26.8488 22.5196 26.2804 22.8244L23.1292 24.6536C22.6126 24.9584 21.941 24.9584 21.3726 24.6536L18.2214 22.8752C17.7048 22.5704 17.3432 22.0116 17.3432 21.4018V19.0646L14.6052 20.6396V22.9768C14.6052 23.5866 14.9151 24.1454 15.4834 24.4504L21.4244 27.8036C21.941 28.1086 22.6126 28.1086 23.1808 27.8036L29.1218 24.4504C29.6384 24.1454 30 23.5866 30 22.9768V16.2194C30 15.6097 29.69 15.0508 29.1218 14.7459L23.1292 11.3418Z" fill="#8247E5"/>
</svg>
