<svg xmlns="http://www.w3.org/2000/svg" width="16" height="16" viewBox="0 0 16 16">
    <path data-name="Rectangle 23926" style="fill:none" d="M0 0h16v16H0z"/>
    <path data-name="Subtraction 28" d="M7 14A7 7 0 0 1 7 0h.014A7 7 0 0 1 7 14zM5.865 6.1l.744.064a9.284 9.284 0 0 0-.2.553c-.047.139-.1.289-.156.451l-.051.143-.121.348c-.1.328-.225.67-.334.973l-.047.151c-.148.424-.27.779-.371 1.088-.029.1-.062.193-.088.281l-.029.078-.047.146c-.041.127-.08.242-.109.348a2.024 2.024 0 0 0-.113.391c0 .061.041.125.135.2a1.8 1.8 0 0 0 .328.2 3.513 3.513 0 0 0 .383.148 1.141 1.141 0 0 0 .314.068.971.971 0 0 0 .412-.137 2.733 2.733 0 0 0 .5-.379 5.335 5.335 0 0 0 .512-.594 5.816 5.816 0 0 0 .48-.82l-.127-.113-.98 1.246-.691-.1c.051-.156.109-.328.182-.521l.328-.885c.037-.117.08-.234.121-.355.035-.088.068-.174.1-.264s.068-.193.105-.293l.055-.139c.066-.193.135-.383.2-.564.025-.078.051-.154.08-.23l.076-.225c.066-.211.131-.4.186-.568l.041-.129.037-.121a1.914 1.914 0 0 0 .1-.428.42.42 0 0 0-.113-.291 1.387 1.387 0 0 0-.281-.266 1.345 1.345 0 0 0-.354-.2.964.964 0 0 0-.328-.08 1.4 1.4 0 0 0-.977.559A5.9 5.9 0 0 0 4.8 7.313l.15.117.918-1.324zm2.043-3.7a.736.736 0 0 0-.541.291 1.077 1.077 0 0 0-.232.732.82.82 0 0 0 .211.555.713.713 0 0 0 .521.234h.051a.694.694 0 0 0 .559-.291 1.265 1.265 0 0 0 .252-.73.839.839 0 0 0-.209-.559.791.791 0 0 0-.561-.232z" transform="translate(1.002 1.002)" style="fill:#c7cad9"/>
</svg>
