<svg data-name="Group 34492" xmlns="http://www.w3.org/2000/svg" width="16" height="16" viewBox="0 0 16 16">
    <path data-name="Path 15750" d="m16.937 24.758-1.684-1.642a.884.884 0 0 1-.084-1.137.8.8 0 0 1 1.263-.084l1.095 1.095 3.621-3.621a.842.842 0 0 1 1.179 1.179l-4.211 4.211a.8.8 0 0 1-1.179 0z" transform="translate(-10.79 -14.063)" style="fill:#448aff"/>
    <path data-name="Path 15751" d="M13 9.684A6.316 6.316 0 1 1 6.684 16 6.316 6.316 0 0 1 13 9.684M13 8a8 8 0 1 0 8 8 8 8 0 0 0-8-8z" transform="translate(-5 -8)" style="fill:#448aff"/>
</svg>
