<svg xmlns="http://www.w3.org/2000/svg" width="16" height="16" viewBox="0 0 16 16">
    <path data-name="Rectangle 23926" style="fill:none" d="M0 0h16v16H0z"/>
    <g data-name="Group 30978">
        <path data-name="Path 16981" d="m25.921 27.17-6.188-10.726a.825.825 0 0 0-1.4 0l-6.19 10.726a.825.825 0 0 0 .7 1.238H25.22a.825.825 0 0 0 .7-1.238zm-6.889-.413a.825.825 0 1 1 .825-.825.825.825 0 0 1-.825.825zm.825-3.3a.825.825 0 1 1-1.65 0v-3.3a.825.825 0 0 1 1.65 0z" style="fill:#eb932f" transform="translate(-11.032 -15)"/>
    </g>
</svg>
