<svg xmlns="http://www.w3.org/2000/svg" width="32" height="32" viewBox="0 0 32 32">
    <defs>
        <clipPath id="qpo8nqv41a">
            <path data-name="Rectangle 24255" style="fill:#fff" d="M0 0h31.999v23.272H0z"/>
        </clipPath>
    </defs>
    <g data-name="Group 35021">
        <g data-name="Layer 2">
            <g data-name="invisible box">
                <path data-name="Rectangle 24211" style="fill:none" d="M0 0h32v32H0z"/>
            </g>
            <g data-name="Group 35019">
                <g data-name="Group 35018" transform="translate(0 4.364)" style="clip-path:url(#qpo8nqv41a)">
                    <path data-name="Path 16931" d="M30.545 0H1.454A1.454 1.454 0 0 0 0 1.454v20.364a1.454 1.454 0 0 0 1.454 1.454h29.091A1.454 1.454 0 0 0 32 21.818V1.454A1.454 1.454 0 0 0 30.545 0m-1.454 10.181v10.183H2.909V2.909h26.182v7.272z" style="fill:#fff"/>
                </g>
            </g>
        </g>
        <path data-name="Path 16932" d="M-16.556-2.326h1.856c.889 0 1.325-.391 1.325-1.017 0-.481-.341-.811-.934-.917a.766.766 0 0 0 .671-.794c0-.593-.358-.984-1.2-.984h-1.716l.089.52v2.672zm.66-2.1v-1.209h.911c.559 0 .783.24.783.62s-.3.587-.855.587zm0 1.7v-1.31h1.012c.548 0 .889.24.889.648s-.246.66-.8.66zm5.3.509a1.78 1.78 0 0 0 1.861-1.97A1.769 1.769 0 0 0-10.6-6.138a1.769 1.769 0 0 0-1.861 1.951A1.794 1.794 0 0 0-10.6-2.219zm-.006-.436c-.738 0-1.252-.525-1.252-1.532s.52-1.52 1.263-1.52 1.258.514 1.258 1.52-.526 1.53-1.267 1.53zm5.652-3.382.084.52v2.7l-1.94-3.22h-.9l.089.52v2.672l-.089.52h.665l-.084-.52v-2.719l1.951 3.237h.8v-3.193l.089-.52zm1.789 3.712h1.437C-.4-2.326.243-2.918.243-4.187s-.643-1.85-1.968-1.85h-1.437l.089.52v2.672zm.66-.414v-2.887h.8c.906 0 1.342.414 1.342 1.437S-.8-2.739-1.7-2.739zm5.115.514c.956 0 1.481-.419 1.481-1.057 0-.6-.4-.917-1.353-1.174-.771-.207-.967-.4-.967-.738s.341-.548.878-.548a2.53 2.53 0 0 1 .732.112l.587.313-.1-.615a4.087 4.087 0 0 0-1.269-.2c-.922 0-1.42.4-1.42.989S1.551-4.249 2.5-4c.766.212 1.006.4 1.006.771s-.3.6-.922.6a2.66 2.66 0 0 1-.822-.134l-.6-.335.1.637a4.641 4.641 0 0 0 1.351.236z" transform="translate(22.246 20.179)" style="fill:#fff"/>
        <path data-name="Path 16932 - Outline" d="M-10.709-2.159a1.97 1.97 0 0 1-1.453-.568 2.173 2.173 0 0 1-.564-1.555 2.158 2.158 0 0 1 .553-1.545 1.982 1.982 0 0 1 1.463-.561 1.982 1.982 0 0 1 1.463.561 2.158 2.158 0 0 1 .553 1.545 2.186 2.186 0 0 1-.553 1.555 1.972 1.972 0 0 1-1.462.568zm0-3.919a1.68 1.68 0 0 0-1.241.467 1.857 1.857 0 0 0-.465 1.328 1.871 1.871 0 0 0 .476 1.339 1.667 1.667 0 0 0 1.23.474 1.67 1.67 0 0 0 1.24-.473A1.884 1.884 0 0 0-9-4.282a1.857 1.857 0 0 0-.468-1.328 1.68 1.68 0 0 0-1.241-.467zM2.5-2.164a4.674 4.674 0 0 1-1.346-.22L1-2.427l-.162-1.05.869.483a2.487 2.487 0 0 0 .76.122c.35 0 .767-.078.767-.448 0-.219-.064-.392-.892-.622C1.489-4.169.92-4.477.92-5.238c0-.706.6-1.145 1.575-1.145a4.231 4.231 0 0 1 1.315.208l.093.029.157 1.018-.847-.452a2.36 2.36 0 0 0-.673-.1c-.439 0-.722.154-.722.393 0 .2.063.376.852.588a2.8 2.8 0 0 1 1.1.491 1.033 1.033 0 0 1 .372.833c-.005.746-.632 1.211-1.642 1.211zm-1.22-.507a4.263 4.263 0 0 0 1.221.2c.83 0 1.325-.337 1.325-.9 0-.427-.207-.747-1.238-1.024-.685-.184-1.082-.388-1.082-.888 0-.427.405-.7 1.033-.7a2.672 2.672 0 0 1 .776.118h.015l.327.174-.033-.211a3.869 3.869 0 0 0-1.13-.167c-.792 0-1.265.312-1.265.834 0 .43.2.73 1.193 1 .728.2 1.122.408 1.122.921 0 .228-.105.759-1.078.759A2.8 2.8 0 0 1 1.6-2.7h-.014l-.342-.2zm-3.118.405h-1.62l.118-.688V-5.6l-.118-.688h1.621A2.235 2.235 0 0 1-.251-5.8a1.957 1.957 0 0 1 .537 1.518 1.973 1.973 0 0 1-.536 1.52 2.222 2.222 0 0 1-1.587.497zm-1.252-.31h1.252c1.253 0 1.812-.526 1.812-1.706s-.559-1.7-1.812-1.7H-3.09l.06.351v2.7zm-1.242.311h-1.042L-7.082-5.1v2.146l.111.688H-8l.118-.688V-5.6L-8-6.287h1.172l1.7 2.816V-5.6l-.111-.688h1.032l-.118.688zm-.492-.311h.181v-3.05l.06-.351h-.3l.057.352zm-.375 0h.241l-2.049-3.4h-.242zm-2.436 0h.3l-.057-.352v-3.049h-.242l.06.351v2.7zm-7.177.311h-2.04l.118-.688V-5.6l-.118-.688h1.9c1.181 0 1.357.714 1.357 1.139a.878.878 0 0 1-.377.767 1 1 0 0 1 .639.943c.001.354-.143 1.174-1.479 1.174zm-1.672-.311h1.672c.534 0 1.17-.15 1.17-.862 0-.539-.5-.71-.806-.764l-.01-.3a.616.616 0 0 0 .553-.643c0-.558-.342-.829-1.047-.829h-1.532l.06.351v2.7zm5.769-.019c-.868 0-1.407-.646-1.407-1.687s.544-1.676 1.419-1.676 1.413.642 1.413 1.676-.546 1.687-1.424 1.687zm.011-3.052c-.7 0-1.108.5-1.108 1.365s.4 1.376 1.1 1.376S-9.6-3.42-9.6-4.282s-.4-1.365-1.1-1.365zm-4.2 2.979h-1.257v-1.618H-15c.644 0 1.044.308 1.044.8.004.521-.344.818-.951.818zm-.946-.311h.946c.577 0 .644-.288.644-.5 0-.445-.513-.493-.734-.493h-.857zm14.038.3h-.958v-3.195h.96c1.021 0 1.5.506 1.5 1.592S-.8-2.679-1.815-2.679zm-.644-.311h.644c.847 0 1.192-.374 1.192-1.293s-.347-1.28-1.19-1.28h-.65zM-15.17-4.367h-.994v-1.518h1.064c.816 0 .938.486.938.776.003.223-.096.742-1.008.742zm-.683-.311h.683c.464 0 .7-.145.7-.432 0-.217-.071-.465-.627-.465h-.756z" transform="translate(22.357 20.273)" style="fill:#fff"/>
    </g>
</svg>
