<svg xmlns="http://www.w3.org/2000/svg" width="40" height="30.156" viewBox="0 0 40 30.156">
    <g data-name="Group 34998" transform="translate(-204 -698.891)">
        <path data-name="Polygon 1" d="m5.714 0 5.714 8.571H0z" transform="translate(218.286 720.476)" style="fill:#f6f6f9"/>
        <rect data-name="Rectangle 24136" width="40" height="2.857" rx="1" transform="translate(204 714.761)" style="opacity:.5;fill:#f6f6f9"/>
        <path data-name="Path 16895" d="M-8.369-7.953V3.475h-2.07v-9.414h-.067l-2.674 1.708v-1.9l2.84-1.825zm7.131 11.646a3.972 3.972 0 0 1-2.363-.7A4.4 4.4 0 0 1-5.113.967a8.644 8.644 0 0 1-.527-3.195 8.626 8.626 0 0 1 .533-3.184A4.349 4.349 0 0 1-3.6-7.417a4 4 0 0 1 2.358-.692 4.009 4.009 0 0 1 2.36.692 4.341 4.341 0 0 1 1.52 2.009 8.56 8.56 0 0 1 .527 3.181 8.662 8.662 0 0 1-.527 3.2A4.381 4.381 0 0 1 1.126 3a3.983 3.983 0 0 1-2.364.693zm0-1.747A1.9 1.9 0 0 0 .456.889a6.253 6.253 0 0 0 .622-3.117 7.891 7.891 0 0 0-.284-2.288 3.056 3.056 0 0 0-.8-1.4 1.765 1.765 0 0 0-1.228-.472 1.885 1.885 0 0 0-1.689 1.06 6.269 6.269 0 0 0-.625 3.1 7.934 7.934 0 0 0 .276 2.3 3.039 3.039 0 0 0 .8 1.4 1.772 1.772 0 0 0 1.234.474zm10.48 1.747a3.972 3.972 0 0 1-2.363-.7A4.4 4.4 0 0 1 5.367.967a8.644 8.644 0 0 1-.527-3.195 8.626 8.626 0 0 1 .533-3.184 4.349 4.349 0 0 1 1.511-2.005 4 4 0 0 1 2.358-.692 4.009 4.009 0 0 1 2.36.692 4.341 4.341 0 0 1 1.515 2.009 8.56 8.56 0 0 1 .527 3.181 8.662 8.662 0 0 1-.527 3.2A4.381 4.381 0 0 1 11.605 3a3.983 3.983 0 0 1-2.363.693zm0-1.747A1.9 1.9 0 0 0 10.936.889a6.253 6.253 0 0 0 .622-3.117 7.891 7.891 0 0 0-.285-2.288 3.056 3.056 0 0 0-.8-1.4 1.765 1.765 0 0 0-1.228-.472 1.885 1.885 0 0 0-1.688 1.06 6.269 6.269 0 0 0-.625 3.1 7.934 7.934 0 0 0 .276 2.3 3.039 3.039 0 0 0 .8 1.4 1.772 1.772 0 0 0 1.234.474zm8.1-9.9 2.517 4.185h.089l2.528-4.185h2.36l-3.523 5.715 3.577 5.714h-2.4L19.945-.682h-.089l-2.545 4.157h-2.388l3.61-5.714-3.565-5.714z" transform="translate(218.352 707)" style="fill:#f6f6f9"/>
    </g>
</svg>
