<svg xmlns="http://www.w3.org/2000/svg" width="16" height="16" viewBox="0 0 16 16">
    <path data-name="Path 15862" d="M8 16a8 8 0 1 0-8-8 8 8 0 0 0 8 8z" style="fill:#627eea"/>
    <path data-name="Path 15863" d="M12 3v4.435l3.749 1.675z" transform="translate(-4 -1)" style="fill:rgba(255,255,255,.6)"/>
    <path data-name="Path 15864" d="M10.5 3 6.75 9.11l3.75-1.675z" transform="translate(-2.25 -1)" style="fill:#fff"/>
    <path data-name="Path 15865" d="M12 15.676v3.014l3.751-5.19z" transform="translate(-4 -4.5)" style="fill:rgba(255,255,255,.6)"/>
    <path data-name="Path 15866" d="M10.5 18.69v-3.014L6.75 13.5z" transform="translate(-2.25 -4.5)" style="fill:#fff"/>
    <path data-name="Path 15867" d="m12 13.6 3.748-2.177L12 9.75z" transform="translate(-4 -3.25)" style="fill:rgba(255,255,255,.2)"/>
    <path data-name="Path 15868" d="M6.75 11.424 10.5 13.6V9.75z" transform="translate(-2.25 -3.25)" style="fill:rgba(255,255,255,.6)"/>
</svg>
