<svg xmlns="http://www.w3.org/2000/svg" width="159.431" height="40" viewBox="0 0 159.431 40">
    <path data-name="Path 20243" d="M32.74 4.054h3.554v18.457H32.74zm17.816 7.287a4.959 4.959 0 0 1 4.349-2.267h.01a4.334 4.334 0 0 1 3.563 1.389 5.85 5.85 0 0 1 1.122 3.743v8.3h-3.427v-7.9c0-1.751-.632-2.638-2.035-2.638h-.207a2.98 2.98 0 0 0-2.821 3.217v7.326h-3.423v-7.9c0-1.751-.656-2.638-2.059-2.638h-.207a2.99 2.99 0 0 0-2.83 3.217v7.326h-3.423V9.33h3.423v1.87a4.5 4.5 0 0 1 3.939-2.126 4.162 4.162 0 0 1 4.026 2.267zm27.113-2.267a4.959 4.959 0 0 0-4.349 2.267 4.158 4.158 0 0 0-4.026-2.267 4.5 4.5 0 0 0-3.94 2.126V9.33h-3.423v13.181h3.423v-7.326a2.99 2.99 0 0 1 2.83-3.217h.207c1.4 0 2.059.887 2.059 2.638v7.9h3.423v-7.321a2.98 2.98 0 0 1 2.821-3.217h.206c1.4 0 2.035.887 2.035 2.638v7.9h3.425v-8.3a5.849 5.849 0 0 0-1.119-3.747 4.334 4.334 0 0 0-3.562-1.389zM103.6 12.1v6.062c0 1.21.246 1.456 1.456 1.456h1.89v2.9H103.6a3.071 3.071 0 0 1-3.423-3.424V12.1H96.29v10.416h-3.423v-1.929a4.427 4.427 0 0 1-3.848 2.189 4.015 4.015 0 0 1-3.332-1.365 5.515 5.515 0 0 1-1.119-3.641V9.34h3.423v8.044c0 1.7.709 2.624 1.958 2.624h.207c1.49 0 2.715-1.5 2.715-3.347V9.335h7.31V5.062h3.419v4.273h2.946V12.1zm15.56 1.707c0-3.038-2.213-4.736-5.535-4.736s-5.391 1.842-5.675 4.34h3.438a1.973 1.973 0 0 1 2.121-1.572h.217a2.033 2.033 0 0 1 2.112 2.1v.323l-3.322.294a6.215 6.215 0 0 0-3.476 1.249 3.723 3.723 0 0 0-1.35 3.091c-.039 2.315 1.958 3.9 4.325 3.873a4.681 4.681 0 0 0 3.9-1.866 10.343 10.343 0 0 0 .154 1.611h3.217a22.147 22.147 0 0 1-.13-2.9V13.81zm-3.322 3.323a2.9 2.9 0 0 1-2.932 2.87h-.206c-.939 0-1.634-.526-1.634-1.341a1.311 1.311 0 0 1 .579-1.148 2.643 2.643 0 0 1 1.34-.463l2.859-.294v.371zm9.117-6.091a4.542 4.542 0 0 1 3.8-1.968c3.693-.063 5.892 3.246 5.853 6.848.039 3.6-2.16 6.911-5.853 6.848a4.548 4.548 0 0 1-3.8-1.968v1.712h-3.423V4.054h3.423zM127.969 20h.206c1.712 0 3.014-1.63 3.014-4.1s-1.288-4.056-3.014-4.056h-.206c-1.573-.039-3.039 1.659-3.014 4.08-.025 2.415 1.445 4.113 3.014 4.076zm11.774-15.946h-3.423v18.457h3.423zm1.75 11.869c-.038-3.94 2.407-6.9 6.268-6.848 3.848-.039 6.047 2.845 6.008 6.694 0 .256-.014.67-.053 1.235h-8.906a3.148 3.148 0 0 0 2.975 3h.217a2.236 2.236 0 0 0 2.314-1.659h3.4a5.711 5.711 0 0 1-5.96 4.427c-3.307.053-6.331-2.638-6.268-6.848zm6.042-4.08a2.6 2.6 0 0 0-2.715 2.522h5.636a2.6 2.6 0 0 0-2.714-2.522z" transform="translate(5.656 .7)" style="fill-rule:evenodd;fill:#f3f3f3"/>
    <path data-name="Path 20244" d="M37.029 26.2v9.17h-1.568V26.2zm2.879 0v1.26h-7.3V26.2zm13.624 4.334v.5a5.966 5.966 0 0 1-.271 1.864 4.023 4.023 0 0 1-.775 1.4 3.331 3.331 0 0 1-1.2.888 4.106 4.106 0 0 1-3.093 0 3.466 3.466 0 0 1-1.2-.888 4.124 4.124 0 0 1-.794-1.4 5.837 5.837 0 0 1-.277-1.864v-.5a5.78 5.78 0 0 1 .277-1.858 4.1 4.1 0 0 1 .781-1.4 3.365 3.365 0 0 1 1.2-.888 4.029 4.029 0 0 1 3.093 0 3.294 3.294 0 0 1 1.2.888 4.023 4.023 0 0 1 .775 1.4 5.783 5.783 0 0 1 .284 1.856zm-1.581.5v-.516a5.449 5.449 0 0 0-.151-1.354 2.782 2.782 0 0 0-.435-.989 1.818 1.818 0 0 0-.7-.6 2.07 2.07 0 0 0-.939-.208 2.03 2.03 0 0 0-.932.208 1.879 1.879 0 0 0-.7.6 2.935 2.935 0 0 0-.435.989 5.443 5.443 0 0 0-.151 1.354v.516a5.519 5.519 0 0 0 .151 1.361 3 3 0 0 0 .441 1 1.99 1.99 0 0 0 .706.611 2.271 2.271 0 0 0 1.871 0 1.883 1.883 0 0 0 .693-.611 2.993 2.993 0 0 0 .428-1 5.525 5.525 0 0 0 .151-1.361zm15.753-.5v.5a5.963 5.963 0 0 1-.271 1.864 4.021 4.021 0 0 1-.775 1.4 3.331 3.331 0 0 1-1.2.888 4.106 4.106 0 0 1-3.093 0 3.465 3.465 0 0 1-1.2-.888 4.127 4.127 0 0 1-.794-1.4 5.84 5.84 0 0 1-.277-1.864v-.5a5.783 5.783 0 0 1 .277-1.858 4.1 4.1 0 0 1 .781-1.4 3.365 3.365 0 0 1 1.2-.888 4.03 4.03 0 0 1 3.093 0 3.294 3.294 0 0 1 1.2.888 4.023 4.023 0 0 1 .775 1.4 5.783 5.783 0 0 1 .28 1.856zm-1.581.5v-.516a5.449 5.449 0 0 0-.151-1.354 2.78 2.78 0 0 0-.435-.989 1.817 1.817 0 0 0-.7-.6 2.07 2.07 0 0 0-.939-.208 2.031 2.031 0 0 0-.932.208 1.881 1.881 0 0 0-.7.6 2.94 2.94 0 0 0-.435.989 5.449 5.449 0 0 0-.151 1.354v.516a5.525 5.525 0 0 0 .151 1.361 3.006 3.006 0 0 0 .441 1 1.989 1.989 0 0 0 .706.611 2.271 2.271 0 0 0 1.871 0 1.884 1.884 0 0 0 .693-.611 2.993 2.993 0 0 0 .428-1 5.525 5.525 0 0 0 .151-1.361zm14.184 3.08v1.256H75.7v-1.254zM76.143 26.2v9.17h-1.581V26.2zm12.244 0v9.17h-1.581V26.2zm5.512 0-3.716 4.416-2.117 2.242-.277-1.568 1.511-1.867 2.671-3.223zM92.2 35.37l-3.017-4.346 1.09-1.077 3.8 5.423zm9.725-9.171v9.171h-1.581V26.2zm10.827 0v9.171h-1.568V26.2zm2.879 0v1.26h-7.3V26.2z" transform="translate(5.633 4.504)" style="fill:#fff"/>
    <path data-name="Path 20245" d="M14.66 0a14.66 14.66 0 1 0 14.66 14.66A14.66 14.66 0 0 0 14.66 0zm-.567 5.6a1.273 1.273 0 0 1 1.231.038Q17.377 6.807 19.415 8a1.3 1.3 0 0 1 .663 1.174q.012 2.658 0 5.315a.257.257 0 0 1-.1.193c-.526.314-1.059.616-1.637.949v-.279c0-1.823-.006-3.644 0-5.466a.767.767 0 0 0-.429-.751c-1.589-.9-3.17-1.823-4.753-2.737-.068-.04-.135-.082-.239-.145.407-.231.773-.463 1.161-.653zM13.8 23.727c-.089-.045-.154-.076-.219-.113-2.1-1.209-4.192-2.426-6.3-3.626a1.56 1.56 0 0 1-.846-1.488 308.17 308.17 0 0 0 0-4.3 1.52 1.52 0 0 1 .828-1.437q2.215-1.26 4.414-2.547a.3.3 0 0 1 .352-.007c.507.3 1.023.6 1.563.907l-.26.154q-2.385 1.377-4.772 2.752a.67.67 0 0 0-.38.646q.012 1.693 0 3.386a.687.687 0 0 0 .389.663c1.682.962 3.357 1.935 5.037 2.9a.333.333 0 0 1 .2.336c-.012.578 0 1.157 0 1.775zm0-3.232a24.509 24.509 0 0 0-.357-.2c-1.333-.769-2.666-1.541-4-2.3a.333.333 0 0 1-.2-.339c.01-.868.005-1.735 0-2.6a.253.253 0 0 1 .134-.264c.492-.275.978-.562 1.466-.842.036-.021.074-.036.138-.067v.974c0 .527.008 1.056 0 1.583a.664.664 0 0 0 .372.652c.756.426 1.5.869 2.257 1.294a.328.328 0 0 1 .191.34c-.01.577 0 1.154 0 1.777zM12.262 9.107a.717.717 0 0 0-.807 0c-1.585.926-3.176 1.84-4.767 2.758-.067.04-.137.075-.255.139a6 6 0 0 1 .119-1.726 1.321 1.321 0 0 1 .6-.69l3.981-2.3A1.384 1.384 0 0 1 12.6 7.3q2.265 1.3 4.524 2.615c.064.037.145.12.145.183.011.62.007 1.242.007 1.907l-1.559-.9c-1.154-.664-2.309-1.323-3.455-1.998zm10.609 9.753a1.347 1.347 0 0 1-.747 1.077q-2.424 1.394-4.846 2.8l-1.522.877c-.061.036-.124.066-.208.109-.005-.085-.012-.146-.012-.208V21.91a.255.255 0 0 1 .141-.26q3.533-2.033 7.062-4.073c.036-.021.075-.037.142-.068 0 .475.027.918-.007 1.355zm.012-3.372a1.372 1.372 0 0 1-.777 1.217q-2.762 1.588-5.522 3.186l-1.034.594c-.006-.091-.012-.152-.012-.213 0-.527.006-1.056 0-1.583a.3.3 0 0 1 .178-.3c1.674-.96 3.342-1.932 5.018-2.887a.743.743 0 0 0 .426-.728c-.012-1.823-.005-3.645-.005-5.468v-.322c.437.264.847.481 1.221.746a1.221 1.221 0 0 1 .515 1.03c.006 1.577.01 3.153 0 4.73z" style="fill:#f3f3f3"/>
</svg>
