<svg xmlns="http://www.w3.org/2000/svg" width="186.643" height="32" viewBox="0 0 186.643 32">
    <path data-name="Path 20246" d="M7.444 27.475a14.315 14.315 0 0 1 8.565-25.791c6.529 0 13.659 3.9 15.384 9.872A16.011 16.011 0 1 0 32.019 16v-.842h-1c-.1 0-.254 0-.443-.011-.377-.013-.9-.038-1.49-.09a13.549 13.549 0 0 1-3.5-.681 9.575 9.575 0 0 1-3.317-2.323L22.213 12a13.754 13.754 0 0 0-3.949-2.866 8.746 8.746 0 0 0-5.43-.424 13.777 13.777 0 0 0-1.892.535c-.234.085-.421.16-.552.215-.761.32-1.5.7-2.246 1.05 0 0 1.465.4 2.19.626l.121.039c.107.036.264.092.454.169a8.487 8.487 0 0 1 1.381.707 3.931 3.931 0 0 1 1.7 1.91 12.024 12.024 0 0 0-4.379 1.63 17.927 17.927 0 0 0-1.7 1.14c-.206.156-.369.286-.482.379-.095.078-1.593 1.4-1.593 1.4s1.933.205 2.886.4a18.386 18.386 0 0 1 2.382.645 10.651 10.651 0 0 1 2.553 1.246 4.165 4.165 0 0 1 1.577 1.828 4.237 4.237 0 0 1-1.547 5.106 5.312 5.312 0 0 1-6.243-.26zm5.462 2.5a6.466 6.466 0 0 0 1.748-.878 5.92 5.92 0 0 0 2.14-7.092 5.829 5.829 0 0 0-2.181-2.595 12.316 12.316 0 0 0-2.963-1.455c-.645-.225-1.268-.4-1.814-.53.194-.126.4-.256.623-.387a9.372 9.372 0 0 1 4.5-1.463 13.083 13.083 0 0 1 5.8 1.5l.46.215a11.493 11.493 0 0 0 4.907 1.442 8.538 8.538 0 0 0 4.111-1.02 14.342 14.342 0 0 1-17.331 12.267zm15.5-13.3a7.059 7.059 0 0 1-2.29.371 10.028 10.028 0 0 1-4.236-1.3l-.422-.2a15.282 15.282 0 0 0-5.745-1.635 5.342 5.342 0 0 0-2.513-3.277 8.312 8.312 0 0 0-.338-.207q.152-.036.311-.069a7.087 7.087 0 0 1 4.373.3 12.18 12.18 0 0 1 3.522 2.579l.033.031a11.21 11.21 0 0 0 3.859 2.672 13.847 13.847 0 0 0 3.451.742z" style="fill-rule:evenodd;fill:#fff"/>
    <path data-name="Path 20247" d="M42.577 21.895V10.577h2.167l1.876 4.543 1.876-4.543h2.167v11.318h-1.7V13.2L46.6 18.807 44.242 13.2v8.7z" style="fill:#fff"/>
    <path data-name="Path 20248" d="m53.226 21.895 3.557-11.318h2.3l3.557 11.318h-1.977l-.825-2.732h-3.9l-.808 2.732zm3.153-4.236h3.04L57.9 12.63z" style="fill:#fff"/>
    <path data-name="Path 20249" d="M65.41 21.895V10.577h1.956l4.091 7.923-.032-7.923h1.649v11.318h-1.795l-4.252-8.181.032 8.181z" style="fill:#fff"/>
    <path data-name="Path 20250" d="M79.584 21.895v-9.669h-3.509v-1.649h8.957v1.649h-3.508v9.669z" style="fill:#fff"/>
    <path data-name="Path 20251" d="m87.16 21.895 3.557-11.318h2.3l3.553 11.318H94.6l-.825-2.732h-3.9l-.809 2.732zm3.153-4.236h3.04l-1.52-5.028z" style="fill:#fff"/>
    <path data-name="Path 20252" d="M110.9 21.895V10.577h3.977a4.133 4.133 0 0 1 1.989.453 3.184 3.184 0 0 1 1.326 1.229 3.547 3.547 0 0 1 .469 1.843 3.453 3.453 0 0 1-.469 1.795 3.292 3.292 0 0 1-1.326 1.245 4.259 4.259 0 0 1-1.989.437h-2.037v4.317zm1.94-5.918h1.73a2.229 2.229 0 0 0 1.585-.517 1.8 1.8 0 0 0 .549-1.374 1.78 1.78 0 0 0-.549-1.358 2.229 2.229 0 0 0-1.585-.517h-1.73z" style="fill:#fff"/>
    <path data-name="Path 20253" d="m121.1 21.895 3.557-11.318h2.3l3.543 11.318h-1.973l-.824-2.732h-3.9L123 21.895zm3.153-4.236h3.039l-1.519-5.028z" style="fill:#fff"/>
    <path data-name="Path 20254" d="M137.241 22.073a3.838 3.838 0 0 1-2.2-.679 4.686 4.686 0 0 1-1.6-1.972 7.65 7.65 0 0 1-.6-3.185 7.536 7.536 0 0 1 .6-3.169 4.671 4.671 0 0 1 1.6-1.989 3.962 3.962 0 0 1 4.026-.243 3.962 3.962 0 0 1 1.439 1.245 5.175 5.175 0 0 1 .889 1.973l-1.746.5a3.267 3.267 0 0 0-.9-1.795 2.081 2.081 0 0 0-1.472-.614 1.969 1.969 0 0 0-1.261.453 3.14 3.14 0 0 0-.889 1.374 6.793 6.793 0 0 0-.323 2.264 6.939 6.939 0 0 0 .323 2.28 3.142 3.142 0 0 0 .889 1.358 1.969 1.969 0 0 0 1.261.453 2.081 2.081 0 0 0 1.472-.614 3.267 3.267 0 0 0 .9-1.795l1.746.5a5.33 5.33 0 0 1-.889 1.973 4.114 4.114 0 0 1-1.439 1.261 3.965 3.965 0 0 1-1.826.421z" style="fill:#fff"/>
    <path data-name="Path 20255" d="M144.607 21.895v-1.649h2.846v-8.02h-2.846v-1.649h7.632v1.649h-2.846v8.02h2.846v1.649z" style="fill:#fff"/>
    <path data-name="Path 20256" d="M156.372 21.895V10.577h7.453v1.649h-5.513v3.234h3.67v1.617h-3.67v4.818z" style="fill:#fff"/>
    <path data-name="Path 20257" d="M167.231 21.895v-1.649h2.845v-8.02h-2.845v-1.649h7.631v1.649h-2.846v8.02h2.846v1.649z" style="fill:#fff"/>
    <path data-name="Path 20258" d="M182.487 22.073a3.842 3.842 0 0 1-2.2-.679 4.684 4.684 0 0 1-1.6-1.972 7.634 7.634 0 0 1-.6-3.185 7.52 7.52 0 0 1 .6-3.169 4.669 4.669 0 0 1 1.6-1.989 3.962 3.962 0 0 1 4.026-.243 3.953 3.953 0 0 1 1.439 1.245 5.191 5.191 0 0 1 .89 1.973l-1.747.5a3.26 3.26 0 0 0-.9-1.795 2.079 2.079 0 0 0-1.471-.614 1.972 1.972 0 0 0-1.262.453 3.148 3.148 0 0 0-.889 1.374 6.817 6.817 0 0 0-.323 2.264 6.964 6.964 0 0 0 .323 2.28 3.151 3.151 0 0 0 .889 1.358 1.972 1.972 0 0 0 1.262.453 2.079 2.079 0 0 0 1.471-.614 3.26 3.26 0 0 0 .9-1.795l1.747.5a5.347 5.347 0 0 1-.89 1.973 4.1 4.1 0 0 1-1.439 1.261 3.958 3.958 0 0 1-1.826.421z" style="fill:#fff"/>
</svg>
