<svg xmlns="http://www.w3.org/2000/svg" width="106.678" height="32" viewBox="0 0 106.678 32">
    <g data-name="Group 35810">
        <path data-name="Path 20259" d="M197.942 428h-30.577a.711.711 0 0 0-.711.711v30.577a.711.711 0 0 0 .711.711h30.577a.711.711 0 0 0 .711-.711v-30.577a.711.711 0 0 0-.711-.711zm-9.955 20.622a.711.711 0 0 1-.711.711h-9.244a.711.711 0 0 1-.711-.711v-9.244a.711.711 0 0 1 .711-.711h9.244a.711.711 0 0 1 .711.711z" transform="translate(-166.654 -428)" style="fill:#f3f3f3"/>
        <path data-name="Path 20260" d="M774.052 502.673h-9.244a.711.711 0 0 0-.711.711v9.244a.711.711 0 0 0 .711.711h9.244a.711.711 0 0 0 .711-.711v-9.244a.711.711 0 0 0-.711-.711z" transform="translate(-678.747 -492.005)" style="fill:#f3f3f3"/>
        <path data-name="Path 20261" d="M699.356 428.006h-9.244a.711.711 0 0 0-.711.711v9.244a.711.711 0 0 0 .711.711h9.244a.711.711 0 0 0 .711-.711v-9.244a.711.711 0 0 0-.711-.711z" transform="translate(-614.723 -428.005)" style="fill:#f3f3f3"/>
        <path data-name="Path 20262" d="M848.685 428.006h-9.244a.711.711 0 0 0-.711.711v9.244a.711.711 0 0 0 .711.711h9.244a.711.711 0 0 0 .711-.711v-9.244a.711.711 0 0 0-.711-.711z" transform="translate(-742.719 -428.005)" style="fill:#f3f3f3"/>
        <path data-name="Path 20263" d="M699.356 577.334h-9.244a.711.711 0 0 0-.711.711v9.244a.711.711 0 0 0 .711.711h9.244a.711.711 0 0 0 .711-.711v-9.244a.711.711 0 0 0-.711-.711z" transform="translate(-614.723 -556)" style="fill:#f3f3f3"/>
        <path data-name="Path 20264" d="M848.685 577.334h-9.244a.711.711 0 0 0-.711.711v9.244a.711.711 0 0 0 .711.711h9.244a.711.711 0 0 0 .711-.711v-9.244a.711.711 0 0 0-.711-.711z" transform="translate(-742.719 -556)" style="fill:#f3f3f3"/>
        <path data-name="Path 20265" d="M587.265 428.006h-9.244a.711.711 0 0 0-.711.711v9.244a.711.711 0 0 0 .711.711h9.244a.711.711 0 0 0 .711-.711v-9.244a.711.711 0 0 0-.711-.711z" transform="translate(-518.645 -428.005)" style="fill:#f3f3f3"/>
        <path data-name="Path 20266" d="M587.265 577.334h-9.244a.711.711 0 0 0-.711.711v9.244a.711.711 0 0 0 .711.711h9.244a.711.711 0 0 0 .711-.711v-9.244a.711.711 0 0 0-.711-.711z" transform="translate(-518.645 -556)" style="fill:#f3f3f3"/>
        <path data-name="Path 20267" d="M449.313 439.369a.711.711 0 0 0-.711-.711h-9.955v-9.947a.711.711 0 0 0-.711-.711h-9.244a.711.711 0 0 0-.711.711v30.561a.711.711 0 0 0 .711.711h9.244a.711.711 0 0 0 .711-.711v-9.947h9.953a.711.711 0 0 0 .711-.711z" transform="translate(-390.648 -428)" style="fill:#f3f3f3"/>
    </g>
</svg>
