<svg data-name="Layer 2" xmlns="http://www.w3.org/2000/svg" width="32" height="32" viewBox="0 0 32 32">
    <g data-name="invisible box">
        <path data-name="Rectangle 23802" style="fill:none" d="M0 0h32v32H0z"/>
    </g>
    <path data-name="Path 16814" d="m11.667 18.266 7.933-8a1.267 1.267 0 0 0 0-1.867L11.667.4a1.4 1.4 0 0 0-1.8-.133 1.267 1.267 0 0 0-.133 2L15.467 8H1.333a1.333 1.333 0 1 0 0 2.667h14.134L9.733 16.4a1.267 1.267 0 0 0 .133 2 1.4 1.4 0 0 0 1.8-.133z" transform="rotate(-45 21.055 5.424)" style="fill:#ea5f5a"/>
</svg>
