<svg data-name="Layer 2" xmlns="http://www.w3.org/2000/svg" width="24" height="24" viewBox="0 0 24 24">
    <g data-name="invisible box">
        <path data-name="Rectangle 23807" style="fill:none" d="M0 0h24v24H0z"/>
    </g>
    <g data-name="icons Q2">
        <path data-name="Path 16819" d="M12.025 3a.956.956 0 0 0-.819.5L8.612 8.779 2.787 9.6a.956.956 0 0 0-.5 1.593l4.187 4.05-.956 5.825a.91.91 0 0 0 .865 1.047l.455-.091 5.188-2.73 5.188 2.73.455.091a.91.91 0 0 0 .865-1.047l-.956-5.825 4.187-4.05a.956.956 0 0 0-.5-1.593l-5.825-.819L12.844 3.5a.956.956 0 0 0-.819-.5z" transform="translate(-.026 -1)" style="fill:#ffab00"/>
    </g>
</svg>
