<svg xmlns="http://www.w3.org/2000/svg" width="32.001" height="18.286" viewBox="0 0 32.001 18.286">
    <defs>
        <clipPath id="lyxquuf19a">
            <circle data-name="Ellipse 1280" cx="9.143" cy="9.143" r="9.143" style="fill:#696c80;opacity:.3"/>
        </clipPath>
        <clipPath id="w80cysp2ab">
            <path data-name="Rectangle 23804" d="M0 0h18.286v18.286H0z"/>
        </clipPath>
    </defs>
    <g data-name="Group 30045">
        <g>
            <circle data-name="Ellipse 1279" cx="9.143" cy="9.143" r="9.143" style="fill:#3e73c4"/>
            <g data-name="Group 30043">
                <path data-name="Path 16812" d="M16.522 14.066c0-1.214-.731-1.63-2.194-1.8-1.045-.139-1.253-.416-1.253-.9s.349-.8 1.045-.8a1.03 1.03 0 0 1 1.149.729.262.262 0 0 0 .244.173h.557a.238.238 0 0 0 .244-.243v-.034a1.737 1.737 0 0 0-1.567-1.422v-.835c0-.139-.1-.243-.278-.278h-.523c-.139 0-.243.1-.278.278v.8a1.771 1.771 0 0 0-1.706 1.7c0 1.144.7 1.595 2.159 1.769.975.173 1.289.382 1.289.937s-.487.936-1.149.936c-.906 0-1.219-.381-1.323-.9a.254.254 0 0 0-.244-.208H12.1a.238.238 0 0 0-.243.243v.034A1.942 1.942 0 0 0 13.7 15.9v.833c0 .138.1.243.278.277h.522c.139 0 .243-.1.278-.277V15.9a1.9 1.9 0 0 0 1.741-1.838z" transform="translate(-5.081 -3.71)" style="fill:#fff"/>
                <path data-name="Path 16813" d="M9.51 16.355a5.183 5.183 0 0 1 0-9.746.347.347 0 0 0 .209-.347v-.485A.264.264 0 0 0 9.51 5.5a.212.212 0 0 0-.139.034 6.234 6.234 0 0 0 0 11.9.212.212 0 0 0 .313-.139c.035-.034.035-.07.035-.139v-.486a.461.461 0 0 0-.209-.312zm3.69-10.82a.211.211 0 0 0-.313.138c-.035.035-.035.07-.035.139V6.3a.459.459 0 0 0 .209.347 5.183 5.183 0 0 1 0 9.746.347.347 0 0 0-.209.347v.486a.264.264 0 0 0 .209.277.212.212 0 0 0 .139-.034 6.226 6.226 0 0 0 4.074-7.838A6.3 6.3 0 0 0 13.2 5.535z" transform="translate(-2.143 -2.357)" style="fill:#fff"/>
            </g>
        </g>
        <g data-name="Mask Group 430" transform="translate(13.715)" style="clip-path:url(#lyxquuf19a)">
            <g data-name="Group 22933" style="clip-path:url(#w80cysp2ab)">
                <g data-name="Group 21552">
                    <path data-name="Path 11962" d="M9.139 18.278A9.139 9.139 0 1 0 0 9.139a9.139 9.139 0 0 0 9.139 9.139z" style="fill:#a149ff" transform="translate(0 .004)"/>
                    <path data-name="Path 11964" d="M7.9 2.738a.694.694 0 0 0-.654 0l-1.523.9-1.036.571-1.5.9a.694.694 0 0 1-.654 0L1.362 4.4a.664.664 0 0 1-.327-.572V2.466a.672.672 0 0 1 .327-.57l1.171-.681a.694.694 0 0 1 .654 0l1.171.708a.664.664 0 0 1 .327.572v.9l1.035-.6v-.928a.672.672 0 0 0-.327-.572L3.213.015a.694.694 0 0 0-.654 0L.327 1.322A.6.6 0 0 0 0 1.863v2.564A.672.672 0 0 0 .327 5l2.206 1.28a.694.694 0 0 0 .654 0l1.5-.871 1.035-.6 1.5-.871a.694.694 0 0 1 .654 0l1.171.681a.664.664 0 0 1 .327.572v1.36a.672.672 0 0 1-.327.572L7.9 7.8a.694.694 0 0 1-.654 0l-1.173-.678a.664.664 0 0 1-.327-.572v-.87l-1.035.6v.9a.672.672 0 0 0 .327.572l2.2 1.281a.694.694 0 0 0 .654 0L10.1 7.75a.664.664 0 0 0 .327-.572V4.591a.672.672 0 0 0-.327-.572z" transform="translate(3.924 4.864)" style="fill:#fdfdff"/>
                </g>
            </g>
        </g>
    </g>
</svg>
