<svg data-name="Layer 2" xmlns="http://www.w3.org/2000/svg" width="24" height="24" viewBox="0 0 24 24">
    <g data-name="invisible box">
        <path data-name="Rectangle 23803" style="fill:none" d="M0 0h24v24H0z"/>
    </g>
    <g data-name="icons Q2">
        <g data-name="Group 30044">
            <path data-name="Path 16815" d="M19.75 23.3a1.05 1.05 0 0 0-1.35-.1.95.95 0 0 0-.1 1.5l2.3 2.3H7a1 1 0 1 0 0 2h13.6l-2.3 2.3a.95.95 0 0 0 .1 1.5 1.05 1.05 0 0 0 1.35-.1l3.95-4a.95.95 0 0 0 0-1.4z" transform="translate(-3 -11.5)" style="fill:#448aff"/>
            <path data-name="Path 16816" d="M10.242 14.7a1.05 1.05 0 0 0 1.35.1.95.95 0 0 0 .1-1.5l-2.3-2.3h13.6a1 1 0 0 0 0-2h-13.6l2.3-2.3a.95.95 0 0 0-.1-1.5 1.05 1.05 0 0 0-1.35.1l-3.95 4a.95.95 0 0 0 0 1.4z" transform="translate(-2.993 -2.5)" style="fill:#448aff"/>
        </g>
    </g>
</svg>
