<svg id="usdc" xmlns="http://www.w3.org/2000/svg" width="32" height="32" viewBox="0 0 32 32">
  <defs>
    <style>
      .cls-1 {
        fill: #3e73c4;
      }

      .cls-2 {
        fill: #fff;
      }
    </style>
  </defs>
  <circle id="Ellipse_1279" data-name="Ellipse 1279" class="cls-1" cx="16" cy="16" r="16"/>
  <g id="Group_30043" data-name="Group 30043">
    <path id="Path_16812" data-name="Path 16812" class="cls-2" d="M20.022,18.124c0-2.124-1.28-2.852-3.84-3.156-1.828-.243-2.193-.728-2.193-1.578s.61-1.4,1.828-1.4a1.8,1.8,0,0,1,2.011,1.275.458.458,0,0,0,.427.3h.975a.416.416,0,0,0,.427-.425v-.06A3.04,3.04,0,0,0,16.914,10.6V9.142c0-.243-.183-.425-.487-.486h-.915c-.243,0-.426.182-.487.486v1.4a3.1,3.1,0,0,0-2.986,2.974c0,2,1.218,2.791,3.778,3.1,1.707.3,2.255.668,2.255,1.639s-.853,1.638-2.011,1.638c-1.585,0-2.133-.667-2.316-1.578a.445.445,0,0,0-.427-.364H12.282a.416.416,0,0,0-.426.425v.06a3.4,3.4,0,0,0,3.23,2.914V22.8c0,.242.183.425.487.485h.915c.243,0,.426-.182.487-.485V21.34a3.329,3.329,0,0,0,3.047-3.217Z"/>
    <path id="Path_16813" data-name="Path 16813" class="cls-2" d="M12.892,24.5a9.07,9.07,0,0,1,0-17.055.608.608,0,0,0,.365-.607v-.85a.461.461,0,0,0-.365-.485.372.372,0,0,0-.244.06,10.91,10.91,0,0,0,0,20.819.37.37,0,0,0,.548-.243c.061-.06.061-.122.061-.243v-.85a.807.807,0,0,0-.365-.546Zm6.46-18.936A.37.37,0,0,0,18.8,5.8c-.061.061-.061.122-.061.243V6.9a.8.8,0,0,0,.365.607,9.07,9.07,0,0,1,0,17.055.608.608,0,0,0-.365.607v.85a.461.461,0,0,0,.365.485.372.372,0,0,0,.244-.06,10.895,10.895,0,0,0,7.13-13.717,11.025,11.025,0,0,0-7.13-7.162Z"/>
  </g>
</svg>
