<svg xmlns="http://www.w3.org/2000/svg" width="105" height="14.5" viewBox="0 0 105 14.5">
    <g data-name="Group 24638">
        <g data-name="Group 24637" transform="translate(-872 -294.5)">
            <rect data-name="Rectangle 20919" width="27" height="10" rx="3" transform="translate(950 296)" style="fill:#fdd835"/>
            <text transform="translate(974 304)" style="fill:#08090d;font-size:8px;font-family:Inter-Medium,Inter;font-weight:500" data-name="Group 21481"><tspan x="-20.17" y="0">BETA</tspan></text>
        </g>
        <g data-name="Group 24635">
            <path data-name="Path 15781" d="M-9.083.169A3.094 3.094 0 0 1-10.4-.1a2.177 2.177 0 0 1-.927-.788 2.255 2.255 0 0 1-.341-1.268 2.055 2.055 0 0 1 .249-1.064 1.834 1.834 0 0 1 .671-.661 3.505 3.505 0 0 1 .948-.37 9.391 9.391 0 0 1 1.065-.189q.686-.08 1.114-.132A1.612 1.612 0 0 0-7-4.743a.42.42 0 0 0 .194-.388v-.035a1.349 1.349 0 0 0-.365-1.009 1.493 1.493 0 0 0-1.086-.358 1.893 1.893 0 0 0-1.182.333 1.793 1.793 0 0 0-.594.733l-1.4-.318a2.7 2.7 0 0 1 .733-1.128 2.966 2.966 0 0 1 1.1-.626 4.379 4.379 0 0 1 1.317-.2 4.787 4.787 0 0 1 .972.107 2.9 2.9 0 0 1 .964.39 2.157 2.157 0 0 1 .738.808 2.81 2.81 0 0 1 .288 1.36V0h-1.445v-1.044h-.06a2.115 2.115 0 0 1-.433.567A2.3 2.3 0 0 1-8-.015a2.874 2.874 0 0 1-1.083.184zm.323-1.193a2.15 2.15 0 0 0 1.06-.244 1.722 1.722 0 0 0 .671-.639 1.651 1.651 0 0 0 .229-.847v-.984a.753.753 0 0 1-.306.147 4.215 4.215 0 0 1-.515.114q-.288.047-.562.085l-.457.062a3.639 3.639 0 0 0-.788.184 1.348 1.348 0 0 0-.567.37.934.934 0 0 0-.211.639.945.945 0 0 0 .408.833 1.792 1.792 0 0 0 1.038.28zM.229-7.636v1.193h-4.171v-1.193zm-3.053-1.83h1.487v7.224a1.291 1.291 0 0 0 .129.649.657.657 0 0 0 .335.293 1.276 1.276 0 0 0 .45.077 1.738 1.738 0 0 0 .313-.025l.21-.04L.368-.06A2.67 2.67 0 0 1 0 .042 3.055 3.055 0 0 1-.6.1a2.617 2.617 0 0 1-1.09-.209 1.876 1.876 0 0 1-.82-.676 1.987 1.987 0 0 1-.313-1.148zM1.869 0v-7.636h1.487V0zm.751-8.815a.931.931 0 0 1-.664-.261.829.829 0 0 1-.276-.624.835.835 0 0 1 .276-.629.931.931 0 0 1 .664-.261.931.931 0 0 1 .664.261.835.835 0 0 1 .276.629.829.829 0 0 1-.276.624.931.931 0 0 1-.664.261zM8.571.154a3.493 3.493 0 0 1-1.907-.5 3.3 3.3 0 0 1-1.225-1.399 4.652 4.652 0 0 1-.428-2.038 4.614 4.614 0 0 1 .438-2.056 3.355 3.355 0 0 1 1.233-1.395 3.437 3.437 0 0 1 1.874-.5 3.6 3.6 0 0 1 1.551.321 2.822 2.822 0 0 1 1.1.9 2.717 2.717 0 0 1 .5 1.347h-1.446a1.74 1.74 0 0 0-.544-.934 1.621 1.621 0 0 0-1.136-.388 1.845 1.845 0 0 0-1.086.326 2.121 2.121 0 0 0-.723.925 3.551 3.551 0 0 0-.259 1.414 3.726 3.726 0 0 0 .254 1.442 2.134 2.134 0 0 0 .718.94 1.832 1.832 0 0 0 1.1.333 1.839 1.839 0 0 0 .768-.157 1.566 1.566 0 0 0 .582-.45 1.719 1.719 0 0 0 .331-.706h1.447a2.811 2.811 0 0 1-.482 1.322 2.779 2.779 0 0 1-1.076.915 3.521 3.521 0 0 1-1.584.338z" transform="translate(60.839 11.5)" style="fill:#c7cad9"/>
            <g data-name="Layer 2">
                <path data-name="Layer 3" d="M0 .2h14.5v14.5H0z" transform="translate(32.675 -.2)" style="fill:none"/>
            </g>
            <path d="m60.52 61.336 1.433 3.123 2.127-1.209v-2.42z" transform="translate(-21.995 -54.95)" style="fill:#2bbdf7"/>
            <path d="m100.138 36.4-1.328-.5-1.42-.114v7.542l2.131 1.21 1.7-3.409-1.078-3.281z" transform="translate(-55.301 -32.331)" style="fill:#2891f9"/>
            <path d="M119.924 35.79 119.43 37v7.523l2.131-1.211V35.79z" transform="translate(-75.21 -32.331)" style="fill:#2bbdf7"/>
            <path d="m99.521 23.28-2.131 1.209 2.131 1.21 2.131-1.21z" transform="translate(-55.301 -21.03)" style="fill:#2b6def"/>
            <path d="m15.6 39.42-2.131-2.351L9.21 35.79v7.522l2.131 1.211.61-4.164 1.522.271 2.127 1.21v-2.42z" transform="translate(24.355 -32.331)" style="fill:#2891f9"/>
            <path d="M11.341 23.28 9.21 24.489l6.393 3.63.966-.547 1.166-.662z" transform="translate(24.355 -21.03)" style="fill:#2b6def"/>
            <path d="M31.25 73.34v5.1l2.132-1.211V74.55z" transform="translate(4.446 -66.251)" style="fill:#2bbdf7"/>
            <path data-name="Path 15780" d="M-13.861 0h-1.631l3.664-10.182h1.775L-6.388 0h-1.631L-10.9-8.332h-.08zm.273-3.987H-8.3v1.293h-5.29zm13.388.82v-4.469h1.488V0H-.174v-1.322h-.08A2.373 2.373 0 0 1-1.1-.306 2.45 2.45 0 0 1-2.536.1a2.554 2.554 0 0 1-1.3-.326 2.235 2.235 0 0 1-.885-.967 3.525 3.525 0 0 1-.321-1.586v-4.857h1.487v4.678a1.746 1.746 0 0 0 .433 1.243A1.468 1.468 0 0 0-2-1.253a1.838 1.838 0 0 0 .833-.209 1.771 1.771 0 0 0 .691-.631A1.9 1.9 0 0 0-.2-3.167zm7.05-4.469v1.193H2.675v-1.193zm-3.057-1.83H5.28v7.224a1.291 1.291 0 0 0 .129.649.657.657 0 0 0 .336.293 1.276 1.276 0 0 0 .45.077 1.738 1.738 0 0 0 .313-.025l.209-.04.268 1.228a2.67 2.67 0 0 1-.368.1 3.055 3.055 0 0 1-.6.057 2.617 2.617 0 0 1-1.09-.206 1.876 1.876 0 0 1-.82-.676 1.987 1.987 0 0 1-.313-1.148zm7.83 9.62a3.506 3.506 0 0 1-1.874-.492 3.319 3.319 0 0 1-1.243-1.377 4.57 4.57 0 0 1-.442-2.068 4.613 4.613 0 0 1 .442-2.078 3.312 3.312 0 0 1 1.243-1.383 3.506 3.506 0 0 1 1.874-.492 3.506 3.506 0 0 1 1.874.492 3.312 3.312 0 0 1 1.243 1.382 4.613 4.613 0 0 1 .442 2.078 4.57 4.57 0 0 1-.442 2.068A3.319 3.319 0 0 1 13.5-.338a3.506 3.506 0 0 1-1.876.492zm0-1.248a1.782 1.782 0 0 0 1.153-.368 2.173 2.173 0 0 0 .679-.979 3.935 3.935 0 0 0 .221-1.347 3.941 3.941 0 0 0-.221-1.345 2.205 2.205 0 0 0-.679-.987 1.766 1.766 0 0 0-1.153-.373 1.784 1.784 0 0 0-1.161.373 2.2 2.2 0 0 0-.681.987 3.941 3.941 0 0 0-.221 1.345 3.935 3.935 0 0 0 .221 1.347 2.164 2.164 0 0 0 .681.979 1.8 1.8 0 0 0 1.167.368z" transform="translate(15.491 11.5)" style="fill:#c7cad9"/>
        </g>
    </g>
</svg>
