<svg xmlns="http://www.w3.org/2000/svg" width="40" height="40" viewBox="0 0 40 40">
    <g data-name="Group 29059">
        <g data-name="Ellipse 1247" style="stroke:#ebecf2;stroke-width:2px;fill:none">
            <circle cx="20" cy="20" r="20" style="stroke:none"/>
            <circle cx="20" cy="20" r="19" style="fill:none"/>
        </g>
        <path data-name="Subtraction 21" d="M5604 6204h-16a2 2 0 0 1-2-2v-8a2 2 0 0 1 2-2h16a2 2 0 0 1 2 2v8a2 2 0 0 1-2 2zm-10.4-4.718a1.961 1.961 0 0 0 .326 1.059 1.887 1.887 0 0 0 .837.66 3.114 3.114 0 0 0 1.021.221v.693h.5v-.693a2.985 2.985 0 0 0 1.029-.229 1.861 1.861 0 0 0 .813-.651 1.7 1.7 0 0 0 .282-.968 1.5 1.5 0 0 0-.568-1.227 2.415 2.415 0 0 0-.59-.355 4.176 4.176 0 0 0-.684-.224l-.282-.07v-1.742a1.236 1.236 0 0 1 .585.21.834.834 0 0 1 .359.625h1.092a1.642 1.642 0 0 0-.3-.939 1.936 1.936 0 0 0-.791-.638 2.647 2.647 0 0 0-.95-.226v-.7h-.5v.708a2.757 2.757 0 0 0-.9.221 1.993 1.993 0 0 0-.822.646 1.614 1.614 0 0 0-.3.97 1.392 1.392 0 0 0 .448 1.079 2.851 2.851 0 0 0 1.223.6l.349.09v1.842a1.653 1.653 0 0 1-.4-.093 1.085 1.085 0 0 1-.462-.324.954.954 0 0 1-.2-.545zm2.686.959v-1.709a4.172 4.172 0 0 1 .451.157 1.079 1.079 0 0 1 .393.271.607.607 0 0 1 .145.4.758.758 0 0 1-.163.47 1.047 1.047 0 0 1-.439.312 1.536 1.536 0 0 1-.385.1zm-.5-2.873a4.753 4.753 0 0 1-.186-.06 1.67 1.67 0 0 1-.346-.167.745.745 0 0 1-.246-.243.615.615 0 0 1-.09-.339.694.694 0 0 1 .137-.418.912.912 0 0 1 .389-.292 1.331 1.331 0 0 1 .343-.09v1.608z" transform="translate(-5577 -6177)" style="fill:#fff"/>
    </g>
</svg>
