<?xml version="1.0" encoding="UTF-8"?><svg xmlns="http://www.w3.org/2000/svg" width="924.75" height="992.46" xmlns:xlink="http://www.w3.org/1999/xlink" viewBox="0 0 924.75 992.46"><defs><linearGradient id="b" x1="462.37" y1="991.48" x2="462.37" y2="66.73" gradientUnits="userSpaceOnUse"><stop offset=".06" stop-color="#1932a7"/><stop offset=".26" stop-color="#1833a8"/><stop offset=".33" stop-color="#1838af"/><stop offset=".38" stop-color="#1740bb"/><stop offset=".42" stop-color="#174ccc"/><stop offset=".46" stop-color="#165ce1"/><stop offset=".53" stop-color="#1662e2"/><stop offset=".63" stop-color="#1975e6"/><stop offset=".75" stop-color="#1d94ec"/><stop offset=".88" stop-color="#24bff6"/><stop offset="1" stop-color="#2aeaff"/></linearGradient><linearGradient id="j" x1="162.5" y1="883.93" x2="460.98" y2="883.93" gradientUnits="userSpaceOnUse"><stop offset=".11" stop-color="#230330"/><stop offset=".29" stop-color="#4248bd"/><stop offset=".65" stop-color="#bbcfff"/></linearGradient><linearGradient id="k" x1="162.5" y1="883.93" x2="460.98" y2="883.93" gradientTransform="translate(921.58) rotate(-180) scale(1 -1)" xlink:href="#j"/><linearGradient id="ac" x1="460.79" y1="875.29" x2="460.79" y2="186.43" gradientUnits="userSpaceOnUse"><stop offset=".35" stop-color="#bbcfff"/><stop offset=".53" stop-color="#694ab7"/><stop offset=".7" stop-color="#381679"/><stop offset="1" stop-color="#3d1d7b"/></linearGradient><linearGradient id="ag" x1="460.98" y1="783.32" x2="460.98" y2="689.83" gradientUnits="userSpaceOnUse"><stop offset=".19" stop-color="#5c14e3" stop-opacity=".75"/><stop offset=".23" stop-color="#6d32e8" stop-opacity=".7"/><stop offset=".35" stop-color="#9d84f5" stop-opacity=".55"/><stop offset=".41" stop-color="#b0a4fb" stop-opacity=".5"/><stop offset=".69" stop-color="#f6f7fe" stop-opacity="0"/></linearGradient><linearGradient id="as" x1="320.61" y1="494.17" x2="294.84" y2="538.8" gradientUnits="userSpaceOnUse"><stop offset="0" stop-color="#170024"/><stop offset=".48" stop-color="#19003b"/><stop offset=".72" stop-color="#1d1185"/><stop offset="1" stop-color="#131aab"/></linearGradient><linearGradient id="at" x1="264.28" y1="513.79" x2="363.7" y2="513.79" gradientUnits="userSpaceOnUse"><stop offset="0" stop-color="#20229e"/><stop offset=".04" stop-color="#3a5db8"/><stop offset=".08" stop-color="#affffc"/><stop offset=".81" stop-color="#7cfffe"/><stop offset=".9" stop-color="#22a8f0"/><stop offset=".97" stop-color="#172fb2"/></linearGradient><linearGradient id="au" x1="320.61" y1="494.17" x2="294.84" y2="538.8" gradientTransform="translate(921.58) rotate(-180) scale(1 -1)" xlink:href="#as"/><linearGradient id="av" x1="264.28" y1="513.79" x2="363.7" y2="513.79" gradientTransform="translate(921.58) rotate(-180) scale(1 -1)" xlink:href="#at"/><linearGradient id="ay" x1="310.17" y1="538.35" x2="326.29" y2="510.43" gradientTransform="translate(-34.96 22.85) rotate(-3.9)" gradientUnits="userSpaceOnUse"><stop offset=".09" stop-color="#b2bbff"/><stop offset=".85" stop-color="#0e09b7" stop-opacity=".5"/></linearGradient><linearGradient id="az" x1="310.17" y1="538.35" x2="326.29" y2="510.43" gradientTransform="translate(956.55 22.85) rotate(-176.1) scale(1 -1)" xlink:href="#ay"/><linearGradient id="bc" x1="299.99" y1="200.31" x2="390.36" y2="290.68" gradientUnits="userSpaceOnUse"><stop offset=".35" stop-color="#170222"/><stop offset="1" stop-color="#3d1d7b"/></linearGradient><linearGradient id="bd" x1="299.99" y1="200.31" x2="390.36" y2="290.68" gradientTransform="translate(921.58) rotate(-180) scale(1 -1)" gradientUnits="userSpaceOnUse"><stop offset=".35" stop-color="#170222"/><stop offset="1" stop-color="#3d1d7b"/></linearGradient><radialGradient id="bf" cx="313.7" cy="226.15" fx="313.7" fy="226.15" r="20.46" gradientTransform="translate(293.44 -160.04) rotate(51.21)" gradientUnits="userSpaceOnUse"><stop offset="0" stop-color="#0b3e7d"/><stop offset="1" stop-color="#011561"/></radialGradient><radialGradient id="bg" cx="313.7" cy="226.15" fx="313.7" fy="226.15" r="20.46" gradientTransform="translate(587.62 612.34) rotate(-51.21) scale(1 -1)" xlink:href="#bf"/><linearGradient id="bk" x1="215.34" y1="360.94" x2="390.83" y2="360.94" gradientUnits="userSpaceOnUse"><stop offset=".31" stop-color="#000"/><stop offset=".42" stop-color="#000103"/><stop offset=".5" stop-color="#00040c"/><stop offset=".57" stop-color="#020b1c"/><stop offset=".64" stop-color="#031333"/><stop offset=".71" stop-color="#061f51"/><stop offset=".77" stop-color="#082c76"/><stop offset=".83" stop-color="#0b3da0"/><stop offset=".85" stop-color="#0d43b0"/><stop offset="1" stop-color="#0d43b0"/></linearGradient><linearGradient id="bl" x1="215.34" y1="360.94" x2="390.83" y2="360.94" gradientTransform="translate(921.58) rotate(-180) scale(1 -1)" xlink:href="#bk"/><linearGradient id="bn" x1="306.26" y1="356.32" x2="303.1" y2="320.2" gradientUnits="userSpaceOnUse"><stop offset="0" stop-color="#0d43b0"/><stop offset=".15" stop-color="#0d43b0"/><stop offset=".17" stop-color="#0b3da0"/><stop offset=".23" stop-color="#082c76"/><stop offset=".29" stop-color="#061f51"/><stop offset=".36" stop-color="#031333"/><stop offset=".43" stop-color="#020b1c"/><stop offset=".5" stop-color="#00040c"/><stop offset=".58" stop-color="#000103"/><stop offset=".69" stop-color="#000"/></linearGradient><linearGradient id="bo" x1="306.26" y1="356.32" x2="303.1" y2="320.2" gradientTransform="translate(921.58) rotate(-180) scale(1 -1)" xlink:href="#bn"/><radialGradient id="bq" cx="460.79" cy="331.2" fx="460.79" fy="331.2" r="58.73" gradientUnits="userSpaceOnUse"><stop offset="0" stop-color="#381679"/><stop offset="1" stop-color="#290851"/></radialGradient><linearGradient id="br" x1="450.56" y1="252.24" x2="450.56" y2="237.14" gradientUnits="userSpaceOnUse"><stop offset="0" stop-color="#0d43b0"/><stop offset=".15" stop-color="#0d43b0"/><stop offset=".36" stop-color="#09349c"/><stop offset=".77" stop-color="#021b7c"/><stop offset="1" stop-color="#001270"/></linearGradient><linearGradient id="bs" x1="450.56" y1="252.24" x2="450.56" y2="237.14" gradientTransform="translate(921.58) rotate(-180) scale(1 -1)" xlink:href="#br"/><linearGradient id="bt" x1="278.81" y1="358.39" x2="277.23" y2="340.33" gradientUnits="userSpaceOnUse"><stop offset=".12" stop-color="#0d43b0"/><stop offset=".18" stop-color="#1d4fb5"/><stop offset=".3" stop-color="#4971c3"/><stop offset=".47" stop-color="#8fa8da"/><stop offset=".68" stop-color="#eff2f9"/><stop offset=".72" stop-color="#fff"/></linearGradient><linearGradient id="bu" x1="278.81" y1="358.39" x2="277.23" y2="340.33" gradientTransform="translate(921.58) rotate(-180) scale(1 -1)" xlink:href="#bt"/><linearGradient id="bw" x1="461.76" y1="529.8" x2="461.76" y2="408" gradientUnits="userSpaceOnUse"><stop offset="0" stop-color="#181b7d"/><stop offset=".69" stop-color="#270d4a"/><stop offset="1" stop-color="#0d43b0"/></linearGradient></defs><g id="a"><circle cx="462.37" cy="529.11" r="462.37" style="fill:url(#b);"/><g id="c"><g><circle cx="40.57" cy="515.82" r="34.02" style="fill:#19a9fc;"/><circle cx="40.57" cy="515.82" r="32.44" style="fill:#fff;"/><circle cx="40.57" cy="515.82" r="26.64" style="fill:#e1f6fe;"/><circle cx="40.57" cy="515.82" r="22.94" style="fill:#fff;"/><circle cx="40.57" cy="515.82" r="18.46" style="fill:#2bf3fd;"/><circle cx="40.57" cy="515.82" r="15.39" style="fill:#37fcff;"/><ellipse cx="40.57" cy="515.82" rx="8.7" ry="11.34" style="fill:#0bb0e8;"/></g><g><circle cx="884.18" cy="515.82" r="34.02" style="fill:#19a9fc;"/><circle cx="884.18" cy="515.82" r="32.44" style="fill:#fff;"/><circle cx="884.18" cy="515.82" r="26.64" style="fill:#e1f6fe;"/><circle cx="884.18" cy="515.82" r="22.94" style="fill:#fff;"/><circle cx="884.18" cy="515.82" r="18.46" style="fill:#2bf3fd;"/><circle cx="884.18" cy="515.82" r="15.39" style="fill:#37fcff;"/><ellipse cx="884.18" cy="515.82" rx="8.7" ry="11.34" style="fill:#0bb0e8;"/></g><g id="d"><polyline points="10.37 483.38 19.87 461.36 67.21 461.36 80.79 479.95 80.79 489.18 80.79 521.89 69.32 542.46" style="fill:none; stroke:#fff; stroke-linecap:round; stroke-miterlimit:10; stroke-width:4px;"/><line x1="118.37" y1="489.18" x2="80.79" y2="489.18" style="fill:none; stroke:#fff; stroke-linecap:round; stroke-miterlimit:10; stroke-width:4px;"/><polyline points="31.87 409.53 31.87 442.37 34.9 442.37" style="fill:none; stroke:#fff; stroke-linecap:round; stroke-miterlimit:10; stroke-width:4px;"/><polyline points="51.12 363.64 51.12 445.14 63.51 445.14" style="fill:none; stroke:#fff; stroke-linecap:round; stroke-miterlimit:10; stroke-width:4px;"/><line x1="59.03" y1="428.52" x2="51.12" y2="428.52" style="fill:none; stroke:#fff; stroke-linecap:round; stroke-miterlimit:10; stroke-width:4px;"/><polyline points="59.03 373.14 51.71 365.82 42.42 365.82 36.58 371.65" style="fill:none; stroke:#fff; stroke-linecap:round; stroke-miterlimit:10; stroke-width:4px;"/><line x1="27.78" y1="564.61" x2="27.78" y2="584" style="fill:none; stroke:#fff; stroke-linecap:round; stroke-miterlimit:10; stroke-width:4px;"/><line x1="36.58" y1="566.98" x2="36.58" y2="584" style="fill:none; stroke:#fff; stroke-linecap:round; stroke-miterlimit:10; stroke-width:4px;"/><polyline points="19.87 564.61 19.87 617.23 42.42 617.23" style="fill:none; stroke:#fff; stroke-linecap:round; stroke-miterlimit:10; stroke-width:4px;"/><polyline points="42.42 651.25 42.42 664.3 55.96 689.23 55.96 731.56 108.48 813.05" style="fill:none; stroke:#fff; stroke-linecap:round; stroke-miterlimit:10; stroke-width:4px;"/><line x1="102.9" y1="725.34" x2="64.1" y2="745.21" style="fill:none; stroke:#fff; stroke-linecap:round; stroke-miterlimit:10; stroke-width:4px;"/><line x1="110.1" y1="735.28" x2="71.3" y2="755.15" style="fill:none; stroke:#fff; stroke-linecap:round; stroke-miterlimit:10; stroke-width:4px;"/><line x1="116.77" y1="745.21" x2="77.96" y2="765.09" style="fill:none; stroke:#fff; stroke-linecap:round; stroke-miterlimit:10; stroke-width:4px;"/><line x1="122.3" y1="755.15" x2="83.5" y2="775.02" style="fill:none; stroke:#fff; stroke-linecap:round; stroke-miterlimit:10; stroke-width:4px;"/><line x1="154.77" y1="780.22" x2="113.63" y2="817.8" style="fill:none; stroke:#fff; stroke-linecap:round; stroke-miterlimit:10; stroke-width:4px;"/><polyline points="51.91 651.25 51.91 665.89 68.66 682.63" style="fill:none; stroke:#fff; stroke-linecap:round; stroke-miterlimit:10; stroke-width:4px;"/><polyline points="68.66 651.25 73.01 662.51 80.79 682.63" style="fill:none; stroke:#fff; stroke-linecap:round; stroke-miterlimit:10; stroke-width:4px;"/><line x1="55.96" y1="661.93" x2="73.01" y2="662.51" style="fill:none; stroke:#fff; stroke-linecap:round; stroke-miterlimit:10; stroke-width:4px;"/><polyline points="99.58 461.36 91.47 461.36 77.82 447.71 73.01 447.71 73.01 377.89 104.4 346.5 115.74 346.5" style="fill:none; stroke:#fff; stroke-linecap:round; stroke-miterlimit:10; stroke-width:4px;"/><polyline points="93.71 371.03 93.71 377.09 103.6 377.09 108.75 382.24 91.21 399.78 73.01 399.78" style="fill:none; stroke:#fff; stroke-linecap:round; stroke-miterlimit:10; stroke-width:4px;"/><polyline points="92.4 429.84 85.6 423.05 73.01 423.05" style="fill:none; stroke:#fff; stroke-linecap:round; stroke-miterlimit:10; stroke-width:4px;"/><polyline points="85.08 365.82 85.08 342.28 114.78 312.58 114.78 293.23 89.41 267.86" style="fill:none; stroke:#fff; stroke-linecap:round; stroke-miterlimit:10; stroke-width:4px;"/><polyline points="78.29 287.42 91.41 300.55 91.41 313.27 86.3 318.38 76.44 318.38 68.87 310.81 75.82 303.87" style="fill:none; stroke:#fff; stroke-linecap:round; stroke-miterlimit:10; stroke-width:4px;"/><polyline points="113.63 784.57 121.27 792.22 115.08 798.41" style="fill:none; stroke:#fff; stroke-linecap:round; stroke-miterlimit:10; stroke-width:4px;"/><polyline points="122.3 758.98 129.85 766.53 125.28 771.11 137.65 783.48 145.54 775.6" style="fill:none; stroke:#fff; stroke-linecap:round; stroke-miterlimit:10; stroke-width:4px;"/><polyline points="40.57 409.53 40.57 425.95 37.31 429.22" style="fill:none; stroke:#fff; stroke-linecap:round; stroke-miterlimit:10; stroke-width:4px;"/><rect x="47.69" y="552.48" width="8.7" height="8.7" style="fill:none; stroke:#fff; stroke-linecap:round; stroke-miterlimit:10; stroke-width:4px;"/><polyline points="911.21 483.38 901.71 461.36 854.37 461.36 840.79 479.95 840.79 489.18 840.79 521.89 852.26 542.46" style="fill:none; stroke:#fff; stroke-linecap:round; stroke-miterlimit:10; stroke-width:4px;"/><line x1="803.21" y1="489.18" x2="840.79" y2="489.18" style="fill:none; stroke:#fff; stroke-linecap:round; stroke-miterlimit:10; stroke-width:4px;"/><polyline points="889.71 409.53 889.71 442.37 886.68 442.37" style="fill:none; stroke:#fff; stroke-linecap:round; stroke-miterlimit:10; stroke-width:4px;"/><polyline points="870.46 363.64 870.46 445.14 858.07 445.14" style="fill:none; stroke:#fff; stroke-linecap:round; stroke-miterlimit:10; stroke-width:4px;"/><line x1="862.55" y1="428.52" x2="870.46" y2="428.52" style="fill:none; stroke:#fff; stroke-linecap:round; stroke-miterlimit:10; stroke-width:4px;"/><polyline points="862.55 373.14 869.87 365.82 879.16 365.82 885 371.65" style="fill:none; stroke:#fff; stroke-linecap:round; stroke-miterlimit:10; stroke-width:4px;"/><line x1="893.8" y1="564.61" x2="893.8" y2="584" style="fill:none; stroke:#fff; stroke-linecap:round; stroke-miterlimit:10; stroke-width:4px;"/><line x1="885" y1="566.98" x2="885" y2="584" style="fill:none; stroke:#fff; stroke-linecap:round; stroke-miterlimit:10; stroke-width:4px;"/><polyline points="901.71 564.61 901.71 617.23 879.16 617.23" style="fill:none; stroke:#fff; stroke-linecap:round; stroke-miterlimit:10; stroke-width:4px;"/><polyline points="879.16 651.25 879.16 664.3 865.62 689.23 865.62 731.56 813.1 813.05" style="fill:none; stroke:#fff; stroke-linecap:round; stroke-miterlimit:10; stroke-width:4px;"/><line x1="818.68" y1="725.34" x2="857.49" y2="745.21" style="fill:none; stroke:#fff; stroke-linecap:round; stroke-miterlimit:10; stroke-width:4px;"/><line x1="811.48" y1="735.28" x2="850.28" y2="755.15" style="fill:none; stroke:#fff; stroke-linecap:round; stroke-miterlimit:10; stroke-width:4px;"/><line x1="804.82" y1="745.21" x2="843.62" y2="765.09" style="fill:none; stroke:#fff; stroke-linecap:round; stroke-miterlimit:10; stroke-width:4px;"/><line x1="799.28" y1="755.15" x2="838.08" y2="775.02" style="fill:none; stroke:#fff; stroke-linecap:round; stroke-miterlimit:10; stroke-width:4px;"/><line x1="766.81" y1="780.22" x2="807.96" y2="817.8" style="fill:none; stroke:#fff; stroke-linecap:round; stroke-miterlimit:10; stroke-width:4px;"/><polyline points="869.67 651.25 869.67 665.89 852.92 682.63" style="fill:none; stroke:#fff; stroke-linecap:round; stroke-miterlimit:10; stroke-width:4px;"/><polyline points="852.92 651.25 848.57 662.51 840.79 682.63" style="fill:none; stroke:#fff; stroke-linecap:round; stroke-miterlimit:10; stroke-width:4px;"/><line x1="865.62" y1="661.93" x2="848.57" y2="662.51" style="fill:none; stroke:#fff; stroke-linecap:round; stroke-miterlimit:10; stroke-width:4px;"/><polyline points="822 461.36 830.11 461.36 843.76 447.71 848.57 447.71 848.57 377.89 817.19 346.5 805.85 346.5" style="fill:none; stroke:#fff; stroke-linecap:round; stroke-miterlimit:10; stroke-width:4px;"/><polyline points="827.87 371.03 827.87 377.09 817.98 377.09 812.84 382.24 830.37 399.78 848.57 399.78" style="fill:none; stroke:#fff; stroke-linecap:round; stroke-miterlimit:10; stroke-width:4px;"/><polyline points="829.19 429.84 835.98 423.05 848.57 423.05" style="fill:none; stroke:#fff; stroke-linecap:round; stroke-miterlimit:10; stroke-width:4px;"/><polyline points="836.51 365.82 836.51 342.28 806.8 312.58 806.8 293.23 832.17 267.86" style="fill:none; stroke:#fff; stroke-linecap:round; stroke-miterlimit:10; stroke-width:4px;"/><polyline points="843.3 287.42 830.18 300.55 830.18 313.27 835.29 318.38 845.14 318.38 852.71 310.81 845.76 303.87" style="fill:none; stroke:#fff; stroke-linecap:round; stroke-miterlimit:10; stroke-width:4px;"/><polyline points="807.96 784.57 800.31 792.22 806.51 798.41" style="fill:none; stroke:#fff; stroke-linecap:round; stroke-miterlimit:10; stroke-width:4px;"/><polyline points="799.28 758.98 791.73 766.53 796.31 771.11 783.93 783.48 776.04 775.6" style="fill:none; stroke:#fff; stroke-linecap:round; stroke-miterlimit:10; stroke-width:4px;"/><polyline points="881.01 409.53 881.01 425.95 884.27 429.22" style="fill:none; stroke:#fff; stroke-linecap:round; stroke-miterlimit:10; stroke-width:4px;"/><rect x="865.19" y="552.48" width="8.7" height="8.7" transform="translate(1739.08 1113.66) rotate(-180)" style="fill:none; stroke:#fff; stroke-linecap:round; stroke-miterlimit:10; stroke-width:4px;"/></g><g id="e"><circle cx="460.79" cy="120.35" r="15.74" style="fill:#fff;"/></g><line x1="393.71" y1="124.7" x2="527.03" y2="124.7" style="fill:none; stroke:#fff; stroke-linecap:round; stroke-miterlimit:10; stroke-width:4px;"/><g id="f"><polyline points="400.04 72.08 400.04 104.61 406.87 104.61" style="fill:none; stroke:#fff; stroke-linecap:round; stroke-miterlimit:10; stroke-width:4px;"/><polyline points="420.22 100.96 420.22 96.41 420.22 91.86" style="fill:none; stroke:#fff; stroke-linecap:round; stroke-miterlimit:10; stroke-width:4px;"/><polyline points="433.54 96.41 440.34 89.61 440.34 78.68 437.66 76" style="fill:none; stroke:#fff; stroke-linecap:round; stroke-miterlimit:10; stroke-width:4px;"/><line x1="409.54" y1="152.39" x2="409.54" y2="161.36" style="fill:none; stroke:#fff; stroke-linecap:round; stroke-miterlimit:10; stroke-width:4px;"/><line x1="416.79" y1="152.39" x2="416.79" y2="161.36" style="fill:none; stroke:#fff; stroke-linecap:round; stroke-miterlimit:10; stroke-width:4px;"/><line x1="425.89" y1="152.92" x2="425.89" y2="159.38" style="fill:none; stroke:#fff; stroke-linecap:round; stroke-miterlimit:10; stroke-width:4px;"/><line x1="438.29" y1="152.92" x2="438.29" y2="160.3" style="fill:none; stroke:#fff; stroke-linecap:round; stroke-miterlimit:10; stroke-width:4px;"/><line x1="380" y1="131.03" x2="380" y2="171.98" style="fill:none; stroke:#fff; stroke-linecap:round; stroke-miterlimit:10; stroke-width:4px;"/><line x1="374.73" y1="126.68" x2="364.77" y2="116.72" style="fill:none; stroke:#fff; stroke-linecap:round; stroke-miterlimit:10; stroke-width:4px;"/><line x1="372.22" y1="97.27" x2="347.68" y2="121.81" style="fill:none; stroke:#fff; stroke-linecap:round; stroke-miterlimit:10; stroke-width:4px;"/><line x1="368" y1="89.09" x2="341.1" y2="116" style="fill:none; stroke:#fff; stroke-linecap:round; stroke-miterlimit:10; stroke-width:4px;"/><line x1="364.77" y1="82.11" x2="334.01" y2="112.86" style="fill:none; stroke:#fff; stroke-linecap:round; stroke-miterlimit:10; stroke-width:4px;"/><polyline points="521.54 72.08 521.54 104.61 514.71 104.61" style="fill:none; stroke:#fff; stroke-linecap:round; stroke-miterlimit:10; stroke-width:4px;"/><polyline points="501.36 100.96 501.36 96.41 501.36 91.86" style="fill:none; stroke:#fff; stroke-linecap:round; stroke-miterlimit:10; stroke-width:4px;"/><polyline points="488.04 96.41 481.24 89.61 481.24 78.68 483.92 76" style="fill:none; stroke:#fff; stroke-linecap:round; stroke-miterlimit:10; stroke-width:4px;"/><line x1="512.04" y1="152.39" x2="512.04" y2="161.36" style="fill:none; stroke:#fff; stroke-linecap:round; stroke-miterlimit:10; stroke-width:4px;"/><line x1="504.79" y1="152.39" x2="504.79" y2="161.36" style="fill:none; stroke:#fff; stroke-linecap:round; stroke-miterlimit:10; stroke-width:4px;"/><line x1="495.69" y1="152.92" x2="495.69" y2="159.38" style="fill:none; stroke:#fff; stroke-linecap:round; stroke-miterlimit:10; stroke-width:4px;"/><line x1="483.3" y1="152.92" x2="483.3" y2="160.3" style="fill:none; stroke:#fff; stroke-linecap:round; stroke-miterlimit:10; stroke-width:4px;"/><line x1="541.58" y1="131.03" x2="541.58" y2="171.98" style="fill:none; stroke:#fff; stroke-linecap:round; stroke-miterlimit:10; stroke-width:4px;"/><line x1="546.86" y1="126.68" x2="556.81" y2="116.72" style="fill:none; stroke:#fff; stroke-linecap:round; stroke-miterlimit:10; stroke-width:4px;"/><line x1="549.36" y1="97.27" x2="573.91" y2="121.81" style="fill:none; stroke:#fff; stroke-linecap:round; stroke-miterlimit:10; stroke-width:4px;"/><line x1="553.58" y1="89.09" x2="580.48" y2="116" style="fill:none; stroke:#fff; stroke-linecap:round; stroke-miterlimit:10; stroke-width:4px;"/><line x1="556.81" y1="82.11" x2="587.57" y2="112.86" style="fill:none; stroke:#fff; stroke-linecap:round; stroke-miterlimit:10; stroke-width:4px;"/><line x1="440.34" y1="84.61" x2="481.24" y2="84.61" style="fill:none; stroke:#fff; stroke-linecap:round; stroke-miterlimit:10; stroke-width:4px;"/></g></g></g><g id="g"><g id="h"><path d="m170.59,757.27l-23.74,63.69c-3.95,19.31-.41,33.7,11.87,42.33l20.97-97.71-9.1-8.31Z"/><path d="m752.92,757.27l23.74,63.69c3.95,19.31.41,33.7-11.87,42.33l-20.97-97.71,9.1-8.31Z"/><path d="m176.73,773.69l-19.38,95.54c.97,5.8,3.87,9.69,9.69,10.68l17.41-106.22h-7.71Z" style="fill:#ffffdc;"/><path d="m746.79,773.69l19.38,95.54c-.97,5.8-3.87,9.69-9.69,10.68l-17.41-106.22h7.71Z" style="fill:#ffffdc;"/><g id="i"><path d="m180.77,775.47l-18.26,102.24c65.98,66.74,163.09,106.95,298.29,114.69l.19-136.09-280.22-80.84Z" style="fill:url(#j);"/><path d="m740.82,775.47l18.26,102.24c-65.98,66.74-163.09,106.95-298.29,114.69l-.19-136.09,280.22-80.84Z" style="fill:url(#k);"/></g><g id="l"><path d="m642.89,951.51c37.63-33.37,64.78-71.26,77.14-115.52-14.23,25.89-30.14,45.96-47.87,59.74,23.4-21.11,38.83-56.39,50.64-98.11-19.53,38.54-45.68,69.27-82.98,86.81l-178.91-16.78-178.91,16.78c-37.31-17.53-63.45-48.27-82.98-86.81,11.81,41.72,27.24,76.99,50.64,98.11-17.73-13.77-33.64-33.85-47.87-59.74,12.36,44.26,39.52,82.14,77.14,115.52-35.15-26.85-62.85-61.51-82.68-104.44,11.63,41.65,31.52,75.11,60.92,99.11,60.87,30,128.55,45.89,203.74,46.28,75.18-.39,142.87-16.28,203.74-46.28,29.41-24,49.29-57.46,60.92-99.11-19.83,42.93-47.53,77.59-82.68,104.44Z" style="fill:#e2edff;"/></g><g id="m"><path d="m708.83,809.78l-247.93,52.85-247.93-52.85c13.26,34.05,39.99,59.09,75.93,77.96l-24.24-10.41c31.22,24.61,64.94,43.97,103.38,53.34l-41.93-9.49c34.92,20.96,78.74,33.14,134.78,33.23,56.05-.09,99.86-12.27,134.78-33.23l-41.93,9.49c38.45-9.37,72.16-28.73,103.38-53.34l-24.24,10.41c35.94-18.88,62.67-43.91,75.93-77.96Z" style="fill:#8b9cff;"/><path d="m460.91,957.58c-47.71,1.02-92.61-9.89-135.58-29.01,41.94,22.14,86.33,36.88,135.58,35.08,49.24,1.8,93.63-12.94,135.58-35.08-42.97,19.13-87.87,30.03-135.58,29.01Z" style="fill:#8b9cff;"/></g></g><g id="n"><g id="o"><path d="m500.18,876.35c203.11-43.09,339.86-137.88,348.92-275.93.76-11.57-2.06-23.17-5.62-34.6-.33-1.44-16.28-47.87-32.25-73.89-.97-1.58-1.9-3.06-2.79-4.49-.98-218.46-152.43-303.06-336.82-315.11-7.2-.47-14.43-.47-21.63,0-184.39,12.05-335.84,96.65-336.82,315.11-.9,1.42-1.82,2.91-2.79,4.49-15.97,26.02-31.92,72.44-32.25,73.89-3.57,11.43-6.38,23.03-5.62,34.6,9.07,138.06,145.81,232.84,348.92,275.93,25.83,5.52,52.09,5.56,78.77,0Z" style="fill:#270751; stroke:#000; stroke-miterlimit:10; stroke-width:12px;"/></g></g><g id="p"><path id="q" d="m145.01,354.68c-40.92-23.68-15.74-272.87,26.76-332.41,43.32-47.43,92.28-13.08,148.89,82.38l61.71,109.71-237.36,140.31Z" style="fill:#371b72;"/><g id="r"><path d="m147.65,311.42c1.76-237.17,53.16-354.12,145.05-91.25-23.26,42.33-48.55,86.12-143.63,130.09l-1.42-38.83Z" style="fill:#4b35b5;"/><path d="m182.03,345.31c-10.15-12.56-25.53-31.53-31.85-44.9-6.88,15.08.02,45.99,16.88,67.78l14.97-22.88Z" style="fill:#3b0d75;"/><path d="m196.31,306.68c-.08-.21-.16-.41-.23-.62-7.06-18.53-16.8-35.48-28.64-51.2l11.34,24.33c.59,3.09-.21,4.33-3.03,2.9l-13.78-14.31c8.69,13.1,16.23,25.48,19.32,35.08,1.66,4.96-.14,4.86-3.3,2.77l-24.53-24.4,18.99,24.92c.36,3.37-.4,5.4-3.96,4.09l-19.25-23.6,22.95,40.62,4.09,19.78,34.55-26.11-14.74-14.86" style="fill:#300751;"/></g><g id="t"><path d="m147.65,359.09c-13.76-12.64-22.47-36.98-23.67-67.48-1.66-42.15,2.49-101.59,10.57-151.43,7.28-44.93,21.1-103.64,45.59-128.17C188.45,3.69,197.56-.34,207.21.02c32.99,1.23,70.84,32.73,112.52,93.62,31.37,45.83,54.21,93.06,57.41,100.47l-16.99,4.76c-3.12-7.23-25.46-53.4-56.29-98.45-38.86-56.77-68.52-80.05-97.09-81.12-6.27-.23-12.19,2.54-18.12,8.48-39.99,40.07-55.54,190.21-52.67,263.37,1.09,27.67,9.44,49.6,19.79,59.11l-8.12,8.84Z"/></g><path id="u" d="m194.59,308.79c-4.66-47.95-3.85-101.29,3.69-130.21,15.05,27.04,28.42,55.67,40.09,85.9l22.68-30.07,3.16-18.46,3.16,14.24,8.97-12.66c13.04-64.39-7.45-112.81-40.88-155.08-40.05-52.65-75.5-2.57-100.48,176.18,1.96-79.79,18.8-170.21,51.64-203.04,28.18-28.18,69.52,21.42,98.36,90.57,2.03,4.88,3.66,9.92,4.71,15.1,4.18,20.54,4.26,43.38,4.33,65.33,16.38-10.69,29.03-8.95,37.98,5.14l-54.2,64.09-58.55,40.75-24.66-7.78Z" style="fill:#17001b;"/></g><g id="v"><path id="w" d="m776.57,354.68c40.92-23.68,15.68-270.92-26.81-330.46-43.32-47.43-92.22-15.03-148.84,80.44l-61.71,109.71,237.36,140.31Z" style="fill:#371b72;"/><path d="m773.93,311.42c-1.76-237.17-53.16-354.12-145.05-91.25,23.26,42.33,48.55,86.12,143.63,130.09l1.42-38.83Z" style="fill:#4b35b5;"/><path d="m739.55,345.31c10.15-12.56,25.53-31.53,31.85-44.9,6.88,15.08-.02,45.99-16.88,67.78l-14.97-22.88Z" style="fill:#3b0d75;"/><path d="m725.27,306.68c.08-.21.16-.41.23-.62,7.06-18.53,16.8-35.48,28.64-51.2l-11.34,24.33c-.59,3.09.21,4.33,3.03,2.9l13.78-14.31c-8.69,13.1-16.23,25.48-19.32,35.08-1.66,4.96.14,4.86,3.3,2.77l24.53-24.4-18.99,24.92c-.36,3.37.4,5.4,3.96,4.09l19.25-23.6-22.95,40.62-4.09,19.78-34.55-26.11,14.74-14.86" style="fill:#300751;"/><g id="x"><path d="m773.93,359.09c13.76-12.64,22.47-36.98,23.67-67.48,1.66-42.15-2.49-101.59-10.57-151.43-7.28-44.93-21.1-103.64-45.59-128.17-8.3-8.32-17.41-12.35-27.06-11.99-32.99,1.23-70.84,32.73-112.52,93.62-31.37,45.83-54.21,93.06-57.41,100.47l16.99,4.76c3.12-7.23,25.46-53.4,56.29-98.45,38.86-56.77,68.52-80.05,97.09-81.12,6.27-.23,12.19,2.54,18.12,8.48,39.99,40.07,55.54,190.21,52.67,263.37-1.09,27.67-9.44,49.6-19.79,59.11l8.12,8.84Z"/></g><path id="y" d="m726.99,308.79c4.66-47.95,3.85-101.29-3.69-130.21-15.05,27.04-28.42,55.67-40.09,85.9l-22.68-30.07-3.16-18.46-3.16,14.24-8.97-12.66c-13.04-64.39,7.45-112.81,40.88-155.08,40.05-52.65,75.5-2.57,100.48,176.18-1.96-79.79-18.8-170.21-51.64-203.04-28.18-28.18-69.52,21.42-98.36,90.57-2.03,4.88-3.66,9.92-4.71,15.1-4.18,20.54-4.26,43.38-4.33,65.33-16.38-10.69-29.03-8.95-37.98,5.14l54.2,64.09,58.55,40.75,24.66-7.78Z" style="fill:#17001b;"/><g><path d="m160.41,110.92c-2.7,9.06-5.34,19.06-7.91,30-10.84,113.26-18.6,193.03,2,211.91l3.35,3.3-1.51-6.33c-19.51-35.17-11.44-129.09,4.06-238.88Z" style="fill:#ffffdc;"/><g><path d="m761.17,110.92c15.5,109.78,23.57,203.71,4.06,238.88l-1.51,6.33,3.35-3.3c20.6-18.88,12.84-98.65,2-211.91-2.57-10.95-5.2-20.94-7.91-30Z" style="fill:#ffffdc;"/><path d="m714.77,27.66c7.18-.69,14,1.74,20.19,7.93,11.86,11.86,21.63,31.23,29.37,54.9-.23-2.48-.45-4.96-.68-7.46-.91-10.08-3-19.3-7.63-28.29-41.6-84.03-108.54-24.11-192.86,134.48-37.86-11.32-67.98-14.34-102.37-14.08-34.39-.25-64.51,2.76-102.37,14.08C274.11,30.63,207.16-29.29,165.57,54.74c-4.63,8.99-6.72,18.21-7.63,28.29-.23,2.5-.45,4.99-.68,7.46,7.74-23.67,17.51-43.04,29.37-54.9,6.19-6.19,13-8.62,20.19-7.93,16.54-.62,35.94,12.8,57.94,38.89,25.09,30.78,56.47,68.54,82.92,139.79,72.83-26.07,147.99-27.02,226.68,0,26.45-71.25,57.39-109.01,82.48-139.79,21.99-26.09,41.4-39.5,57.94-38.89Z" style="fill:#ffffdc;"/></g></g></g><g id="z"><line x1="256.65" y1="92.06" x2="291.86" y2="65.95" style="fill:none; stroke:#000; stroke-miterlimit:10; stroke-width:8px;"/><line x1="262.98" y1="102.92" x2="298.19" y2="76.81" style="fill:none; stroke:#000; stroke-miterlimit:10; stroke-width:8px;"/><g><line x1="664.93" y1="92.06" x2="629.72" y2="65.95" style="fill:none; stroke:#000; stroke-miterlimit:10; stroke-width:8px;"/><line x1="658.6" y1="102.92" x2="623.39" y2="76.81" style="fill:none; stroke:#000; stroke-miterlimit:10; stroke-width:8px;"/></g></g><g id="ab"><path d="m842.41,561.44c-5.28-20.31-15.22-43.5-31.19-69.52-11.79-19.2-18.07-26.2-24.78-41.94-3.07-7.2-5.11-14.79-6.18-22.53-15.6-112.7-130.46-232.68-319.47-241.02-195.45,8.34-303.87,128.32-319.47,241.02-1.07,7.75-3.12,15.34-6.18,22.53-6.7,15.74-12.99,22.74-24.78,41.94-15.97,26.02-25.91,49.21-31.19,69.52-5.37,20.63-5.57,38.2-2.84,59.34,11.44,127.04,192.14,238.05,381.47,254.51,1,0,1.99,0,2.99-.02,1,0,1.99.02,2.99.02,189.34-16.46,370.04-127.47,381.47-254.51,2.72-21.14,2.52-38.71-2.84-59.34Z" style="fill:url(#ac);"/><path d="m145.08,440.59c-8.49,30.56-25.36,58.99-40.68,84.41-8.85,14.69-13.31,26.54-16.88,40.67-3.2,12.68-7.09,24.77-5.74,34.35,5.36,27.92,13.19,53.17,24.2,74.97,10.87,11.72,10.46,8.82,4.88-.79-19.72-32.39-24.13-76.75-24.13-76.75,0,0,11.9,62.83,57.76,110.77,42.54,44.47,97.82,85.61,135.3,109.58-97.8-43.5-174.41-103.88-197.41-184.75-12.75-36.42-7.15-73.37,13.85-110.77,18.8-33.82,37.92-68.12,45.49-85.05l2.24-10.15,1.12,13.52Z" style="fill:#ffffdc; fill-rule:evenodd;"/><path d="m776.44,440.59c8.49,30.56,25.36,58.99,40.68,84.41,8.85,14.69,13.31,26.54,16.88,40.67,3.2,12.68,7.09,24.77,5.74,34.35-5.36,27.92-13.19,53.17-24.2,74.97-10.87,11.72-10.46,8.82-4.88-.79,19.72-32.39,24.13-76.75,24.13-76.75,0,0-11.9,62.83-57.76,110.77-42.54,44.47-97.82,85.61-135.3,109.58,97.8-43.5,174.41-103.88,197.41-184.75,12.75-36.42,7.15-73.37-13.85-110.77-18.8-33.82-37.92-68.12-45.49-85.05l-2.24-10.15-1.12,13.52Z" style="fill:#ffffdc; fill-rule:evenodd;"/><g id="ad"><path d="m787.26,533c-32.5-31.37-73.36-36.99-99.96-25.75-7.38,3.12-11.82,8.82-16.66,14.34-17.02,22.57-2.46,36.3-39.91,58.45-9.77,5.78-39.43.13-53.9-6.23-3.42-1.51-13.15-6.92-21.66-12.56-3.16-2.09-6.5-2.51-8.57-3.49-.72,20.99-4.43,42-11.08,63.03-20.06-20.37-45.53-29.1-74.73-29.8-29.2.7-54.66,9.43-74.73,29.8-6.64-21.03-10.36-42.04-11.08-63.03-2.07.99-5.41,1.4-8.57,3.49-8.51,5.64-18.23,11.05-21.66,12.56-14.47,6.36-44.13,12.01-53.9,6.23-37.45-22.15-22.89-35.88-39.91-58.45-4.84-5.52-9.29-11.22-16.66-14.34-26.6-11.24-67.46-5.62-99.96,25.75-13.55,13.07-21.97,30.77-22.35,49.59-1.34,65.82,85.14,127.47,200.78,187.74,22.66,11.61,53.12,22.28,80.51,30.69,44.01,13.51,91.05,13.51,135.06,0,27.4-8.41,57.86-19.08,80.51-30.69,115.63-60.27,202.12-121.92,200.78-187.74-.38-18.82-8.81-36.51-22.35-49.59Z" style="fill:#fff;"/><path d="m353.07,567.97c-51.47,13.93-74.75,7.39-84.07-9.3,16.95,16.7,41.27,18.66,70.91,9.99-40.12,7.29-59.82.96-68.74-12.56,11.18,9.77,27.17,14.97,50.54,13.15-18.75-.09-33.48-5.13-45.4-13.65,10.05,3.98,20.27,6.45,30.66,7.62-9.83-2.15-20.71-7.55-30.36-16.02-8.83-7.75-18.7-16.38-26.11-28.09-3.67-5.8-10.52-8.79-16.22-11.87-9.52,10.74-10.31,22.79,1.98,36.79,13.92,18.38,30.85,31.03,50.44,38.58,2.46.95,5.06,1.49,7.69,1.63,26.17,1.36,50.67-4.44,72.15-23.07-21.92,14.23-43.45,20.54-64.65,19.96-5.58-.15-11.07-1.41-16.18-3.64l-9.63-4.2c23.38,10.88,49.29,7.73,76.98-5.34Z" style="fill:#ffe6ba;"/><path d="m568.52,567.97c51.47,13.93,74.75,7.39,84.07-9.3-16.95,16.7-41.27,18.66-70.91,9.99,40.12,7.29,59.82.96,68.74-12.56-11.18,9.77-27.17,14.97-50.54,13.15,18.75-.09,33.48-5.13,45.4-13.65-10.05,3.98-20.27,6.45-30.66,7.62,9.83-2.15,20.71-7.55,30.36-16.02,8.83-7.75,18.7-16.38,26.11-28.09,3.67-5.8,10.52-8.79,16.22-11.87,9.52,10.74,10.31,22.79-1.98,36.79-13.92,18.38-30.85,31.03-50.44,38.58-2.46.95-5.06,1.49-7.69,1.63-26.17,1.36-50.67-4.44-72.15-23.07,21.92,14.23,43.45,20.54,64.65,19.96,5.58-.15,11.07-1.41,16.18-3.64l9.63-4.2c-23.38,10.88-49.29,7.73-76.98-5.34Z" style="fill:#ffe6ba;"/></g><g id="ae"><path d="m616.22,694.7c-1.55-4.82-7.93-5.97-11.3-2.19-106.14,83.47-108.86,8.49-108.86,8.49h-70.16s-2.73,74.98-108.86-8.49c-3.37-3.79-9.74-2.64-11.3,2.19-1.72,5.35.15,12.93,5.22,22.51,17.15,32.47,60.43,64.79,99.52,66.07,13.89.45,27.74-2.49,39.99-9.06,3.94-2.11,7.47-4.43,10.51-7.01,3.04,2.58,6.58,4.9,10.51,7.01,12.25,6.57,26.1,9.51,39.99,9.06,39.09-1.28,82.37-33.6,99.52-66.07,5.08-9.57,6.95-17.16,5.22-22.51Z" style="fill:url(#ag); opacity:.8;"/><path d="m597.97,709.86c-1.65-2.36-3.58-2.2-6.01,2.18-5.4,9.72-8.12,16.53-14.64,24.86-4.35,5.56-12.74,12.71-18.83,16.27-28.08,16.44-57.58,19.27-88.78,1.74-1.86-1.05-3.02-3.01-3.02-5.15v-30.46l-5.89-3.82-5.89,3.82v30.46c0,2.13-1.16,4.1-3.02,5.15-31.21,17.54-60.71,14.7-88.78-1.74-6.09-3.57-14.48-10.71-18.83-16.27-6.51-8.32-9.24-15.14-14.64-24.86-2.43-4.38-4.37-4.54-6.01-2.18-1.46,2.09-1.67,4.81-.77,7.2,9.92,26.45,28.29,47.43,64.6,56.82,3.73.97,7.56,1.56,11.42,1.75,21.71,1.08,42.31.49,55.4-11.28,1.6-1.44,3.71-2.19,5.87-2.19h1.33c2.16,0,4.26.75,5.87,2.19,13.09,11.76,33.68,12.36,55.4,11.28,3.85-.19,7.68-.78,11.42-1.75,36.31-9.39,54.69-30.37,64.6-56.82.9-2.39.68-5.11-.77-7.2Z" style="fill:#1a0033;"/></g><g id="ah"><path d="m529.19,644c-5.26-22.96-30.69-31.75-68.4-31.91-37.71.16-63.14,8.95-68.4,31.91-1.95,9.54-2.83,23.84.26,30.59,13.8,34.92,37.22,46.43,68.13,47.21,30.91-.78,54.33-12.29,68.13-47.21,3.09-6.75,2.22-21.05.26-30.59Z" style="fill:#1a0033;"/><g id="ai"><path d="m499.19,688.83c-13.76,2.66-26.73,3.14-38.4,0-11.67,3.14-24.64,2.66-38.4,0-4.09-.38-7.01.83-6.92,6.13,12.85,13.98,27.96,21.89,45.32,23.74,17.36-1.85,32.47-9.76,45.32-23.74.09-5.31-2.83-6.51-6.92-6.13Z" style="fill:#260366;"/></g><g id="aj"><path d="m483.45,636.35h-22.66s-22.66,0-22.66,0c-5.39.91-6.69,5.32-6.44,11.08h58.2c.26-5.75-1.05-10.17-6.44-11.08Z" style="fill:#fff;"/><path d="m483.64,617.36c14.82,1.26,24.01,7.69,29.91,17.14-16.21-3.61-33.47-5.37-52.57-3.82-19.11-1.54-36.36.21-52.57,3.82,5.9-9.45,15.09-15.88,29.91-17.14,15.35-1.95,30.48-2.09,45.32,0Z" style="fill:#fff;"/><path d="m408.22,671.14c3.04-.58,6.1-.73,9.17-.79,0,0-.53.18-.53.18,2.56-1.99,5.72-3.15,8.83-3.91,1.57-.36,3.22-.58,4.9-.29,4.33.7,7.13,4.98,8.1,8.98.57,2.4.35,4.98.13,7.33-.13,1.58-.33,3.16-.59,4.74-.02.11-.18.11-.2,0-.57-3.1-.64-6.28-.99-9.39-.71-6.21-5.26-13.25-12.32-10.44-2.53,1-4.58,2.89-6.8,4.41l-.27.18h-.27c-3.07-.07-6.13-.22-9.17-.8-.1-.02-.11-.18,0-.2h0Z" style="fill:#fff;"/><path d="m513.36,671.34c-3.13.59-6.28.74-9.44.8,0,0-.27-.18-.27-.18-2.22-1.52-4.27-3.41-6.8-4.41-7.05-2.81-11.6,4.24-12.32,10.44-.35,3.11-.42,6.28-.99,9.39-.01.11-.19.11-.2,0-.26-1.58-.46-3.16-.59-4.74-.22-2.35-.43-4.93.13-7.33.97-4,3.77-8.28,8.1-8.98,1.68-.29,3.33-.07,4.9.29,3.11.76,6.27,1.92,8.83,3.91l-.53-.18c3.07.06,6.13.22,9.17.79.1.02.11.18,0,.2h0Z" style="fill:#fff;"/><path d="m475.62,711.8c-1.05.54-2.87,1.56-4.05,1.56l-10.78.99-10.78-.99c-1.18,0-3-1.02-4.05-1.56-4.41-2.27-4.3-1.89-1.67,1.81,1.15,1.61,2.9,2.71,4.86,3.04,4.08.7,8.02,1.2,11.65,1.25,3.62-.05,7.56-.55,11.65-1.25,1.95-.33,3.71-1.43,4.86-3.04,2.63-3.7,2.74-4.08-1.67-1.81Z" style="fill:#fff;"/></g></g><g id="ak"><path id="al" d="m301.54,392.13c4.14-6.78,11.64-16.11,23.54-19.98,26.69-8.68,58.43,15.71,64.48,40.75.96,3.96,4.16,17.2-3.76,26.7-4.81,5.78-13.09,9.4-20.57,8.11-6.05-1.05-7.1-4.54-15.03-10.48-13.2-9.88-18.49-6.33-35.01-17.6-8.99-6.13-12.03-10.33-13.45-14.84-1.59-5.04-.93-9.7-.2-12.66Z" style="fill:#fff;"/><path id="am" d="m620.04,392.13c-4.14-6.78-11.64-16.11-23.54-19.98-26.69-8.68-58.43,15.71-64.48,40.75-.96,3.96-4.16,17.2,3.76,26.7,4.81,5.78,13.09,9.4,20.57,8.11,6.05-1.05,7.1-4.54,15.03-10.48,13.2-9.88,18.49-6.33,35.01-17.6,8.99-6.13,12.03-10.33,13.45-14.84,1.59-5.04.93-9.7.2-12.66Z" style="fill:#fff;"/><g id="an"><path id="ao" d="m376.94,536.13c1.05,7.45-.31,12.44-5.78,13.25-31.23,17.96-62.18,17.99-88.25,1.83-4.3-2.67-8.1-6.08-11.21-10.08-16.8-21.59-31.51-34.09-48.89-43.16-2.3-3.34-1.73-6.29,1.19-8.92l10.98-3.82c4.55-1.58,8.62-4.32,11.76-7.97,57.73-66.9,122.9-43.08,129.47,51.2.18,2.56.37,5.13.73,7.67Z" style="fill:#15001c;"/><path id="ap" d="m544.64,536.13c-1.05,7.45.31,12.44,5.78,13.25,31.23,17.96,62.18,17.99,88.25,1.83,4.3-2.67,8.1-6.08,11.21-10.08,16.8-21.59,31.51-34.09,48.89-43.16,2.3-3.34,1.73-6.29-1.19-8.92l-10.98-3.82c-4.55-1.58-8.62-4.32-11.76-7.97-57.73-66.9-122.9-43.08-129.47,51.2-.18,2.56-.37,5.13-.73,7.67Z" style="fill:#15001c;"/><g id="aq"><g id="ar"><path d="m280.18,471.45c-4.45.67-6.81,13.49-6.53,23.34.16,5.57.99,34.35,25.32,46.29,16.27,7.98,36.36,5.14,49.25-6.13,6.34-5.54,13.99-13.85,11.87-17.6-2.36-4.17-13.44,3-28.88,0-18.29-3.56-30.86-19.1-35.41-24.73-9.84-12.17-11.67-21.76-15.63-21.16Z" style="fill:url(#as);"/><path d="m352.07,545.57c-1.45,1.65-3.19,3.03-5.11,4.1-18.4,10.2-37.31,8.52-57.69-6.02-18.49-12.7-26.76-26.61-24.68-49.15.66-7.11,3.73-13.83,8.85-18.8,1.94-1.89,3.9-3.47,5.81-4.27-3.61,25.3.26,46.92,14.85,60.08,11.18,10.09,27.19,13.28,41.42,8.33,10.64-3.7,16.96-11,22.55-20.15.59-.96,1.54-1.71,2.66-1.86,1.62-.23,2.38.82,2.79,3.06.15.83.21,1.67.19,2.51-2.14,8.52-6.07,15.88-11.62,22.17Z" style="fill:url(#at);"/><path d="m641.41,471.45c4.45.67,6.81,13.49,6.53,23.34-.16,5.57-.99,34.35-25.32,46.29-16.27,7.98-36.36,5.14-49.25-6.13-6.34-5.54-13.99-13.85-11.87-17.6,2.36-4.17,13.44,3,28.88,0,18.29-3.56,30.86-19.1,35.41-24.73,9.84-12.17,11.67-21.76,15.63-21.16Z" style="fill:url(#au);"/><path d="m569.51,545.57c1.45,1.65,3.19,3.03,5.11,4.1,18.4,10.2,37.31,8.52,57.69-6.02,18.49-12.7,26.76-26.61,24.68-49.15-.66-7.11-3.73-13.83-8.85-18.8-1.94-1.89-3.9-3.47-5.81-4.27,3.61,25.3-.26,46.92-14.85,60.08-11.18,10.09-27.19,13.28-41.42,8.33-10.64-3.7-16.96-11-22.55-20.15-.59-.96-1.54-1.71-2.66-1.86-1.62-.23-2.38.82-2.79,3.06-.15.83-.21,1.67-.19,2.51,2.14,8.52,6.07,15.88,11.62,22.17Z" style="fill:url(#av);"/></g><g id="aw"><path d="m290.66,470.85c5.85-1.86,12.67,6.62,14.04,5.34.86-.8-1.87-4.04-3.16-5.24-4.22-3.92-4.47-5.48-4.75-7.48-.53-3.76,5.77-8.83,10.88-10.42,7.27-2.26,17.2,1.02,19.98,8.31,2.42,6.34-1.74,12.66-3.56,15.43-.81,1.23-6.43,9.46-16.81,10.68-1.5.18-7.55.73-13.45-2.77-1.36-.81-8.07-4.79-7.32-9.3.33-1.98,2.07-3.88,4.15-4.55Z" style="fill:#fff;"/><path d="m630.92,470.85c-5.85-1.86-12.67,6.62-14.04,5.34-.86-.8,1.87-4.04,3.16-5.24,4.22-3.92,4.47-5.48,4.75-7.48.53-3.76-5.77-8.83-10.88-10.42-7.27-2.26-17.2,1.02-19.98,8.31-2.42,6.34,1.74,12.66,3.56,15.43.81,1.23,6.43,9.46,16.81,10.68,1.5.18,7.55.73,13.45-2.77,1.36-.81,8.07-4.79,7.32-9.3-.33-1.98-2.07-3.88-4.15-4.55Z" style="fill:#fff;"/></g><g id="ax"><path d="m295.18,518.74c2.08-4.16,6.24-7.42,10.33-8.44,12.87-3.21,26.94,15.28,30.57,12.19,1.62-1.38-.25-5.89,1.15-6.42,1.02-.39,3.01,1.62,4.02,3.69,2.33,4.76.45,11.82-3.87,15.93-3.8,3.61-8.46,3.94-13.39,4.28-10.59.74-18.08-3.53-22.42-6.01-6.2-3.54-7.27-6.06-7.64-7.41-.94-3.44.64-6.59,1.25-7.82Z" style="fill:url(#ay); opacity:.75;"/><path d="m626.4,518.74c-2.08-4.16-6.24-7.42-10.33-8.44-12.87-3.21-26.94,15.28-30.57,12.19-1.62-1.38.25-5.89-1.15-6.42-1.02-.39-3.01,1.62-4.02,3.69-2.33,4.76-.45,11.82,3.87,15.93,3.8,3.61,8.46,3.94,13.39,4.28,10.59.74,18.08-3.53,22.42-6.01,6.2-3.54,7.27-6.06,7.64-7.41.94-3.44-.64-6.59-1.25-7.82Z" style="fill:url(#az); opacity:.75;"/></g></g></g></g></g><g id="ba"><path d="m280.62,233.81c-44.11,26.73-123.7,80.95-139.3,193.65-1.07,7.75-3.12,15.34-6.18,22.53-6.7,15.74-12.99,22.74-24.78,41.94-15.97,26.02-25.91,49.21-31.19,69.52-5.37,20.63-5.57,38.2-2.84,59.34,11.44,127.04,192.14,238.05,381.47,254.51h2.99s2.99,0,2.99,0c189.34-16.46,370.04-127.47,381.47-254.51,2.72-21.14,2.52-38.71-2.84-59.34-5.28-20.31-15.22-43.5-31.19-69.52-11.79-19.2-18.07-26.2-24.78-41.94-3.07-7.2-5.11-14.79-6.18-22.53-15.6-112.7-94.15-165.88-138.26-192.61" style="fill:none; stroke:#000; stroke-miterlimit:10; stroke-width:4px;"/><g id="bb"><polygon points="415.41 255.07 374.63 218.51 342.98 213.76 323.46 194.77 305.53 194.77 277.57 228 283.9 242.24 306.06 257.01 308.69 269.67 376.91 304.13 415.41 255.07" style="fill:url(#bc);"/><polygon points="506.17 255.07 546.95 218.51 578.6 213.76 598.12 194.77 616.05 194.77 644.01 228 637.68 242.24 615.53 257.01 612.89 269.67 544.67 304.13 506.17 255.07" style="fill:url(#bd);"/><g id="be"><path d="m388.06,265.74l-33.82-28.03-18.73,23.69c-1.55,2.03-3.63,3.26-5.43,1.46l-2.01-1.41c-1.56-1.56-1.65-4.05-.22-5.72l21.57-25.63,5.26.64,35.47,31.85-2.09,3.15Z" style="fill:#b7f9ff;"/><rect x="356.89" y="246.72" width="17.23" height="35.58" rx="4.31" ry="4.31" transform="translate(-69.64 383.68) rotate(-51.21)" style="fill:#b7f9ff;"/><rect x="355.05" y="258.14" width="2.54" height="35.58" rx="1.27" ry="1.27" transform="translate(-81.98 380.79) rotate(-51.21)" style="fill:#b7f9ff;"/><rect x="297.9" y="210.35" width="31.6" height="31.6" rx="4.31" ry="4.31" transform="translate(-59.1 328.98) rotate(-51.21)" style="fill:url(#bf);"/><rect x="303.31" y="215.76" width="20.79" height="20.79" rx="4.31" ry="4.31" transform="translate(-59.1 328.98) rotate(-51.21)" style="fill:#b7f9ff;"/><polygon points="286.8 235.92 282.58 240.4 305.27 258.86 307.11 268.62 313.7 268.62 313.7 258.07 286.8 235.92" style="fill:#fff;"/><polygon points="320.63 194.94 320.23 197.61 339.48 216.6 344.32 217.91 343.51 212.71 323.46 194.77 320.63 194.94" style="fill:#fff;"/><rect x="352.29" y="261.58" width="2.54" height="35.58" rx="1.27" ry="1.27" transform="translate(-85.69 379.92) rotate(-51.21)" style="fill:#b7f9ff;"/><path d="m533.52,265.74l33.82-28.03,18.73,23.69c1.55,2.03,3.63,3.26,5.43,1.46l2.01-1.41c1.56-1.56,1.65-4.05.22-5.72l-21.57-25.63-5.26.64-35.47,31.85,2.09,3.15Z" style="fill:#b7f9ff;"/><rect x="547.46" y="246.72" width="17.23" height="35.58" rx="4.31" ry="4.31" transform="translate(698.29 863.64) rotate(-128.79)" style="fill:#b7f9ff;"/><rect x="563.99" y="258.14" width="2.54" height="35.58" rx="1.27" ry="1.27" transform="translate(704.32 889.37) rotate(-128.79)" style="fill:#b7f9ff;"/><rect x="592.08" y="210.35" width="31.6" height="31.6" rx="4.31" ry="4.31" transform="translate(812.45 841.63) rotate(-128.79)" style="fill:url(#bg);"/><rect x="597.49" y="215.76" width="20.79" height="20.79" rx="4.31" ry="4.31" transform="translate(812.45 841.63) rotate(-128.79)" style="fill:#b7f9ff;"/><polygon points="634.78 235.92 639 240.4 616.32 258.86 614.47 268.62 607.88 268.62 607.88 258.07 634.78 235.92" style="fill:#fff;"/><polygon points="600.95 194.94 601.35 197.61 582.1 216.6 577.26 217.91 578.07 212.71 598.12 194.77 600.95 194.94" style="fill:#fff;"/><rect x="566.76" y="261.58" width="2.54" height="35.58" rx="1.27" ry="1.27" transform="translate(706.14 897.13) rotate(-128.79)" style="fill:#b7f9ff;"/></g></g><g id="bh"><path d="m213.75,306.68c-6.68,0-17.27,2.33-21.69,6.83-9.91,10.1-18.74,23.18-23.28,39.72h89.94c0-25.71-20.13-46.55-44.97-46.55Z"/><path d="m707.83,306.68c6.68,0,17.27,2.33,21.69,6.83,9.91,10.1,18.74,23.18,23.28,39.72h-89.94c0-25.71,20.13-46.55,44.97-46.55Z"/><polygon points="383.12 319.27 216.84 334.7 216.84 319.27 389.86 301.4 383.12 319.27" style="fill-rule:evenodd;"/><polygon points="538.47 319.27 704.74 334.7 704.74 319.27 531.73 301.4 538.47 319.27" style="fill-rule:evenodd;"/><path d="m381.67,367.34l-12.51-57.5-123.18,15.79c-7.94-8.81-19.44-14.34-32.23-14.34-23.96,0-43.39,19.43-43.39,43.39s19.43,43.39,43.39,43.39c18.29,0,33.92-11.32,40.31-27.32l127.61-3.41Z" style="fill:#fff; fill-rule:evenodd;"/><path d="m539.91,367.34l12.51-57.5,123.18,15.79c7.94-8.81,19.44-14.34,32.23-14.34,23.96,0,43.39,19.43,43.39,43.39,0,23.96-19.43,43.39-43.39,43.39-18.29,0-33.92-11.32-40.31-27.32l-127.61-3.41Z" style="fill:#fff; fill-rule:evenodd;"/><g id="bi"><g id="bj"><rect x="250.38" y="368.2" width="47" height="3.36" transform="translate(-9.29 7.06) rotate(-1.45)" style="fill:#fff;"/><polygon points="384 350.32 215.34 356.13 215.34 371.56 390.83 368.2 384 350.32" style="fill:url(#bk); fill-rule:evenodd;"/><polygon points="537.58 350.32 706.25 356.13 706.25 371.56 530.75 368.2 537.58 350.32" style="fill:url(#bl); fill-rule:evenodd;"/></g><g id="bm"><path d="m366.73,351.03l-120.01,9.9-6.24-30.99,125.62-15.26c-1.13,7.21-2.18,19.92.63,36.35Z" style="fill:url(#bn); fill-rule:evenodd;"/><path d="m554.85,351.03l120.01,9.9,6.24-30.99-125.62-15.26c1.13,7.21,2.18,19.92-.63,36.35Z" style="fill:url(#bo); fill-rule:evenodd;"/><g id="bp"><polygon points="368.31 347.51 342.02 347.51 340.41 327.15 368.31 327.15 368.31 347.51"/><rect x="340.39" y="316.12" width="27.9" height="17.36" transform="translate(-36.74 45.32) rotate(-6.96)" style="fill:#00007b;"/><rect x="553.29" y="316.12" width="27.9" height="17.36" transform="translate(1090.95 715.93) rotate(-173.04)" style="fill:#00007b;"/><line x1="368.21" y1="328.9" x2="340.94" y2="332.22" style="fill:none; stroke:#fff; stroke-miterlimit:10; stroke-width:6px;"/><line x1="368.22" y1="346.12" x2="342.12" y2="349.3" style="fill:none; stroke:#fff; stroke-miterlimit:10; stroke-width:6px;"/><polygon points="553.27 347.51 579.56 347.51 581.17 327.15 553.27 327.15 553.27 347.51"/><line x1="553.37" y1="328.9" x2="580.65" y2="332.22" style="fill:none; stroke:#fff; stroke-miterlimit:10; stroke-width:6px;"/><line x1="553.36" y1="346.12" x2="579.46" y2="349.3" style="fill:none; stroke:#fff; stroke-miterlimit:10; stroke-width:6px;"/><line x1="233.61" y1="331.63" x2="288.23" y2="330.24" style="fill:#fff; stroke:#000; stroke-miterlimit:10; stroke-width:6px;"/></g><circle cx="213.75" cy="354.68" r="40.09" style="fill:#0b2f72;"/><circle cx="707.83" cy="354.68" r="40.09" style="fill:#0b2f72;"/><circle cx="213.75" cy="354.68" r="29.01" style="fill:#fff;"/><circle cx="707.83" cy="354.68" r="29.01" style="fill:#fff;"/><circle cx="213.75" cy="354.68" r="16.88" style="fill:#369acb;"/><circle cx="707.83" cy="354.68" r="16.88" style="fill:#369acb;"/><path d="m205.92,338.31c4.28,9.77,5.14,15.75,10.92,15.65-4.25-4.92-3.28-10.47-4-17.23l-6.92,1.59Z" style="fill:#fff; fill-rule:evenodd;"/><path d="m715.66,338.31c-4.28,9.77-5.14,15.75-10.92,15.65,4.25-4.92,3.28-10.47,4-17.23l6.92,1.59Z" style="fill:#fff; fill-rule:evenodd;"/><polygon points="298.47 356.67 290.77 357.34 285.81 316.64 293.48 315.71 298.47 356.67" style="fill-rule:evenodd;"/><polygon points="623.11 356.67 630.81 357.34 635.78 316.64 628.1 315.71 623.11 356.67" style="fill-rule:evenodd;"/></g></g><circle cx="460.79" cy="331.2" r="94.07" style="fill:#81f7fe; stroke:#001270; stroke-miterlimit:10; stroke-width:4px;"/><circle cx="460.79" cy="331.2" r="58.73" style="fill:url(#bq);"/><circle cx="460.79" cy="331.2" r="76.79" style="fill:#99fafe;"/><circle cx="460.79" cy="331.2" r="55.08" style="fill:#fff;"/><circle cx="460.79" cy="331.2" r="53.92" style="fill:none; stroke:#0074f6; stroke-miterlimit:10; stroke-width:5px;"/><circle cx="460.79" cy="331.2" r="73.1" style="fill:none; stroke:#005cd1; stroke-miterlimit:10; stroke-width:4px;"/><circle cx="460.79" cy="331.2" r="79.12" style="fill:none; stroke:#0d43b0; stroke-miterlimit:10; stroke-width:8px;"/><circle cx="460.79" cy="331.2" r="33.54" style="fill:#16ffff;"/><polygon points="457.76 237.14 443.36 237.66 450.56 252.24 457.76 252.08 457.76 237.14" style="fill:url(#br);"/><polygon points="463.82 237.14 478.22 237.66 471.02 252.24 463.82 252.08 463.82 237.14" style="fill:url(#bs);"/><circle cx="460.79" cy="331.2" r="25.49" style="fill:none; stroke:#fff; stroke-miterlimit:10; stroke-width:5px;"/><polygon points="265.34 342.17 288.58 339.34 290.77 357.34 267.41 359.14 265.34 342.17" style="fill:url(#bt); fill-rule:evenodd;"/><polygon points="656.24 342.17 633.01 339.34 630.81 357.34 654.17 359.14 656.24 342.17" style="fill:url(#bu); fill-rule:evenodd;"/></g><g id="bv"><polygon points="461.76 416.3 441.71 416.3 444.09 529.8 461.76 529.8 479.43 529.8 481.8 416.3 461.76 416.3" style="fill:#81f7fe; fill-rule:evenodd;"/><polygon points="461.76 408 444.09 408 447.27 529.8 461.76 529.8 476.25 529.8 479.43 408 461.76 408" style="fill:url(#bw); fill-rule:evenodd;"/></g><g id="bx"><g><g><path d="m445.47,588.26l-8.68-5.99v-48.46c0-3.04,2.48-5.52,5.52-5.52h36.97c3.04,0,5.52,2.48,5.52,5.52v48.46l-8.68,5.99h-30.65Z" style="fill:#1d2572; fill-rule:evenodd;"/><path d="m479.27,529.8c2.22,0,4.02,1.8,4.02,4.02v47.67l-7.65,5.27h-29.71l-7.65-5.27v-47.67c0-2.22,1.8-4.02,4.02-4.02h36.97m0-3h-36.97c-3.87,0-7.02,3.15-7.02,7.02v49.25l1.3.89,7.65,5.27.77.53h31.58l.77-.53,7.65-5.27,1.3-.89v-49.25c0-3.87-3.15-7.02-7.02-7.02h0Z" style="fill:#fff;"/></g><g><rect x="451.99" y="553.52" width="17.6" height="20.46" style="fill:#1d2572;"/><path d="m464.59,558.52v10.46h-7.6v-10.46h7.6m10-10h-27.6v27.69l2.77,2.77h22.07l2.77-2.77v-27.69h0Z" style="fill:#fff;"/></g><polygon points="460.79 540.48 446.99 540.48 446.99 543.38 460.79 543.38 474.59 543.38 474.59 540.48 460.79 540.48" style="fill:#fff; fill-rule:evenodd;"/></g></g><polygon points="460.79 409.17 452.92 409.17 452.92 425.16 460.79 425.16 468.66 425.16 468.66 409.17 460.79 409.17" style="fill:#fff;"/><g id="by"><polygon points="326.02 319.67 294.42 323.4 298.47 356.67 331.55 353.95 326.02 319.67" style="fill:#4a3a98; fill-rule:evenodd;"/><polygon points="595.57 319.67 627.16 323.4 623.11 356.67 590.03 353.95 595.57 319.67" style="fill:#4a3a98; fill-rule:evenodd;"/></g><g id="bz"><g><path d="m329.29,319.16c1.22,14.47,2.87,27.42,5.98,34.46l7.96-.65c-2.32-5.12-4.91-20.73-7.1-34.65l-6.84.84Z" style="fill:#07adf7;"/><path d="m324.2,319.89l5.11-.62c.52,12.09,2.42,23.57,5.96,34.35l-5.14.45c-2.3-9.79-4.19-21.37-5.93-34.18Z"/><path d="m336.13,318.32l5.11-.67c.52,12.09,2.9,24.17,6.44,34.95l-4.44.37c-2.5-5.82-6.26-19.64-7.1-34.65Z"/></g><g><path d="m592.29,319.16c-1.22,14.47-2.87,27.42-5.98,34.46l-7.96-.65c2.32-5.12,4.91-20.73,7.1-34.65l6.84.84Z" style="fill:#07adf7;"/><path d="m597.39,319.89l-5.11-.62c-.52,12.09-2.42,23.57-5.96,34.35l5.14.45c2.3-9.79,4.19-21.37,5.93-34.18Z"/><path d="m585.45,318.32l-5.11-.67c-.52,12.09-2.9,24.17-6.44,34.95l4.44.37c2.5-5.82,6.26-19.64,7.1-34.65Z"/></g></g><polygon points="460.79 443.66 452.92 443.66 453.89 494.46 460.79 494.46 467.69 494.46 468.66 443.66 460.79 443.66" style="fill:#fff;"/><polygon points="460.79 516.66 453.8 516.66 454.66 519.91 460.79 519.91 466.93 519.91 467.79 516.66 460.79 516.66" style="fill:#fff;"/></g><g id="ca"><path d="m138.77,349.7c-12.56,30.76-29.12,95.08-25.41,146.04l13.71-12.43c-7.53-28.61-12.19-51.1,17.59-124.22l-5.89-9.4Z" style="fill:#ffffdc;"/><path d="m782.81,349.7c12.56,30.76,29.12,95.08,25.41,146.04l-13.71-12.43c7.53-28.61,12.19-51.1-17.59-124.22l5.89-9.4Z" style="fill:#ffffdc;"/></g></g></svg>