<svg xmlns="http://www.w3.org/2000/svg" width="96.489" height="24" viewBox="0 0 96.489 24">
    <defs>
        <clipPath id="rlrbawaxla">
            <path data-name="Rectangle 25497" style="fill:#fff" d="M0 0h24v24H0z"/>
        </clipPath>
    </defs>
    <g data-name="Group 35772">
        <path data-name="Path 20270" d="m-63.26-8.727 1.922 3.2h.068l1.93-3.2h1.8l-2.689 4.364L-57.494 0h-1.832l-1.944-3.175h-.068L-63.281 0h-1.824l2.757-4.364-2.723-4.364zm6.366 0h1.786l2.135 3.861h.085l2.135-3.861h1.786l-3.175 5.472V0h-1.577v-3.256zM-44.864 0v-8.727h5.591V-7.4h-4.01v2.369h3.626v1.325h-3.626V0zm6.964 0v-6.545h1.543V0zm.776-7.474a.9.9 0 0 1-.631-.245.776.776 0 0 1-.264-.59.781.781 0 0 1 .259-.591.9.9 0 0 1 .631-.245.893.893 0 0 1 .629.245.784.784 0 0 1 .262.594.779.779 0 0 1-.262.59.893.893 0 0 1-.629.242zm3.895 3.639V0h-1.543v-6.545h1.472v1.112h.077a1.867 1.867 0 0 1 .722-.874 2.2 2.2 0 0 1 1.229-.324 2.335 2.335 0 0 1 1.183.29 1.969 1.969 0 0 1 .784.839 2.884 2.884 0 0 1 .275 1.334V0h-1.543v-3.929a1.466 1.466 0 0 0-.339-1.027 1.2 1.2 0 0 0-.935-.371 1.435 1.435 0 0 0-.718.177 1.237 1.237 0 0 0-.49.509 1.7 1.7 0 0 0-.179.806zm7.652 3.967A2.694 2.694 0 0 1-26.7-.092a1.8 1.8 0 0 1-.784-.663 1.933 1.933 0 0 1-.288-1.082 1.845 1.845 0 0 1 .2-.916A1.583 1.583 0 0 1-27-3.332a2.857 2.857 0 0 1 .8-.33 6.616 6.616 0 0 1 .923-.164q.575-.06.933-.109a1.353 1.353 0 0 0 .522-.153.359.359 0 0 0 .164-.326v-.026a.966.966 0 0 0-.286-.746 1.168 1.168 0 0 0-.822-.264 1.465 1.465 0 0 0-.9.247 1.222 1.222 0 0 0-.445.584l-1.44-.2a2.316 2.316 0 0 1 .563-1 2.479 2.479 0 0 1 .959-.605 3.7 3.7 0 0 1 1.253-.2 4.081 4.081 0 0 1 .942.111 2.677 2.677 0 0 1 .857.364 1.876 1.876 0 0 1 .624.688 2.253 2.253 0 0 1 .237 1.087V0H-23.6v-.9h-.051a1.872 1.872 0 0 1-.394.509 1.888 1.888 0 0 1-.635.379 2.542 2.542 0 0 1-.897.144zm.4-1.134a1.661 1.661 0 0 0 .805-.185 1.355 1.355 0 0 0 .526-.492 1.27 1.27 0 0 0 .185-.669v-.771a.724.724 0 0 1-.245.111 3.623 3.623 0 0 1-.386.089q-.213.038-.422.068l-.362.051a2.694 2.694 0 0 0-.618.153 1.036 1.036 0 0 0-.43.3.738.738 0 0 0-.158.488.734.734 0 0 0 .311.643 1.353 1.353 0 0 0 .795.216zm6.153-2.834V0h-1.543v-6.545h1.474v1.112h.077a1.867 1.867 0 0 1 .722-.874 2.2 2.2 0 0 1 1.229-.324 2.335 2.335 0 0 1 1.183.29 1.969 1.969 0 0 1 .782.841 2.884 2.884 0 0 1 .275 1.334V0h-1.543v-3.929a1.466 1.466 0 0 0-.332-1.027 1.2 1.2 0 0 0-.935-.371 1.435 1.435 0 0 0-.718.177 1.237 1.237 0 0 0-.49.509 1.7 1.7 0 0 0-.18.806zm8.631 3.964A3.151 3.151 0 0 1-12.075-.3a2.852 2.852 0 0 1-1.078-1.191 3.9 3.9 0 0 1-.377-1.754 3.881 3.881 0 0 1 .384-1.762A2.875 2.875 0 0 1-12.062-6.2a3.121 3.121 0 0 1 1.66-.428 3.261 3.261 0 0 1 1.413.292 2.435 2.435 0 0 1 .982.822 2.445 2.445 0 0 1 .418 1.238h-1.475a1.426 1.426 0 0 0-.424-.79 1.243 1.243 0 0 0-.893-.317 1.4 1.4 0 0 0-.831.254 1.638 1.638 0 0 0-.556.727 2.927 2.927 0 0 0-.2 1.134 3.03 3.03 0 0 0 .2 1.148 1.656 1.656 0 0 0 .552.737 1.389 1.389 0 0 0 .837.258 1.4 1.4 0 0 0 .612-.13 1.211 1.211 0 0 0 .454-.377 1.456 1.456 0 0 0 .251-.6h1.474A2.557 2.557 0 0 1-8-1.008a2.4 2.4 0 0 1-.963.835 3.2 3.2 0 0 1-1.43.301zm6.972 0a3.345 3.345 0 0 1-1.7-.411 2.75 2.75 0 0 1-1.1-1.168A3.9 3.9 0 0 1-6.6-3.234a3.892 3.892 0 0 1 .386-1.775A2.9 2.9 0 0 1-5.135-6.2 3.047 3.047 0 0 1-3.5-6.631a3.355 3.355 0 0 1 1.144.194 2.628 2.628 0 0 1 .955.6A2.814 2.814 0 0 1-.75-4.809a4.158 4.158 0 0 1 .239 1.485v.473h-5.365v-1.04h3.886a1.672 1.672 0 0 0-.192-.79 1.4 1.4 0 0 0-.518-.548 1.485 1.485 0 0 0-.778-.2 1.513 1.513 0 0 0-.831.228 1.59 1.59 0 0 0-.556.6 1.714 1.714 0 0 0-.2.808v.908a2.12 2.12 0 0 0 .209.978 1.473 1.473 0 0 0 .584.622 1.733 1.733 0 0 0 .878.215 1.828 1.828 0 0 0 .609-.1 1.327 1.327 0 0 0 .473-.283 1.189 1.189 0 0 0 .3-.464l1.44.162a2.241 2.241 0 0 1-.518 1 2.522 2.522 0 0 1-.977.655 3.692 3.692 0 0 1-1.355.228z" transform="translate(97 16)" style="fill:#fff"/>
        <g style="clip-path:url(#rlrbawaxla)">
            <path data-name="Logo_XY Finacne" d="M12 0a12 12 0 0 1 12 12v.2A12 12 0 0 1 12 24h-.08a11.95 11.95 0 0 1-7.035-2.335L20.647 6.113h-4.823l-3.675 3.548-1.623-1.619H4.08l4.82 4.827-6.458 6.385-.042-.062A11.942 11.942 0 0 1 0 12v-.2A12 12 0 0 1 12 0zm3.5 12.965-3.242 3.146 1.612 1.6h6.45z" style="fill:#fff"/>
        </g>
    </g>
</svg>
