<svg xmlns="http://www.w3.org/2000/svg" xmlns:xlink="http://www.w3.org/1999/xlink" width="63.493" height="24" viewBox="0 0 63.493 24">
    <defs>
        <linearGradient id="cwxaokuifa" x1="1.053" y1="1.457" x2="-.212" y2="-.938" gradientUnits="objectBoundingBox">
            <stop offset=".15" stop-color="#b32eff"/>
            <stop offset=".42" stop-color="#ce60d3"/>
            <stop offset=".65" stop-color="#e185b3"/>
            <stop offset=".84" stop-color="#ee9c9f"/>
            <stop offset=".96" stop-color="#f2a498"/>
        </linearGradient>
        <linearGradient id="em9rfs0ivb" x1="-.053" y1="-.457" x2="1.212" y2="1.938" xlink:href="#cwxaokuifa"/>
    </defs>
    <path data-name="Path 20206" d="M41.3 20.516a4.053 4.053 0 0 1-.728.062 1.635 1.635 0 0 1-1.1-.287 1.25 1.25 0 0 1-.317-.964V7.982q.164-.042.522-.1a4.2 4.2 0 0 1 .707-.061 1.788 1.788 0 0 1 1.086.267 1.173 1.173 0 0 1 .347.985v4.041h5.121V7.982q.164-.042.523-.1a4.2 4.2 0 0 1 .707-.061 1.738 1.738 0 0 1 1.086.277 1.2 1.2 0 0 1 .347.993V20.41c-.123.027-.3.062-.523.1a4.04 4.04 0 0 1-.727.062 1.633 1.633 0 0 1-1.1-.287 1.254 1.254 0 0 1-.318-.964v-4.08h-5.112v5.172c-.121.029-.297.062-.521.103z" transform="translate(-8.862 -1.77)" style="fill:#fff"/>
    <path data-name="Path 20207" d="M64.716 16.335a6.05 6.05 0 0 1-.359 2.144 4.681 4.681 0 0 1-1.014 1.633 4.371 4.371 0 0 1-1.577 1.036 5.7 5.7 0 0 1-2.07.359 5.636 5.636 0 0 1-2.069-.359 4.437 4.437 0 0 1-1.578-1.026 4.567 4.567 0 0 1-1.014-1.62 6.121 6.121 0 0 1-.359-2.165 6.058 6.058 0 0 1 .359-2.143 4.5 4.5 0 0 1 1.025-1.621 4.547 4.547 0 0 1 1.587-1.026 6.027 6.027 0 0 1 4.1 0 4.48 4.48 0 0 1 1.587 1.036 4.611 4.611 0 0 1 1.024 1.631 5.987 5.987 0 0 1 .358 2.121zm-5.02-3.1a2.093 2.093 0 0 0-1.741.81 3.629 3.629 0 0 0-.635 2.287 3.664 3.664 0 0 0 .625 2.3 2.308 2.308 0 0 0 3.5-.01 3.67 3.67 0 0 0 .625-2.287 3.631 3.631 0 0 0-.635-2.287 2.089 2.089 0 0 0-1.735-.811z" transform="translate(-12.373 -2.532)" style="fill:#fff"/>
    <path data-name="Path 20208" d="M74.408 21.483a5.015 5.015 0 0 1-1.1-.113 6.025 6.025 0 0 1-.912-.277v3.774q-.185.041-.492.1a3.6 3.6 0 0 1-.694.062 1.746 1.746 0 0 1-1.065-.267 1.119 1.119 0 0 1-.347-.944v-10.4a1.478 1.478 0 0 1 .194-.8 1.906 1.906 0 0 1 .625-.575 6.636 6.636 0 0 1 1.476-.605 7.037 7.037 0 0 1 1.987-.256 6.956 6.956 0 0 1 2.08.3 4.4 4.4 0 0 1 1.649.923A4.254 4.254 0 0 1 78.9 14a6.07 6.07 0 0 1 .389 2.3 6.311 6.311 0 0 1-.369 2.257 4.618 4.618 0 0 1-1.014 1.62 4.12 4.12 0 0 1-1.538.985 5.635 5.635 0 0 1-1.96.321zm-.389-2.072a2.484 2.484 0 0 0 1.926-.759 3.4 3.4 0 0 0 .694-2.359 3.2 3.2 0 0 0-.717-2.359 2.534 2.534 0 0 0-1.844-.7 3.018 3.018 0 0 0-.974.144 4.988 4.988 0 0 0-.727.308v5.274a3.042 3.042 0 0 0 .727.328 3.1 3.1 0 0 0 .914.123z" transform="translate(-15.796 -2.532)" style="fill:#fff"/>
    <path data-name="Path 20209" d="M23.907 7.946 18.866.6a1.385 1.385 0 0 0-2.523.858 8.1 8.1 0 0 0 1.668 4.278C17.538 5.4 10.517.121 2.172 2.932h-.01A1.624 1.624 0 0 0 1 4.917a1.659 1.659 0 0 0 1.892 1.172A20.908 20.908 0 0 1 8.154 5.8a14.071 14.071 0 0 1 5 1.371 17.494 17.494 0 0 1 4.314 3.129 28.02 28.02 0 0 1 3.306 4.423.928.928 0 0 0 1.119.42.955.955 0 0 0 .541-1.242 19.236 19.236 0 0 0-1.423-2.963 3.118 3.118 0 0 0 1.863.364 1.817 1.817 0 0 0 1.259-1.03 2.389 2.389 0 0 0-.234-2.322z" transform="translate(-.214 -.001)" style="fill:url(#cwxaokuifa)"/>
    <path data-name="Path 20210" d="m.432 18.631 5.04 7.341A1.385 1.385 0 0 0 8 25.114a8.1 8.1 0 0 0-1.668-4.278h.006c.466.348 7.487 5.627 15.833 2.816h.009a1.624 1.624 0 0 0 1.158-1.984 1.659 1.659 0 0 0-1.888-1.172 20.908 20.908 0 0 1-5.262.284 14.073 14.073 0 0 1-5-1.371 17.493 17.493 0 0 1-4.318-3.137 28.018 28.018 0 0 1-3.306-4.423.928.928 0 0 0-1.119-.42.955.955 0 0 0-.545 1.242 19.232 19.232 0 0 0 1.423 2.963 3.117 3.117 0 0 0-1.864-.363A1.817 1.817 0 0 0 .2 16.309a2.39 2.39 0 0 0 .234 2.322z" transform="translate(0 -2.575)" style="fill:url(#em9rfs0ivb)"/>
</svg>
