<svg xmlns="http://www.w3.org/2000/svg" width="81.261" height="12" viewBox="0 0 81.261 12">
    <defs>
        <linearGradient id="r7a58pmicb" x1=".639" y1="-.129" x2=".334" y2="1.231" gradientUnits="objectBoundingBox">
            <stop offset=".19" stop-color="#ef2ec5"/>
            <stop offset="1" stop-color="#322eef"/>
        </linearGradient>
        <clipPath id="bdv50bw0ea">
            <path data-name="Rectangle 25487" style="fill:#fff" d="M0 0h81.261v12H0z"/>
        </clipPath>
    </defs>
    <g style="clip-path:url(#bdv50bw0ea)">
        <path data-name="Path 20179" d="M1.549 5.508v11.281H0V5.508z" transform="translate(0 -4.789)" style="fill:#fff"/>
        <path data-name="Path 20180" d="M34.8 5.473v11.281h-2.539l-4.236-9.765v9.77h-1.548V5.473h2.543l4.235 9.735V5.473z" transform="translate(-23.023 -4.759)" style="fill:#fff"/>
        <path data-name="Path 20181" d="M110.47 6.991h-3.612v9.8h-1.549v-9.8H101.7V5.508h8.773z" transform="translate(-88.432 -4.789)" style="fill:#fff"/>
        <path data-name="Path 20182" d="M187.233 15.308v1.481h-6.9V5.508h6.857v1.483h-5.3V10.2h4.587v1.481h-4.587v3.628h5.349z" transform="translate(-156.809 -4.789)" style="fill:#fff"/>
        <path data-name="Path 20183" d="m251.007 16.789-2.652-4.271a5.749 5.749 0 0 1-.51.015H246.2v4.256h-1.549V5.508h3.2a5.457 5.457 0 0 1 3.354.824 3.179 3.179 0 0 1 1.054 2.69 3.762 3.762 0 0 1-.53 2.125 2.9 2.9 0 0 1-1.692 1.128l2.83 4.51H251zm-3.167-5.753a6.411 6.411 0 0 0 1.757-.18 1.36 1.36 0 0 0 .847-.6A2.668 2.668 0 0 0 250.681 9a2.419 2.419 0 0 0-.237-1.207 1.274 1.274 0 0 0-.832-.613 6.625 6.625 0 0 0-1.776-.18h-1.648v4.031h1.648z" transform="translate(-212.737 -4.789)" style="fill:#fff"/>
        <path data-name="Path 20184" d="M321.934 5.473a5.821 5.821 0 0 1 3.562.868 3.41 3.41 0 0 1 1.118 2.869 3.424 3.424 0 0 1-1.088 2.839 5.738 5.738 0 0 1-3.6.887h-1.36v3.822h-1.549V5.473h2.913zm0 5.963a6.737 6.737 0 0 0 1.935-.21 1.537 1.537 0 0 0 .925-.694 2.935 2.935 0 0 0 .257-1.337 2.7 2.7 0 0 0-.272-1.337 1.42 1.42 0 0 0-.925-.679 6.635 6.635 0 0 0-1.92-.21h-1.36v4.466z" transform="translate(-277.41 -4.759)" style="fill:#fff"/>
        <path data-name="Path 20185" d="M396.833 11.4a5.538 5.538 0 0 1-2.759.588 3.9 3.9 0 0 1-2.294-1.081 10.008 10.008 0 0 1-2.039-2.911 9.981 9.981 0 0 1-1.1-3.265 3.528 3.528 0 0 1 .509-2.4A5.216 5.216 0 0 1 391.4.586a5.412 5.412 0 0 1 2.725-.572 3.9 3.9 0 0 1 2.294 1.081A10.008 10.008 0 0 1 398.458 4a7.379 7.379 0 0 1 1.042 4.572 4.165 4.165 0 0 1-2.675 2.827zm-.69-1.376a3.363 3.363 0 0 0 1.491-1.14 2.225 2.225 0 0 0 .275-1.638 9.158 9.158 0 0 0-.93-2.56 9.044 9.044 0 0 0-1.5-2.283 2.45 2.45 0 0 0-1.515-.834 3.525 3.525 0 0 0-1.864.4 3.631 3.631 0 0 0-1.541 1.158 2.165 2.165 0 0 0-.275 1.638 9.4 9.4 0 0 0 .949 2.554 9.711 9.711 0 0 0 1.491 2.3 2.549 2.549 0 0 0 1.526.814 3.677 3.677 0 0 0 1.9-.414z" transform="translate(-337.923 .002)" style="fill:url(#r7a58pmicb)"/>
        <path data-name="Path 20186" d="m490.422 16.789-2.652-4.271a5.708 5.708 0 0 1-.509.015h-1.648v4.256h-1.549V5.508h3.2a5.457 5.457 0 0 1 3.354.824 3.179 3.179 0 0 1 1.053 2.69 3.761 3.761 0 0 1-.53 2.125 2.9 2.9 0 0 1-1.692 1.128l2.83 4.51h-1.855zm-3.167-5.753a6.409 6.409 0 0 0 1.757-.18 1.352 1.352 0 0 0 .845-.6A2.665 2.665 0 0 0 490.1 9a2.4 2.4 0 0 0-.239-1.207 1.274 1.274 0 0 0-.832-.613 6.625 6.625 0 0 0-1.78-.18H485.6v4.031h1.648z" transform="translate(-420.925 -4.789)" style="fill:#fff"/>
        <path data-name="Path 20187" d="M564.515 6.991H560.9v9.8h-1.549v-9.8h-3.612V5.508h8.771v1.483z" transform="translate(-483.254 -4.789)" style="fill:#fff"/>
    </g>
</svg>
