<svg xmlns="http://www.w3.org/2000/svg" width="96.75" height="24" viewBox="0 0 96.75 24">
    <defs>
        <clipPath id="okbpn6qh6a">
            <path data-name="Rectangle 25484" transform="translate(47 162)" style="fill:#fff" d="M0 0h96.75v24H0z"/>
        </clipPath>
    </defs>
    <g transform="translate(-47 -162)" style="clip-path:url(#okbpn6qh6a)">
        <path data-name="Path 20168" d="m72.519 184.2-8.9 8.9 2.428 2.428a2.288 2.288 0 0 0 3.237 0l9.711-9.711a2.289 2.289 0 0 0 0-3.237l-5.665-5.665-4.046 4.046z" transform="translate(-11.363 -10.201)" style="fill:#fff"/>
        <path data-name="Path 20169" d="m63.619 165.1 2.428-2.426a2.289 2.289 0 0 1 3.237 0l2.428 2.428-4.047 4.046z" transform="translate(-11.364 -.002)" style="fill:#fff"/>
        <path data-name="Path 20170" d="M310.324 181.483h2.25v-3h6.75v-1.5a.75.75 0 0 0-.75-.75h-7.5a.749.749 0 0 0-.75.75z" transform="translate(-180.067 -9.733)" style="fill:#fff"/>
        <path data-name="Path 20171" d="M312.574 199.831h-1.5a.75.75 0 0 1-.75-.75v-1.5h2.25z" transform="translate(-180.067 -24.331)" style="fill:#fff"/>
        <path data-name="Path 20172" d="M256.655 182.983v-1.5h4.5v-1.5h-4.5v-1.5h6.75v-1.5a.749.749 0 0 0-.75-.75h-7.5a.75.75 0 0 0-.75.75v7.5a.75.75 0 0 0 .75.75h7.5a.75.75 0 0 0 .75-.75v-1.5zm-12.75-1.125h2.25v3.375h-1.5a.75.75 0 0 1-.75-.75z" transform="translate(-134.648 -9.733)" style="fill:#fff"/>
        <path data-name="Path 20173" d="M244.655 176.233a.75.75 0 0 0-.75.75v6h6.75a2.25 2.25 0 0 0 2.25-2.25v-2.25a2.25 2.25 0 0 0-2.25-2.25zm5.25 2.25h-3.75v2.25h3.75a.75.75 0 0 0 .75-.75v-.75a.75.75 0 0 0-.75-.75z" transform="translate(-134.648 -9.733)" style="fill-rule:evenodd;fill:#fff"/>
        <path data-name="Path 20174" d="M196.987 176.983a.75.75 0 0 0-.75-.75h-7.5a.75.75 0 0 0-.75.75v7.5a.75.75 0 0 0 .75.75h1.5v-6.75h1.125v6.75h2.25v-6.75h1.125v6.75h1.5a.75.75 0 0 0 .75-.75zm-19.5 0a.75.75 0 0 1 .75-.75h1.5v6.75h4.5v-6.75h1.5a.75.75 0 0 1 .75.75v7.5a.75.75 0 0 1-.75.75h-7.5a.75.75 0 0 1-.75-.75z" transform="translate(-89.229 -9.733)" style="fill:#fff"/>
        <path data-name="Path 20175" d="M165.626 176.233h1.5a.75.75 0 0 1 .75.75v1.5h-2.25z" transform="translate(-81.119 -9.733)" style="fill:#fff"/>
        <path data-name="Path 20176" d="M153.269 188.093h-2.25v3h-6.75v1.5a.75.75 0 0 0 .75.75h7.5a.75.75 0 0 0 .75-.75zm-9 13.424v-4.364h2.94v.761h-2.018v1.04h1.867v.76h-1.867v1.042h2.026v.761zm4.479-4.364.881 1.486h.034l.884-1.487h1.042l-1.332 2.182 1.361 2.182h-1.061l-.895-1.49h-.034l-.9 1.49h-1.057l1.366-2.183-1.34-2.182zm7.01 1.527h-.934a.919.919 0 0 0-.1-.322.816.816 0 0 0-.2-.243.892.892 0 0 0-.285-.153 1.085 1.085 0 0 0-.347-.053 1.038 1.038 0 0 0-.59.168 1.074 1.074 0 0 0-.39.486 1.924 1.924 0 0 0-.139.771 1.963 1.963 0 0 0 .139.784 1.069 1.069 0 0 0 .391.48 1.054 1.054 0 0 0 .582.161 1.164 1.164 0 0 0 .343-.049.818.818 0 0 0 .487-.375.892.892 0 0 0 .116-.311h.934a1.743 1.743 0 0 1-.567 1.076 1.84 1.84 0 0 1-.575.345 2.127 2.127 0 0 1-.752.125 2.055 2.055 0 0 1-1.044-.264 1.877 1.877 0 0 1-.724-.765 2.9 2.9 0 0 1 0-2.427 1.868 1.868 0 0 1 .728-.763 2.046 2.046 0 0 1 1.036-.264 2.238 2.238 0 0 1 .7.107 1.792 1.792 0 0 1 .578.311 1.6 1.6 0 0 1 .408.5 1.849 1.849 0 0 1 .201.675zm.6 2.837v-4.364h.923v1.8h1.873v-1.8h.92v4.364h-.92v-1.8h-1.873v1.8zm5.168 0h-.988l1.507-4.364h1.189l1.5 4.364h-.989l-1.093-3.367h-.034zm-.061-1.715h2.335v.72h-2.336zm7.387-2.648v4.364h-.8l-1.9-2.747h-.032v2.747h-.92v-4.364h.81l1.883 2.745h.039v-2.745zm3.6 1.41a.961.961 0 0 0-.126-.274.852.852 0 0 0-.462-.335 1.116 1.116 0 0 0-.326-.045 1.054 1.054 0 0 0-.588.166 1.09 1.09 0 0 0-.392.484 1.893 1.893 0 0 0-.14.772 1.948 1.948 0 0 0 .138.776 1.086 1.086 0 0 0 .392.488 1.066 1.066 0 0 0 .6.166 1.185 1.185 0 0 0 .535-.111.788.788 0 0 0 .341-.317.945.945 0 0 0 .12-.484l.188.028H171.6v-.695h1.826v.55a1.919 1.919 0 0 1-.243.988 1.655 1.655 0 0 1-.669.635 2.081 2.081 0 0 1-.976.221 2.108 2.108 0 0 1-1.078-.27 1.879 1.879 0 0 1-.725-.774 2.585 2.585 0 0 1-.258-1.192 2.723 2.723 0 0 1 .154-.947 2 2 0 0 1 .435-.707 1.869 1.869 0 0 1 .649-.441 2.223 2.223 0 0 1 1.493-.043 1.832 1.832 0 0 1 .567.3 1.64 1.64 0 0 1 .407.466 1.589 1.589 0 0 1 .2.592zm1.611 2.954v-4.364H177v.761h-2.018v1.04h1.866v.76h-1.866v1.042H177v.761zm4.942 0v-4.364h1.747a2 2 0 0 1 .8.142 1.074 1.074 0 0 1 .484.4 1.045 1.045 0 0 1 .162.579.955.955 0 0 1-.1.45.889.889 0 0 1-.281.315 1.151 1.151 0 0 1-.405.173v.043a1 1 0 0 1 .823.5 1.084 1.084 0 0 1 .136.554 1.131 1.131 0 0 1-.173.62 1.164 1.164 0 0 1-.5.428 1.931 1.931 0 0 1-.825.157H179zm.922-.755h.753a.875.875 0 0 0 .562-.147.492.492 0 0 0 .176-.4.587.587 0 0 0-.087-.32.6.6 0 0 0-.25-.218.856.856 0 0 0-.381-.079h-.773zm0-1.783h.684a.833.833 0 0 0 .337-.066.563.563 0 0 0 .234-.192.5.5 0 0 0 .088-.3.477.477 0 0 0-.169-.381.7.7 0 0 0-.473-.145h-.7zm2.729-1.826h1.034l.994 1.879h.043l1-1.879h1.034l-1.592 2.821v1.543h-.916v-1.544l-1.592-2.822zm5.872 4.364v-4.364h.923v3.6h1.871v.761zm4.267-4.364v4.364h-.923v-4.364zm1.205 4.417a.506.506 0 0 1-.512-.511.491.491 0 0 1 .149-.359.5.5 0 0 1 .166-.112.513.513 0 0 1 .554.113.479.479 0 0 1 .154.358.468.468 0 0 1-.073.257.546.546 0 0 1-.185.186.489.489 0 0 1-.253.068zm1.213-.055v-4.364h2.887v.761h-1.967v1.04h1.775v.76h-1.775v1.8zm4.372-4.364v4.364h-.923v-4.364z" transform="translate(-66.512 -17.843)" style="fill:#fff"/>
    </g>
</svg>
