<svg data-name="Group 35767" xmlns="http://www.w3.org/2000/svg" width="102.889" height="26" viewBox="0 0 102.889 26">
    <path data-name="Path 20211" d="M97.832 36.712a.367.367 0 0 1-.366-.369v-9.182a.367.367 0 0 1 .366-.369h1.428a.367.367 0 0 1 .365.369v7.707h4.175a.367.367 0 0 1 .365.369v1.1a.367.367 0 0 1-.365.369z" transform="translate(-64.206 -17.649)" style="fill:#fff"/>
    <path data-name="Path 20212" d="M122.058 42.407a2.958 2.958 0 0 1-1.351-.3 2.446 2.446 0 0 1-.933-.8 2.021 2.021 0 0 1-.334-1.14 1.762 1.762 0 0 1 .39-1.2 2.227 2.227 0 0 1 1.268-.633 11.021 11.021 0 0 1 2.326-.2h.264a.238.238 0 0 0 .237-.239 1.139 1.139 0 0 0-.278-.872 1.35 1.35 0 0 0-.947-.267 4.234 4.234 0 0 0-1.184.183 5.045 5.045 0 0 0-.857.325.384.384 0 0 1-.526-.195l-.3-.749a.346.346 0 0 1 .145-.437 5.136 5.136 0 0 1 .619-.281 6.141 6.141 0 0 1 1.1-.3 5.625 5.625 0 0 1 1.087-.113 3.355 3.355 0 0 1 2.368.732 2.9 2.9 0 0 1 .78 2.237v3.711a.367.367 0 0 1-.365.369h-1.233a.367.367 0 0 1-.365-.369v-.672a1.76 1.76 0 0 1-.71.872 2.119 2.119 0 0 1-1.201.338zm.474-1.421a1.339 1.339 0 0 0 .989-.408 1.436 1.436 0 0 0 .4-1.055.28.28 0 0 0-.278-.281h-.209a4.124 4.124 0 0 0-1.519.2.652.652 0 0 0-.446.647.857.857 0 0 0 .264.647 1.14 1.14 0 0 0 .798.25z" transform="translate(-78.68 -23.19)" style="fill:#fff"/>
    <path data-name="Path 20213" d="M142.446 45.057a.369.369 0 0 1-.333-.522l1.075-2.391-2.588-6.012a.369.369 0 0 1 .335-.517h1.408a.365.365 0 0 1 .34.234l1.622 4.156 1.677-4.16a.365.365 0 0 1 .339-.23h1.279a.369.369 0 0 1 .334.519l-3.814 8.7a.366.366 0 0 1-.334.22z" transform="translate(-92.597 -23.462)" style="fill:#fff"/>
    <path data-name="Path 20214" d="M167.056 42.407a4.648 4.648 0 0 1-2.089-.436 3.272 3.272 0 0 1-1.337-1.252 3.835 3.835 0 0 1-.46-1.914 3.789 3.789 0 0 1 .446-1.871 3.3 3.3 0 0 1 1.24-1.266 3.549 3.549 0 0 1 1.825-.464 3.057 3.057 0 0 1 2.368.957 3.61 3.61 0 0 1 .877 2.561v.165a.367.367 0 0 1-.365.369h-4.385a1.767 1.767 0 0 0 .585 1.2 2.182 2.182 0 0 0 1.337.366 3.966 3.966 0 0 0 1.128-.169 3.216 3.216 0 0 0 .627-.258.411.411 0 0 1 .582.189l.278.708a.346.346 0 0 1-.126.421 4.394 4.394 0 0 1-1.039.474 5.083 5.083 0 0 1-1.492.22zm-.292-5.8a1.489 1.489 0 0 0-1.087.408 1.931 1.931 0 0 0-.5 1.14h3.009q-.086-1.545-1.423-1.545z" transform="translate(-107.487 -23.19)" style="fill:#fff"/>
    <path data-name="Path 20215" d="M186.918 42.218a.367.367 0 0 1-.365-.369v-6.17a.367.367 0 0 1 .365-.369h1.331a.367.367 0 0 1 .365.369v.827a2.214 2.214 0 0 1 2.09-1.337l.249-.017a.367.367 0 0 1 .389.342l.075 1.064a.368.368 0 0 1-.326.393l-.833.089a1.49 1.49 0 0 0-1.56 1.6v3.2a.367.367 0 0 1-.365.369z" transform="translate(-122.891 -23.155)" style="fill:#fff"/>
    <path data-name="Path 20216" d="M205.24 42.407a6.435 6.435 0 0 1-1.685-.211 4.395 4.395 0 0 1-1.059-.425.344.344 0 0 1-.14-.418l.25-.687a.4.4 0 0 1 .548-.207 5.1 5.1 0 0 0 .777.3 5 5 0 0 0 1.323.183 1.6 1.6 0 0 0 .864-.183.6.6 0 0 0 .278-.507q0-.492-.711-.619l-1.463-.267a2.368 2.368 0 0 1-1.337-.633 1.732 1.732 0 0 1-.46-1.252 1.925 1.925 0 0 1 .39-1.21 2.539 2.539 0 0 1 1.073-.788 4.105 4.105 0 0 1 1.574-.281 5.247 5.247 0 0 1 1.435.2 3.237 3.237 0 0 1 .981.431.343.343 0 0 1 .119.412l-.258.666a.41.41 0 0 1-.577.194 4.059 4.059 0 0 0-.6-.254 3.3 3.3 0 0 0-1.073-.2 1.52 1.52 0 0 0-.906.211.6.6 0 0 0-.278.507q0 .492.655.619l1.463.267a2.526 2.526 0 0 1 1.379.619 1.626 1.626 0 0 1 .474 1.238 1.966 1.966 0 0 1-.836 1.688 3.67 3.67 0 0 1-2.2.607z" transform="translate(-133.286 -23.19)" style="fill:#fff"/>
    <path data-name="Path 20217" d="M223.755 42.524a.366.366 0 0 1-.338-.23l-2.488-6.17a.369.369 0 0 1 .339-.509h1.332a.366.366 0 0 1 .343.241l1.541 4.192 1.541-4.192a.366.366 0 0 1 .343-.241h.884a.366.366 0 0 1 .343.242l1.542 4.246 1.542-4.246a.365.365 0 0 1 .343-.242h1.223a.369.369 0 0 1 .339.507l-2.463 6.17a.365.365 0 0 1-.339.231H228.5a.365.365 0 0 1-.341-.236l-1.414-3.69-1.374 3.686a.366.366 0 0 1-.342.239z" transform="translate(-145.517 -23.462)" style="fill:#fff"/>
    <path data-name="Path 20218" d="M259.353 42.407a2.959 2.959 0 0 1-1.351-.3 2.446 2.446 0 0 1-.933-.8 2.024 2.024 0 0 1-.334-1.14 1.762 1.762 0 0 1 .39-1.2 2.228 2.228 0 0 1 1.268-.633 11.021 11.021 0 0 1 2.326-.2h.5V37.9a1.138 1.138 0 0 0-.279-.872 1.349 1.349 0 0 0-.947-.267 4.231 4.231 0 0 0-1.184.183 5.04 5.04 0 0 0-.857.325.384.384 0 0 1-.526-.195l-.3-.749a.346.346 0 0 1 .146-.437 5.1 5.1 0 0 1 .619-.281 6.148 6.148 0 0 1 1.1-.3 5.625 5.625 0 0 1 1.087-.113 3.355 3.355 0 0 1 2.368.732 2.9 2.9 0 0 1 .78 2.237v3.711a.367.367 0 0 1-.365.369h-1.233a.368.368 0 0 1-.366-.369v-.672a1.76 1.76 0 0 1-.71.872 2.118 2.118 0 0 1-1.199.333zm.474-1.421a1.338 1.338 0 0 0 .989-.408 1.436 1.436 0 0 0 .4-1.055v-.281h-.488a4.124 4.124 0 0 0-1.519.2.652.652 0 0 0-.446.647.857.857 0 0 0 .265.647 1.14 1.14 0 0 0 .799.25z" transform="translate(-169.122 -23.19)" style="fill:#fff"/>
    <path data-name="Path 20219" d="M280.721 44.785a.368.368 0 0 1-.366-.369v-8.7a.368.368 0 0 1 .366-.369h1.331a.367.367 0 0 1 .365.369v.658a2 2 0 0 1 .85-.844 2.659 2.659 0 0 1 1.309-.324 2.79 2.79 0 0 1 1.56.436 2.876 2.876 0 0 1 1.059 1.238 4.471 4.471 0 0 1 .376 1.914 4.567 4.567 0 0 1-.376 1.928 2.972 2.972 0 0 1-1.059 1.252 2.791 2.791 0 0 1-1.56.436 2.689 2.689 0 0 1-1.254-.3 2.213 2.213 0 0 1-.864-.788v3.092a.367.367 0 0 1-.366.369zm3.228-3.968a1.357 1.357 0 0 0 1.087-.492 2.337 2.337 0 0 0 .418-1.534 2.252 2.252 0 0 0-.418-1.506 1.357 1.357 0 0 0-1.087-.492 1.374 1.374 0 0 0-1.1.492 2.254 2.254 0 0 0-.418 1.506 2.34 2.34 0 0 0 .418 1.534 1.374 1.374 0 0 0 1.1.492z" transform="translate(-184.682 -23.19)" style="fill:#fff"/>
    <path data-name="Path 20220" d="M10.278 12.065a1.787 1.787 0 0 1 1.787-1.787h15.412a1.787 1.787 0 0 1 1.787 1.787v15.412a1.787 1.787 0 0 1-1.787 1.787H12.065a1.787 1.787 0 0 1-1.787-1.787z" transform="translate(-6.771 -6.771)" style="opacity:.6;fill:#fff"/>
    <path data-name="Path 20221" d="M20.556 22.342a1.787 1.787 0 0 1 1.787-1.787h15.411a1.787 1.787 0 0 1 1.787 1.787v15.412a1.787 1.787 0 0 1-1.787 1.787H22.343a1.787 1.787 0 0 1-1.787-1.787z" transform="translate(-13.541 -13.541)" style="opacity:.5;fill:#fff"/>
    <path data-name="Path 20222" d="M0 1.787A1.787 1.787 0 0 1 1.787 0H17.2a1.787 1.787 0 0 1 1.787 1.787V17.2a1.787 1.787 0 0 1-1.787 1.785H1.787A1.787 1.787 0 0 1 0 17.2z" style="opacity:.9;fill:#fff"/>
</svg>
