<svg xmlns="http://www.w3.org/2000/svg" width="65.544" height="24" viewBox="0 0 65.544 24">
    <defs>
        <linearGradient id="5k8tlx2zoa" y1="2.635" x2="1" y2="2.635" gradientUnits="objectBoundingBox">
            <stop offset="0" stop-color="#469bf5"/>
            <stop offset=".091" stop-color="#3b81f4"/>
            <stop offset=".208" stop-color="#3068f3"/>
            <stop offset=".339" stop-color="#2754f2"/>
            <stop offset=".488" stop-color="#2147f1"/>
            <stop offset=".673" stop-color="#1d3ef1"/>
            <stop offset="1" stop-color="#1c3cf1"/>
        </linearGradient>
        <linearGradient id="thqslhlizb" y1="-1.706" x2="1" y2="-1.706" gradientUnits="objectBoundingBox">
            <stop offset=".075" stop-color="#469bf5"/>
            <stop offset=".239" stop-color="#4292f5"/>
            <stop offset=".508" stop-color="#3779f4"/>
            <stop offset=".848" stop-color="#2550f2"/>
            <stop offset="1" stop-color="#1c3cf1"/>
        </linearGradient>
        <linearGradient id="kpeggbv7kc" y1=".5" x2="1" y2=".5" gradientUnits="objectBoundingBox">
            <stop offset=".075" stop-color="#469bf5"/>
            <stop offset=".705" stop-color="#2857f2"/>
            <stop offset="1" stop-color="#1c3cf1"/>
        </linearGradient>
    </defs>
    <g transform="translate(.03)">
        <circle data-name="Ellipse 1325" cx="11.913" cy="11.913" r="11.913" transform="translate(.055 .084)" style="fill:#fff"/>
        <g data-name="Group 35778">
            <g data-name="Group 35775">
                <g data-name="Group 35774">
                    <path data-name="Path 20223" d="m142.666 54.16 1.266.7 9.951-4.126a12.619 12.619 0 0 0-1.176-1.336.746.746 0 0 1-.132.063L142.2 53.826a1.713 1.713 0 0 0 .466.334z" transform="translate(-132.333 -45.963)" style="fill:url(#5k8tlx2zoa)"/>
                    <path data-name="Path 20224" d="m37.34 224.354 10.069-4.2-1.871-1.054-7.689 3.264-1.948.821a12.189 12.189 0 0 0 1.169 1.3z" transform="translate(-33.43 -203.854)" style="fill:url(#thqslhlizb)"/>
                    <path data-name="Path 20225" d="m22.6 6.444-1.83.71c-1.468.536-7.244 2.811-7.244 2.811.946.522 1.962 1.079 2.86 1.573 2.3 1.253.842 4.008.543 4.53-.007.007-.007.014-.014.021a.723.723 0 0 0-.042.07s.216-2.06-1.232-2.818-4.808-2.547-6.221-3.3A2.347 2.347 0 0 1 8.183 8.3a1.89 1.89 0 0 1 .745-1.76 3.166 3.166 0 0 1 .807-.55c.007 0 .007-.007.014-.007l7.48-3.069s.049-.021.118-.056l1.559-.647A11.971 11.971 0 0 0 11.968 0a12.1 12.1 0 0 0-12 12.219A11.889 11.889 0 0 0 1.5 17.862L4.4 16.6l5.762-2.422c-1-.543-1.914-1.051-2.345-1.287-.216-.118-.487-.3-.71-.418-1.169-.619-1.934-2.359-.16-4.426 0 0-.181 1.962.912 2.63 1.051.64 5.121 2.721 6.318 3.368a2.839 2.839 0 0 1 .731.55 2.106 2.106 0 0 1 .529 2.053.612.612 0 0 1-.035.1.881.881 0 0 0-.021.07.612.612 0 0 0-.035.1c-.007.007-.007.021-.014.035a2.488 2.488 0 0 1-1.51 1.3l-.132.042-7 2.874-1.545.682A11.93 11.93 0 0 0 12.038 24a12.088 12.088 0 0 0 11.927-12.3A11.947 11.947 0 0 0 22.6 6.444z" style="fill:url(#kpeggbv7kc)"/>
                </g>
                <path data-name="Path 20226" d="m132.365 203.8 1.934 1.051-.967.418-2.032-1.023z" transform="translate(-122.191 -189.619)" style="fill:#070707;opacity:.4"/>
                <path data-name="Path 20227" d="M188.765 236.162s1.607-1.141.153-1.962l-.919.383c.008-.007 1.532.403.766 1.579z" transform="translate(-174.946 -217.903)" style="fill:#070707;opacity:.4"/>
                <path data-name="Path 20228" d="M168.941 123.468 167 122.411l1-.411 2.046 1.044z" transform="translate(-155.407 -113.511)" style="fill:#070707;opacity:.4"/>
                <path data-name="Path 20229" d="M134.087 84.4s-1.628 1.155-.153 1.983l.926-.383c-.007 0-1.545-.417-.773-1.6z" transform="translate(-124.067 -78.527)" style="fill:#070707;opacity:.4"/>
            </g>
            <g data-name="Group 35776">
                <path data-name="Path 20230" d="M434.474 59.22h-.925v2.8H431.6V53.5h3.4a2.918 2.918 0 0 1 2.923 2.923 2.813 2.813 0 0 1-1.566 2.47l1.809 3.124h-2.088zm-.925-1.7h1.461a1.1 1.1 0 0 0 0-2.185h-1.461z" transform="translate(-401.595 -49.777)" style="fill:#fff"/>
                <path data-name="Path 20231" d="M536.141 86.267v6.082h-1.823v-.571a2.293 2.293 0 0 1-1.809.745 3.227 3.227 0 0 1 0-6.423 2.26 2.26 0 0 1 1.809.745v-.571l1.823-.007zm-1.823 3.041a1.448 1.448 0 1 0-1.447 1.482 1.386 1.386 0 0 0 1.447-1.482z" transform="translate(-492.776 -80.109)" style="fill:#fff"/>
                <path data-name="Path 20232" d="M648.638 88.519v3.737h-1.823V88.79a1 1 0 0 0-1.058-1.106c-.668 0-1.134.39-1.134 1.253v3.319H642.8v-6.082h1.823v.571a2.077 2.077 0 0 1 1.74-.745 2.278 2.278 0 0 1 2.275 2.519z" transform="translate(-598.099 -80.015)" style="fill:#fff"/>
                <path data-name="Path 20233" d="M746.941 86.36v5.776c0 2.046-1.593 2.909-3.215 2.909a3.105 3.105 0 0 1-2.881-1.468l1.559-.9a1.39 1.39 0 0 0 1.385.765 1.216 1.216 0 0 0 1.378-1.3v-.557a2.162 2.162 0 0 1-1.774.793 3.091 3.091 0 0 1 0-6.179 2.143 2.143 0 0 1 1.774.793v-.619l1.774-.014zm-1.774 2.923a1.477 1.477 0 1 0-1.475 1.413 1.376 1.376 0 0 0 1.475-1.413z" transform="translate(-688.907 -80.202)" style="fill:#fff"/>
                <path data-name="Path 20234" d="M849.3 89.215a3.222 3.222 0 1 1 3.222 3.215 3.191 3.191 0 0 1-3.222-3.215zm4.62 0a1.4 1.4 0 1 0-1.4 1.433 1.361 1.361 0 0 0 1.4-1.433z" transform="translate(-790.229 -80.015)" style="fill:#fff"/>
            </g>
            <g data-name="Group 35777">
                <path data-name="Path 20235" d="M431.2 223.713h2.644v.376H430.8V218.8h3.006v.376H431.2v2.053h2.422v.376H431.2l.007 2.108z" transform="translate(-400.851 -203.575)" style="fill:#fff"/>
                <path data-name="Path 20236" d="M488.065 244.378h-.459l-1.273-1.649-1.273 1.649h-.46l1.51-1.941-1.42-1.837h.459l1.183 1.531 1.2-1.531h.452l-1.413 1.83z" transform="translate(-450.907 -223.858)" style="fill:#fff"/>
                <path data-name="Path 20237" d="M542.983 243.438a1.97 1.97 0 1 1 0-3.939 1.852 1.852 0 0 1 1 .264 1.536 1.536 0 0 1 .647.7l-.313.181a1.306 1.306 0 0 0-.522-.578 1.575 1.575 0 0 0-.814-.209 1.532 1.532 0 0 0-1.141.466 1.665 1.665 0 0 0 0 2.3 1.532 1.532 0 0 0 1.141.466 1.612 1.612 0 0 0 .814-.209 1.4 1.4 0 0 0 .55-.571l.32.188a1.708 1.708 0 0 1-.675.7 2.219 2.219 0 0 1-1.007.241z" transform="translate(-503.383 -222.835)" style="fill:#fff"/>
                <path data-name="Path 20238" d="M609.926 220.326a1.437 1.437 0 0 1 1.072.411 1.523 1.523 0 0 1 .4 1.1v2.352h-.383v-2.352a1.152 1.152 0 0 0-.292-.835 1.065 1.065 0 0 0-.821-.313 1.29 1.29 0 0 0-.953.383 1.563 1.563 0 0 0-.369 1.12v2h-.38V218.9h.376v2.227a1.393 1.393 0 0 1 1.35-.801z" transform="translate(-565.907 -203.668)" style="fill:#fff"/>
                <path data-name="Path 20239" d="M671.884 239.577h.383v3.778h-.383v-.855a1.766 1.766 0 0 1-.668.689 1.966 1.966 0 0 1-2.345-.32 2 2 0 0 1 0-2.8 1.884 1.884 0 0 1 3.013.369zm-2.735 3.027a1.613 1.613 0 0 0 2.268 0 1.648 1.648 0 0 0 0-2.282 1.613 1.613 0 0 0-2.268 0 1.63 1.63 0 0 0 0 2.282z" transform="translate(-621.825 -222.835)" style="fill:#fff"/>
                <path data-name="Path 20240" d="M746.333 239.4a1.437 1.437 0 0 1 1.072.411 1.523 1.523 0 0 1 .4 1.1v2.352h-.39v-2.353a1.152 1.152 0 0 0-.292-.835 1.065 1.065 0 0 0-.821-.313 1.29 1.29 0 0 0-.953.383 1.564 1.564 0 0 0-.369 1.12v2h-.38v-3.778h.376v.717a1.409 1.409 0 0 1 1.357-.804z" transform="translate(-692.815 -222.742)" style="fill:#fff"/>
                <path data-name="Path 20241" d="M808.877 239.484h.376v3.6a1.664 1.664 0 0 1-.536 1.3 1.933 1.933 0 0 1-1.343.473 2.412 2.412 0 0 1-1.113-.244 1.529 1.529 0 0 1-.675-.668l.334-.188a1.457 1.457 0 0 0 1.447.731 1.54 1.54 0 0 0 1.106-.383 1.373 1.373 0 0 0 .4-1.03v-.7a1.738 1.738 0 0 1-.661.7 1.805 1.805 0 0 1-.96.257 1.869 1.869 0 0 1-1.385-.571 1.927 1.927 0 0 1-.571-1.4 1.948 1.948 0 0 1 1.955-1.969 1.788 1.788 0 0 1 .96.257 1.738 1.738 0 0 1 .661.7v-.877zm-2.742 3.027a1.613 1.613 0 0 0 2.268 0 1.607 1.607 0 0 0-1.134-2.749 1.517 1.517 0 0 0-1.134.466 1.554 1.554 0 0 0-.466 1.141 1.6 1.6 0 0 0 .466 1.141z" transform="translate(-749.291 -222.742)" style="fill:#fff"/>
                <path data-name="Path 20242" d="M879.755 239.4a1.7 1.7 0 0 1 1.35.591 2.035 2.035 0 0 1 .515 1.4v.09c0 .042-.007.07-.007.09h-3.423a1.541 1.541 0 0 0 .508 1.023 1.743 1.743 0 0 0 1.886.2 1.277 1.277 0 0 0 .515-.5l.334.195a1.617 1.617 0 0 1-.668.626 2.062 2.062 0 0 1-.981.23 1.94 1.94 0 0 1-1.426-.557 2.08 2.08 0 0 1-.007-2.825 1.861 1.861 0 0 1 1.404-.563zm0 .362a1.487 1.487 0 0 0-1.072.4 1.576 1.576 0 0 0-.494 1.037h3.041a1.554 1.554 0 0 0-.48-1.051 1.392 1.392 0 0 0-.995-.386z" transform="translate(-816.747 -222.742)" style="fill:#fff"/>
            </g>
        </g>
    </g>
</svg>
