<svg data-name="Group 22933" xmlns="http://www.w3.org/2000/svg" width="16" height="16" viewBox="0 0 16 16">
    <g data-name="Group 21552">
        <path data-name="Path 11962" d="M8 16a8 8 0 1 0-8-8 8 8 0 0 0 8 8z" style="fill:#a149ff"/>
        <path data-name="Path 11964" d="M6.914 2.389a.608.608 0 0 0-.572 0l-1.333.787-.907.5-1.312.787a.608.608 0 0 1-.572 0l-1.026-.619a.581.581 0 0 1-.286-.5V2.151a.588.588 0 0 1 .286-.5l1.025-.6a.608.608 0 0 1 .572 0l1.025.62a.581.581 0 0 1 .286.5v.784l.906-.524v-.805a.588.588 0 0 0-.286-.5L2.813 0a.608.608 0 0 0-.573 0L.286 1.149A.524.524 0 0 0 0 1.622v2.245a.588.588 0 0 0 .286.5l1.931 1.122a.608.608 0 0 0 .572 0L4.1 4.726l.907-.526 1.312-.763a.608.608 0 0 1 .572 0l1.025.6a.581.581 0 0 1 .286.5v1.19a.588.588 0 0 1-.286.5l-1 .595a.608.608 0 0 1-.572 0l-1.025-.6a.581.581 0 0 1-.286-.5v-.758l-.906.525v.786a.588.588 0 0 0 .286.5L6.341 7.9a.608.608 0 0 0 .572 0l1.931-1.124a.581.581 0 0 0 .286-.5V4.01a.588.588 0 0 0-.286-.5z" transform="translate(3.435 4.262)" style="fill:#fdfdff"/>
    </g>
</svg>
