<svg xmlns="http://www.w3.org/2000/svg" width="83.132" height="14" viewBox="0 0 83.132 14">
    <path data-name="Path 20177" d="M24.452 37.14a1.924 1.924 0 0 0 1.382-.658.951.951 0 0 1 .118.5 1.705 1.705 0 0 1-.118.563l.027.04a2.728 2.728 0 0 0 1.711-.63 4.657 4.657 0 0 1 .053.887 3.509 3.509 0 0 1-7.015-.161h-.21a2.753 2.753 0 0 0-.132 1.274c-2.2.9-2.79 2.333-2.79 3.713h-1.33a6.1 6.1 0 0 1 .2-2.212 4.647 4.647 0 0 1 1.079-1.984l-.171-.188a7.578 7.578 0 0 0-1.606 1.8 6.881 6.881 0 0 1-1.842.456 4.126 4.126 0 0 1-1.921-.5 3.189 3.189 0 0 0 .461-1.582h-.263c-.526 2.185-2.606 2.547-3.5 2.708a1.238 1.238 0 0 0-1.07 1.324.924.924 0 0 0 .013.174h-.752a4.4 4.4 0 0 1-.039-.59 2.521 2.521 0 0 1 .224-1.22c.712-1.221 1.3-1.677 1.3-2.614a2.419 2.419 0 0 0-.737-1.649c.408-.068.553-.47.829-.9a2.488 2.488 0 0 1 2.145-1.1c.513 0 .816.067 1.329.067 2.356 0 3.54-2.721 6.409-2.721a3.248 3.248 0 0 1 3.251 3.069l.039.014a2.822 2.822 0 0 1 1.119-.791c0 .067-.013.146-.013.228.004 1.288.346 2.683 1.82 2.683zm-12.371 5.523h-1.2a2.8 2.8 0 0 1-.737-1.315 4.181 4.181 0 0 0 1.474-.965l.237.188a1.735 1.735 0 0 0-.224.871c.003.296.003.47.45 1.221zm7.2 0H18.2a3 3 0 0 1 1.026-2.587l.184.146a2.943 2.943 0 0 0-.277 1.327 3.666 3.666 0 0 0 .147 1.114z" transform="translate(-6.737 -29.914)" style="fill:#fff"/>
    <path data-name="Path 20178" d="M161.535 33.63V24.6h1.879v.957a3.371 3.371 0 0 1 1.156-.885 3.416 3.416 0 0 1 1.481-.325 3.8 3.8 0 0 1 1 .135l-.75 1.9a1.95 1.95 0 0 0-.7-.135 2.084 2.084 0 0 0-1.093.3 2.21 2.21 0 0 0-.795.786 2.1 2.1 0 0 0-.3 1.1v5.2zm15.4-5.663v5.663h-1.879v-5.2a2.1 2.1 0 0 0-.3-1.1 2.137 2.137 0 0 0-.786-.786 2.169 2.169 0 0 0-2.195 0 2.21 2.21 0 0 0-.795.786 2.1 2.1 0 0 0-.3 1.1v5.2h-1.88V20.081h1.879v5.474a3.371 3.371 0 0 1 1.156-.885 3.416 3.416 0 0 1 1.481-.325 3.509 3.509 0 0 1 1.825.488 3.615 3.615 0 0 1 1.3 1.31 3.508 3.508 0 0 1 .49 1.823zm2.526-3.369h1.879v9.032h-1.879zm.957-1.31a1 1 0 0 1-.722-.28.94.94 0 0 1-.289-.7.929.929 0 0 1 .289-.7.969.969 0 0 1 .714-.289.958.958 0 0 1 .7.289.929.929 0 0 1 .289.7.972.972 0 0 1-.985.985zm11.864 4.679v5.663H190.4v-5.2a2.1 2.1 0 0 0-.3-1.1 2.139 2.139 0 0 0-.786-.786 2.169 2.169 0 0 0-2.195 0 2.209 2.209 0 0 0-.795.786 2.1 2.1 0 0 0-.3 1.1v5.2h-1.879V24.6h1.879v.957a3.371 3.371 0 0 1 1.156-.885 3.416 3.416 0 0 1 1.481-.325 3.507 3.507 0 0 1 1.824.488 3.615 3.615 0 0 1 1.3 1.31 3.507 3.507 0 0 1 .493 1.821zm6.323 5.9a4.22 4.22 0 0 1-2.276-.641 4.914 4.914 0 0 1-.921-7.479 4.534 4.534 0 0 1 1.445-1.03 4.329 4.329 0 0 1 4.019.271 4.688 4.688 0 0 1 1.635 1.725 5 5 0 0 1 .262 4.245 4.9 4.9 0 0 1-.976 1.517 4.5 4.5 0 0 1-1.436 1.021 4.177 4.177 0 0 1-1.757.368zm0-1.879a2.371 2.371 0 0 0 1.346-.4 2.817 2.817 0 0 0 .94-1.048 3.07 3.07 0 0 0-.009-2.872 2.8 2.8 0 0 0-.948-1.048 2.342 2.342 0 0 0-1.328-.4 2.4 2.4 0 0 0-1.346.4 2.871 2.871 0 0 0-.948 1.057 3.064 3.064 0 0 0-.343 1.436 2.942 2.942 0 0 0 .361 1.454 2.891 2.891 0 0 0 .957 1.039 2.435 2.435 0 0 0 1.313.38zm7.3 1.879a.959.959 0 0 1-.7-.289.975.975 0 0 1-.28-.7.99.99 0 0 1 1.689-.7.948.948 0 0 1 .289.7.987.987 0 0 1-.993.994zm6.213-11.317v2.05h2.547v1.879h-2.547v7.151h-1.878v-7.154h-1.075V24.6h1.075v-2.05a2.576 2.576 0 0 1 .36-1.35 2.727 2.727 0 0 1 .966-.975 2.64 2.64 0 0 1 1.364-.361 2.7 2.7 0 0 1 1.057.217 2.583 2.583 0 0 1 .921.668l-1.346 1.328a.615.615 0 0 0-.28-.244.748.748 0 0 0-.352-.09.8.8 0 0 0-.578.235.774.774 0 0 0-.234.569zm4.664 2.05h1.879v9.03h-1.879zm.957-1.31a1 1 0 0 1-.722-.28.94.94 0 0 1-.289-.7.929.929 0 0 1 .289-.7.969.969 0 0 1 .713-.289.959.959 0 0 1 .7.289.929.929 0 0 1 .289.7.972.972 0 0 1-.985.985z" transform="translate(-135.592 -19.864)" style="fill:#fff"/>
</svg>
