<svg data-name="Group 34885" xmlns="http://www.w3.org/2000/svg" width="48" height="48" viewBox="0 0 48 48">
    <path data-name="Rectangle 17858" style="fill:none" d="M0 0h48v48H0z"/>
    <path data-name="Path 16928" d="M0 18.227c-.016-1.575.583-2.969 1.989-3.425l.035-.059a.788.788 0 0 1 .162-.216.837.837 0 0 1 .283-.135l.078-.03a22.754 22.754 0 0 0 11.66-8.819 28.793 28.793 0 0 0 1.736 8.939 25.37 25.37 0 0 0 4.78 8.573 19.583 19.583 0 0 0-8.964-.769 4.094 4.094 0 0 0-.3 1.366 1.05 1.05 0 0 0 .27.81l.066.059c.27.245.4.367.459.586a2.475 2.475 0 0 1-.035.869l-.024.181a.887.887 0 0 0 .664 1.116c.381.162.677.291.831.726a.184.184 0 0 1 0 .108 2.924 2.924 0 0 1-1.2 1.7c-.127.111-.257.221-.367.328h-.013c-1.058.847-1.772.621-2.316-.059a7.908 7.908 0 0 1-1-2.111l-.119-.328A33.168 33.168 0 0 1 7.6 23.562l-.092-.4c-.235.066-.48.138-.737.213-.324.094-.648.2-.969.3l-.1.038a.328.328 0 0 1-.359 0 3.484 3.484 0 0 1-4.083-1.598 6.748 6.748 0 0 1-.919-1.862A6.948 6.948 0 0 1 0 18.227zM23.7 4.343a.81.81 0 0 1-1.142-.162l-.019-.024a.823.823 0 0 1 .17-1.131c1.313-.969 2.618-1.946 3.93-2.893a.834.834 0 0 1 .6-.151.826.826 0 0 1 .54.328v.01a.81.81 0 0 1 .14.6.81.81 0 0 1-.328.54zm4.262 15.574a.82.82 0 0 1-.8-.829v-.019a.81.81 0 0 1 .829-.81c1.45 0 2.923.054 4.373.081a.825.825 0 0 1 .558 1.417.81.81 0 0 1-.583.232l-4.37-.084zm.125-4.241a.81.81 0 0 1-.877-.75v-.019a.829.829 0 0 1 .75-.871c1.349-.108 2.723-.224 4.076-.31a.826.826 0 0 1 .875.759.81.81 0 0 1-.2.6.831.831 0 0 1-.562.286 90.392 90.392 0 0 1-4.062.308zm-.587-3.938a.826.826 0 0 1-1.02-.57.81.81 0 0 1 .073-.621.837.837 0 0 1 .494-.394c1.406-.369 2.807-.823 4.213-1.2a.81.81 0 0 1 .621.073.817.817 0 0 1-.173 1.506l-4.208 1.2zm-1.7-3.865a.823.823 0 0 1-1.1-.373.81.81 0 0 1-.046-.629.834.834 0 0 1 .413-.478l4.05-2.022a.823.823 0 0 1 .734 1.473L25.8 7.873zM15.857 3.22c.035-.041.073-.078.108-.114a1.2 1.2 0 0 1 .4-.3.966.966 0 0 1 .54-.022A3.771 3.771 0 0 1 18.824 4a25.072 25.072 0 0 1 4.54 8.208c1.215 3.352 1.943 6.845 1.579 9.115a3.448 3.448 0 0 1-.893 1.979l-.024.019a1.523 1.523 0 0 1-.667.27.657.657 0 0 0-.066-.054 15.476 15.476 0 0 1-4.251-5.325 1.378 1.378 0 0 0 1.08-.562 3.959 3.959 0 0 0-1.4-6.281 3.661 3.661 0 0 0-2.3-.138l-.041.022c-.864-3.334-1.109-6.416-.532-8.035z" transform="translate(7.413 8.674)" style="fill:#f6f6f9;fill-rule:evenodd"/>
</svg>
