<svg data-name="Group 34892" xmlns="http://www.w3.org/2000/svg" width="48" height="48" viewBox="0 0 48 48">
    <path data-name="Rectangle 17858" style="fill:none" d="M0 0h48v48H0z"/>
    <path data-name="Subtraction 29" d="M14.737 23.414a1.032 1.032 0 0 1-.863-.452l-2.782-4.016H9.473A9.473 9.473 0 0 1 9.473 0h21.054a9.473 9.473 0 0 1 0 18.945H18.382L15.6 22.962a1.039 1.039 0 0 1-.863.452zm12.89-9.041-1.153.477a2.4 2.4 0 0 0 .556.775 2.715 2.715 0 0 0 .96.569 4.042 4.042 0 0 0 1.41.215 4.343 4.343 0 0 0 1.581-.272 2.284 2.284 0 0 0 1.529-2.3V6.794H31.2V7.91h-.1a4.461 4.461 0 0 0-.348-.5 1.876 1.876 0 0 0-.613-.493A2.149 2.149 0 0 0 29.1 6.7a2.678 2.678 0 0 0-1.483.424 2.845 2.845 0 0 0-1.033 1.2 4.362 4.362 0 0 0-.374 1.884 4.1 4.1 0 0 0 .377 1.851 2.714 2.714 0 0 0 1.037 1.141 2.876 2.876 0 0 0 1.47.381 2.294 2.294 0 0 0 1.026-.2 1.893 1.893 0 0 0 .619-.467 2.815 2.815 0 0 0 .351-.49h.087v1.356a1.363 1.363 0 0 1-.5 1.175 2.042 2.042 0 0 1-1.257.374 2.237 2.237 0 0 1-.911-.159 1.675 1.675 0 0 1-.56-.381 3.052 3.052 0 0 1-.321-.417zM21.807 6.7a3.171 3.171 0 0 0-1.693.447 3.029 3.029 0 0 0-1.122 1.245 4.212 4.212 0 0 0-.4 1.877 4.162 4.162 0 0 0 .4 1.864 3.032 3.032 0 0 0 1.122 1.241 3.418 3.418 0 0 0 3.38 0 2.977 2.977 0 0 0 1.123-1.241 4.116 4.116 0 0 0 .4-1.864 4.166 4.166 0 0 0-.4-1.877 2.977 2.977 0 0 0-1.123-1.245 3.148 3.148 0 0 0-1.687-.447zm-6.05-2.2v9.188H17.1V4.5zM7.6 4.5v9.188h3.519a4.17 4.17 0 0 0 1.755-.324 2.279 2.279 0 0 0 1.014-.884 2.443 2.443 0 0 0 .331-1.265A2.389 2.389 0 0 0 13.933 10a2.107 2.107 0 0 0-.725-.765 1.844 1.844 0 0 0-.894-.3v-.088a2.548 2.548 0 0 0 .774-.341 1.719 1.719 0 0 0 .564-.629 2.018 2.018 0 0 0 .212-.967 2.388 2.388 0 0 0-.317-1.225 2.222 2.222 0 0 0-.96-.864 3.527 3.527 0 0 0-1.624-.321zm14.21 8.2a1.643 1.643 0 0 1-1.05-.334 1.975 1.975 0 0 1-.613-.884 3.58 3.58 0 0 1-.2-1.215 3.542 3.542 0 0 1 .2-1.212 2 2 0 0 1 .613-.891 1.624 1.624 0 0 1 1.05-.338 1.593 1.593 0 0 1 1.043.338 1.98 1.98 0 0 1 .609.891 3.746 3.746 0 0 1 0 2.427 1.968 1.968 0 0 1-.609.884 1.609 1.609 0 0 1-1.043.334zm-10.824-.2h-2V9.552h2.049a1.993 1.993 0 0 1 .965.215 1.548 1.548 0 0 1 .63.579 1.529 1.529 0 0 1 .219.8 1.247 1.247 0 0 1-.432.963 2.112 2.112 0 0 1-1.43.391zm18.4-.03a1.681 1.681 0 0 1-1-.285 1.761 1.761 0 0 1-.61-.8 3.155 3.155 0 0 1-.2-1.189 3.424 3.424 0 0 1 .2-1.2 1.933 1.933 0 0 1 .612-.844 1.789 1.789 0 0 1 2-.013 1.827 1.827 0 0 1 .6.828 3.334 3.334 0 0 1 .209 1.225 3.194 3.194 0 0 1-.211 1.222 1.69 1.69 0 0 1-.61.781 1.723 1.723 0 0 1-.987.271zm-18.545-4H8.987V5.675h1.894a1.714 1.714 0 0 1 1.225.387 1.278 1.278 0 0 1 .4.954 1.325 1.325 0 0 1-.222.771 1.5 1.5 0 0 1-.6.5 1.925 1.925 0 0 1-.84.183z" transform="translate(4 12.5)" style="fill:#f6f6f9"/>
</svg>
