<svg xmlns="http://www.w3.org/2000/svg" width="64" height="64" viewBox="0 0 64 64">
    <g data-name="Group 14427">
        <path data-name="Rectangle 17858" style="fill:none" d="M0 0h64v64H0z"/>
        <path d="M4.628 9.7h35.545v16.067H4.628zm3.508 11.843v-8h4.151a2.4 2.4 0 0 1 1.642.452 1.664 1.664 0 0 1 .5 1.3 2.366 2.366 0 0 1-.316 1.326 1.433 1.433 0 0 1-.837.606v.073q1.546.268 1.55 2.112a2.255 2.255 0 0 1-.514 1.543 1.983 1.983 0 0 1-1.572.584zm3.564-3.177h-1v1.3h.988c.367 0 .536-.217.536-.65s-.18-.65-.524-.65zm-.191-3.06H10.7V16.5h.8q.485 0 .485-.6t-.474-.6zm9.62 6.244H16v-8.011h2.571v5.954h2.571v2.05zm.61-4a4.991 4.991 0 0 1 .819-3.192 3.635 3.635 0 0 1 2.957-1.006 3.573 3.573 0 0 1 2.939 1.006 5.148 5.148 0 0 1 .819 3.192 8.323 8.323 0 0 1-.173 1.837 3.427 3.427 0 0 1-.6 1.293 2.417 2.417 0 0 1-1.164.8 5.679 5.679 0 0 1-1.837.257 5.66 5.66 0 0 1-1.837-.257 2.384 2.384 0 0 1-1.164-.8 3.306 3.306 0 0 1-.6-1.293 8.107 8.107 0 0 1-.173-1.837zm2.751-1.33v3.328h1.062a1.785 1.785 0 0 0 .764-.121c.158-.081.235-.268.235-.558v-3.332H25.47a1.734 1.734 0 0 0-.735.121c-.158.081-.235.268-.235.558zm10.079 2.961v-.341h-.65V16.9H37v4.261a8.816 8.816 0 0 1-3.152.577 3.581 3.581 0 0 1-3.008-1.062 3.306 3.306 0 0 1-.588-1.293 8.639 8.639 0 0 1-.165-1.837 8.081 8.081 0 0 1 .173-1.837 3.111 3.111 0 0 1 .621-1.286q.845-1.076 3.262-1.076a10.381 10.381 0 0 1 1.3.1 6.612 6.612 0 0 1 1.172.231l-.386 1.958a11.3 11.3 0 0 0-1.873-.18 3.78 3.78 0 0 0-1.179.129.5.5 0 0 0-.338.514v3.625h.845a1.756 1.756 0 0 0 .672-.1c.14-.066.209-.213.209-.444zM3.056 0H42.08a3.063 3.063 0 0 1 3.056 3.056v28.97a3.067 3.067 0 0 1-3.056 3.056H3.056A3.063 3.063 0 0 1 0 32.026V3.056A3.063 3.063 0 0 1 3.056 0zm40.287 7.383h-41.4v24.941a.841.841 0 0 0 .845.845h39.67a.841.841 0 0 0 .845-.845V7.383zM39.17 2.652a1.51 1.51 0 1 1-1.51 1.51 1.51 1.51 0 0 1 1.51-1.51zm-10.226 0a1.51 1.51 0 1 1-1.51 1.51 1.51 1.51 0 0 1 1.51-1.51zm5.113 0a1.51 1.51 0 1 1-1.51 1.51 1.51 1.51 0 0 1 1.51-1.51zm-9.5 28.474a1.289 1.289 0 0 1 0-2.571h14.569a1.289 1.289 0 0 1 0 2.571zm-19.053 0a1.293 1.293 0 0 1 0-2.571H19a1.293 1.293 0 0 1 0 2.571z" transform="translate(9.432 14.459)" />
    </g>
</svg>
