<svg xmlns="http://www.w3.org/2000/svg" width="64" height="64"><g data-name="Group 13719" fill="#fff"><path data-name="Path 6139" d="M26.829 10.393a26.306 26.306 0 0 1 8.517-.4 39.9 39.9 0 0 1 5.243 1.367 21.093 21.093 0 0 1 12.645 13.462c2.729 8.55.965 16.365-5.422 22.741-6.13 6.121-13.627 7.967-22 5.658a22.654 22.654 0 0 1-15.4-16.4 22.151 22.151 0 0 1 16.412-26.426zM15.343 43.667a49.526 49.526 0 0 0 1.458-5.283c.47-2.9.627-5.841 1.083-8.739a11.791 11.791 0 0 1 1.295-4.1c1.927-3.272 8.059-5.731 11.772-4.837a5.512 5.512 0 0 0 1.866-.082c2.01-.241 3.782-.188 4.992 1.618a3.035 3.035 0 0 0 1.3 1.109c2.126.833 4.346 1.442 6.428 2.368 3.478 1.547 4.074 4.655 1.51 7.478-1.3 1.436-2.728 2.763-4.086 4.152-3.091 3.163-5.891 6.534-7 10.945a24.989 24.989 0 0 0-.365 3.813 20.345 20.345 0 0 0 16.886-16.5c1.8-10.233-3.648-19.45-13.541-23.223-8.442-3.219-19.175.43-24.1 8.061-5.26 8.166-3.811 17.841.502 23.221zm13.921-20.824a3.993 3.993 0 1 0-.078 7.985 4.016 4.016 0 0 0 4.105-3.98 3.909 3.909 0 0 0-4.027-4.004z"/><path data-name="Path 6140" d="M29.216 29.535a2.694 2.694 0 1 0-.106-5.386 2.694 2.694 0 1 0 .106 5.386z"/><path data-name="Path 6141" d="M29.216 29.535a2.694 2.694 0 1 1-.106-5.386 2.694 2.694 0 1 1 .106 5.386z"/></g><path data-name="Rectangle 17858" fill="none" d="M0 0h64v64H0z"/></svg>