<svg data-name="Group 34888" xmlns="http://www.w3.org/2000/svg" width="48" height="48" viewBox="0 0 48 48">
    <path data-name="Rectangle 17858" style="fill:none" d="M0 0h48v48H0z"/>
    <path d="M27.936 2.149A26.622 26.622 0 0 0 21.219 0a.1.1 0 0 0-.108.053c-.29.532-.611 1.226-.836 1.771a24.38 24.38 0 0 0-7.544 0 18.152 18.152 0 0 0-.85-1.77.1.1 0 0 0-.108-.054 26.549 26.549 0 0 0-6.717 2.149.1.1 0 0 0-.044.039A29.389 29.389 0 0 0 .136 21.55a.117.117 0 0 0 .043.08 27.06 27.06 0 0 0 8.24 4.294.1.1 0 0 0 .116-.039 20.283 20.283 0 0 0 1.686-2.827.109.109 0 0 0-.057-.15 17.769 17.769 0 0 1-2.574-1.265.111.111 0 0 1-.01-.181c.173-.133.346-.273.511-.413a.1.1 0 0 1 .107-.015 18.988 18.988 0 0 0 16.584 0 .1.1 0 0 1 .108.014c.165.14.338.281.513.414a.111.111 0 0 1-.009.181 16.671 16.671 0 0 1-2.576 1.263.11.11 0 0 0-.056.151 22.779 22.779 0 0 0 1.684 2.825.1.1 0 0 0 .116.041 26.969 26.969 0 0 0 8.253-4.294.11.11 0 0 0 .043-.078A29.186 29.186 0 0 0 27.979 2.19a.084.084 0 0 0-.043-.041zM11.028 17.686a3.233 3.233 0 0 1-2.966-3.429 3.215 3.215 0 0 1 2.966-3.429 3.2 3.2 0 0 1 2.966 3.429 3.215 3.215 0 0 1-2.966 3.429zm10.965 0a3.233 3.233 0 0 1-2.966-3.429 3.215 3.215 0 0 1 2.966-3.429 3.2 3.2 0 0 1 2.966 3.429 3.207 3.207 0 0 1-2.966 3.429z" transform="translate(7.5 10.5)" style="fill:#f6f6f9"/>
</svg>
