<svg xmlns="http://www.w3.org/2000/svg" width="64" height="64"><g data-name="Group 14423"><g fill="#fff"><path data-name="Path 5741" d="M27.648 29.978a2.678 2.678 0 1 0 2.452 2.669 2.562 2.562 0 0 0-2.452-2.669zm8.776 0a2.678 2.678 0 1 0 2.452 2.669 2.562 2.562 0 0 0-2.452-2.669z"/><path data-name="Path 5742" d="M48.109 9.806H15.891a4.941 4.941 0 0 0-4.929 4.953v32.507a4.941 4.941 0 0 0 4.929 4.953h27.265l-1.274-4.448 3.078 2.861 2.909 2.693 5.168 4.568V14.759a4.941 4.941 0 0 0-4.928-4.953zm-9.28 31.4s-.866-1.034-1.587-1.948a7.587 7.587 0 0 0 4.352-2.861 13.759 13.759 0 0 1-2.765 1.419 15.825 15.825 0 0 1-3.486 1.034 16.843 16.843 0 0 1-6.227-.024 20.183 20.183 0 0 1-3.534-1.034 14.09 14.09 0 0 1-1.755-.817c-.072-.048-.144-.072-.216-.12a.333.333 0 0 1-.1-.072c-.433-.24-.673-.409-.673-.409a7.478 7.478 0 0 0 4.208 2.837c-.721.914-1.611 2-1.611 2a8.717 8.717 0 0 1-7.333-3.655 32.2 32.2 0 0 1 3.462-14.017 11.89 11.89 0 0 1 6.758-2.533l.24.289a16.22 16.22 0 0 0-6.323 3.15s.529-.289 1.419-.7a18.056 18.056 0 0 1 5.458-1.515 2.368 2.368 0 0 1 .409-.048 20.344 20.344 0 0 1 4.857-.048 19.6 19.6 0 0 1 7.237 2.308 16 16 0 0 0-5.987-3.054l.337-.385a11.89 11.89 0 0 1 6.756 2.525 32.2 32.2 0 0 1 3.462 14.017 8.789 8.789 0 0 1-7.358 3.661z"/></g><path data-name="Rectangle 17858" fill="none" d="M0 0h64v64H0z"/></g></svg>