<svg xmlns="http://www.w3.org/2000/svg" width="64" height="64"><g data-name="Group 14424"><path data-name="Subtraction 6" d="M49.934 46.578H35.812v-.605l2.91-2.82c.285-.29.285-.369.285-.809V25.982l-8.081 20.533h-1.1l-9.407-20.533v13.76a1.882 1.882 0 0 0 .522 1.578l3.779 4.59v.6H14v-.6l3.781-4.59a1.85 1.85 0 0 0 .488-1.578V23.83a1.4 1.4 0 0 0-.453-1.176l-3.363-4.049V18h10.435l8.071 17.69L40.052 18H50v.605l-2.872 2.753a.838.838 0 0 0-.321.805v20.248a.841.841 0 0 0 .321.809l2.806 2.753v.6z" fill="#fff"/><path data-name="Rectangle 17858" fill="none" d="M0 0h64v64H0z"/></g></svg>