<svg data-name="Group 34891" xmlns="http://www.w3.org/2000/svg" width="48" height="48" viewBox="0 0 48 48">
    <path data-name="Rectangle 17858" style="fill:none" d="M0 0h48v48H0z"/>
    <path data-name="Subtraction 6" d="M29.945 23.815H18.177v-.5l2.425-2.35c.238-.242.238-.308.238-.674V6.652l-6.735 17.11h-.917L5.349 6.652v11.466a1.568 1.568 0 0 0 .435 1.315l3.149 3.825v.5H0v-.5l3.151-3.825a1.541 1.541 0 0 0 .407-1.315V4.858a1.167 1.167 0 0 0-.377-.98L.377.5V0h8.7L15.8 14.742 21.71 0H30v.5l-2.393 2.3a.7.7 0 0 0-.268.671v16.871a.7.7 0 0 0 .268.674l2.338 2.294v.5z" transform="translate(9.447 12)" style="fill:#f6f6f9"/>
</svg>
