<svg xmlns="http://www.w3.org/2000/svg" width="64" height="64"><g data-name="Group 14422"><path data-name="Rectangle 17858" fill="none" d="M0 0h64v64H0z"/><g fill="#fff" data-name="Group 14098"><path data-name="Path 6390" d="M40.399 41.515a1.529 1.529 0 0 0-.831-.255 1.3 1.3 0 0 0-.719.218 13.963 13.963 0 0 1-7.092 1.96 12.185 12.185 0 0 1-5.378-1.214l-.008-.005h-.009a5.964 5.964 0 0 1-.853-.532 3.182 3.182 0 0 0-.511-.281 1.535 1.535 0 0 0-.6-.132 1.343 1.343 0 0 0-.553.124l-.028.011a1.341 1.341 0 0 0-.666.558 1.612 1.612 0 0 0-.039 1.584 1.358 1.358 0 0 0 .55.551 14.266 14.266 0 0 0 8.035 2.342 17.536 17.536 0 0 0 7.395-1.664l.013-.008.011-.006c.3-.179.7-.338 1.078-.571a2.371 2.371 0 0 0 .525-.435 1.63 1.63 0 0 0 .353-.656 1.34 1.34 0 0 0 .044-.337 1.379 1.379 0 0 0-.138-.595 1.626 1.626 0 0 0-.579-.657zm15.59-11.41c.008.1.01.208.01.313a5.916 5.916 0 0 1-1 3.238 6.509 6.509 0 0 1-2.309 2.14 11.032 11.032 0 0 1 .093 1.4 11.569 11.569 0 0 1-2.375 6.956c-2.785 3.707-7.064 5.892-11.385 6.995a29.97 29.97 0 0 1-7.054.845 27.921 27.921 0 0 1-10.38-1.962 17.936 17.936 0 0 1-8.685-6.937 11.312 11.312 0 0 1-1.667-5.877 10.692 10.692 0 0 1 .094-1.4 6.691 6.691 0 0 1-2.26-2.085 6.143 6.143 0 0 1-1.061-3.145v-.018a6.159 6.159 0 0 1 1.777-4.232 5.815 5.815 0 0 1 4.137-1.848h.066c.164-.011.333-.018.5-.018a6.541 6.541 0 0 1 2.347.419h.005a7.87 7.87 0 0 1 1.859 1.055 5.561 5.561 0 0 1 .616-.292 25.126 25.126 0 0 1 11.422-3.073 12.626 12.626 0 0 1 1.221-5.763 6 6 0 0 1 3.8-3.033H35.774a9.826 9.826 0 0 1 1.872-.176 13.092 13.092 0 0 1 4.832 1.006 5.983 5.983 0 0 1 2.786-2.273l.011-.006h.01a7.035 7.035 0 0 1 2.081-.33 5.394 5.394 0 0 1 2.2.451.052.052 0 0 0 .015.005 5.339 5.339 0 0 1 2.472 2 5.533 5.533 0 0 1 .964 3.08 5.142 5.142 0 0 1-.036.613.031.031 0 0 1 0 .011 5.362 5.362 0 0 1-1.867 3.578 5.751 5.751 0 0 1-3.737 1.441 5.087 5.087 0 0 1-.662-.042 5.553 5.553 0 0 1-3.559-1.74 5.373 5.373 0 0 1-1.537-3.691c0-.069.008-.138.01-.206a10.022 10.022 0 0 0-3.978-1.039 5.687 5.687 0 0 0-.585.031 3.045 3.045 0 0 0-2.4 1.645 10.039 10.039 0 0 0-.847 4.471 25.7 25.7 0 0 1 11.164 3.14h.005l.049.028c.064.038.184.1.292.162a6.689 6.689 0 0 1 .765-.554 6.287 6.287 0 0 1 3.484-1.03 6.534 6.534 0 0 1 1.617.2l.021.007h.021a6.457 6.457 0 0 1 3.227 2 6.145 6.145 0 0 1 1.532 3.521zm-11.387-12.65c0 .052 0 .106.006.16v.009a2.6 2.6 0 0 0 .824 1.758 2.636 2.636 0 0 0 1.78.75H47.369a2.677 2.677 0 0 0 1.8-.743 2.594 2.594 0 0 0 .841-1.769v-.008c.005-.051.006-.1.006-.154a2.613 2.613 0 0 0-.836-1.853 2.75 2.75 0 0 0-1.867-.8 2.169 2.169 0 0 0-.644.1l-.003-.019h-.006a2.846 2.846 0 0 0-1.452.942 2.525 2.525 0 0 0-.605 1.626zm-28.536 10.36a3.774 3.774 0 0 0-1.579-.409c-.089 0-.177.006-.267.014h-.026a3.3 3.3 0 0 0-2.1.882 2.915 2.915 0 0 0-.984 2.027v.015q-.008.095-.008.188a2.708 2.708 0 0 0 .4 1.379 3.757 3.757 0 0 0 .708.86 14.782 14.782 0 0 1 3.856-4.956zm33.674 9.492a8.464 8.464 0 0 0-1.634-4.866 16.125 16.125 0 0 0-8.39-5.649l-.023-.008q-.936-.288-1.889-.506a26.294 26.294 0 0 0-13.521.511 16.157 16.157 0 0 0-8.4 5.659 8.434 8.434 0 0 0-1.616 4.884 7.3 7.3 0 0 0 .249 1.9 9.454 9.454 0 0 0 2.007 3.727 14.4 14.4 0 0 0 3.256 2.772c.264.163.53.32.8.472a23.462 23.462 0 0 0 11.432 2.786c.671 0 1.346-.023 2.012-.071a21.817 21.817 0 0 0 11.249-3.919 12.7 12.7 0 0 0 2.745-2.738 8.869 8.869 0 0 0 1.562-3.5 7 7 0 0 0 .165-1.454zm3.151-6.883a2.565 2.565 0 0 0-.306-1.227l-.006-.006v-.006a3 3 0 0 0-1.256-1.315 3.706 3.706 0 0 0-3.405-.075 15.067 15.067 0 0 1 3.878 4.981 3.246 3.246 0 0 0 .721-.9 3.11 3.11 0 0 0 .378-1.452z"/><g data-name="Group 14095"><path data-name="Path 6391" d="M42.317 33.784a2.638 2.638 0 0 1 .181.968 3.085 3.085 0 0 1-.606 1.808 2.883 2.883 0 0 1-1.531 1.086h-.022a2.742 2.742 0 0 1-.89.147 3.164 3.164 0 0 1-1.932-.68 2.907 2.907 0 0 1-1.084-1.769.018.018 0 0 0 0-.008.024.024 0 0 0 0-.008 2.649 2.649 0 0 1-.061-.56 3.013 3.013 0 0 1 .568-1.735 2.982 2.982 0 0 1 1.434-1.095h.005a2.93 2.93 0 0 1 1.022-.183 3.188 3.188 0 0 1 1.765.537 2.867 2.867 0 0 1 1.142 1.466.033.033 0 0 0 0 .012.013.013 0 0 0 0 .009z"/><path data-name="Path 6392" d="M23.609 37.638a.033.033 0 0 1 .014 0 2.715 2.715 0 0 0 .932.165 3.167 3.167 0 0 0 2.1-.836 2.835 2.835 0 0 0 .961-2.094v-.19a2.859 2.859 0 0 0-.951-2.094 3.131 3.131 0 0 0-2.1-.843 2.817 2.817 0 0 0-.629.073h-.011a3.051 3.051 0 0 0-2.272 2.037 2.794 2.794 0 0 0-.141.882 3.116 3.116 0 0 0 .581 1.793 2.876 2.876 0 0 0 1.5 1.1.011.011 0 0 1 .016.007z"/></g></g></g></svg>