<svg xmlns="http://www.w3.org/2000/svg" width="64" height="64"><g data-name="Group 14426"><path d="M42.326 48.047a1.923 1.923 0 0 0 1.79.235 1.877 1.877 0 0 0 1.176-1.359c1.4-6.605 4.811-23.324 6.09-29.333a1.263 1.263 0 0 0-.421-1.226 1.3 1.3 0 0 0-1.289-.226c-6.78 2.51-27.667 10.346-36.203 13.505a1.33 1.33 0 0 0 .082 2.528c3.828 1.145 8.854 2.738 8.854 2.738s2.348 7.092 3.573 10.7a1.417 1.417 0 0 0 .975.932 1.4 1.4 0 0 0 1.312-.335l5.007-4.728s5.777 4.236 9.054 6.57zM24.519 34.013l2.716 8.957.6-5.672 16.476-14.857a.449.449 0 0 0 .053-.61.46.46 0 0 0-.608-.1L24.519 34.013z" fill="#fff" fill-rule="evenodd"/><path data-name="Rectangle 17858" fill="none" d="M0 0h64v64H0z"/></g></svg>