<svg xmlns="http://www.w3.org/2000/svg" width="64" height="64"><g data-name="Group 13609"><path d="M25.009 46.772c14.126 0 21.85-11.7 21.85-21.85 0-.332 0-.664-.021-.993a15.626 15.626 0 0 0 3.831-3.976 15.33 15.33 0 0 1-4.409 1.21 7.709 7.709 0 0 0 3.374-4.249 15.389 15.389 0 0 1-4.877 1.864 7.686 7.686 0 0 0-13.085 7 21.8 21.8 0 0 1-15.829-8.02 7.686 7.686 0 0 0 2.372 10.254 7.623 7.623 0 0 1-3.46-.964v.1a7.683 7.683 0 0 0 6.148 7.529 7.668 7.668 0 0 1-3.47.13 7.689 7.689 0 0 0 7.176 5.337 15.419 15.419 0 0 1-9.54 3.277 15.631 15.631 0 0 1-1.832-.106 21.74 21.74 0 0 0 11.772 3.448" fill="#fff"/><path data-name="Rectangle 17858" fill="none" d="M0 0h64v64H0z"/></g></svg>