<svg xmlns="http://www.w3.org/2000/svg" width="64" height="64"><g data-name="Group 14425"><g data-name="Group 14421"><path data-name="Subtraction 11" d="M32.2 48.636c-.037 0-3.762 0-7.894-.124a149.09 149.09 0 0 1-6.21-.294 27.829 27.829 0 0 1-4.464-.573 5.966 5.966 0 0 1-4.209-4.205 36.361 36.361 0 0 1-.867-7.11c-.124-2.367-.124-4.312-.124-4.332s0-1.961.124-4.335a39.958 39.958 0 0 1 .867-7.11 5.972 5.972 0 0 1 4.209-4.201 27.805 27.805 0 0 1 4.464-.572c1.693-.123 3.782-.217 6.211-.293 4.131-.124 7.856-.124 7.893-.124s3.764 0 7.9.124c2.429.072 4.518.171 6.211.294a27.722 27.722 0 0 1 4.465.572 5.968 5.968 0 0 1 4.205 4.205 36.361 36.361 0 0 1 .867 7.11c.122 2.37.124 4.312.124 4.331s0 1.961-.124 4.331a39.958 39.958 0 0 1-.867 7.11 5.967 5.967 0 0 1-4.205 4.205 27.712 27.712 0 0 1-4.465.573c-1.692.123-3.782.222-6.211.294-4.135.122-7.863.124-7.9.124zm-4.749-23.773V39.13L39.8 31.999l-12.349-7.136z" fill="#fff"/></g><path data-name="Rectangle 17858" fill="none" d="M0 0h64v64H0z"/></g></svg>